<svg fill="none"
  xmlns="http://www.w3.org/2000/svg" viewBox="0 0 86 83">
  <path fill="#272324" d="M56.24 66.45c-3.88-1.58-5.78-3.52-6.8-5.06-.53-.8-1.16-2.01-2.6-4.08-1-1.4-1.27-1.65-1.94-2.77-.3-.5-.61-1.06-1.18-1.76a11.1 11.1 0 0 0-1.23-1.31 54.62 54.62 0 0 0 3.06 1.44l1.32.54c.9.38 1.12.47 1.5.56.44.1.77.18 1.21.1.17-.03.57-.1.96-.41.46-.36.63-.81.72-1.03.12-.34.15-.63.18-.94.04-.35 0-.38.04-.92.04-.48.08-.7.1-.82.07-.3.1-.45.2-.62.04-.08.24-.43.63-.62.33-.16.5-.04.74-.26.14-.13.22-.3.25-.36.1-.22.1-.4.1-.46s0-.18-.05-.32a1.01 1.01 0 0 0-.26-.4 1.1 1.1 0 0 0-.53-.26c-.73-.17-1.05.03-1.46-.24-.1-.06-.25-.18-.22-.23.02-.06.18-.03.4-.01.34.02.67 0 1 .01l.61.01c.4.04.5.1.96.14.51.05.61 0 .67-.03.25-.15.32-.47.35-.58.04-.23 0-.33-.1-.9-.07-.47-.1-.71-.08-.9.02-.1.08-.5.36-.81.19-.2.32-.2 1.1-.5.45-.18.74-.3.97-.42.45-.23.67-.35.78-.52.28-.45.07-1.05.03-1.14a4.47 4.47 0 0 0-.57-.9c-.17-.23-.2-.26-.3-.42-.1-.14-.32-.44-.6-1.01-.3-.6-.62-1.24-.88-2.05a10.27 10.27 0 0 1-.47-3.41c.05-1.38.4-2.41.67-3.2.3-.88.38-.8.82-1.98.5-1.34.75-2.34.92-3.06 0 0 .36-1.5.34-2.66v-.11c-.03-1.45.02-1.7 0-2.32-.05-1.04-.23-1.4-.1-1.47.21-.1.77.66 1.18 1.23.4.55.67 1 .72 1.1.8 1.36 1.19 2.06 1.48 2.6a18.66 18.66 0 0 1 2.52 7.2c.28 2.04.15 3.63.02 5.14-.2 2.16-.52 3.35-.46 3.37.11.02 1.16-2.9 1.42-6.55a24.77 24.77 0 0 0-1.92-11.45c-.62-1.52-1.22-2.57-3.27-5.87-3.76-6.06-4.29-6.6-4.18-6.7.43-.39 10.2 6.19 13.14 17.3a30.2 30.2 0 0 1 .5 12.23 32.81 32.81 0 0 1-3.5 10.49c-2.7 5.01-4.86 5.68-7.08 10.5a26.54 26.54 0 0 0-2.2 7.88Z" stroke="#272324" stroke-width=".32" stroke-miterlimit="10"/>
  <path fill="#272324" d="M22.6 49.73c1.1 15.82 5.89 23.44 16.47 25.43-6.22-3.08-10.58-6.84-12.55-13.08-1.86-5.92-2.29-11.81.64-18.8.49 3.52.74 5.88 1.15 8.22 2.38 13.9 13.58 21.26 25.92 16.67 5.07-1.89 9.83-4.75 14.72-7.2 4.6-2.3 11.13-4.31 16.55-2.97-9.69 2.55-16.78 12.02-24.54 17.47-10.6 7.44-21.46 10.81-33.16 3.06-9.06-6-11.99-18.33-6.61-27.09.26-.42.63-.78 1.4-1.7Z"/>
  <path fill="#272324" d="M25.8 28.74c.43-.23 1.16-.6 1.34-.4.28.3-.88 1.8-1.92 2.86-2.1 2.16-3.46 2.19-7.26 5a11.03 11.03 0 0 0-2.58 2.47 9.13 9.13 0 0 0-1.42 2.85 8.42 8.42 0 0 0 .17 4.93c.06-1.05.3-2.7 1.25-4.45a12.68 12.68 0 0 1 3.76-4.13c1.87-1.44 2.42-1.26 6.09-3.65a12.1 12.1 0 0 0 2.58-1.98c1.9-2.07 1.95-4.1 2.26-4.06.49.08.7 5.43-1.65 10.97-.84 1.97-1.17 2.74-6.05 9.1-5.9 7.69-8.92 11-6.77 20.4.09.4.08.55.03.57-.1.04-.34-.28-.42-.38-1.54-2.03-4.53-4.08-6.51-8.88A25.14 25.14 0 0 1 7.03 49.4c.01-.18.2-2.78.92-5.16 2.21-7.21 8.97-10.79 17.86-15.5ZM19.6 9.23c8.78-9.86 21.68-12.24 30.77-5.1h-11.3c7.16 1.09 15.3-.6 18.46 9.3-3.76-4.73-5.86-5.54-11.14-3.06-5.97 2.8-11.97 2.65-18.1 1.02-2.82-.75-5.66-1.41-8.68-2.16ZM4.7 48.74c-7.02-8.01-6.13-21.3 2.38-29.56-1.09 4.25-1.53 9.76-2.48 13.52 1.77-4.02 2.99-9.75 5.08-14.48 2.94 5.94 2.33 11.07.53 16.12-1.7 4.77-3.61 9.45-5.52 14.4ZM34.9 54.15c.21-.06-.93-3.23-1.34-7.54-.13-1.4-.58-6.12.59-6.44.44-.12 1.03.43 1.67 1.26 5.75 7.4 2.92 19.96 2.73 20.75-.14.62-.56 2.3-1.06 2.3-.32 0-.51-.69-.79-1.34-.79-1.84-2.01-2.73-2.8-3.58-2.37-2.57-3.13-6.46-3.58-8.7a25.3 25.3 0 0 1-.43-6.48c.11-2.23.47-4.02.67-4.92.34-1.53.42-1.28 1-3.56.65-2.58.98-3.9.92-5.5-.02-.48-.1-2.16-.08-2.16.33 1.1 1.3 4.45 1.2 5.56-.46 4.42-1.13 6.5-1.38 10.61-.09 1.35-.1 2.53.27 3.94.2.8.58 1.7 1.35 3.5.64 1.55.97 2.33 1.07 2.3ZM51.38 34.9l-.62-1.15a.93.93 0 0 0 .45-.6l.9.53-.45-.65 1.3.84-.2-.48 1.02-.03-.4-.26.63-.25a6.42 6.42 0 0 1-1.24-.28c-.22-.09-.42-.18-.56-.38-.13-.2-.14-.42-.12-.87 0-.29.04-.57.06-.86l.08-.8a2.62 2.62 0 0 0-.3.85c-.06.27-.07.49-.14 1.1-.02.13-.03.24-.12.3-.1.09-.26.08-.4.07l-.18-.03c-.38-.08-1.9-.1-1.9-.1a6.1 6.1 0 0 1-1.95-.38c.14.18.26.4.44.53.76.57 1.31.98 1.73 1.21a6.5 6.5 0 0 1 1.97 1.69Zm-4.52-8.88c.85.08 1.67.14 2.48.26a9.1 9.1 0 0 1 3.71 1.42l.07.05c.25.17.48.17.65-.11.16-.27.02-.46-.2-.6a8.64 8.64 0 0 0-3.7-1.34 5.91 5.91 0 0 0-2.54.1 3.9 3.9 0 0 0-.35.12c-.04.01-.07.05-.12.1Zm6.89 14.49 1.51-.3a1.27 1.27 0 0 0-1.15-.1c-.18.05-.3.24-.46.37l.1.03Z"/>
  <path fill="url(#a)" d="M10.76 15.47c.47-.2 1.94-.73 3.74-.24a5.85 5.85 0 0 1 2.72 1.65v-.06c-.85-4.76-8.36-3.84-10.48-3.37.53.96 1.53 2.43 3.28 3.6.92.6 2.94 1.95 5.38 1.52.8-.13 1.42-.42 1.83-.65a6.68 6.68 0 0 0-6.47-2.45Z"/>
  <path fill="url(#b)" d="M19.04 14.59c.74.83 1.29 1.46 3.2 2.35h-.02l-.03.02c-.01 0-3.25.15-5.2-2.38a6.72 6.72 0 0 1-1.15-5.09 7.36 7.36 0 0 1 5.1 1.52c.35.27 2.67 2.16 2.4 4.52-.05.41-.17.75-.27.98a10.95 10.95 0 0 1-4.03-1.92Z"/>
  <path fill="url(#c)" d="M19.18 20.9c.88-.93 1.66-2.17 4.1-3.06l-.08-.03c-.98-.34-2.35-.2-2.35-.2a8.88 8.88 0 0 0-3.63 1.21 7.8 7.8 0 0 0-3.16 4.51c.8.46 2.25 1.12 4.13 1.19.8.02 3.08.1 4.95-1.44.37-.3 2.22-1.83 1.86-3.53a2.3 2.3 0 0 0-.59-1.1c-2.29.24-4.26 1.87-5.23 2.46Z"/>
  <path fill="url(#d)" d="M50.29 13.92c.94.22 1.64.38 3.7-.06l-.03.03-.02.02c-.01.01-.85.8-1.16 1-.6.4-1.69.36-2.5.15-.93-.25-1.23-.67-2.9-1.77-.75-.5-1.38-.88-1.79-1.1a12.2 12.2 0 0 1 4.43-1.78c1.03-.17 1.55-.26 2.22-.1.27.05 1.8.41 2.26 1.7.15.4.15.8.12 1.04-1.75.77-3.44.84-4.33.87Z"/>
  <path fill="url(#e)" d="M53.02 18.9c.05-.41.2-1.1.56-1.73a2.53 2.53 0 0 1 1.57-1.27c-.02 0-.03-.02-.05-.03 0 0-.58-.38-1.42-.36-.77.03-1.97 1.17-2.6 2.57-1.15 2.53-.13 5.17.22 5.98a4.18 4.18 0 0 0 3.6-1.49c.28-.32 2.04-2.4 1.5-4.79a4.24 4.24 0 0 0-.49-1.2c-.36 0-1.08.07-1.8.7-.6.52-.93 1.21-1.1 1.63Z"/>
  <path d="M42.95 15.87c.88.37 1.55.65 3.65.57l-.02.02-.03.02-1.31 1.06s-.47.37-1.64.43c-1.4.08-3.56-1.65-5-4.62.64-.11 1.56-.26 2.68-.37 1.3-.12 1.94-.18 2.67-.1.42.06 3.07.38 3.48 1.83.12.4.03.8-.06 1.05-1.85.44-3.53.23-4.42.11Z" fill="url(#f)"/>
  <path fill="url(#g)" d="M46.45 20.2c.15-.34.44-.91.96-1.4a2.83 2.83 0 0 1 1.89-.79l-.04-.04s-.54-.48-1.38-.59c-.9-.12-2.69 1.28-3.63 3.3a7.75 7.75 0 0 0-.72 3.66c.13.03 1.5.34 2.65.04.45-.12.91-.31 1.38-.62.35-.23 2.62-1.7 2.59-3.87 0-.48-.12-.87-.22-1.14a3.2 3.2 0 0 0-2 .25c-.73.34-1.22.88-1.48 1.2Z"/>
  <path fill="url(#h)" d="M34.72 16.63c.7.65 1.23 1.14 3.23 1.8l-.06.03s-1.15.28-2.38-.04a5.82 5.82 0 0 1-3.02-2.14 5.54 5.54 0 0 1-.97-3.51c.7-.05 1.72-.05 2.91.2.8.18 1.82.41 2.88 1.16.51.36 2.22 1.56 2.04 2.98-.05.42-.25.74-.43.95a11.83 11.83 0 0 1-4.2-1.43Z"/>
  <path fill="url(#i)" d="M38.5 21.2c.28-.3.8-.77 1.5-1.06a2.96 2.96 0 0 1 2.16-.1.3.3 0 0 0-.02-.06c-.42-.84-1.56-1.08-1.91-1.15-1.58-.32-3.37.82-4.37 1.84A7.04 7.04 0 0 0 34 24.32a4.87 4.87 0 0 0 4.18.92c.43-.1 3.23-.74 4.08-2.97.18-.49.23-.93.23-1.24a3.28 3.28 0 0 0-2.06-.5 4.4 4.4 0 0 0-1.94.66Z"/>
  <path d="M26.67 15.32c.6.76 1.04 1.33 2.92 2.3h-.03a7.28 7.28 0 0 1-3.35-.88c-1.43-.95-2.43-3.19-2.09-5.72.61.21 1.49.54 2.52 1 1.2.52 1.79.79 2.39 1.22.34.25 2.5 1.83 2.15 3.3-.1.4-.37.7-.57.87a12.12 12.12 0 0 1-3.94-2.09Z" fill="url(#j)"/>
  <path fill="url(#k)" d="M29.78 20.82c.28-.3.78-.79 1.47-1.1a2.94 2.94 0 0 1 2.17-.16l-.03-.05s-.35-.66-1.15-1.09c-.77-.42-3.14-.2-4.87 1.36a6.48 6.48 0 0 0-2 4.29 4.92 4.92 0 0 0 4.2.8c.44-.11 3.22-.83 4-3.08.17-.5.2-.94.2-1.25a3.24 3.24 0 0 0-2.06-.44c-.86.09-1.55.47-1.93.72Z"/>
  <path fill="url(#l)" d="M13.88 33.14c.09.07 1.38-.94 2.18-2.53a8.46 8.46 0 0 0 .86-3.2l.02.02-.02-.03c.01 0 .72.6 1 1.4.26.7.1 1.33-.01 1.84a6.25 6.25 0 0 1-1.5 2.58 12.8 12.8 0 0 1-3.45 2.95c-.68.42-1.6.95-2.76 1.46a25.54 25.54 0 0 1 1.9-7.58c.48-1.19.74-1.65.92-1.93.48-.76 1.3-2.07 2.16-1.93.45.07.73.5.77.57.2.32.27.73.11 1.66-.23 1.34-.7 2.3-.77 2.46-.75 1.5-1.48 2.2-1.41 2.26Z"/>
  <path fill="url(#m)" opacity=".21" d="M45.86 37.77c1 2.05.49 4.37-1.13 5.2-1.61.82-3.72-.18-4.72-2.24-.99-2.05-.48-4.37 1.13-5.2 1.62-.81 3.73.19 4.72 2.24Z"/>
  <defs>
    <linearGradient id="a" x1="7.95" y1="17.37" x2="16.59" y2="14.7" gradientUnits="userSpaceOnUse">
      <stop stop-color="#97165E"/>
      <stop offset=".02" stop-color="#9B1560"/>
      <stop offset=".17" stop-color="#B80D6D"/>
      <stop offset=".34" stop-color="#CE0778"/>
      <stop offset=".52" stop-color="#DE037F"/>
      <stop offset=".73" stop-color="#E80184"/>
      <stop offset="1" stop-color="#EB0085"/>
    </linearGradient>
    <linearGradient id="b" x1="19.93" y1="16.99" x2="19.84" y2="9.44" gradientUnits="userSpaceOnUse">
      <stop stop-color="#97165E"/>
      <stop offset=".02" stop-color="#9B1560"/>
      <stop offset=".17" stop-color="#B80D6D"/>
      <stop offset=".34" stop-color="#CE0778"/>
      <stop offset=".52" stop-color="#DE037F"/>
      <stop offset=".73" stop-color="#E80184"/>
      <stop offset="1" stop-color="#EB0085"/>
    </linearGradient>
    <linearGradient id="c" x1="14.1" y1="23.47" x2="25.2" y2="20.21" gradientUnits="userSpaceOnUse">
      <stop stop-color="#97165E"/>
      <stop offset=".02" stop-color="#9B1560"/>
      <stop offset=".17" stop-color="#B80D6D"/>
      <stop offset=".34" stop-color="#CE0778"/>
      <stop offset=".52" stop-color="#DE037F"/>
      <stop offset=".73" stop-color="#E80184"/>
      <stop offset="1" stop-color="#EB0085"/>
    </linearGradient>
    <linearGradient id="d" x1="51.95" y1="15.45" x2="48.65" y2="10.25" gradientUnits="userSpaceOnUse">
      <stop stop-color="#97165E"/>
      <stop offset=".02" stop-color="#9B1560"/>
      <stop offset=".17" stop-color="#B80D6D"/>
      <stop offset=".34" stop-color="#CE0778"/>
      <stop offset=".52" stop-color="#DE037F"/>
      <stop offset=".73" stop-color="#E80184"/>
      <stop offset="1" stop-color="#EB0085"/>
    </linearGradient>
    <linearGradient id="e" x1="50.49" y1="21.39" x2="56.92" y2="19.66" gradientUnits="userSpaceOnUse">
      <stop stop-color="#97165E"/>
      <stop offset=".02" stop-color="#9B1560"/>
      <stop offset=".17" stop-color="#B80D6D"/>
      <stop offset=".34" stop-color="#CE0778"/>
      <stop offset=".52" stop-color="#DE037F"/>
      <stop offset=".73" stop-color="#E80184"/>
      <stop offset="1" stop-color="#EB0085"/>
    </linearGradient>
    <linearGradient id="f" x1="44.37" y1="17.91" x2="41.9" y2="11.96" gradientUnits="userSpaceOnUse">
      <stop stop-color="#97165E"/>
      <stop offset=".02" stop-color="#9B1560"/>
      <stop offset=".17" stop-color="#B80D6D"/>
      <stop offset=".34" stop-color="#CE0778"/>
      <stop offset=".52" stop-color="#DE037F"/>
      <stop offset=".73" stop-color="#E80184"/>
      <stop offset="1" stop-color="#EB0085"/>
    </linearGradient>
    <linearGradient id="g" x1="43.39" y1="21.89" x2="50.24" y2="21.5" gradientUnits="userSpaceOnUse">
      <stop stop-color="#97165E"/>
      <stop offset=".02" stop-color="#9B1560"/>
      <stop offset=".17" stop-color="#B80D6D"/>
      <stop offset=".34" stop-color="#CE0778"/>
      <stop offset=".52" stop-color="#DE037F"/>
      <stop offset=".73" stop-color="#E80184"/>
      <stop offset="1" stop-color="#EB0085"/>
    </linearGradient>
    <linearGradient id="h" x1="35.37" y1="18.63" x2="35.15" y2="12.63" gradientUnits="userSpaceOnUse">
      <stop stop-color="#97165E"/>
      <stop offset=".02" stop-color="#9B1560"/>
      <stop offset=".17" stop-color="#B80D6D"/>
      <stop offset=".34" stop-color="#CE0778"/>
      <stop offset=".52" stop-color="#DE037F"/>
      <stop offset=".73" stop-color="#E80184"/>
      <stop offset="1" stop-color="#EB0085"/>
    </linearGradient>
    <linearGradient id="i" x1="34.75" y1="21.79" x2="41.68" y2="24.05" gradientUnits="userSpaceOnUse">
      <stop stop-color="#97165E"/>
      <stop offset=".02" stop-color="#9B1560"/>
      <stop offset=".17" stop-color="#B80D6D"/>
      <stop offset=".34" stop-color="#CE0778"/>
      <stop offset=".52" stop-color="#DE037F"/>
      <stop offset=".73" stop-color="#E80184"/>
      <stop offset="1" stop-color="#EB0085"/>
    </linearGradient>
    <linearGradient id="j" x1="26.98" y1="17.33" x2="27.7" y2="11.44" gradientUnits="userSpaceOnUse">
      <stop stop-color="#97165E"/>
      <stop offset=".02" stop-color="#9B1560"/>
      <stop offset=".17" stop-color="#B80D6D"/>
      <stop offset=".34" stop-color="#CE0778"/>
      <stop offset=".52" stop-color="#DE037F"/>
      <stop offset=".73" stop-color="#E80184"/>
      <stop offset="1" stop-color="#EB0085"/>
    </linearGradient>
    <linearGradient id="k" x1="25.97" y1="21.43" x2="33.05" y2="23.53" gradientUnits="userSpaceOnUse">
      <stop stop-color="#97165E"/>
      <stop offset=".02" stop-color="#9B1560"/>
      <stop offset=".17" stop-color="#B80D6D"/>
      <stop offset=".34" stop-color="#CE0778"/>
      <stop offset=".52" stop-color="#DE037F"/>
      <stop offset=".73" stop-color="#E80184"/>
      <stop offset="1" stop-color="#EB0085"/>
    </linearGradient>
    <linearGradient id="l" x1="18.44" y1="30.76" x2="9.04" y2="33.21" gradientUnits="userSpaceOnUse">
      <stop stop-color="#97165E"/>
      <stop offset=".02" stop-color="#9B1560"/>
      <stop offset=".17" stop-color="#B80D6D"/>
      <stop offset=".34" stop-color="#CE0778"/>
      <stop offset=".52" stop-color="#DE037F"/>
      <stop offset=".73" stop-color="#E80184"/>
      <stop offset="1" stop-color="#EB0085"/>
    </linearGradient>
    <radialGradient id="m" cx="0" cy="0" r="1" gradientUnits="userSpaceOnUse" gradientTransform="matrix(4.09002 -2.8596 3.33017 4.76305 42.93 39.13)">
      <stop offset=".11" stop-color="#FF0A11" stop-opacity=".35"/>
      <stop offset=".24" stop-color="#FF464C" stop-opacity=".49"/>
      <stop offset=".48" stop-color="#FFA9AB" stop-opacity=".74"/>
      <stop offset=".64" stop-color="#FFE7E8" stop-opacity=".92"/>
      <stop offset=".72" stop-color="#fff"/>
    </radialGradient>
  </defs>
</svg>
