<svg fill="none" xmlns="http://www.w3.org/2000/svg" viewBox="0 0 86 83">
  <path
    d="M56.24 66.45c-3.882-1.576-5.778-3.52-6.797-5.057-.535-.807-1.158-2.015-2.612-4.078-.992-1.413-1.264-1.655-1.936-2.774-.298-.5-.61-1.058-1.176-1.765a11.074 11.074 0 0 0-1.234-1.308c.47.237.9.447 1.291.632.395.189.983.465 1.778.807.29.123.1.04 1.317.545.904.373 1.12.465 1.506.557.43.101.764.18 1.203.101.166-.03.566-.1.96-.412.458-.356.633-.812.717-1.028.127-.337.153-.627.184-.939.035-.351 0-.382.04-.922a5.52 5.52 0 0 1 .105-.82c.066-.295.096-.444.189-.615.048-.088.24-.43.632-.62.338-.162.505-.048.742-.263.144-.132.223-.298.25-.364.096-.215.1-.404.1-.452 0-.062 0-.185-.048-.33a1.015 1.015 0 0 0-.263-.403c-.136-.128-.294-.194-.531-.25-.724-.176-1.045.03-1.458-.238-.096-.061-.245-.18-.22-.237.023-.052.177-.026.41-.008.328.026.658.008.987.013.61.013.553.008.619.013.39.03.496.088.957.132.51.052.61.004.667-.031.255-.15.325-.47.347-.575.048-.233-.004-.334-.092-.909-.07-.465-.11-.702-.08-.896.014-.1.071-.5.36-.807.185-.198.312-.194 1.098-.5.452-.176.733-.308.966-.422.448-.224.672-.343.781-.518.281-.452.066-1.05.031-1.142-.066-.188-.233-.421-.57-.89-.172-.238-.198-.264-.308-.422a7.136 7.136 0 0 1-.593-1.019c-.302-.601-.623-1.238-.882-2.05a10.273 10.273 0 0 1-.47-3.41c.057-1.38.404-2.41.676-3.201.303-.878.378-.799.817-1.971.51-1.343.746-2.34.922-3.069 0 0 .355-1.492.334-2.656V21.778c-.022-1.461.026-1.707 0-2.33-.044-1.041-.224-1.405-.088-1.471.206-.101.76.663 1.176 1.233.404.553.663.997.72 1.098.795 1.365 1.181 2.059 1.48 2.599.311.561.939 1.69 1.461 3.06.273.71.79 2.194 1.054 4.14.277 2.04.15 3.634.018 5.14-.19 2.16-.518 3.354-.453 3.371.106.022 1.155-2.901 1.418-6.545a24.77 24.77 0 0 0-.28-5.808c-.124-.742-.523-2.937-1.638-5.641-.628-1.523-1.22-2.573-3.275-5.878-3.758-6.054-4.289-6.594-4.18-6.695.427-.386 10.199 6.185 13.144 17.292 1.462 5.514.76 10.448.488 12.24-.808 5.311-2.775 9.179-3.482 10.487-2.708 5.013-4.872 5.68-7.09 10.51-1.422 3.107-1.957 5.948-2.19 7.87Z"
    fill="url(#a)" stroke="#E3D7C4" stroke-width=".322" stroke-miterlimit="10" />
  <path
    d="M22.599 49.734c1.093 15.812 5.887 23.433 16.467 25.43-6.217-3.085-10.576-6.848-12.543-13.086-1.865-5.922-2.291-11.809.641-18.789.483 3.512.738 5.874 1.142 8.214C30.694 65.4 41.893 72.763 54.233 68.17c5.07-1.887 9.829-4.75 14.72-7.2C73.556 58.668 80.082 56.658 85.5 58c-9.688 2.546-16.776 12.02-24.537 17.468-10.607 7.445-21.467 10.816-33.166 3.064-9.057-6.001-11.985-18.333-6.612-27.09.264-.426.637-.778 1.414-1.708Z"
    fill="url(#b)" />
  <path
    d="M25.808 28.736c.421-.223 1.154-.588 1.334-.395.277.29-.886 1.805-1.918 2.858-2.111 2.16-3.46 2.19-7.26 5.005-1.024.755-1.831 1.427-2.587 2.463-.983 1.347-1.343 2.585-1.418 2.857-.596 2.151-.14 4.008.167 4.926a10.803 10.803 0 0 1 1.251-4.447c1.115-2.077 2.656-3.284 3.758-4.131 1.875-1.44 2.428-1.264 6.093-3.652 1.686-1.098 2.17-1.528 2.586-1.985 1.892-2.063 1.95-4.1 2.252-4.052.492.075.711 5.426-1.646 10.967-.839 1.97-1.168 2.739-6.045 9.091-5.909 7.696-8.92 11.006-6.778 20.413.092.4.083.545.035.567-.1.04-.342-.286-.417-.382-1.54-2.033-4.535-4.079-6.52-8.877-.763-1.848-1.066-3.35-1.25-4.289-.22-1.11-.584-3.38-.417-6.277.013-.19.197-2.788.922-5.163 2.212-7.213 8.973-10.79 17.858-15.496Z"
    fill="url(#c)" />
  <path
    d="M19.605 9.228c8.78-9.856 21.677-12.235 30.76-5.102h-11.29c7.16 1.094 15.29-.588 18.45 9.298-3.753-4.728-5.856-5.53-11.133-3.05-5.97 2.804-11.97 2.646-18.108 1.018-2.814-.755-5.65-1.414-8.679-2.164Z"
    fill="url(#d)" />
  <path
    d="M4.692 48.742c-7.01-8.012-6.124-21.31 2.384-29.562-1.084 4.253-1.523 9.759-2.48 13.516 1.777-4.017 2.994-9.745 5.088-14.478 2.94 5.944 2.322 11.067.526 16.12-1.699 4.772-3.613 9.456-5.518 14.404Z"
    fill="url(#e)" />
  <path
    d="M34.908 54.146c.202-.057-.935-3.223-1.343-7.538-.132-1.396-.584-6.12.584-6.436.443-.118 1.027.426 1.672 1.256 5.747 7.397 2.92 19.961 2.73 20.756-.144.619-.557 2.304-1.062 2.3-.32-.004-.513-.694-.785-1.34-.79-1.843-2.015-2.738-2.801-3.586-2.375-2.563-3.13-6.457-3.582-8.7-.584-2.907-.488-5.207-.426-6.476.11-2.234.465-4.02.667-4.925.343-1.528.417-1.273.997-3.56.65-2.573.979-3.894.922-5.497-.018-.483-.106-2.164-.084-2.164.33 1.11 1.304 4.451 1.194 5.567-.452 4.42-1.12 6.497-1.374 10.61-.083 1.343-.092 2.529.268 3.938.202.79.584 1.694 1.352 3.507.645 1.546.97 2.318 1.071 2.288Z"
    fill="url(#f)" />
  <path
    d="m51.383 34.9-.619-1.146a.926.926 0 0 0 .444-.597c.298.176.601.347.9.523-.15-.215-.294-.435-.444-.65.43.28.86.562 1.291.838-.066-.162-.136-.32-.202-.483.342-.008.69-.013 1.032-.021-.128-.084-.26-.163-.413-.26l.64-.25a6.423 6.423 0 0 1-.5-.074c-.294-.057-.5-.101-.746-.207-.215-.092-.417-.18-.553-.382-.132-.193-.145-.421-.127-.873.013-.286.04-.57.066-.86.022-.268.052-.536.079-.804a2.725 2.725 0 0 0-.307.86c-.053.264-.066.483-.137 1.098-.017.132-.03.241-.114.307-.096.08-.259.066-.408.057a2.29 2.29 0 0 1-.171-.022c-.387-.083-1.901-.11-1.901-.11-.457-.008-1.115-.078-1.954-.377.145.18.26.4.44.531.763.57 1.312.984 1.733 1.212.527.285 1.234.781 1.971 1.69ZM46.857 26.02c.852.082 1.673.135 2.485.258a9.133 9.133 0 0 1 3.71 1.423c.022.017.048.03.07.048.25.167.483.167.65-.11.162-.272.017-.457-.207-.606-1.128-.746-2.37-1.159-3.692-1.334-.851-.115-1.703-.163-2.541.092a3.902 3.902 0 0 0-.356.131c-.035.01-.062.044-.119.097ZM53.75 40.515l1.51-.303c-.36-.229-.76-.25-1.15-.11-.176.062-.303.25-.457.382a.631.631 0 0 1 .097.03Z"
    fill="#E3D7C4" />
  <path fill-rule="evenodd" clip-rule="evenodd"
    d="M10.763 15.47a5.846 5.846 0 0 1 3.74-.241 5.85 5.85 0 0 1 2.718 1.655c-.004-.022-.004-.04-.009-.062-.843-4.758-8.354-3.841-10.47-3.371.531.957 1.528 2.432 3.275 3.59.926.615 2.941 1.954 5.387 1.533a5.66 5.66 0 0 0 1.826-.654 6.684 6.684 0 0 0-2.3-1.866c-1.831-.904-3.539-.694-4.167-.584Z"
    fill="url(#g)" />
  <path fill-rule="evenodd" clip-rule="evenodd"
    d="M19.038 14.588c.738.834 1.291 1.461 3.21 2.353-.01.004-.018.004-.027.009l-.026.008c-.018.009-3.253.15-5.202-2.375-1.607-2.085-1.243-4.57-1.155-5.092.668-.048 3.06-.145 5.106 1.514.342.277 2.669 2.165 2.397 4.522a3.417 3.417 0 0 1-.268.984c-1.77-.352-3.253-1.375-4.035-1.923Z"
    fill="url(#h)" />
  <path fill-rule="evenodd" clip-rule="evenodd"
    d="M19.183 20.91c.878-.94 1.66-2.183 4.092-3.074-.027-.008-.044-.017-.07-.026-.984-.338-2.354-.206-2.354-.206-2.146.241-3.635 1.22-3.635 1.22-2.3 1.514-2.99 3.867-3.156 4.508.808.457 2.252 1.12 4.127 1.186.803.026 3.086.105 4.956-1.436.364-.298 2.221-1.835 1.857-3.534a2.44 2.44 0 0 0-.588-1.106c-2.292.246-4.259 1.875-5.229 2.467Z"
    fill="url(#i)" />
  <path fill-rule="evenodd" clip-rule="evenodd"
    d="M50.286 13.925c.94.21 1.642.373 3.697-.062a4.532 4.532 0 0 0-.022.022l-.022.022c-.014.013-.848.795-1.164 1.01-.592.4-1.681.356-2.489.14-.935-.25-1.233-.662-2.906-1.769a34.778 34.778 0 0 0-1.787-1.106 12.202 12.202 0 0 1 2.156-1.12 11.2 11.2 0 0 1 2.274-.65c1.031-.175 1.545-.263 2.221-.109.263.062 1.795.417 2.26 1.703.15.413.146.795.12 1.04-1.752.77-3.442.848-4.338.879Z"
    fill="url(#j)" />
  <path fill-rule="evenodd" clip-rule="evenodd"
    d="M53.017 18.907c.057-.417.197-1.102.562-1.734.548-.943 1.268-1.194 1.567-1.268-.018-.01-.03-.022-.049-.031 0 0-.579-.386-1.418-.36-.768.026-1.966 1.163-2.603 2.568-1.145 2.529-.127 5.167.224 5.98.395.039 1.194.06 2.064-.317a4.21 4.21 0 0 0 1.545-1.172c.272-.325 2.028-2.41 1.483-4.79a4.242 4.242 0 0 0-.478-1.198c-.364-.004-1.089.066-1.8.69-.601.522-.93 1.215-1.097 1.632Z"
    fill="url(#k)" />
  <path fill-rule="evenodd" clip-rule="evenodd"
    d="M42.946 15.87c.887.368 1.554.65 3.657.575-.009.004-.018.013-.026.017l-.027.018c-.022.013-1.154.944-1.312 1.062 0 0-.466.364-1.638.43-1.404.08-3.56-1.655-4.991-4.627.632-.11 1.55-.254 2.669-.364 1.295-.123 1.945-.184 2.674-.097.42.053 3.064.373 3.48 1.827.115.403.027.79-.065 1.044-1.848.448-3.53.233-4.42.115Z"
    fill="url(#l)" />
  <path fill-rule="evenodd" clip-rule="evenodd"
    d="M46.445 20.207c.154-.351.448-.918.966-1.4.772-.716 1.567-.79 1.887-.795l-.04-.04s-.539-.483-1.382-.592c-.9-.119-2.682 1.282-3.63 3.292-.32.676-.786 1.927-.716 3.67.132.03 1.493.343 2.652.035a4.758 4.758 0 0 0 1.374-.614c.35-.229 2.62-1.695 2.594-3.877a3.293 3.293 0 0 0-.22-1.137 3.206 3.206 0 0 0-1.997.246c-.733.343-1.225.883-1.488 1.212Z"
    fill="url(#m)" />
  <path fill-rule="evenodd" clip-rule="evenodd"
    d="M34.715 16.629c.707.654 1.238 1.146 3.24 1.809a.323.323 0 0 0-.062.017 5.373 5.373 0 0 1-2.383-.03c-1.827-.47-2.946-2.033-3.02-2.143-1.05-1.501-1.002-3.046-.97-3.512a10.16 10.16 0 0 1 2.91.207c.794.175 1.817.408 2.88 1.154.513.36 2.216 1.563 2.04 2.98a1.886 1.886 0 0 1-.425.953c-1.91-.228-3.415-1.01-4.21-1.435Z"
    fill="url(#n)" />
  <path fill-rule="evenodd" clip-rule="evenodd"
    d="M38.495 21.195c.29-.299.803-.769 1.501-1.058 1.04-.435 1.848-.215 2.169-.101a.294.294 0 0 0-.026-.053c-.422-.847-1.559-1.08-1.91-1.15-1.58-.32-3.372.82-4.373 1.835-1.299 1.317-1.712 2.858-1.86 3.652.245.18 1.21.856 2.422 1.014a4.87 4.87 0 0 0 1.756-.092c.435-.1 3.24-.742 4.083-2.972.184-.487.228-.93.233-1.242a3.276 3.276 0 0 0-2.06-.5c-.85.065-1.544.425-1.935.667Z"
    fill="url(#o)" />
  <path fill-rule="evenodd" clip-rule="evenodd"
    d="M26.672 15.32c.597.756 1.04 1.327 2.92 2.297-.014 0-.022 0-.031.004a.109.109 0 0 0-.03.005c-.018.004-2.038-.04-3.324-.887-1.427-.944-2.423-3.187-2.085-5.72.61.215 1.484.54 2.515.996 1.194.527 1.791.79 2.388 1.23.343.25 2.503 1.826 2.152 3.287-.097.409-.365.698-.571.874-1.853-.535-3.214-1.545-3.934-2.085Z"
    fill="url(#p)" />
  <path fill-rule="evenodd" clip-rule="evenodd"
    d="M29.776 20.821c.281-.307.782-.79 1.475-1.102 1.027-.465 1.844-.263 2.164-.158l-.026-.052s-.347-.659-1.146-1.089c-.772-.417-3.147-.206-4.877 1.357-1.703 1.54-1.945 3.639-1.993 4.289.25.175 1.234.82 2.45.943a4.924 4.924 0 0 0 1.751-.14c.435-.11 3.218-.83 4-3.082.17-.491.201-.94.201-1.246a3.239 3.239 0 0 0-2.067-.444c-.86.092-1.55.474-1.932.724Z"
    fill="url(#q)" />
  <path fill-rule="evenodd" clip-rule="evenodd"
    d="M13.88 33.135c.088.08 1.383-.94 2.182-2.528.084-.167.351-.72.566-1.497.185-.668.264-1.26.295-1.708a.55.55 0 0 1 .017.03l-.017-.03c.008-.009.72.606 1.005 1.405.25.698.096 1.326-.022 1.83-.259 1.067-.803 1.739-1.488 2.582-.127.158-.75.917-1.76 1.751-.659.545-1.199.887-1.695 1.199-.68.425-1.602.952-2.761 1.466.17-1.879.518-3.429.842-4.588a26.443 26.443 0 0 1 1.054-2.998c.479-1.185.746-1.646.926-1.927.479-.764 1.3-2.076 2.16-1.936.448.07.725.505.769.575.206.32.272.733.11 1.66-.238 1.343-.703 2.3-.778 2.458-.742 1.501-1.475 2.195-1.405 2.256Z"
    fill="url(#r)" />
  <path opacity=".21"
    d="M45.861 37.767c.992 2.05.487 4.376-1.128 5.197-1.616.821-3.727-.175-4.72-2.23-.992-2.05-.487-4.377 1.129-5.198 1.615-.82 3.727.18 4.719 2.23Z"
    fill="url(#s)" />
  <defs>
    <linearGradient id="a" x1="55.947" y1="8.035" x2="55.947" y2="66.451" gradientUnits="userSpaceOnUse">
      <stop stop-color="#ECE1DF" />
      <stop offset="1" stop-color="#E3D7C4" stop-opacity=".5" />
    </linearGradient>
    <linearGradient id="b" x1="51.999" y1="43.289" x2="51.999" y2="82.947" gradientUnits="userSpaceOnUse">
      <stop stop-color="#ECE1DF" />
      <stop offset="1" stop-color="#E3D7C4" stop-opacity=".5" />
    </linearGradient>
    <linearGradient id="c" x1="18.685" y1="28.183" x2="18.685" y2="69.224" gradientUnits="userSpaceOnUse">
      <stop stop-color="#ECE1DF" />
      <stop offset="1" stop-color="#E3D7C4" stop-opacity=".5" />
    </linearGradient>
    <linearGradient id="d" x1="38.565" y1="0" x2="38.565" y2="13.424" gradientUnits="userSpaceOnUse">
      <stop stop-color="#ECE1DF" />
      <stop offset="1" stop-color="#E3D7C4" stop-opacity=".5" />
    </linearGradient>
    <linearGradient id="e" x1="5.862" y1="18.218" x2="5.862" y2="48.742" gradientUnits="userSpaceOnUse">
      <stop stop-color="#ECE1DF" />
      <stop offset="1" stop-color="#E3D7C4" stop-opacity=".5" />
    </linearGradient>
    <linearGradient id="f" x1="34.63" y1="28.236" x2="34.63" y2="64.484" gradientUnits="userSpaceOnUse">
      <stop stop-color="#ECE1DF" />
      <stop offset="1" stop-color="#E3D7C4" stop-opacity=".5" />
    </linearGradient>
    <linearGradient id="g" x1="7.951" y1="17.368" x2="16.593" y2="14.699" gradientUnits="userSpaceOnUse">
      <stop stop-color="#97165E" />
      <stop offset=".017" stop-color="#9B1560" />
      <stop offset=".175" stop-color="#B80D6D" />
      <stop offset=".343" stop-color="#CE0778" />
      <stop offset=".524" stop-color="#DE037F" />
      <stop offset=".727" stop-color="#E80184" />
      <stop offset="1" stop-color="#EB0085" />
    </linearGradient>
    <linearGradient id="h" x1="19.928" y1="16.991" x2="19.845" y2="9.435" gradientUnits="userSpaceOnUse">
      <stop stop-color="#97165E" />
      <stop offset=".017" stop-color="#9B1560" />
      <stop offset=".175" stop-color="#B80D6D" />
      <stop offset=".343" stop-color="#CE0778" />
      <stop offset=".524" stop-color="#DE037F" />
      <stop offset=".727" stop-color="#E80184" />
      <stop offset="1" stop-color="#EB0085" />
    </linearGradient>
    <linearGradient id="i" x1="14.097" y1="23.469" x2="25.197" y2="20.212" gradientUnits="userSpaceOnUse">
      <stop stop-color="#97165E" />
      <stop offset=".017" stop-color="#9B1560" />
      <stop offset=".175" stop-color="#B80D6D" />
      <stop offset=".343" stop-color="#CE0778" />
      <stop offset=".524" stop-color="#DE037F" />
      <stop offset=".727" stop-color="#E80184" />
      <stop offset="1" stop-color="#EB0085" />
    </linearGradient>
    <linearGradient id="j" x1="51.95" y1="15.453" x2="48.651" y2="10.254" gradientUnits="userSpaceOnUse">
      <stop stop-color="#97165E" />
      <stop offset=".017" stop-color="#9B1560" />
      <stop offset=".175" stop-color="#B80D6D" />
      <stop offset=".343" stop-color="#CE0778" />
      <stop offset=".524" stop-color="#DE037F" />
      <stop offset=".727" stop-color="#E80184" />
      <stop offset="1" stop-color="#EB0085" />
    </linearGradient>
    <linearGradient id="k" x1="50.493" y1="21.393" x2="56.917" y2="19.655" gradientUnits="userSpaceOnUse">
      <stop stop-color="#97165E" />
      <stop offset=".017" stop-color="#9B1560" />
      <stop offset=".175" stop-color="#B80D6D" />
      <stop offset=".343" stop-color="#CE0778" />
      <stop offset=".524" stop-color="#DE037F" />
      <stop offset=".727" stop-color="#E80184" />
      <stop offset="1" stop-color="#EB0085" />
    </linearGradient>
    <linearGradient id="l" x1="44.367" y1="17.915" x2="41.904" y2="11.96" gradientUnits="userSpaceOnUse">
      <stop stop-color="#97165E" />
      <stop offset=".017" stop-color="#9B1560" />
      <stop offset=".175" stop-color="#B80D6D" />
      <stop offset=".343" stop-color="#CE0778" />
      <stop offset=".524" stop-color="#DE037F" />
      <stop offset=".727" stop-color="#E80184" />
      <stop offset="1" stop-color="#EB0085" />
    </linearGradient>
    <linearGradient id="m" x1="43.387" y1="21.89" x2="50.243" y2="21.501" gradientUnits="userSpaceOnUse">
      <stop stop-color="#97165E" />
      <stop offset=".017" stop-color="#9B1560" />
      <stop offset=".175" stop-color="#B80D6D" />
      <stop offset=".343" stop-color="#CE0778" />
      <stop offset=".524" stop-color="#DE037F" />
      <stop offset=".727" stop-color="#E80184" />
      <stop offset="1" stop-color="#EB0085" />
    </linearGradient>
    <linearGradient id="n" x1="35.367" y1="18.63" x2="35.147" y2="12.632" gradientUnits="userSpaceOnUse">
      <stop stop-color="#97165E" />
      <stop offset=".017" stop-color="#9B1560" />
      <stop offset=".175" stop-color="#B80D6D" />
      <stop offset=".343" stop-color="#CE0778" />
      <stop offset=".524" stop-color="#DE037F" />
      <stop offset=".727" stop-color="#E80184" />
      <stop offset="1" stop-color="#EB0085" />
    </linearGradient>
    <linearGradient id="o" x1="34.752" y1="21.787" x2="41.679" y2="24.049" gradientUnits="userSpaceOnUse">
      <stop stop-color="#97165E" />
      <stop offset=".017" stop-color="#9B1560" />
      <stop offset=".175" stop-color="#B80D6D" />
      <stop offset=".343" stop-color="#CE0778" />
      <stop offset=".524" stop-color="#DE037F" />
      <stop offset=".727" stop-color="#E80184" />
      <stop offset="1" stop-color="#EB0085" />
    </linearGradient>
    <linearGradient id="p" x1="26.982" y1="17.335" x2="27.702" y2="11.441" gradientUnits="userSpaceOnUse">
      <stop stop-color="#97165E" />
      <stop offset=".017" stop-color="#9B1560" />
      <stop offset=".175" stop-color="#B80D6D" />
      <stop offset=".343" stop-color="#CE0778" />
      <stop offset=".524" stop-color="#DE037F" />
      <stop offset=".727" stop-color="#E80184" />
      <stop offset="1" stop-color="#EB0085" />
    </linearGradient>
    <linearGradient id="q" x1="25.974" y1="21.435" x2="33.05" y2="23.532" gradientUnits="userSpaceOnUse">
      <stop stop-color="#97165E" />
      <stop offset=".017" stop-color="#9B1560" />
      <stop offset=".175" stop-color="#B80D6D" />
      <stop offset=".343" stop-color="#CE0778" />
      <stop offset=".524" stop-color="#DE037F" />
      <stop offset=".727" stop-color="#E80184" />
      <stop offset="1" stop-color="#EB0085" />
    </linearGradient>
    <linearGradient id="r" x1="18.439" y1="30.762" x2="9.039" y2="33.215" gradientUnits="userSpaceOnUse">
      <stop stop-color="#97165E" />
      <stop offset=".017" stop-color="#9B1560" />
      <stop offset=".175" stop-color="#B80D6D" />
      <stop offset=".343" stop-color="#CE0778" />
      <stop offset=".524" stop-color="#DE037F" />
      <stop offset=".727" stop-color="#E80184" />
      <stop offset="1" stop-color="#EB0085" />
    </linearGradient>
    <radialGradient id="s" cx="0" cy="0" r="1" gradientUnits="userSpaceOnUse"
      gradientTransform="rotate(-34.958 83.6 -48.598) scale(4.99055 5.81177)">
      <stop offset=".108" stop-color="#FF0A11" stop-opacity=".35" />
      <stop offset=".245" stop-color="#FF464C" stop-opacity=".495" />
      <stop offset=".48" stop-color="#FFA9AB" stop-opacity=".744" />
      <stop offset=".644" stop-color="#FFE7E8" stop-opacity=".918" />
      <stop offset=".722" stop-color="#fff" />
    </radialGradient>
  </defs>
</svg>