<svg width="296" height="83" viewBox="0 0 296 83" fill="none" xmlns="http://www.w3.org/2000/svg">
<path d="M56.2388 66.4505C52.3581 64.8745 50.4616 62.9298 49.4432 61.3933C48.9076 60.5856 48.2842 59.3783 46.8312 57.315C45.839 55.9015 45.5668 55.66 44.8952 54.5406C44.5967 54.0401 44.285 53.4826 43.7187 52.7758C43.2446 52.1832 42.7968 51.7486 42.4851 51.4676C42.9548 51.7047 43.385 51.9154 43.7758 52.0998C44.1708 52.2886 44.7591 52.5651 45.5537 52.9075C45.8434 53.0304 45.6546 52.947 46.8707 53.4519C47.775 53.825 47.9901 53.9172 48.3764 54.0094C48.8066 54.1104 49.1403 54.1894 49.5793 54.1104C49.7461 54.0796 50.1456 54.0094 50.5407 53.6977C50.9972 53.3421 51.1728 52.8856 51.2562 52.6705C51.3835 52.3325 51.4099 52.0427 51.4406 51.731C51.4757 51.3798 51.4406 51.3491 51.4801 50.8091C51.5152 50.335 51.5591 50.1024 51.5855 49.9882C51.6513 49.6941 51.682 49.5448 51.7742 49.3736C51.8225 49.2858 52.0157 48.9434 52.4064 48.7546C52.7444 48.5922 52.9112 48.7064 53.1483 48.4912C53.2932 48.3595 53.3722 48.1927 53.3985 48.1269C53.4951 47.9118 53.4995 47.723 53.4995 47.6747C53.4995 47.6133 53.4995 47.4903 53.4512 47.3455C53.438 47.306 53.3678 47.1084 53.1878 46.9416C53.0517 46.8143 52.8937 46.7484 52.6566 46.6914C51.9323 46.5158 51.6118 46.7221 51.1992 46.4543C51.1026 46.3929 50.9533 46.2743 50.9797 46.2173C51.0016 46.1646 51.1553 46.1909 51.3879 46.2085C51.7172 46.2348 52.0464 46.2173 52.3757 46.2216C52.9859 46.2348 52.9288 46.2304 52.9946 46.2348C53.3853 46.2655 53.4907 46.3226 53.9517 46.3665C54.4609 46.4192 54.5619 46.3709 54.6189 46.3358C54.8735 46.1865 54.9438 45.8661 54.9657 45.7607C55.014 45.528 54.9613 45.4271 54.8735 44.852C54.8033 44.3866 54.7638 44.1496 54.7945 43.9564C54.8077 43.8555 54.8648 43.456 55.1545 43.1487C55.3389 42.9511 55.4662 42.9555 56.252 42.6482C56.7041 42.4726 56.9851 42.3409 57.2178 42.2268C57.6655 42.0029 57.8894 41.8844 57.9992 41.7088C58.2801 41.2566 58.065 40.6596 58.0299 40.5674C57.9641 40.3786 57.7972 40.146 57.4592 39.6762C57.288 39.4392 57.2617 39.4128 57.1519 39.2548C57.051 39.1143 56.8446 38.8114 56.5593 38.2363C56.2564 37.6349 55.9359 36.9984 55.6769 36.1862C55.1545 34.54 55.194 33.1264 55.2072 32.7752C55.2642 31.3968 55.6111 30.3652 55.8832 29.575C56.1861 28.697 56.2608 28.776 56.6998 27.6039C57.209 26.2606 57.446 25.264 57.6216 24.5353C57.6216 24.5353 57.9772 23.0427 57.9553 21.8794C57.9553 21.8706 57.9553 21.8662 57.9553 21.8662C57.9553 21.8487 57.9553 21.8443 57.9553 21.7784C57.9333 20.3166 57.9816 20.0707 57.9553 19.4474C57.9114 18.4069 57.7314 18.0426 57.8675 17.9767C58.0738 17.8758 58.6269 18.6396 59.044 19.2103C59.4479 19.7634 59.7069 20.2068 59.7639 20.3078C60.5585 21.6731 60.9448 22.3667 61.2434 22.9066C61.555 23.4685 62.1828 24.5968 62.7052 25.9664C62.9774 26.6776 63.4954 28.1614 63.7588 30.1061C64.0354 32.1475 63.9081 33.741 63.7764 35.2468C63.5876 37.4066 63.2583 38.6007 63.3242 38.6183C63.4295 38.6402 64.4787 35.7165 64.7421 32.0728C64.8124 31.1202 64.909 28.9692 64.4612 26.2649C64.3383 25.523 63.9388 23.3281 62.8237 20.6239C62.196 19.1005 61.6033 18.0514 59.5488 14.7457C55.791 8.69198 55.2599 8.15202 55.3696 8.05105C55.7954 7.66474 65.5675 14.2365 68.5131 25.3431C69.975 30.8568 69.2726 35.7911 69.0004 37.5822C68.1926 42.8941 66.2259 46.7616 65.5192 48.0698C62.8106 53.0831 60.6463 53.7504 58.4294 58.5793C57.0071 61.6874 56.4715 64.5277 56.2388 66.4505Z" fill="#272324" stroke="black" stroke-width="0.3217" stroke-miterlimit="10"/>
<path d="M22.5987 49.7336C23.6918 65.5462 28.4856 73.1672 39.0653 75.1646C32.8492 72.0785 28.49 68.3163 26.5233 62.0782C24.6575 56.1561 24.2317 50.2692 27.1642 43.2892C27.6471 46.8011 27.9017 49.1629 28.3056 51.5028C30.6937 65.4013 41.8925 72.7633 54.2326 68.1714C59.303 66.2837 64.0617 63.4215 68.9521 60.9719C73.5572 58.6672 80.0828 56.6567 85.5 58C75.8114 60.5462 68.7238 70.0196 60.9624 75.4675C50.3563 82.9128 39.4956 86.2843 27.7964 78.5317C18.7399 72.5306 15.8118 60.1993 21.1851 51.4413C21.4485 51.0155 21.8216 50.6643 22.5987 49.7336Z" fill="#272324"/>
<path d="M25.8077 28.7365C26.2291 28.5126 26.9623 28.1483 27.1423 28.3414C27.4188 28.6312 26.2555 30.1457 25.2238 31.1993C23.1123 33.3591 21.7646 33.3899 17.9629 36.2038C16.94 36.9589 16.1323 37.6306 15.3772 38.6666C14.3938 40.0143 14.0339 41.2523 13.9592 41.5244C13.3622 43.6755 13.8188 45.5325 14.1261 46.45C14.1919 45.3964 14.4377 43.7545 15.3772 42.003C16.4922 39.9265 18.0331 38.7193 19.135 37.872C21.0095 36.4321 21.5626 36.6077 25.2282 34.2196C26.914 33.1221 27.3969 32.6919 27.8139 32.2353C29.706 30.172 29.763 28.1351 30.066 28.1834C30.5576 28.258 30.7771 33.6094 28.4197 39.1495C27.5812 41.1206 27.252 41.8888 22.3748 48.2411C16.4659 55.9366 13.4544 59.2467 15.5967 68.6543C15.6889 69.0538 15.6801 69.1987 15.6318 69.2206C15.5308 69.2601 15.2894 68.9353 15.2148 68.8387C13.6739 66.8062 10.6799 64.7604 8.69569 59.9622C7.93184 58.1141 7.62893 56.6127 7.44456 55.6733C7.22506 54.5626 6.86069 52.293 7.02751 49.3956C7.04068 49.2069 7.22506 46.608 7.9494 44.233C10.1619 37.0204 16.9225 33.4426 25.8077 28.7365Z" fill="#272324"/>
<path d="M19.6047 9.22759C28.3846 -0.627839 41.2823 -3.00719 50.3651 4.12647C46.2254 4.12647 42.6476 4.12647 39.0742 4.12647C46.2342 5.21957 54.3643 3.53822 57.5251 13.4244C53.7717 8.69641 51.6689 7.89305 46.3922 10.3734C40.4219 13.1785 34.4208 13.0205 28.2837 11.3918C25.4697 10.6368 22.6338 9.97827 19.6047 9.22759Z" fill="#272324"/>
<path d="M4.69213 48.7415C-2.31862 40.7299 -1.43184 27.4327 7.07587 19.1796C5.99156 23.4335 5.55256 28.9385 4.59555 32.6962C6.37348 28.6794 7.5895 22.9506 9.6835 18.2182C12.6248 24.1622 12.0058 29.2853 10.2103 34.3381C8.51139 39.11 6.59737 43.794 4.69213 48.7415Z" fill="#272324"/>
<path d="M34.9082 54.1456C35.1102 54.0885 33.9732 50.9233 33.5649 46.608C33.4332 45.212 32.981 40.4884 34.1488 40.1724C34.5922 40.0538 35.176 40.5982 35.8213 41.4279C41.5678 48.8249 38.7407 61.389 38.5519 62.1835C38.407 62.8025 37.9944 64.4883 37.4895 64.4839C37.1691 64.4795 36.9759 63.7903 36.7037 63.1449C35.9135 61.3012 34.6887 60.4056 33.9029 59.5584C31.528 56.9946 30.7729 53.1007 30.3207 50.8575C29.7369 47.9513 29.8335 45.651 29.8949 44.3823C30.0047 42.1478 30.3602 40.3611 30.5622 39.4568C30.9046 37.9291 30.9792 38.1837 31.5587 35.8965C32.2084 33.324 32.5377 32.0027 32.4806 30.4003C32.463 29.9174 32.3752 28.2361 32.3972 28.2361C32.7264 29.3467 33.701 32.6875 33.5912 33.8025C33.1391 38.2232 32.4718 40.2997 32.2172 44.413C32.1338 45.7564 32.125 46.9417 32.485 48.3508C32.6869 49.141 33.0688 50.0453 33.8371 51.8584C34.4824 53.4037 34.8073 54.1763 34.9082 54.1456Z" fill="#272324"/>
<path d="M51.3836 34.9C51.1773 34.5181 50.971 34.1361 50.7646 33.7542C50.8305 33.7147 50.9402 33.6445 51.0368 33.5171C51.1466 33.3767 51.1905 33.2362 51.208 33.1572C51.5065 33.3328 51.8094 33.504 52.108 33.6796C51.9587 33.4645 51.8138 33.245 51.6646 33.0299C52.0948 33.3108 52.525 33.5918 52.9552 33.8683C52.8894 33.7059 52.8191 33.5479 52.7533 33.3854C53.0957 33.3767 53.4425 33.3723 53.7849 33.3635C53.6576 33.2801 53.5259 33.2011 53.3723 33.1045C53.5874 33.0211 53.7981 32.9377 54.0132 32.8543C53.8947 32.8411 53.7191 32.8191 53.5127 32.7796C53.2186 32.7226 53.0123 32.6787 52.7664 32.5733C52.5513 32.4811 52.3494 32.3933 52.2133 32.1914C52.0816 31.9982 52.0684 31.7699 52.086 31.3178C52.0992 31.0324 52.1255 30.7471 52.1519 30.4573C52.1738 30.1896 52.2045 29.9218 52.2309 29.654C52.1782 29.7462 52.1123 29.8779 52.0509 30.0447C52.0202 30.1237 51.9675 30.2818 51.9236 30.5144C51.8709 30.7778 51.8577 30.9973 51.7875 31.6119C51.7699 31.7436 51.7568 31.8534 51.6733 31.9192C51.5768 31.9982 51.4143 31.9851 51.2651 31.9763C51.1685 31.9675 51.0939 31.9543 51.0939 31.9543C50.7076 31.8709 49.193 31.8446 49.193 31.8446C48.7365 31.8358 48.078 31.7656 47.2395 31.467C47.3844 31.647 47.4985 31.8665 47.6785 31.9982C48.4423 32.5689 48.9911 32.9816 49.4125 33.2098C49.9393 33.4952 50.6461 33.9913 51.3836 34.9Z" fill="black"/>
<path d="M46.8577 26.0191C47.7093 26.1025 48.5302 26.1552 49.3424 26.2781C50.6769 26.4757 51.9149 26.9542 53.0519 27.7005C53.0738 27.718 53.1002 27.7312 53.1221 27.7487C53.3723 27.9156 53.605 27.9156 53.7718 27.639C53.9343 27.3668 53.7894 27.1824 53.5655 27.0332C52.4373 26.2869 51.1949 25.8742 49.8736 25.6986C49.0219 25.5845 48.1703 25.5362 47.3318 25.7908C47.2133 25.826 47.0947 25.8742 46.9762 25.9225C46.9411 25.9313 46.9147 25.9664 46.8577 26.0191Z" fill="black"/>
<path d="M53.7499 40.5147C54.2547 40.4138 54.7552 40.3128 55.26 40.2118C54.9001 39.9835 54.5006 39.9616 54.1099 40.1021C53.9343 40.1635 53.807 40.3523 53.6533 40.484C53.6884 40.4928 53.7192 40.5016 53.7499 40.5147Z" fill="black"/>
<path fill-rule="evenodd" clip-rule="evenodd" d="M10.7634 15.4701C11.2287 15.277 12.7037 14.737 14.5036 15.2287C15.9523 15.6281 16.8566 16.4886 17.221 16.8837C17.2166 16.8617 17.2166 16.8442 17.2122 16.8222C16.3693 12.0635 8.85814 12.981 6.74219 13.4507C7.27337 14.4077 8.26989 15.8828 10.0171 17.0417C10.9434 17.6563 12.9584 18.9952 15.4036 18.5738C16.1981 18.4377 16.8171 18.1524 17.2298 17.9197C16.8391 17.4236 16.1016 16.6291 14.9294 16.054C13.0988 15.1496 11.3911 15.3604 10.7634 15.4701Z" fill="url(#paint0_linear_302_121)"/>
<path fill-rule="evenodd" clip-rule="evenodd" d="M19.0385 14.5877C19.776 15.4218 20.3292 16.0495 22.2476 16.9407C22.2388 16.9451 22.23 16.9451 22.2212 16.9495C22.208 16.9539 22.1949 16.9583 22.1949 16.9583C22.1773 16.967 18.9419 17.1075 16.9928 14.5833C15.3861 12.4981 15.7504 10.0134 15.8382 9.49097C16.5055 9.44268 18.898 9.3461 20.9437 11.0055C21.2862 11.2821 23.6128 13.1697 23.3407 15.5271C23.2924 15.9442 23.1738 16.2822 23.0729 16.5105C21.3037 16.1593 19.8199 15.1364 19.0385 14.5877Z" fill="url(#paint1_linear_302_121)"/>
<path fill-rule="evenodd" clip-rule="evenodd" d="M19.1834 20.9092C20.0614 19.9698 20.8428 18.7274 23.2748 17.8362C23.2485 17.8275 23.2309 17.8187 23.2046 17.8099C22.2212 17.4719 20.8516 17.6036 20.8516 17.6036C18.7049 17.845 17.2167 18.824 17.2167 18.824C14.9163 20.3385 14.2271 22.6915 14.0603 23.3325C14.8681 23.789 16.3123 24.4519 18.1869 24.5177C18.9902 24.5441 21.273 24.6231 23.1431 23.0822C23.5075 22.7837 25.3644 21.2472 25.0001 19.5483C24.8947 19.0566 24.6313 18.6879 24.4118 18.442C22.1202 18.6879 20.1536 20.3166 19.1834 20.9092Z" fill="url(#paint2_linear_302_121)"/>
<path fill-rule="evenodd" clip-rule="evenodd" d="M50.2861 13.9248C51.2256 14.1355 51.928 14.298 53.9825 13.8634C53.9737 13.8721 53.9693 13.8765 53.9605 13.8853C53.9605 13.8853 53.9561 13.8897 53.9386 13.9073C53.9254 13.9204 53.0913 14.7018 52.7752 14.9169C52.1826 15.3164 51.0939 15.2725 50.2861 15.0574C49.3511 14.8072 49.0525 14.3945 47.38 13.2883C46.6293 12.7922 45.9971 12.4147 45.5933 12.182C46.4098 11.6508 47.1605 11.2952 47.7487 11.0626C48.8462 10.6236 49.733 10.4611 50.0227 10.4129C51.0544 10.2373 51.568 10.1495 52.244 10.3031C52.5074 10.3646 54.0395 10.7202 54.5049 12.0064C54.6541 12.4191 54.6497 12.801 54.6234 13.0468C52.8718 13.8151 51.1817 13.8941 50.2861 13.9248Z" fill="url(#paint3_linear_302_121)"/>
<path fill-rule="evenodd" clip-rule="evenodd" d="M53.0167 18.9074C53.0737 18.4904 53.2142 17.8055 53.5786 17.1734C54.1273 16.2295 54.8473 15.9793 55.1458 15.9047C55.1282 15.8959 55.1151 15.8827 55.0975 15.874C55.0975 15.874 54.518 15.4876 53.6795 15.514C52.9113 15.5403 51.7128 16.6773 51.0763 18.0821C49.9305 20.6107 50.949 23.2491 51.3002 24.0612C51.6953 24.1007 52.4943 24.1227 53.3635 23.7451C53.8771 23.5212 54.417 23.1569 54.9087 22.573C55.1809 22.2482 56.9369 20.1629 56.3925 17.7836C56.274 17.2612 56.0721 16.8573 55.914 16.5851C55.5497 16.5807 54.8253 16.651 54.1141 17.2744C53.5127 17.7968 53.1835 18.4904 53.0167 18.9074Z" fill="url(#paint4_linear_302_121)"/>
<path fill-rule="evenodd" clip-rule="evenodd" d="M42.9462 15.8696C43.8329 16.2383 44.5002 16.5193 46.603 16.4446C46.5942 16.449 46.5854 16.4578 46.5766 16.4622C46.5635 16.471 46.5503 16.4798 46.5503 16.4798C46.5284 16.4929 45.3957 17.4236 45.2377 17.5421C45.2377 17.5421 44.7724 17.9065 43.6003 17.9723C42.1955 18.0514 40.04 16.3173 38.6089 13.3453C39.241 13.2356 40.1585 13.0907 41.278 12.981C42.573 12.8581 43.2227 12.7966 43.9515 12.8844C44.3729 12.9371 47.0156 13.2575 47.4327 14.7106C47.5468 15.1145 47.459 15.5008 47.3668 15.7554C45.5187 16.2032 43.8373 15.9881 42.9462 15.8696Z" fill="url(#paint5_linear_302_121)"/>
<path fill-rule="evenodd" clip-rule="evenodd" d="M46.4447 20.2069C46.5984 19.8557 46.8925 19.2894 47.4105 18.8065C48.1832 18.0909 48.9777 18.0163 49.2982 18.0119C49.285 17.9987 49.2719 17.9855 49.2587 17.9724C49.2587 17.9724 48.7187 17.4895 47.8759 17.3797C46.9759 17.2612 45.1936 18.6616 44.2454 20.6722C43.9249 21.3482 43.4596 22.5994 43.5298 24.3422C43.6615 24.3729 45.0224 24.6846 46.1813 24.3773C46.6247 24.2588 47.0901 24.0656 47.5554 23.7627C47.9066 23.5344 50.1762 22.0682 50.1499 19.8864C50.1455 19.4079 50.0313 19.0172 49.9304 18.7494C49.5572 18.6748 48.8021 18.5914 47.9329 18.9952C47.1998 19.3377 46.7081 19.8776 46.4447 20.2069Z" fill="url(#paint6_linear_302_121)"/>
<path fill-rule="evenodd" clip-rule="evenodd" d="M34.715 16.629C35.4218 17.2831 35.953 17.7748 37.9548 18.4377C37.9328 18.4421 37.9153 18.4465 37.8933 18.4553C37.8845 18.4596 36.7388 18.7406 35.5096 18.4245C33.6834 17.9548 32.5639 16.392 32.4893 16.2822C31.4401 14.7809 31.4884 13.2356 31.5191 12.7703C32.2171 12.7176 33.2356 12.7176 34.4297 12.9766C35.2242 13.1522 36.2471 13.3849 37.3095 14.1312C37.8231 14.4911 39.5264 15.694 39.3508 17.1119C39.2981 17.5334 39.0962 17.8538 38.925 18.0645C37.0153 17.8363 35.5096 17.0549 34.715 16.629Z" fill="url(#paint7_linear_302_121)"/>
<path fill-rule="evenodd" clip-rule="evenodd" d="M38.4946 21.1946C38.7843 20.896 39.2979 20.4263 39.9959 20.1366C41.0363 19.702 41.8441 19.9215 42.1646 20.0356C42.1602 20.0224 42.1514 20.0049 42.1382 19.9829C41.7168 19.1357 40.5798 18.903 40.2286 18.8328C38.6482 18.5123 36.8571 19.6537 35.8562 20.6678C34.5568 21.9847 34.1441 23.5256 33.9949 24.3202C34.2407 24.5002 35.2065 25.1762 36.4181 25.3343C36.9405 25.4045 37.5288 25.3913 38.1741 25.2421C38.6087 25.1411 41.4139 24.5002 42.2568 22.2701C42.4411 21.7828 42.485 21.3394 42.4894 21.0277C42.1514 20.8126 41.4446 20.4439 40.4305 20.5273C39.5789 20.5931 38.8853 20.9531 38.4946 21.1946Z" fill="url(#paint8_linear_302_121)"/>
<path fill-rule="evenodd" clip-rule="evenodd" d="M26.6726 15.3208C27.2697 16.0759 27.7131 16.6466 29.592 17.6168C29.5788 17.6168 29.57 17.6168 29.5612 17.6212C29.5437 17.6212 29.5305 17.6255 29.5305 17.6255C29.5129 17.6299 27.4936 17.586 26.2073 16.7388C24.7806 15.7949 23.7841 13.5517 24.1221 11.0187C24.7323 11.2338 25.6059 11.5586 26.6375 12.0152C27.8316 12.542 28.4286 12.8054 29.0257 13.2444C29.3681 13.4946 31.5279 15.0706 31.1767 16.5325C31.0802 16.9407 30.8124 17.2305 30.606 17.4061C28.7535 16.8705 27.3926 15.8608 26.6726 15.3208Z" fill="url(#paint9_linear_302_121)"/>
<path fill-rule="evenodd" clip-rule="evenodd" d="M29.7762 20.8214C30.0571 20.5141 30.5576 20.0312 31.2512 19.7195C32.2784 19.2542 33.095 19.4561 33.4154 19.5615C33.4067 19.5439 33.3979 19.5264 33.3891 19.5088C33.3891 19.5088 33.0423 18.8503 32.2433 18.4201C31.4707 18.0031 29.0957 18.2138 27.3661 19.7766C25.6628 21.3175 25.4213 23.4159 25.373 24.0656C25.6233 24.2412 26.6066 24.8865 27.8226 25.0094C28.3494 25.0621 28.9377 25.0358 29.5742 24.8689C30.0088 24.7592 32.7921 24.0392 33.5735 21.7872C33.7447 21.2955 33.7754 20.8478 33.7754 20.5405C33.433 20.3341 32.7174 19.9829 31.7077 20.0971C30.8473 20.1893 30.1581 20.5712 29.7762 20.8214Z" fill="url(#paint10_linear_302_121)"/>
<path fill-rule="evenodd" clip-rule="evenodd" d="M13.8802 33.1352C13.968 33.2143 15.263 32.1958 16.062 30.6066C16.1454 30.4398 16.4132 29.8867 16.6283 29.1097C16.8127 28.4424 16.8917 27.8497 16.9224 27.402C16.9356 27.4239 16.94 27.4327 16.94 27.4327L16.9224 27.402C16.9312 27.3932 17.6424 28.0078 17.9277 28.8068C18.178 29.5048 18.0243 30.1325 17.9058 30.6374C17.6468 31.7041 17.1024 32.3758 16.4176 33.2187C16.2903 33.3767 15.6669 34.1362 14.6572 34.9702C13.9987 35.5146 13.4588 35.857 12.9627 36.1687C12.2823 36.5945 11.3604 37.1213 10.2014 37.6349C10.3726 35.756 10.7194 34.2064 11.0443 33.0474C11.413 31.7392 11.7906 30.8042 12.0979 30.0491C12.5764 28.8638 12.8442 28.4029 13.0242 28.1219C13.5027 27.3581 14.3236 26.0455 15.184 26.186C15.6318 26.2562 15.9083 26.6908 15.9522 26.761C16.1586 27.0815 16.2244 27.4942 16.062 28.4204C15.8249 29.7638 15.3596 30.7208 15.285 30.8788C14.5431 32.3802 13.81 33.0738 13.8802 33.1352Z" fill="url(#paint11_linear_302_121)"/>
<path opacity="0.21" d="M45.861 37.7666C46.8531 39.8167 46.3483 42.1434 44.7328 42.9643C43.1173 43.7853 41.0057 42.7887 40.0136 40.7342C39.0214 38.6841 39.5263 36.3575 41.1418 35.5365C42.7573 34.7156 44.8689 35.7165 45.861 37.7666Z" fill="url(#paint12_radial_302_121)"/>
<path d="M102.459 12.7157H90.5053V12.7952H90.5106V49.2101H90.5V49.2896H96.5621V49.2101H96.5568V34.2921H104.844C111.646 34.2921 118.65 32.2511 118.65 23.7106C118.65 15.1649 110.336 12.7157 102.459 12.7157ZM103.71 34.2179H96.5568V12.7952H102.576C110.597 12.7952 112.141 18.632 112.141 23.7584C112.141 29.4997 109.32 34.2179 103.71 34.2179Z" fill="#BF4E70"/>
<path d="M132.153 12L118.256 49.2101H118.347L123.429 35.6175H135.176L140.935 49.2101H147.939L132.153 12ZM123.461 35.5433L128.954 20.8532L135.149 35.5433H123.461Z" fill="#BF4E70"/>
<path d="M187.665 48.7754C186.648 49.0564 185.137 49.4434 183.944 49.4434C180.66 49.4434 179.495 47.8317 179.495 43.2673V38.1197C179.495 36.2536 178.712 34.1914 177.142 32.7865C175.599 31.387 173.332 29.9821 170.367 29.5739C175.482 28.5508 178.622 26.0803 178.622 21.6696C178.622 19.4007 177.664 17.3066 175.716 15.5731C173.768 13.813 170.25 12.7157 165.832 12.7157H153.847V12.7952H153.857V49.2101L153.852 49.2154V49.2896H159.898V49.2154L159.903 49.2101V29.5739H166.413C168.77 29.5739 170.718 30.1624 171.879 31.4612C173.071 32.76 173.449 35.416 173.449 37.3245V43.2938C173.449 45.743 174.556 47.5508 176.27 48.4467C178.015 49.3373 179.729 49.6978 181.618 49.6978C183.742 49.6978 185.743 49.4168 187.691 48.8549L187.665 48.7754ZM159.903 29.4997V12.7952H165.369C167.924 12.7952 169.931 13.9668 170.979 15.8276C172.054 17.6883 172.576 19.8036 172.576 22.1256C172.576 24.6013 172.315 26.0803 171.586 27.4322C170.862 28.7575 169.436 29.4997 167.344 29.4997H159.903Z" fill="#BF4E70"/>
<path d="M203.802 12L189.905 49.2101H189.996L195.084 35.6175H206.825L212.584 49.2101H219.588L203.802 12ZM195.111 35.5433L200.603 20.8532L206.799 35.5433H195.111Z" fill="#BF4E70"/>
<path d="M258.819 12.7157V49.2896H252.773V12.7952H252.624L239.69 50H239.605L226.172 15.7533C225.938 15.1384 225.82 13.3306 225.82 12.7952H225.592V49.2896H225.501V12.7952H225.496V12.7157H231.84L242.831 40.7439L252.565 12.7157H258.819Z" fill="#BF4E70"/>
<path d="M278.714 12L264.817 49.2101H264.908L269.991 35.6175H281.737L287.496 49.2101H294.5L278.714 12ZM270.023 35.5433L275.515 20.8532L281.71 35.5433H270.023Z" fill="#BF4E70"/>
<path d="M91.0182 70.8779C90.8556 70.8779 90.7286 70.8322 90.6372 70.7406C90.5457 70.6491 90.5 70.5169 90.5 70.344V60.656C90.5 60.4831 90.5457 60.3509 90.6372 60.2594C90.7286 60.1678 90.8556 60.1221 91.0182 60.1221H96.7793C96.9216 60.1221 97.0283 60.1577 97.0994 60.2288C97.1705 60.3 97.2061 60.3967 97.2061 60.5187C97.2061 60.6611 97.1705 60.7679 97.0994 60.8391C97.0283 60.9001 96.9216 60.9307 96.7793 60.9307H91.4145V65.0194H96.4745C96.6168 65.0194 96.7235 65.055 96.7946 65.1262C96.8657 65.1872 96.9013 65.2839 96.9013 65.4161C96.9013 65.5483 96.8657 65.65 96.7946 65.7212C96.7235 65.7924 96.6168 65.828 96.4745 65.828H91.4145V70.0693H96.7793C96.9216 70.0693 97.0283 70.1049 97.0994 70.1761C97.1705 70.2372 97.2061 70.3338 97.2061 70.466C97.2061 70.5982 97.1705 70.7 97.0994 70.7712C97.0283 70.8423 96.9216 70.8779 96.7793 70.8779H91.0182Z" fill="#272324"/>
<path d="M98.7665 70.9695C98.6344 70.9695 98.5278 70.939 98.4465 70.8779C98.3753 70.8067 98.3347 70.7254 98.3245 70.6338C98.3144 70.5321 98.3449 70.4304 98.416 70.3287L102.196 65.2178V65.5229L98.6598 60.7171C98.5786 60.595 98.5379 60.4831 98.5379 60.3814C98.5481 60.2797 98.5938 60.1983 98.6751 60.1373C98.7564 60.0661 98.8529 60.0305 98.9647 60.0305C99.0764 60.0305 99.1679 60.0559 99.239 60.1068C99.3203 60.1475 99.4016 60.2238 99.4829 60.3356L102.79 64.8516H102.501L105.777 60.3356C105.849 60.2238 105.925 60.1475 106.006 60.1068C106.087 60.0559 106.184 60.0305 106.296 60.0305C106.418 60.0305 106.514 60.061 106.585 60.1221C106.667 60.1831 106.707 60.2695 106.707 60.3814C106.717 60.4831 106.682 60.595 106.6 60.7171L103.049 65.5229V65.2178L106.829 70.3287C106.91 70.4304 106.946 70.5321 106.936 70.6338C106.926 70.7254 106.88 70.8067 106.799 70.8779C106.717 70.939 106.611 70.9695 106.479 70.9695C106.387 70.9695 106.296 70.9441 106.204 70.8932C106.123 70.8423 106.042 70.7661 105.96 70.6644L102.424 65.828H102.821L99.2847 70.6644C99.2136 70.7661 99.1323 70.8423 99.0409 70.8932C98.9494 70.9441 98.858 70.9695 98.7665 70.9695Z" fill="#272324"/>
<path d="M112.976 71C111.949 71 111.07 70.7813 110.339 70.344C109.607 69.8964 109.043 69.2607 108.647 68.4369C108.261 67.613 108.068 66.6315 108.068 65.4924C108.068 64.638 108.175 63.8752 108.388 63.2039C108.612 62.5224 108.932 61.9478 109.348 61.4799C109.775 61.0018 110.293 60.6357 110.903 60.3814C111.523 60.1271 112.214 60 112.976 60C113.646 60 114.271 60.0966 114.85 60.2899C115.429 60.4831 115.927 60.7679 116.344 61.1442C116.445 61.2358 116.512 61.3324 116.542 61.4341C116.572 61.5358 116.572 61.6325 116.542 61.724C116.522 61.8054 116.476 61.8766 116.405 61.9376C116.334 61.9884 116.247 62.0139 116.146 62.0139C116.054 62.0037 115.953 61.9528 115.841 61.8613C115.455 61.5257 115.023 61.2765 114.545 61.1137C114.078 60.951 113.56 60.8696 112.991 60.8696C112.147 60.8696 111.431 61.0527 110.842 61.4189C110.263 61.7749 109.821 62.2987 109.516 62.9903C109.221 63.6819 109.074 64.516 109.074 65.4924C109.074 66.479 109.221 67.3181 109.516 68.0097C109.821 68.7013 110.263 69.2302 110.842 69.5964C111.431 69.9524 112.147 70.1304 112.991 70.1304C113.55 70.1304 114.068 70.049 114.545 69.8863C115.023 69.7134 115.46 69.4591 115.856 69.1234C115.968 69.0319 116.07 68.9861 116.161 68.9861C116.263 68.9861 116.344 69.0166 116.405 69.0777C116.476 69.1285 116.527 69.1997 116.557 69.2913C116.588 69.3726 116.588 69.4591 116.557 69.5506C116.537 69.6422 116.481 69.7286 116.39 69.81C115.953 70.2067 115.445 70.5067 114.865 70.7101C114.296 70.9034 113.666 71 112.976 71Z" fill="#272324"/>
<path d="M119.178 70.8779C119.035 70.8779 118.918 70.8373 118.827 70.7559C118.746 70.6644 118.705 70.5423 118.705 70.3897V60.534C118.705 60.3712 118.746 60.2492 118.827 60.1678C118.908 60.0865 119.02 60.0458 119.162 60.0458C119.315 60.0458 119.432 60.0865 119.513 60.1678C119.594 60.2492 119.635 60.3712 119.635 60.534V70.0388H124.878C125.03 70.0388 125.142 70.0744 125.213 70.1456C125.294 70.2168 125.335 70.3185 125.335 70.4508C125.335 70.5932 125.294 70.7 125.213 70.7712C125.142 70.8423 125.03 70.8779 124.878 70.8779H119.178Z" fill="#272324"/>
<path d="M130.575 71C129.894 71 129.289 70.9085 128.761 70.7254C128.233 70.5423 127.791 70.2677 127.435 69.9015C127.09 69.5354 126.825 69.0828 126.642 68.5437C126.47 68.0046 126.383 67.3842 126.383 66.6824V60.5035C126.383 60.3407 126.424 60.2238 126.505 60.1526C126.587 60.0712 126.698 60.0305 126.841 60.0305C126.993 60.0305 127.11 60.0712 127.191 60.1526C127.272 60.2238 127.313 60.3407 127.313 60.5035V66.6061C127.313 67.7961 127.587 68.6861 128.136 69.276C128.695 69.8558 129.508 70.1456 130.575 70.1456C131.652 70.1456 132.465 69.8558 133.013 69.276C133.562 68.6861 133.836 67.7961 133.836 66.6061V60.5035C133.836 60.3407 133.877 60.2238 133.958 60.1526C134.039 60.0712 134.156 60.0305 134.309 60.0305C134.451 60.0305 134.563 60.0712 134.644 60.1526C134.725 60.2238 134.766 60.3407 134.766 60.5035V66.6824C134.766 67.6181 134.608 68.4115 134.294 69.0624C133.979 69.7032 133.506 70.1863 132.876 70.5118C132.256 70.8373 131.489 71 130.575 71Z" fill="#272324"/>
<path d="M140.842 71C140.354 71 139.881 70.9593 139.424 70.8779C138.967 70.7966 138.54 70.6745 138.144 70.5118C137.758 70.3389 137.407 70.1304 137.092 69.8863C136.991 69.8151 136.92 69.7337 136.879 69.6422C136.848 69.5405 136.843 69.4489 136.864 69.3675C136.894 69.276 136.94 69.1997 137.001 69.1387C137.072 69.0777 137.153 69.0472 137.245 69.0472C137.336 69.037 137.433 69.0675 137.534 69.1387C138.002 69.4845 138.494 69.7388 139.013 69.9015C139.541 70.0643 140.151 70.1456 140.842 70.1456C141.807 70.1456 142.528 69.9575 143.006 69.5811C143.494 69.2048 143.737 68.7115 143.737 68.1012C143.737 67.5927 143.56 67.196 143.204 66.9112C142.859 66.6264 142.284 66.4027 141.482 66.2399L139.942 65.9196C138.977 65.7263 138.261 65.4008 137.793 64.9431C137.326 64.4854 137.092 63.8752 137.092 63.1123C137.092 62.6445 137.184 62.2224 137.367 61.846C137.55 61.4595 137.809 61.129 138.144 60.8544C138.479 60.5798 138.875 60.3712 139.333 60.2288C139.8 60.0763 140.313 60 140.872 60C141.533 60 142.137 60.0915 142.686 60.2746C143.245 60.4577 143.753 60.7476 144.21 61.1442C144.301 61.2154 144.362 61.3019 144.393 61.4036C144.423 61.4951 144.423 61.5867 144.393 61.6782C144.362 61.7596 144.317 61.8257 144.256 61.8766C144.195 61.9274 144.118 61.9579 144.027 61.9681C143.936 61.9681 143.839 61.9274 143.737 61.846C143.311 61.5002 142.864 61.251 142.396 61.0985C141.939 60.9357 141.431 60.8544 140.872 60.8544C140.303 60.8544 139.805 60.9459 139.378 61.129C138.962 61.3121 138.637 61.5714 138.403 61.9071C138.169 62.2427 138.052 62.6394 138.052 63.0971C138.052 63.626 138.215 64.0481 138.54 64.3634C138.865 64.6787 139.389 64.9075 140.11 65.0499L141.665 65.3703C142.691 65.5839 143.453 65.9043 143.951 66.3315C144.449 66.7485 144.698 67.3232 144.698 68.0555C144.698 68.4928 144.606 68.8946 144.423 69.2607C144.251 69.6167 143.997 69.927 143.661 70.1914C143.326 70.4558 142.919 70.6593 142.442 70.8017C141.975 70.9339 141.441 71 140.842 71Z" fill="#272324"/>
<path d="M147.204 70.9695C147.061 70.9695 146.95 70.9288 146.868 70.8474C146.787 70.7559 146.746 70.6338 146.746 70.4813V60.5187C146.746 60.356 146.787 60.2339 146.868 60.1526C146.95 60.0712 147.061 60.0305 147.204 60.0305C147.356 60.0305 147.473 60.0712 147.554 60.1526C147.635 60.2339 147.676 60.356 147.676 60.5187V70.4813C147.676 70.6338 147.635 70.7559 147.554 70.8474C147.483 70.9288 147.366 70.9695 147.204 70.9695Z" fill="#272324"/>
<path d="M154.247 70.9695C154.105 70.9695 153.983 70.9339 153.881 70.8627C153.79 70.7813 153.708 70.6694 153.637 70.527L149.354 60.6255C149.314 60.4933 149.304 60.3865 149.324 60.3051C149.344 60.2136 149.395 60.1475 149.476 60.1068C149.558 60.0559 149.649 60.0305 149.751 60.0305C149.893 60.0305 150 60.061 150.071 60.1221C150.142 60.1831 150.208 60.2746 150.269 60.3967L154.475 70.1914H154.049L158.255 60.3967C158.306 60.2746 158.372 60.1831 158.453 60.1221C158.535 60.061 158.641 60.0305 158.773 60.0305C158.885 60.0305 158.977 60.0559 159.048 60.1068C159.119 60.1577 159.16 60.2288 159.17 60.3204C159.19 60.4018 159.175 60.5035 159.124 60.6255L154.841 70.527C154.79 70.6694 154.714 70.7813 154.613 70.8627C154.521 70.9339 154.399 70.9695 154.247 70.9695Z" fill="#272324"/>
<path d="M161.33 70.8779C161.167 70.8779 161.04 70.8322 160.949 70.7406C160.857 70.6491 160.812 70.5169 160.812 70.344V60.656C160.812 60.4831 160.857 60.3509 160.949 60.2594C161.04 60.1678 161.167 60.1221 161.33 60.1221H167.091C167.233 60.1221 167.34 60.1577 167.411 60.2288C167.482 60.3 167.518 60.3967 167.518 60.5187C167.518 60.6611 167.482 60.7679 167.411 60.8391C167.34 60.9001 167.233 60.9307 167.091 60.9307H161.726V65.0194H166.786C166.928 65.0194 167.035 65.055 167.106 65.1262C167.177 65.1872 167.213 65.2839 167.213 65.4161C167.213 65.5483 167.177 65.65 167.106 65.7212C167.035 65.7924 166.928 65.828 166.786 65.828H161.726V70.0693H167.091C167.233 70.0693 167.34 70.1049 167.411 70.1761C167.482 70.2372 167.518 70.3338 167.518 70.466C167.518 70.5982 167.482 70.7 167.411 70.7712C167.34 70.8423 167.233 70.8779 167.091 70.8779H161.33Z" fill="#272324"/>
<path d="M173.951 70.8779C173.789 70.8779 173.662 70.8322 173.57 70.7406C173.479 70.6491 173.433 70.5169 173.433 70.344V60.656C173.433 60.4831 173.479 60.3509 173.57 60.2594C173.662 60.1678 173.789 60.1221 173.951 60.1221H177.533C178.275 60.1221 178.9 60.2339 179.408 60.4577C179.916 60.6713 180.307 60.9866 180.581 61.4036C180.856 61.8206 180.993 62.3343 180.993 62.9445C180.993 63.6158 180.79 64.1752 180.383 64.6227C179.987 65.0703 179.448 65.3652 178.768 65.5076V65.294C179.53 65.3754 180.129 65.65 180.566 66.1179C181.013 66.5756 181.237 67.1859 181.237 67.9487C181.237 68.9048 180.932 69.632 180.322 70.1304C179.713 70.6288 178.849 70.8779 177.731 70.8779H173.951ZM174.348 70.0846H177.655C178.539 70.0846 179.199 69.9117 179.636 69.5659C180.073 69.2099 180.292 68.6759 180.292 67.9639C180.292 67.2316 180.073 66.6926 179.636 66.3467C179.199 66.0009 178.539 65.828 177.655 65.828H174.348V70.0846ZM174.348 65.0347H177.426C178.28 65.0347 178.93 64.8618 179.377 64.516C179.824 64.16 180.048 63.6463 180.048 62.975C180.048 62.3037 179.824 61.7952 179.377 61.4494C178.93 61.0934 178.28 60.9154 177.426 60.9154H174.348V65.0347Z" fill="#272324"/>
<path d="M184.177 70.8779C184.014 70.8779 183.887 70.8322 183.796 70.7406C183.704 70.6491 183.658 70.5169 183.658 70.344V60.656C183.658 60.4831 183.704 60.3509 183.796 60.2594C183.887 60.1678 184.014 60.1221 184.177 60.1221H189.938C190.08 60.1221 190.187 60.1577 190.258 60.2288C190.329 60.3 190.365 60.3967 190.365 60.5187C190.365 60.6611 190.329 60.7679 190.258 60.8391C190.187 60.9001 190.08 60.9307 189.938 60.9307H184.573V65.0194H189.633C189.775 65.0194 189.882 65.055 189.953 65.1262C190.024 65.1872 190.06 65.2839 190.06 65.4161C190.06 65.5483 190.024 65.65 189.953 65.7212C189.882 65.7924 189.775 65.828 189.633 65.828H184.573V70.0693H189.938C190.08 70.0693 190.187 70.1049 190.258 70.1761C190.329 70.2372 190.365 70.3338 190.365 70.466C190.365 70.5982 190.329 70.7 190.258 70.7712C190.187 70.8423 190.08 70.8779 189.938 70.8779H184.177Z" fill="#272324"/>
<path d="M191.836 70.9695C191.704 70.9695 191.597 70.939 191.516 70.8779C191.445 70.8271 191.404 70.7508 191.394 70.6491C191.394 70.5474 191.419 70.4355 191.47 70.3135L195.753 60.4577C195.824 60.3051 195.91 60.1983 196.012 60.1373C196.113 60.0661 196.215 60.0305 196.317 60.0305C196.439 60.0305 196.545 60.0661 196.637 60.1373C196.738 60.1983 196.82 60.3051 196.881 60.4577L201.163 70.3135C201.224 70.4355 201.25 70.5474 201.24 70.6491C201.24 70.7508 201.204 70.8271 201.133 70.8779C201.072 70.939 200.975 70.9695 200.843 70.9695C200.701 70.9695 200.584 70.9339 200.493 70.8627C200.411 70.7813 200.34 70.6745 200.279 70.5423L199.106 67.7809L199.609 68.0097H193.009L193.527 67.7809L192.354 70.5423C192.293 70.6949 192.217 70.8067 192.125 70.8779C192.044 70.939 191.947 70.9695 191.836 70.9695ZM196.301 61.2816L193.71 67.3842L193.36 67.2011H199.258L198.938 67.3842L196.332 61.2816H196.301Z" fill="#272324"/>
<path d="M207.257 71C206.576 71 205.971 70.9085 205.443 70.7254C204.915 70.5423 204.473 70.2677 204.117 69.9015C203.772 69.5354 203.507 69.0828 203.324 68.5437C203.152 68.0046 203.065 67.3842 203.065 66.6824V60.5035C203.065 60.3407 203.106 60.2238 203.187 60.1526C203.269 60.0712 203.38 60.0305 203.523 60.0305C203.675 60.0305 203.792 60.0712 203.873 60.1526C203.954 60.2238 203.995 60.3407 203.995 60.5035V66.6061C203.995 67.7961 204.269 68.6861 204.818 69.276C205.377 69.8558 206.19 70.1456 207.257 70.1456C208.334 70.1456 209.147 69.8558 209.695 69.276C210.244 68.6861 210.518 67.7961 210.518 66.6061V60.5035C210.518 60.3407 210.559 60.2238 210.64 60.1526C210.721 60.0712 210.838 60.0305 210.991 60.0305C211.133 60.0305 211.245 60.0712 211.326 60.1526C211.407 60.2238 211.448 60.3407 211.448 60.5035V66.6824C211.448 67.6181 211.29 68.4115 210.975 69.0624C210.661 69.7032 210.188 70.1863 209.558 70.5118C208.938 70.8373 208.171 71 207.257 71Z" fill="#272324"/>
<path d="M217.295 70.9695C217.143 70.9695 217.026 70.9288 216.944 70.8474C216.863 70.7559 216.822 70.6338 216.822 70.4813V60.9612H213.18C213.038 60.9612 212.926 60.9205 212.845 60.8391C212.763 60.7577 212.723 60.656 212.723 60.534C212.723 60.4018 212.763 60.3 212.845 60.2288C212.926 60.1577 213.038 60.1221 213.18 60.1221H221.425C221.568 60.1221 221.674 60.1577 221.745 60.2288C221.827 60.3 221.867 60.4018 221.867 60.534C221.867 60.6662 221.827 60.773 221.745 60.8544C221.674 60.9256 221.568 60.9612 221.425 60.9612H217.767V70.4813C217.767 70.6338 217.727 70.7559 217.646 70.8474C217.574 70.9288 217.458 70.9695 217.295 70.9695Z" fill="#272324"/>
<path d="M226.388 70.9695C226.235 70.9695 226.118 70.9288 226.037 70.8474C225.956 70.7559 225.915 70.6288 225.915 70.466V65.294L226.144 66.0264L222.242 60.7018C222.161 60.5899 222.12 60.4831 222.12 60.3814C222.13 60.2695 222.171 60.1831 222.242 60.1221C222.323 60.061 222.42 60.0305 222.532 60.0305C222.643 60.0305 222.74 60.0559 222.821 60.1068C222.913 60.1475 222.994 60.2238 223.065 60.3356L226.54 65.0957H226.266L229.756 60.3356C229.837 60.2238 229.913 60.1475 229.985 60.1068C230.066 60.0559 230.162 60.0305 230.274 60.0305C230.386 60.0305 230.477 60.061 230.548 60.1221C230.62 60.1831 230.655 60.2695 230.655 60.3814C230.665 60.4831 230.625 60.595 230.533 60.7171L226.647 66.0264L226.86 65.294V70.466C226.86 70.8017 226.703 70.9695 226.388 70.9695Z" fill="#272324"/>
<path d="M239.448 71C238.96 71 238.487 70.9593 238.03 70.8779C237.573 70.7966 237.146 70.6745 236.75 70.5118C236.364 70.3389 236.013 70.1304 235.698 69.8863C235.597 69.8151 235.526 69.7337 235.485 69.6422C235.454 69.5405 235.449 69.4489 235.47 69.3675C235.5 69.276 235.546 69.1997 235.607 69.1387C235.678 69.0777 235.759 69.0472 235.851 69.0472C235.942 69.037 236.039 69.0675 236.14 69.1387C236.608 69.4845 237.1 69.7388 237.619 69.9015C238.147 70.0643 238.757 70.1456 239.448 70.1456C240.413 70.1456 241.134 69.9575 241.612 69.5811C242.1 69.2048 242.343 68.7115 242.343 68.1012C242.343 67.5927 242.166 67.196 241.81 66.9112C241.465 66.6264 240.89 66.4027 240.088 66.2399L238.548 65.9196C237.583 65.7263 236.867 65.4008 236.399 64.9431C235.932 64.4854 235.698 63.8752 235.698 63.1123C235.698 62.6445 235.79 62.2224 235.973 61.846C236.156 61.4595 236.415 61.129 236.75 60.8544C237.085 60.5798 237.482 60.3712 237.939 60.2288C238.406 60.0763 238.919 60 239.478 60C240.139 60 240.743 60.0915 241.292 60.2746C241.851 60.4577 242.359 60.7476 242.816 61.1442C242.907 61.2154 242.968 61.3019 242.999 61.4036C243.029 61.4951 243.029 61.5867 242.999 61.6782C242.968 61.7596 242.923 61.8257 242.862 61.8766C242.801 61.9274 242.724 61.9579 242.633 61.9681C242.542 61.9681 242.445 61.9274 242.343 61.846C241.917 61.5002 241.47 61.251 241.002 61.0985C240.545 60.9357 240.037 60.8544 239.478 60.8544C238.909 60.8544 238.411 60.9459 237.984 61.129C237.568 61.3121 237.243 61.5714 237.009 61.9071C236.775 62.2427 236.658 62.6394 236.658 63.0971C236.658 63.626 236.821 64.0481 237.146 64.3634C237.471 64.6787 237.995 64.9075 238.716 65.0499L240.271 65.3703C241.297 65.5839 242.059 65.9043 242.557 66.3315C243.055 66.7485 243.304 67.3232 243.304 68.0555C243.304 68.4928 243.212 68.8946 243.029 69.2607C242.857 69.6167 242.603 69.927 242.267 70.1914C241.932 70.4558 241.525 70.6593 241.048 70.8017C240.581 70.9339 240.047 71 239.448 71Z" fill="#272324"/>
<path d="M244.971 70.9695C244.839 70.9695 244.733 70.939 244.651 70.8779C244.58 70.8271 244.54 70.7508 244.529 70.6491C244.529 70.5474 244.555 70.4355 244.606 70.3135L248.888 60.4577C248.959 60.3051 249.046 60.1983 249.147 60.1373C249.249 60.0661 249.351 60.0305 249.452 60.0305C249.574 60.0305 249.681 60.0661 249.772 60.1373C249.874 60.1983 249.955 60.3051 250.016 60.4577L254.299 70.3135C254.36 70.4355 254.385 70.5474 254.375 70.6491C254.375 70.7508 254.34 70.8271 254.268 70.8779C254.207 70.939 254.111 70.9695 253.979 70.9695C253.837 70.9695 253.72 70.9339 253.628 70.8627C253.547 70.7813 253.476 70.6745 253.415 70.5423L252.241 67.7809L252.744 68.0097H246.145L246.663 67.7809L245.49 70.5423C245.429 70.6949 245.352 70.8067 245.261 70.8779C245.18 70.939 245.083 70.9695 244.971 70.9695ZM249.437 61.2816L246.846 67.3842L246.495 67.2011H252.394L252.074 67.3842L249.467 61.2816H249.437Z" fill="#272324"/>
<path d="M256.824 70.8779C256.682 70.8779 256.565 70.8373 256.474 70.7559C256.392 70.6644 256.352 70.5423 256.352 70.3897V60.534C256.352 60.3712 256.392 60.2492 256.474 60.1678C256.555 60.0865 256.667 60.0458 256.809 60.0458C256.961 60.0458 257.078 60.0865 257.159 60.1678C257.241 60.2492 257.281 60.3712 257.281 60.534V70.0388H262.524C262.677 70.0388 262.788 70.0744 262.86 70.1456C262.941 70.2168 262.981 70.3185 262.981 70.4508C262.981 70.5932 262.941 70.7 262.86 70.7712C262.788 70.8423 262.677 70.8779 262.524 70.8779H256.824Z" fill="#272324"/>
<path d="M268.331 71C267.356 71 266.508 70.7762 265.786 70.3287C265.065 69.8812 264.506 69.2455 264.11 68.4216C263.724 67.5978 263.531 66.6214 263.531 65.4924C263.531 64.638 263.637 63.8752 263.851 63.2039C264.074 62.5224 264.394 61.9478 264.811 61.4799C265.227 61.0018 265.73 60.6357 266.32 60.3814C266.919 60.1271 267.59 60 268.331 60C269.327 60 270.186 60.2238 270.907 60.6713C271.629 61.1086 272.182 61.7393 272.569 62.5631C272.955 63.3768 273.148 64.3481 273.148 65.4771C273.148 66.3315 273.036 67.0994 272.812 67.7809C272.589 68.4623 272.269 69.0421 271.852 69.5201C271.436 69.9982 270.928 70.3643 270.328 70.6186C269.739 70.8729 269.073 71 268.331 71ZM268.331 70.1456C269.144 70.1456 269.835 69.9626 270.404 69.5964C270.973 69.2302 271.405 68.7013 271.7 68.0097C272.005 67.3181 272.157 66.479 272.157 65.4924C272.157 64.0176 271.822 62.8784 271.151 62.0749C270.491 61.2612 269.551 60.8544 268.331 60.8544C267.529 60.8544 266.843 61.0374 266.274 61.4036C265.705 61.7698 265.268 62.2987 264.963 62.9903C264.669 63.6819 264.521 64.516 264.521 65.4924C264.521 66.957 264.856 68.1012 265.527 68.9251C266.198 69.7388 267.133 70.1456 268.331 70.1456Z" fill="#272324"/>
<path d="M279.896 71C278.921 71 278.072 70.7762 277.351 70.3287C276.63 69.8812 276.071 69.2455 275.674 68.4216C275.288 67.5978 275.095 66.6214 275.095 65.4924C275.095 64.638 275.202 63.8752 275.415 63.2039C275.639 62.5224 275.959 61.9478 276.376 61.4799C276.792 61.0018 277.295 60.6357 277.884 60.3814C278.484 60.1271 279.155 60 279.896 60C280.892 60 281.751 60.2238 282.472 60.6713C283.193 61.1086 283.747 61.7393 284.133 62.5631C284.519 63.3768 284.712 64.3481 284.712 65.4771C284.712 66.3315 284.601 67.0994 284.377 67.7809C284.154 68.4623 283.834 69.0421 283.417 69.5201C283 69.9982 282.492 70.3643 281.893 70.6186C281.304 70.8729 280.638 71 279.896 71ZM279.896 70.1456C280.709 70.1456 281.4 69.9626 281.969 69.5964C282.538 69.2302 282.97 68.7013 283.265 68.0097C283.569 67.3181 283.722 66.479 283.722 65.4924C283.722 64.0176 283.387 62.8784 282.716 62.0749C282.055 61.2612 281.116 60.8544 279.896 60.8544C279.094 60.8544 278.408 61.0374 277.839 61.4036C277.27 61.7698 276.833 62.2987 276.528 62.9903C276.233 63.6819 276.086 64.516 276.086 65.4924C276.086 66.957 276.421 68.1012 277.092 68.9251C277.763 69.7388 278.697 70.1456 279.896 70.1456Z" fill="#272324"/>
<path d="M287.529 70.9695C287.387 70.9695 287.275 70.9288 287.194 70.8474C287.122 70.7661 287.087 70.6491 287.087 70.4965V60.5187C287.087 60.356 287.122 60.2339 287.194 60.1526C287.265 60.0712 287.361 60.0305 287.483 60.0305C287.615 60.0305 287.712 60.0509 287.773 60.0915C287.834 60.1322 287.9 60.2085 287.971 60.3204L294.982 69.7642H294.631V60.4882C294.631 60.3356 294.667 60.2238 294.738 60.1526C294.819 60.0712 294.931 60.0305 295.073 60.0305C295.205 60.0305 295.307 60.0712 295.378 60.1526C295.459 60.2238 295.5 60.3356 295.5 60.4882V70.4965C295.5 70.6491 295.464 70.7661 295.393 70.8474C295.332 70.9288 295.241 70.9695 295.119 70.9695C295.007 70.9695 294.916 70.9441 294.845 70.8932C294.774 70.8525 294.697 70.7813 294.616 70.6796L287.62 61.2358H287.956V70.4965C287.956 70.6491 287.915 70.7661 287.834 70.8474C287.763 70.9288 287.661 70.9695 287.529 70.9695Z" fill="#272324"/>
<defs>
<linearGradient id="paint0_linear_302_121" x1="7.95093" y1="17.3679" x2="16.5928" y2="14.6986" gradientUnits="userSpaceOnUse">
<stop stop-color="#97165E"/>
<stop offset="0.017" stop-color="#9B1560"/>
<stop offset="0.1746" stop-color="#B80D6D"/>
<stop offset="0.3426" stop-color="#CE0778"/>
<stop offset="0.5236" stop-color="#DE037F"/>
<stop offset="0.7272" stop-color="#E80184"/>
<stop offset="1" stop-color="#EB0085"/>
</linearGradient>
<linearGradient id="paint1_linear_302_121" x1="19.9282" y1="16.9906" x2="19.8449" y2="9.43549" gradientUnits="userSpaceOnUse">
<stop stop-color="#97165E"/>
<stop offset="0.017" stop-color="#9B1560"/>
<stop offset="0.1746" stop-color="#B80D6D"/>
<stop offset="0.3426" stop-color="#CE0778"/>
<stop offset="0.5236" stop-color="#DE037F"/>
<stop offset="0.7272" stop-color="#E80184"/>
<stop offset="1" stop-color="#EB0085"/>
</linearGradient>
<linearGradient id="paint2_linear_302_121" x1="14.0973" y1="23.4688" x2="25.1976" y2="20.2125" gradientUnits="userSpaceOnUse">
<stop stop-color="#97165E"/>
<stop offset="0.017" stop-color="#9B1560"/>
<stop offset="0.1746" stop-color="#B80D6D"/>
<stop offset="0.3426" stop-color="#CE0778"/>
<stop offset="0.5236" stop-color="#DE037F"/>
<stop offset="0.7272" stop-color="#E80184"/>
<stop offset="1" stop-color="#EB0085"/>
</linearGradient>
<linearGradient id="paint3_linear_302_121" x1="51.9504" y1="15.453" x2="48.6507" y2="10.2541" gradientUnits="userSpaceOnUse">
<stop stop-color="#97165E"/>
<stop offset="0.017" stop-color="#9B1560"/>
<stop offset="0.1746" stop-color="#B80D6D"/>
<stop offset="0.3426" stop-color="#CE0778"/>
<stop offset="0.5236" stop-color="#DE037F"/>
<stop offset="0.7272" stop-color="#E80184"/>
<stop offset="1" stop-color="#EB0085"/>
</linearGradient>
<linearGradient id="paint4_linear_302_121" x1="50.4929" y1="21.3933" x2="56.9169" y2="19.655" gradientUnits="userSpaceOnUse">
<stop stop-color="#97165E"/>
<stop offset="0.017" stop-color="#9B1560"/>
<stop offset="0.1746" stop-color="#B80D6D"/>
<stop offset="0.3426" stop-color="#CE0778"/>
<stop offset="0.5236" stop-color="#DE037F"/>
<stop offset="0.7272" stop-color="#E80184"/>
<stop offset="1" stop-color="#EB0085"/>
</linearGradient>
<linearGradient id="paint5_linear_302_121" x1="44.3666" y1="17.9148" x2="41.9039" y2="11.9604" gradientUnits="userSpaceOnUse">
<stop stop-color="#97165E"/>
<stop offset="0.017" stop-color="#9B1560"/>
<stop offset="0.1746" stop-color="#B80D6D"/>
<stop offset="0.3426" stop-color="#CE0778"/>
<stop offset="0.5236" stop-color="#DE037F"/>
<stop offset="0.7272" stop-color="#E80184"/>
<stop offset="1" stop-color="#EB0085"/>
</linearGradient>
<linearGradient id="paint6_linear_302_121" x1="43.3865" y1="21.8898" x2="50.2424" y2="21.5007" gradientUnits="userSpaceOnUse">
<stop stop-color="#97165E"/>
<stop offset="0.017" stop-color="#9B1560"/>
<stop offset="0.1746" stop-color="#B80D6D"/>
<stop offset="0.3426" stop-color="#CE0778"/>
<stop offset="0.5236" stop-color="#DE037F"/>
<stop offset="0.7272" stop-color="#E80184"/>
<stop offset="1" stop-color="#EB0085"/>
</linearGradient>
<linearGradient id="paint7_linear_302_121" x1="35.3675" y1="18.6304" x2="35.1473" y2="12.6319" gradientUnits="userSpaceOnUse">
<stop stop-color="#97165E"/>
<stop offset="0.017" stop-color="#9B1560"/>
<stop offset="0.1746" stop-color="#B80D6D"/>
<stop offset="0.3426" stop-color="#CE0778"/>
<stop offset="0.5236" stop-color="#DE037F"/>
<stop offset="0.7272" stop-color="#E80184"/>
<stop offset="1" stop-color="#EB0085"/>
</linearGradient>
<linearGradient id="paint8_linear_302_121" x1="34.7518" y1="21.7874" x2="41.6792" y2="24.0491" gradientUnits="userSpaceOnUse">
<stop stop-color="#97165E"/>
<stop offset="0.017" stop-color="#9B1560"/>
<stop offset="0.1746" stop-color="#B80D6D"/>
<stop offset="0.3426" stop-color="#CE0778"/>
<stop offset="0.5236" stop-color="#DE037F"/>
<stop offset="0.7272" stop-color="#E80184"/>
<stop offset="1" stop-color="#EB0085"/>
</linearGradient>
<linearGradient id="paint9_linear_302_121" x1="26.9826" y1="17.3349" x2="27.7023" y2="11.4413" gradientUnits="userSpaceOnUse">
<stop stop-color="#97165E"/>
<stop offset="0.017" stop-color="#9B1560"/>
<stop offset="0.1746" stop-color="#B80D6D"/>
<stop offset="0.3426" stop-color="#CE0778"/>
<stop offset="0.5236" stop-color="#DE037F"/>
<stop offset="0.7272" stop-color="#E80184"/>
<stop offset="1" stop-color="#EB0085"/>
</linearGradient>
<linearGradient id="paint10_linear_302_121" x1="25.974" y1="21.4347" x2="33.0497" y2="23.5322" gradientUnits="userSpaceOnUse">
<stop stop-color="#97165E"/>
<stop offset="0.017" stop-color="#9B1560"/>
<stop offset="0.1746" stop-color="#B80D6D"/>
<stop offset="0.3426" stop-color="#CE0778"/>
<stop offset="0.5236" stop-color="#DE037F"/>
<stop offset="0.7272" stop-color="#E80184"/>
<stop offset="1" stop-color="#EB0085"/>
</linearGradient>
<linearGradient id="paint11_linear_302_121" x1="18.4393" y1="30.7624" x2="9.03899" y2="33.2149" gradientUnits="userSpaceOnUse">
<stop stop-color="#97165E"/>
<stop offset="0.017" stop-color="#9B1560"/>
<stop offset="0.1746" stop-color="#B80D6D"/>
<stop offset="0.3426" stop-color="#CE0778"/>
<stop offset="0.5236" stop-color="#DE037F"/>
<stop offset="0.7272" stop-color="#E80184"/>
<stop offset="1" stop-color="#EB0085"/>
</linearGradient>
<radialGradient id="paint12_radial_302_121" cx="0" cy="0" r="1" gradientUnits="userSpaceOnUse" gradientTransform="translate(42.9288 39.1321) rotate(-34.9575) scale(4.99055 5.81177)">
<stop offset="0.1081" stop-color="#FF0A11" stop-opacity="0.35"/>
<stop offset="0.2449" stop-color="#FF464C" stop-opacity="0.4949"/>
<stop offset="0.4801" stop-color="#FFA9AB" stop-opacity="0.7441"/>
<stop offset="0.6442" stop-color="#FFE7E8" stop-opacity="0.9179"/>
<stop offset="0.7218" stop-color="white"/>
</radialGradient>
</defs>
</svg>
