<svg fill="none" xmlns="http://www.w3.org/2000/svg" viewBox="0 0 296 83"><path d="M56.239 66.45c-3.88-1.576-5.777-3.52-6.796-5.057-.535-.807-1.159-2.015-2.612-4.078-.992-1.413-1.264-1.655-1.936-2.774-.298-.5-.61-1.058-1.176-1.765a11.065 11.065 0 0 0-1.234-1.308c.47.237.9.447 1.29.632.396.189.984.465 1.779.807.29.123.1.04 1.317.545.904.373 1.12.465 1.505.557.43.101.764.18 1.203.101.167-.03.567-.1.962-.412.456-.356.632-.812.715-1.028.127-.337.154-.627.185-.939.035-.351 0-.382.04-.922a5.5 5.5 0 0 1 .105-.82c.065-.295.096-.444.188-.615.048-.088.242-.43.632-.62.338-.162.505-.048.742-.263.145-.132.224-.298.25-.364a1.14 1.14 0 0 0 .101-.452c0-.062 0-.185-.048-.33a1.016 1.016 0 0 0-.263-.403c-.136-.128-.294-.194-.531-.25-.725-.176-1.045.03-1.458-.238-.096-.061-.246-.18-.22-.237.023-.052.176-.026.409-.008.33.026.658.008.988.013.61.013.553.008.619.013.39.03.496.088.957.132.509.052.61.004.667-.031.255-.15.325-.47.347-.575.048-.233-.005-.334-.093-.909-.07-.465-.11-.702-.078-.896.013-.1.07-.5.36-.807.184-.198.311-.194 1.097-.5a11.5 11.5 0 0 0 .966-.422c.447-.224.671-.343.781-.518.281-.452.066-1.05.03-1.142-.065-.188-.232-.421-.57-.89-.171-.238-.197-.264-.307-.422a7.14 7.14 0 0 1-.593-1.019c-.303-.601-.623-1.238-.882-2.05a10.27 10.27 0 0 1-.47-3.41c.057-1.38.404-2.41.676-3.201.303-.878.378-.799.817-1.971.509-1.343.746-2.34.922-3.069 0 0 .355-1.492.333-2.656V21.778c-.022-1.461.027-1.707 0-2.33-.044-1.041-.224-1.405-.087-1.471.206-.101.759.663 1.176 1.233.404.553.663.997.72 1.098.794 1.365 1.18 2.059 1.48 2.599.311.561.939 1.69 1.461 3.06.272.71.79 2.194 1.054 4.14.276 2.04.15 3.634.017 5.14-.188 2.16-.518 3.354-.452 3.371.105.022 1.155-2.901 1.418-6.545.07-.953.167-3.104-.28-5.808-.124-.742-.523-2.937-1.638-5.641-.628-1.523-1.22-2.573-3.275-5.878-3.758-6.054-4.29-6.594-4.18-6.695.426-.386 10.198 6.185 13.144 17.292 1.462 5.514.76 10.448.487 12.24-.807 5.311-2.774 9.179-3.48 10.487-2.71 5.013-4.874 5.68-7.09 10.51-1.423 3.107-1.959 5.948-2.191 7.87Z" fill="#272324" stroke="#000" stroke-width=".322" stroke-miterlimit="10"/><path d="M22.599 49.734c1.093 15.812 5.887 23.433 16.466 25.43-6.216-3.085-10.575-6.848-12.542-13.086-1.866-5.922-2.291-11.809.641-18.789.483 3.512.738 5.874 1.142 8.214C30.694 65.4 41.892 72.763 54.233 68.17c5.07-1.887 9.829-4.75 14.72-7.2C73.556 58.668 80.082 56.658 85.5 58c-9.689 2.546-16.776 12.02-24.538 17.468-10.606 7.445-21.466 10.816-33.166 3.064-9.056-6.001-11.984-18.333-6.61-27.09.262-.426.636-.778 1.413-1.708Z" fill="#272324"/><path d="M25.808 28.736c.421-.223 1.154-.588 1.334-.395.277.29-.886 1.805-1.918 2.858-2.112 2.16-3.46 2.19-7.261 5.005-1.023.755-1.83 1.427-2.586 2.463-.983 1.347-1.343 2.585-1.418 2.857-.597 2.151-.14 4.008.167 4.926a10.8 10.8 0 0 1 1.251-4.447c1.115-2.077 2.656-3.284 3.758-4.131 1.874-1.44 2.428-1.264 6.093-3.652 1.686-1.098 2.169-1.528 2.586-1.985 1.892-2.063 1.949-4.1 2.252-4.052.492.075.711 5.426-1.646 10.967-.839 1.97-1.168 2.739-6.045 9.091-5.91 7.696-8.92 11.006-6.778 20.413.092.4.083.545.035.567-.101.04-.343-.286-.417-.382-1.541-2.033-4.535-4.079-6.52-8.877-.763-1.848-1.066-3.35-1.25-4.289-.22-1.11-.584-3.38-.417-6.277.013-.19.197-2.788.921-5.163 2.213-7.213 8.973-10.79 17.859-15.496ZM19.605 9.228c8.78-9.856 21.677-12.235 30.76-5.102h-11.29c7.16 1.094 15.29-.588 18.45 9.298-3.753-4.728-5.856-5.53-11.133-3.05-5.97 2.804-11.971 2.646-18.108 1.018-2.814-.755-5.65-1.414-8.68-2.164ZM4.692 48.742c-7.01-8.012-6.124-21.31 2.384-29.562-1.084 4.253-1.523 9.759-2.48 13.516 1.777-4.017 2.994-9.745 5.088-14.478 2.94 5.944 2.322 11.067.526 16.12-1.699 4.772-3.613 9.456-5.518 14.404ZM34.908 54.146c.202-.057-.935-3.223-1.343-7.538-.132-1.396-.584-6.12.584-6.436.443-.118 1.027.426 1.672 1.256 5.747 7.397 2.92 19.961 2.73 20.756-.144.619-.557 2.304-1.062 2.3-.32-.004-.513-.694-.785-1.34-.79-1.843-2.015-2.738-2.801-3.586-2.375-2.563-3.13-6.457-3.582-8.7-.584-2.907-.488-5.207-.426-6.476.11-2.234.465-4.02.667-4.925.343-1.528.417-1.273.997-3.56.65-2.573.979-3.894.922-5.497-.018-.483-.106-2.164-.084-2.164.33 1.11 1.304 4.451 1.194 5.567-.452 4.42-1.12 6.497-1.374 10.61-.083 1.343-.092 2.529.268 3.938.202.79.584 1.694 1.352 3.507.645 1.546.97 2.318 1.071 2.288Z" fill="#272324"/><path d="m51.384 34.9-.62-1.146a.924.924 0 0 0 .444-.597c.299.176.601.347.9.523-.15-.215-.294-.435-.443-.65.43.28.86.562 1.29.838-.066-.162-.136-.32-.202-.483.343-.008.69-.013 1.032-.021-.127-.084-.26-.163-.413-.26l.641-.25a6.432 6.432 0 0 1-.5-.074c-.294-.057-.5-.101-.747-.207-.215-.092-.417-.18-.553-.382-.131-.193-.145-.421-.127-.873.013-.286.04-.57.066-.86.022-.268.053-.536.079-.804a2.725 2.725 0 0 0-.307.86c-.053.264-.066.483-.136 1.098-.018.132-.031.241-.115.307-.096.08-.259.066-.408.057-.096-.008-.171-.022-.171-.022-.386-.083-1.901-.11-1.901-.11-.456-.008-1.115-.078-1.953-.377.144.18.258.4.438.531.764.57 1.313.984 1.735 1.212.526.285 1.233.781 1.97 1.69ZM46.858 26.02c.851.082 1.672.135 2.484.258a9.133 9.133 0 0 1 3.71 1.423c.022.017.048.03.07.048.25.167.483.167.65-.11.162-.272.017-.457-.206-.606-1.129-.746-2.371-1.159-3.692-1.334-.852-.115-1.704-.163-2.542.092a3.904 3.904 0 0 0-.356.131c-.035.01-.061.044-.118.097ZM53.75 40.515l1.51-.303c-.36-.229-.76-.25-1.15-.11-.176.062-.303.25-.457.382a.631.631 0 0 1 .097.03Z" fill="#000"/><path fill-rule="evenodd" clip-rule="evenodd" d="M10.763 15.47a5.846 5.846 0 0 1 3.74-.241 5.85 5.85 0 0 1 2.718 1.655c-.004-.022-.004-.04-.009-.062-.843-4.758-8.354-3.841-10.47-3.371.531.957 1.528 2.432 3.275 3.59.926.615 2.941 1.954 5.387 1.533a5.66 5.66 0 0 0 1.826-.654 6.684 6.684 0 0 0-2.3-1.866c-1.831-.904-3.539-.694-4.167-.584Z" fill="url(#a)"/><path fill-rule="evenodd" clip-rule="evenodd" d="M19.038 14.588c.738.834 1.291 1.461 3.21 2.353-.01.004-.018.004-.027.009l-.026.008c-.018.009-3.253.15-5.202-2.375-1.607-2.085-1.243-4.57-1.155-5.092.668-.048 3.06-.145 5.106 1.514.342.277 2.669 2.165 2.397 4.522a3.417 3.417 0 0 1-.268.984c-1.77-.352-3.253-1.375-4.035-1.923Z" fill="url(#b)"/><path fill-rule="evenodd" clip-rule="evenodd" d="M19.183 20.91c.878-.94 1.66-2.183 4.092-3.074-.026-.008-.044-.017-.07-.026-.984-.338-2.353-.206-2.353-.206-2.147.241-3.635 1.22-3.635 1.22-2.3 1.514-2.99 3.867-3.157 4.508.808.457 2.252 1.12 4.127 1.186.803.026 3.086.105 4.956-1.436.364-.298 2.221-1.835 1.857-3.534a2.44 2.44 0 0 0-.588-1.106c-2.292.246-4.258 1.875-5.229 2.467Z" fill="url(#c)"/><path fill-rule="evenodd" clip-rule="evenodd" d="M50.286 13.925c.94.21 1.642.373 3.697-.062a4.532 4.532 0 0 0-.022.022l-.022.022c-.014.013-.848.795-1.164 1.01-.592.4-1.681.356-2.489.14-.935-.25-1.233-.662-2.906-1.769a34.778 34.778 0 0 0-1.787-1.106 12.202 12.202 0 0 1 2.156-1.12 11.2 11.2 0 0 1 2.274-.65c1.031-.175 1.545-.263 2.221-.109.263.062 1.795.417 2.26 1.703.15.413.146.795.12 1.04-1.752.77-3.442.848-4.338.879Z" fill="url(#d)"/><path fill-rule="evenodd" clip-rule="evenodd" d="M53.017 18.907c.057-.417.197-1.102.562-1.734.548-.943 1.268-1.194 1.567-1.268-.018-.01-.03-.022-.049-.031 0 0-.579-.386-1.418-.36-.768.026-1.966 1.163-2.603 2.568-1.145 2.529-.127 5.167.224 5.98.395.039 1.194.06 2.064-.317a4.21 4.21 0 0 0 1.545-1.172c.272-.325 2.028-2.41 1.483-4.79a4.242 4.242 0 0 0-.478-1.198c-.364-.004-1.089.066-1.8.69-.601.522-.93 1.215-1.097 1.632Z" fill="url(#e)"/><path fill-rule="evenodd" clip-rule="evenodd" d="M42.946 15.87c.887.368 1.554.65 3.657.575-.009.004-.018.013-.026.017l-.027.018c-.022.013-1.154.944-1.312 1.062 0 0-.466.364-1.638.43-1.404.08-3.56-1.655-4.991-4.627.632-.11 1.55-.254 2.669-.364 1.295-.123 1.945-.184 2.674-.097.42.053 3.064.373 3.48 1.827.115.403.027.79-.065 1.044-1.848.448-3.53.233-4.42.115Z" fill="url(#f)"/><path fill-rule="evenodd" clip-rule="evenodd" d="M46.445 20.207c.153-.351.447-.918.965-1.4.773-.716 1.568-.79 1.888-.795l-.04-.04s-.54-.483-1.382-.592c-.9-.119-2.682 1.282-3.63 3.292-.321.676-.786 1.927-.716 3.67.131.03 1.492.343 2.651.035a4.758 4.758 0 0 0 1.374-.614c.352-.229 2.621-1.695 2.595-3.877a3.295 3.295 0 0 0-.22-1.137 3.206 3.206 0 0 0-1.997.246c-.733.343-1.225.883-1.488 1.212Z" fill="url(#g)"/><path fill-rule="evenodd" clip-rule="evenodd" d="M34.715 16.629c.707.654 1.238 1.146 3.24 1.809a.323.323 0 0 0-.062.017 5.373 5.373 0 0 1-2.383-.03c-1.827-.47-2.946-2.033-3.02-2.143-1.05-1.501-1.002-3.046-.97-3.512a10.16 10.16 0 0 1 2.91.207c.794.175 1.817.408 2.88 1.154.513.36 2.216 1.563 2.04 2.98a1.886 1.886 0 0 1-.425.953c-1.91-.228-3.415-1.01-4.21-1.435Z" fill="url(#h)"/><path fill-rule="evenodd" clip-rule="evenodd" d="M38.495 21.195c.29-.299.803-.769 1.5-1.058 1.041-.435 1.85-.215 2.17-.101a.289.289 0 0 0-.027-.053c-.421-.847-1.558-1.08-1.91-1.15-1.58-.32-3.37.82-4.372 1.835-1.3 1.317-1.712 2.858-1.861 3.652.246.18 1.212.856 2.423 1.014.523.07 1.11.057 1.756-.092.435-.1 3.24-.742 4.083-2.972.184-.487.228-.93.232-1.242a3.276 3.276 0 0 0-2.058-.5c-.852.065-1.546.425-1.936.667Z" fill="url(#i)"/><path fill-rule="evenodd" clip-rule="evenodd" d="M26.673 15.32c.597.756 1.04 1.327 2.919 2.297-.013 0-.022 0-.03.004a.11.11 0 0 0-.032.005c-.017.004-2.036-.04-3.323-.887-1.426-.944-2.423-3.187-2.085-5.72.61.215 1.484.54 2.515.996 1.195.527 1.792.79 2.389 1.23.342.25 2.502 1.826 2.15 3.287-.096.409-.364.698-.57.874-1.853-.535-3.213-1.545-3.933-2.085Z" fill="url(#j)"/><path fill-rule="evenodd" clip-rule="evenodd" d="M29.776 20.821c.281-.307.782-.79 1.475-1.102 1.027-.465 1.844-.263 2.164-.158l-.026-.052s-.347-.659-1.146-1.089c-.772-.417-3.147-.206-4.877 1.357-1.703 1.54-1.945 3.639-1.993 4.289.25.175 1.234.82 2.45.943a4.924 4.924 0 0 0 1.751-.14c.435-.11 3.218-.83 4-3.082.17-.491.201-.94.201-1.246a3.239 3.239 0 0 0-2.067-.444c-.86.092-1.55.474-1.932.724Z" fill="url(#k)"/><path fill-rule="evenodd" clip-rule="evenodd" d="M13.88 33.135c.088.08 1.383-.94 2.182-2.528.083-.167.351-.72.566-1.497a8.69 8.69 0 0 0 .294-1.708l.018.03-.018-.03c.01-.009.72.606 1.006 1.405.25.698.096 1.326-.022 1.83-.26 1.067-.804 1.739-1.488 2.582-.128.158-.751.917-1.76 1.751-.66.545-1.2.887-1.695 1.199-.68.425-1.603.952-2.762 1.466.172-1.879.518-3.429.843-4.588a26.424 26.424 0 0 1 1.054-2.998c.478-1.185.746-1.646.926-1.927.479-.764 1.3-2.076 2.16-1.936.448.07.724.505.768.575.207.32.272.733.11 1.66-.237 1.343-.702 2.3-.777 2.458-.742 1.501-1.475 2.195-1.405 2.256Z" fill="url(#l)"/><path opacity=".21" d="M45.861 37.767c.992 2.05.487 4.376-1.128 5.197-1.616.821-3.727-.175-4.72-2.23-.992-2.05-.487-4.377 1.129-5.198 1.615-.82 3.727.18 4.719 2.23Z" fill="url(#m)"/><path d="M102.459 12.716H90.505v.08h.006V49.21H90.5v.08h6.062v-.08h-.005V34.292h8.287c6.802 0 13.806-2.04 13.806-10.581 0-8.546-8.314-10.995-16.191-10.995Zm1.251 21.502h-7.153V12.795h6.019c8.021 0 9.565 5.837 9.565 10.963 0 5.742-2.821 10.46-8.431 10.46ZM132.153 12l-13.897 37.21h.091l5.082-13.593h11.747l5.759 13.593h7.004L132.153 12Zm-8.692 23.543 5.493-14.69 6.195 14.69h-11.688ZM187.665 48.775c-1.017.281-2.528.668-3.721.668-3.284 0-4.449-1.611-4.449-6.176V38.12c0-1.866-.783-3.929-2.353-5.334-1.543-1.399-3.81-2.804-6.775-3.212 5.115-1.023 8.255-3.494 8.255-7.904 0-2.27-.958-4.363-2.906-6.097-1.948-1.76-5.466-2.857-9.884-2.857h-11.985v.08h.01V49.21l-.005.005v.075h6.046v-.075l.005-.005V29.574h6.51c2.357 0 4.305.588 5.466 1.887 1.192 1.299 1.57 3.955 1.57 5.864v5.969c0 2.449 1.107 4.257 2.821 5.153 1.745.89 3.459 1.25 5.348 1.25 2.124 0 4.125-.28 6.073-.842l-.026-.08ZM159.903 29.5V12.795h5.466c2.555 0 4.562 1.172 5.61 3.033 1.075 1.86 1.597 3.976 1.597 6.298 0 2.475-.261 3.954-.99 5.306-.724 1.326-2.15 2.068-4.242 2.068h-7.441ZM203.802 12l-13.897 37.21h.091l5.088-13.593h11.741l5.759 13.593h7.004L203.802 12Zm-8.691 23.543 5.492-14.69 6.196 14.69h-11.688ZM258.819 12.716V49.29h-6.046V12.795h-.149L239.69 50h-.085l-13.433-34.247c-.234-.615-.352-2.422-.352-2.958h-.228V49.29h-.091V12.795h-.005v-.08h6.344l10.991 28.029 9.734-28.028h6.254ZM278.714 12l-13.897 37.21h.091l5.083-13.593h11.746l5.759 13.593h7.004L278.714 12Zm-8.691 23.543 5.492-14.69 6.195 14.69h-11.687Z" fill="#BF4E70"/><path d="M91.018 70.878a.514.514 0 0 1-.38-.137c-.092-.092-.138-.224-.138-.397v-9.688c0-.173.046-.305.137-.397a.514.514 0 0 1 .381-.137h5.761c.143 0 .25.036.32.107a.392.392 0 0 1 .107.29c0 .142-.035.249-.107.32-.07.061-.177.092-.32.092h-5.364v4.088h5.06c.142 0 .249.036.32.107.07.061.106.158.106.29 0 .132-.035.234-.106.305-.072.071-.178.107-.32.107h-5.06v4.241h5.364c.143 0 .25.036.32.107.072.061.107.158.107.29 0 .132-.035.234-.107.305-.07.071-.177.107-.32.107h-5.76ZM98.766 70.97a.519.519 0 0 1-.32-.092.401.401 0 0 1-.121-.244.448.448 0 0 1 .091-.305l3.78-5.111v.305l-3.536-4.806a.62.62 0 0 1-.122-.336.334.334 0 0 1 .137-.244.425.425 0 0 1 .29-.106.46.46 0 0 1 .274.076.72.72 0 0 1 .244.229l3.307 4.516h-.289l3.276-4.516a.621.621 0 0 1 .229-.23.535.535 0 0 1 .29-.075c.122 0 .218.03.289.091a.303.303 0 0 1 .122.26.518.518 0 0 1-.107.335l-3.551 4.806v-.305l3.78 5.11a.42.42 0 0 1 .107.306.376.376 0 0 1-.137.244.52.52 0 0 1-.32.091.562.562 0 0 1-.275-.076 1.026 1.026 0 0 1-.244-.229l-3.536-4.836h.397l-3.536 4.836a.74.74 0 0 1-.244.23.56.56 0 0 1-.275.075ZM112.976 71c-1.027 0-1.906-.219-2.637-.656-.732-.448-1.296-1.083-1.692-1.907-.386-.824-.579-1.805-.579-2.945 0-.854.107-1.617.32-2.288.224-.682.544-1.256.96-1.724a4.244 4.244 0 0 1 1.555-1.099c.62-.254 1.311-.381 2.073-.381.67 0 1.295.097 1.874.29a4.168 4.168 0 0 1 1.494.854.648.648 0 0 1 .198.29c.03.102.03.199 0 .29a.408.408 0 0 1-.137.214.435.435 0 0 1-.259.076.612.612 0 0 1-.305-.153 3.85 3.85 0 0 0-1.296-.747 4.699 4.699 0 0 0-1.554-.244c-.844 0-1.56.183-2.149.549-.579.356-1.021.88-1.326 1.571-.295.692-.442 1.526-.442 2.502 0 .987.147 1.826.442 2.518.305.691.747 1.22 1.326 1.586.589.356 1.305.534 2.149.534.559 0 1.077-.081 1.554-.244a4.249 4.249 0 0 0 1.311-.763c.112-.091.214-.137.305-.137.102 0 .183.03.244.092.071.05.122.122.152.213a.373.373 0 0 1 0 .26.496.496 0 0 1-.167.259 4.415 4.415 0 0 1-1.525.9 5.846 5.846 0 0 1-1.889.29ZM119.178 70.878a.507.507 0 0 1-.351-.122.533.533 0 0 1-.122-.366v-9.856c0-.163.041-.285.122-.366a.452.452 0 0 1 .335-.122c.153 0 .27.04.351.122.081.081.122.203.122.366v9.505h5.243c.152 0 .264.035.335.107a.385.385 0 0 1 .122.305c0 .142-.041.249-.122.32-.071.071-.183.107-.335.107h-5.7ZM130.575 71c-.681 0-1.286-.091-1.814-.275a3.343 3.343 0 0 1-1.326-.823 3.667 3.667 0 0 1-.793-1.358c-.172-.54-.259-1.16-.259-1.862v-6.178c0-.163.041-.28.122-.351a.454.454 0 0 1 .336-.122c.152 0 .269.04.35.122.081.07.122.188.122.35v6.103c0 1.19.274 2.08.823 2.67.559.58 1.372.87 2.439.87 1.077 0 1.89-.29 2.438-.87.549-.59.823-1.48.823-2.67v-6.102c0-.163.041-.28.122-.351.081-.082.198-.122.351-.122.142 0 .254.04.335.122.081.07.122.188.122.35v6.18c0 .935-.158 1.728-.472 2.38a3.159 3.159 0 0 1-1.418 1.449c-.62.325-1.387.488-2.301.488ZM140.842 71c-.488 0-.961-.04-1.418-.122a6.232 6.232 0 0 1-1.28-.366 5.14 5.14 0 0 1-1.052-.626.607.607 0 0 1-.213-.244.504.504 0 0 1-.015-.274.568.568 0 0 1 .137-.23.363.363 0 0 1 .244-.09c.091-.011.188.02.289.09.468.346.96.6 1.479.763.528.163 1.138.245 1.829.245.965 0 1.686-.189 2.164-.565.488-.376.731-.87.731-1.48 0-.508-.177-.905-.533-1.19-.345-.285-.92-.508-1.722-.671l-1.54-.32c-.965-.194-1.681-.52-2.149-.977-.467-.458-.701-1.068-.701-1.83a2.858 2.858 0 0 1 1.052-2.259 3.483 3.483 0 0 1 1.189-.625c.467-.153.98-.229 1.539-.229.661 0 1.265.092 1.814.275a4.393 4.393 0 0 1 1.524.87.517.517 0 0 1 .183.259.43.43 0 0 1-.366.564.475.475 0 0 1-.29-.122 4.183 4.183 0 0 0-1.341-.747 4.516 4.516 0 0 0-1.524-.245c-.569 0-1.067.092-1.494.275a2.27 2.27 0 0 0-.975.778c-.234.336-.351.732-.351 1.19 0 .529.163.951.488 1.266.325.316.849.544 1.57.687l1.555.32c1.026.214 1.788.534 2.286.962.498.417.747.991.747 1.724a2.658 2.658 0 0 1-1.037 2.135 3.615 3.615 0 0 1-1.219.61 5.888 5.888 0 0 1-1.6.199ZM147.204 70.97a.454.454 0 0 1-.336-.123.532.532 0 0 1-.122-.366V60.52c0-.163.041-.285.122-.366a.454.454 0 0 1 .336-.122c.152 0 .269.04.35.122.081.08.122.203.122.366v9.962a.532.532 0 0 1-.122.366c-.071.082-.188.123-.35.123ZM154.247 70.97a.623.623 0 0 1-.366-.107 1.108 1.108 0 0 1-.244-.336l-4.283-9.901a.627.627 0 0 1-.03-.32.277.277 0 0 1 .152-.2.51.51 0 0 1 .275-.075c.142 0 .249.03.32.091a.871.871 0 0 1 .198.275l4.206 9.794h-.426l4.206-9.794a.644.644 0 0 1 .198-.275.52.52 0 0 1 .32-.091c.112 0 .204.025.275.076a.29.29 0 0 1 .122.213.5.5 0 0 1-.046.306l-4.283 9.901a.739.739 0 0 1-.228.336.582.582 0 0 1-.366.106ZM161.33 70.878a.513.513 0 0 1-.381-.137c-.092-.092-.137-.224-.137-.397v-9.688c0-.173.045-.305.137-.397a.513.513 0 0 1 .381-.137h5.761c.142 0 .249.036.32.107a.393.393 0 0 1 .107.29c0 .142-.036.249-.107.32-.071.061-.178.092-.32.092h-5.365v4.088h5.06c.142 0 .249.036.32.107.071.061.107.158.107.29 0 .132-.036.234-.107.305-.071.071-.178.107-.32.107h-5.06v4.241h5.365c.142 0 .249.036.32.107.071.061.107.158.107.29 0 .132-.036.234-.107.305-.071.071-.178.107-.32.107h-5.761ZM173.951 70.878a.516.516 0 0 1-.381-.137c-.091-.092-.137-.224-.137-.397v-9.688c0-.173.046-.305.137-.397a.516.516 0 0 1 .381-.137h3.582c.742 0 1.367.112 1.875.336.508.213.899.529 1.173.946.275.417.412.93.412 1.54 0 .672-.203 1.231-.61 1.679-.396.447-.935.742-1.615.885v-.214c.762.081 1.361.356 1.798.824.447.458.671 1.068.671 1.83 0 .957-.305 1.684-.915 2.182-.609.499-1.473.748-2.591.748h-3.78Zm.397-.793h3.307c.884 0 1.544-.173 1.981-.52.437-.355.656-.89.656-1.601 0-.732-.219-1.271-.656-1.617-.437-.346-1.097-.519-1.981-.519h-3.307v4.257Zm0-5.05h3.078c.854 0 1.504-.173 1.951-.519.447-.356.671-.87.671-1.541 0-.671-.224-1.18-.671-1.526-.447-.356-1.097-.534-1.951-.534h-3.078v4.12ZM184.177 70.878a.513.513 0 0 1-.381-.137c-.092-.092-.138-.224-.138-.397v-9.688c0-.173.046-.305.138-.397a.513.513 0 0 1 .381-.137h5.761c.142 0 .249.036.32.107a.393.393 0 0 1 .107.29c0 .142-.036.249-.107.32-.071.061-.178.092-.32.092h-5.365v4.088h5.06c.142 0 .249.036.32.107.071.061.107.158.107.29 0 .132-.036.234-.107.305-.071.071-.178.107-.32.107h-5.06v4.241h5.365c.142 0 .249.036.32.107.071.061.107.158.107.29 0 .132-.036.234-.107.305-.071.071-.178.107-.32.107h-5.761ZM191.836 70.97a.519.519 0 0 1-.32-.092.302.302 0 0 1-.122-.229c0-.102.025-.213.076-.335l4.283-9.856a.702.702 0 0 1 .259-.32.507.507 0 0 1 .625 0 .63.63 0 0 1 .244.32l4.282 9.856a.62.62 0 0 1 .077.335c0 .102-.036.178-.107.229-.061.061-.158.091-.29.091a.552.552 0 0 1-.35-.106 1.088 1.088 0 0 1-.214-.32l-1.173-2.762.503.229h-6.6l.518-.23-1.173 2.762a.777.777 0 0 1-.229.336.468.468 0 0 1-.289.091Zm4.465-9.688-2.591 6.102-.35-.183h5.898l-.32.183-2.606-6.102h-.031ZM207.257 71c-.681 0-1.286-.091-1.814-.275a3.343 3.343 0 0 1-1.326-.823 3.667 3.667 0 0 1-.793-1.358c-.172-.54-.259-1.16-.259-1.862v-6.178c0-.163.041-.28.122-.351a.454.454 0 0 1 .336-.122c.152 0 .269.04.35.122.081.07.122.188.122.35v6.103c0 1.19.274 2.08.823 2.67.559.58 1.372.87 2.439.87 1.077 0 1.89-.29 2.438-.87.549-.59.823-1.48.823-2.67v-6.102c0-.163.041-.28.122-.351.081-.082.198-.122.351-.122.142 0 .254.04.335.122.081.07.122.188.122.35v6.18c0 .935-.158 1.728-.473 2.38a3.152 3.152 0 0 1-1.417 1.449c-.62.325-1.387.488-2.301.488ZM217.295 70.97c-.152 0-.269-.041-.351-.123a.532.532 0 0 1-.122-.366v-9.52h-3.642a.452.452 0 0 1-.335-.122.412.412 0 0 1-.122-.305c0-.132.04-.234.122-.305a.491.491 0 0 1 .335-.107h8.245c.143 0 .249.036.32.107.082.071.122.173.122.305a.43.43 0 0 1-.122.32c-.071.072-.177.107-.32.107h-3.658v9.52c0 .153-.04.275-.121.366-.072.082-.188.123-.351.123ZM226.388 70.97c-.153 0-.27-.041-.351-.123a.556.556 0 0 1-.122-.381v-5.172l.229.732-3.902-5.324a.554.554 0 0 1-.122-.32.37.37 0 0 1 .122-.26.468.468 0 0 1 .29-.091c.111 0 .208.025.289.076.092.04.173.117.244.229l3.475 4.76h-.274l3.49-4.76a.79.79 0 0 1 .229-.23.531.531 0 0 1 .289-.075c.112 0 .203.03.274.091.072.061.107.148.107.26.01.101-.03.213-.122.335l-3.886 5.31.213-.733v5.172c0 .336-.157.504-.472.504ZM239.448 71c-.488 0-.961-.04-1.418-.122a6.232 6.232 0 0 1-1.28-.366 5.14 5.14 0 0 1-1.052-.626.607.607 0 0 1-.213-.244.504.504 0 0 1-.015-.274.568.568 0 0 1 .137-.23.363.363 0 0 1 .244-.09c.091-.011.188.02.289.09.468.346.96.6 1.479.763.528.163 1.138.245 1.829.245.965 0 1.686-.189 2.164-.565.488-.376.731-.87.731-1.48 0-.508-.177-.905-.533-1.19-.345-.285-.92-.508-1.722-.671l-1.54-.32c-.965-.194-1.681-.52-2.149-.977-.467-.458-.701-1.068-.701-1.83a2.858 2.858 0 0 1 1.052-2.259 3.492 3.492 0 0 1 1.189-.625c.467-.153.98-.229 1.539-.229.661 0 1.265.092 1.814.275a4.393 4.393 0 0 1 1.524.87.517.517 0 0 1 .183.259.43.43 0 0 1-.366.564.475.475 0 0 1-.29-.122 4.183 4.183 0 0 0-1.341-.747 4.516 4.516 0 0 0-1.524-.245c-.569 0-1.067.092-1.494.275a2.27 2.27 0 0 0-.975.778c-.234.336-.351.732-.351 1.19 0 .529.163.951.488 1.266.325.316.849.544 1.57.687l1.555.32c1.026.214 1.788.534 2.286.962.498.417.747.991.747 1.724a2.658 2.658 0 0 1-1.037 2.135 3.615 3.615 0 0 1-1.219.61 5.888 5.888 0 0 1-1.6.199ZM244.971 70.97a.52.52 0 0 1-.32-.092.305.305 0 0 1-.122-.229.88.88 0 0 1 .077-.335l4.282-9.856a.708.708 0 0 1 .259-.32.505.505 0 0 1 .625 0 .625.625 0 0 1 .244.32l4.283 9.856a.618.618 0 0 1 .076.335c0 .102-.035.178-.107.229-.061.061-.157.091-.289.091a.557.557 0 0 1-.351-.106 1.106 1.106 0 0 1-.213-.32l-1.174-2.762.503.229h-6.599l.518-.23-1.173 2.762a.785.785 0 0 1-.229.336.468.468 0 0 1-.29.091Zm4.466-9.688-2.591 6.102-.351-.183h5.899l-.32.183-2.607-6.102h-.03ZM256.824 70.878a.506.506 0 0 1-.35-.122.528.528 0 0 1-.122-.366v-9.856c0-.163.04-.285.122-.366a.452.452 0 0 1 .335-.122c.152 0 .269.04.35.122.082.081.122.203.122.366v9.505h5.243c.153 0 .264.035.336.107.081.07.121.172.121.305 0 .142-.04.249-.121.32-.072.071-.183.107-.336.107h-5.7ZM268.331 71c-.975 0-1.823-.224-2.545-.671-.721-.448-1.28-1.083-1.676-1.907-.386-.824-.579-1.8-.579-2.93 0-.854.106-1.617.32-2.288.223-.682.543-1.256.96-1.724a4.152 4.152 0 0 1 1.509-1.099c.599-.254 1.27-.381 2.011-.381.996 0 1.855.224 2.576.671.722.438 1.275 1.068 1.662 1.892.386.814.579 1.785.579 2.914 0 .855-.112 1.622-.336 2.304-.223.681-.543 1.261-.96 1.74a4.123 4.123 0 0 1-1.524 1.098c-.589.254-1.255.381-1.997.381Zm0-.854c.813 0 1.504-.183 2.073-.55.569-.366 1.001-.895 1.296-1.586.305-.692.457-1.531.457-2.518 0-1.474-.335-2.614-1.006-3.417-.66-.814-1.6-1.22-2.82-1.22-.802 0-1.488.182-2.057.549-.569.366-1.006.895-1.311 1.586-.294.692-.442 1.526-.442 2.502 0 1.465.335 2.61 1.006 3.433.671.814 1.606 1.22 2.804 1.22ZM279.896 71c-.975 0-1.824-.224-2.545-.671-.721-.448-1.28-1.083-1.677-1.907-.386-.824-.579-1.8-.579-2.93 0-.854.107-1.617.32-2.288.224-.682.544-1.256.961-1.724a4.156 4.156 0 0 1 1.508-1.099c.6-.254 1.271-.381 2.012-.381.996 0 1.855.224 2.576.671.721.438 1.275 1.068 1.661 1.892.386.814.579 1.785.579 2.914 0 .855-.111 1.622-.335 2.304-.223.681-.543 1.261-.96 1.74a4.139 4.139 0 0 1-1.524 1.098c-.589.254-1.255.381-1.997.381Zm0-.854c.813 0 1.504-.183 2.073-.55.569-.366 1.001-.895 1.296-1.586.304-.692.457-1.531.457-2.518 0-1.474-.335-2.614-1.006-3.417-.661-.814-1.6-1.22-2.82-1.22-.802 0-1.488.182-2.057.549-.569.366-1.006.895-1.311 1.586-.295.692-.442 1.526-.442 2.502 0 1.465.335 2.61 1.006 3.433.671.814 1.605 1.22 2.804 1.22ZM287.529 70.97a.452.452 0 0 1-.335-.123c-.072-.08-.107-.198-.107-.35v-9.978c0-.163.035-.285.107-.366a.363.363 0 0 1 .289-.122c.132 0 .229.02.29.06.061.041.127.117.198.23l7.011 9.443h-.351v-9.276c0-.152.036-.264.107-.335a.452.452 0 0 1 .335-.122c.132 0 .234.04.305.122.081.07.122.183.122.335v10.008c0 .153-.036.27-.107.351-.061.082-.152.123-.274.123a.458.458 0 0 1-.274-.077.86.86 0 0 1-.229-.213l-6.996-9.444h.336v9.26c0 .153-.041.27-.122.351-.071.082-.173.123-.305.123Z" fill="#272324"/><defs><linearGradient id="a" x1="7.951" y1="17.368" x2="16.593" y2="14.699" gradientUnits="userSpaceOnUse"><stop stop-color="#97165E"/><stop offset=".017" stop-color="#9B1560"/><stop offset=".175" stop-color="#B80D6D"/><stop offset=".343" stop-color="#CE0778"/><stop offset=".524" stop-color="#DE037F"/><stop offset=".727" stop-color="#E80184"/><stop offset="1" stop-color="#EB0085"/></linearGradient><linearGradient id="b" x1="19.928" y1="16.991" x2="19.845" y2="9.435" gradientUnits="userSpaceOnUse"><stop stop-color="#97165E"/><stop offset=".017" stop-color="#9B1560"/><stop offset=".175" stop-color="#B80D6D"/><stop offset=".343" stop-color="#CE0778"/><stop offset=".524" stop-color="#DE037F"/><stop offset=".727" stop-color="#E80184"/><stop offset="1" stop-color="#EB0085"/></linearGradient><linearGradient id="c" x1="14.097" y1="23.469" x2="25.198" y2="20.212" gradientUnits="userSpaceOnUse"><stop stop-color="#97165E"/><stop offset=".017" stop-color="#9B1560"/><stop offset=".175" stop-color="#B80D6D"/><stop offset=".343" stop-color="#CE0778"/><stop offset=".524" stop-color="#DE037F"/><stop offset=".727" stop-color="#E80184"/><stop offset="1" stop-color="#EB0085"/></linearGradient><linearGradient id="d" x1="51.95" y1="15.453" x2="48.651" y2="10.254" gradientUnits="userSpaceOnUse"><stop stop-color="#97165E"/><stop offset=".017" stop-color="#9B1560"/><stop offset=".175" stop-color="#B80D6D"/><stop offset=".343" stop-color="#CE0778"/><stop offset=".524" stop-color="#DE037F"/><stop offset=".727" stop-color="#E80184"/><stop offset="1" stop-color="#EB0085"/></linearGradient><linearGradient id="e" x1="50.493" y1="21.393" x2="56.917" y2="19.655" gradientUnits="userSpaceOnUse"><stop stop-color="#97165E"/><stop offset=".017" stop-color="#9B1560"/><stop offset=".175" stop-color="#B80D6D"/><stop offset=".343" stop-color="#CE0778"/><stop offset=".524" stop-color="#DE037F"/><stop offset=".727" stop-color="#E80184"/><stop offset="1" stop-color="#EB0085"/></linearGradient><linearGradient id="f" x1="44.367" y1="17.915" x2="41.904" y2="11.96" gradientUnits="userSpaceOnUse"><stop stop-color="#97165E"/><stop offset=".017" stop-color="#9B1560"/><stop offset=".175" stop-color="#B80D6D"/><stop offset=".343" stop-color="#CE0778"/><stop offset=".524" stop-color="#DE037F"/><stop offset=".727" stop-color="#E80184"/><stop offset="1" stop-color="#EB0085"/></linearGradient><linearGradient id="g" x1="43.386" y1="21.89" x2="50.242" y2="21.501" gradientUnits="userSpaceOnUse"><stop stop-color="#97165E"/><stop offset=".017" stop-color="#9B1560"/><stop offset=".175" stop-color="#B80D6D"/><stop offset=".343" stop-color="#CE0778"/><stop offset=".524" stop-color="#DE037F"/><stop offset=".727" stop-color="#E80184"/><stop offset="1" stop-color="#EB0085"/></linearGradient><linearGradient id="h" x1="35.367" y1="18.63" x2="35.147" y2="12.632" gradientUnits="userSpaceOnUse"><stop stop-color="#97165E"/><stop offset=".017" stop-color="#9B1560"/><stop offset=".175" stop-color="#B80D6D"/><stop offset=".343" stop-color="#CE0778"/><stop offset=".524" stop-color="#DE037F"/><stop offset=".727" stop-color="#E80184"/><stop offset="1" stop-color="#EB0085"/></linearGradient><linearGradient id="i" x1="34.752" y1="21.787" x2="41.679" y2="24.049" gradientUnits="userSpaceOnUse"><stop stop-color="#97165E"/><stop offset=".017" stop-color="#9B1560"/><stop offset=".175" stop-color="#B80D6D"/><stop offset=".343" stop-color="#CE0778"/><stop offset=".524" stop-color="#DE037F"/><stop offset=".727" stop-color="#E80184"/><stop offset="1" stop-color="#EB0085"/></linearGradient><linearGradient id="j" x1="26.983" y1="17.335" x2="27.702" y2="11.441" gradientUnits="userSpaceOnUse"><stop stop-color="#97165E"/><stop offset=".017" stop-color="#9B1560"/><stop offset=".175" stop-color="#B80D6D"/><stop offset=".343" stop-color="#CE0778"/><stop offset=".524" stop-color="#DE037F"/><stop offset=".727" stop-color="#E80184"/><stop offset="1" stop-color="#EB0085"/></linearGradient><linearGradient id="k" x1="25.974" y1="21.435" x2="33.05" y2="23.532" gradientUnits="userSpaceOnUse"><stop stop-color="#97165E"/><stop offset=".017" stop-color="#9B1560"/><stop offset=".175" stop-color="#B80D6D"/><stop offset=".343" stop-color="#CE0778"/><stop offset=".524" stop-color="#DE037F"/><stop offset=".727" stop-color="#E80184"/><stop offset="1" stop-color="#EB0085"/></linearGradient><linearGradient id="l" x1="18.439" y1="30.762" x2="9.039" y2="33.215" gradientUnits="userSpaceOnUse"><stop stop-color="#97165E"/><stop offset=".017" stop-color="#9B1560"/><stop offset=".175" stop-color="#B80D6D"/><stop offset=".343" stop-color="#CE0778"/><stop offset=".524" stop-color="#DE037F"/><stop offset=".727" stop-color="#E80184"/><stop offset="1" stop-color="#EB0085"/></linearGradient><radialGradient id="m" cx="0" cy="0" r="1" gradientUnits="userSpaceOnUse" gradientTransform="rotate(-34.958 83.6 -48.598) scale(4.99055 5.81177)"><stop offset=".108" stop-color="#FF0A11" stop-opacity=".35"/><stop offset=".245" stop-color="#FF464C" stop-opacity=".495"/><stop offset=".48" stop-color="#FFA9AB" stop-opacity=".744"/><stop offset=".644" stop-color="#FFE7E8" stop-opacity=".918"/><stop offset=".722" stop-color="#fff"/></radialGradient></defs></svg>