<svg fill="none" xmlns="http://www.w3.org/2000/svg" viewBox="0 0 576 669"><path d="M-9 89.95v-.77c0-.6 0-1.19.03-1.78-.05-1.18.18-2.37.27-3.57.1-1.2.41-2.37.62-3.58.2-1.2.63-2.34.97-3.52A40.7 40.7 0 0 1 .02 63.8a45.71 45.71 0 0 1 11.24-9.97 49.85 49.85 0 0 1 29.15-7.7A48.56 48.56 0 0 1 68.38 57c1.02.73 1.89 1.62 2.84 2.44l1.39 1.25c.43.43.84.89 1.27 1.34l1.28 1.35c.4.45.86.88 1.23 1.38l2.32 2.9c.4.47.73.95 1.07 1.45l1 1.46 1 1.43.3.41.22.39.46.77 1.82 3.08c.57 1.04 1.07 2.11 1.62 3.16l.8 1.57.67 1.62 1.35 3.2c.75 2.19 1.54 4.33 2.1 6.54.65 2.16 1.04 4.37 1.5 6.53.2 1.1.31 2.16.5 3.25.06.55.15 1.07.22 1.62l.14 1.62a85.24 85.24 0 0 1 .04 15.45c-.07.98-.2 1.96-.3 2.91-.18 1.94-.52 3.8-.79 5.65a123.93 123.93 0 0 1-5.19 19.57 145.25 145.25 0 0 1-6.05 14.34c-1.8 3.64-3.37 6.47-4.55 8.45 1.25.09 2.5.25 3.73.45a84.57 84.57 0 0 0 3.62-5.6 108.42 108.42 0 0 0 10.26-22.83c1.57-4.91 2.85-10.4 3.73-16.22a98.38 98.38 0 0 0 .94-18.5c-.28-6.43-1.21-13.03-2.83-19.6a78.71 78.71 0 0 0-3-9.66A62.68 62.68 0 0 0 88.72 71a55.27 55.27 0 0 0-12.97-15.3c-5.17-4.23-10.92-7.57-16.7-10.49-2.9-1.48-5.8-2.82-8.63-4.23-1.4-.7-2.8-1.41-4.18-2.14l-4.01-2.12a212.47 212.47 0 0 1-14.8-8.24c-4.47-2.77-8.37-5.78-11.26-9.01a24.99 24.99 0 0 1-3.5-4.94 18.7 18.7 0 0 1-2.05-11.9c.1-.82.27-1.44.34-1.85 0-.57.05-.77.05-.77s-.02.2-.1.64c-.04.4-.17 1.02-.2 1.84-.13 1.62-.11 4.03.7 6.92.85 2.87 2.7 6.1 5.63 9.04 2.93 2.95 6.85 5.66 11.33 8.24 4.48 2.57 9.58 5 14.95 7.64 1.34.66 2.71 1.35 4.08 2 1.36.69 2.75 1.35 4.18 1.99 2.85 1.3 5.76 2.64 8.74 4.07 5.9 2.87 12 6.17 17.46 10.63A58.65 58.65 0 0 1 91.6 69.15c1.8 3.1 3.3 6.35 4.55 9.67a79.56 79.56 0 0 1 3.67 12.63c.16.84.34 1.64.5 2.55.25 1.7.57 3.4.77 5.1.18 1.7.43 3.37.5 5.05l.18 2.5c.05.85.05 1.67.07 2.51a93.57 93.57 0 0 1-1.4 19 99.95 99.95 0 0 1-15.93 39.03 72.8 72.8 0 0 1-3.97 5.29c2.94.5 5.8 1.32 8.49 2.41 7.96 3.24 14.75 8.88 18.55 15.96a27.85 27.85 0 0 1 3.32 11.13c.04.89.14 1.73.09 2.7-.02.48-.02.96-.05 1.42-.04.45-.11.9-.16 1.36-.06.91-.31 1.8-.5 2.69-.06.45-.25.86-.38 1.3-.16.43-.25.86-.46 1.25-.36.8-.7 1.62-1.18 2.37-.23.36-.43.75-.68 1.11-.25.34-.53.68-.78 1.03a17.65 17.65 0 0 1-3.64 3.39c-.64.5-1.36.84-2.05 1.25l-1.07.48-.52.22-.55.19c-.36.11-.7.25-1.07.36l-1.06.27c-.71.2-1.44.25-2.14.37-2.85.27-5.53-.16-7.83-1.03a13.39 13.39 0 0 1-8.12-8.51c-.12-.36-.23-.73-.32-1.07-.1-.34-.14-.68-.19-1-.04-.32-.11-.64-.16-.93l-.02-.37a7.8 7.8 0 1 1 2.32 3.53 12 12 0 0 0 7.21 6.49c2.03.68 4.4.9 6.86.59.61-.14 1.22-.18 1.84-.39.3-.09.61-.18.93-.25l.91-.34.46-.18.43-.23.89-.46c.57-.36 1.16-.68 1.68-1.11a14.5 14.5 0 0 0 2.94-2.96l.61-.89c.2-.3.36-.63.55-.95.38-.62.61-1.32.9-2.03.17-.34.23-.73.35-1.07.09-.36.25-.73.3-1.11.13-.75.31-1.5.36-2.3l.11-1.19v-1.16c.05-.75-.07-1.66-.16-2.52a24.85 24.85 0 0 0-3.18-9.59c-3.48-6.12-9.65-11.08-16.89-13.83a37.79 37.79 0 0 0-23.4-1.16c-7.82 2.16-14.96 6.91-20.45 13.22l-1.05 1.16c-.34.41-.63.82-.97 1.23-.64.84-1.32 1.64-1.92 2.5-1.16 1.76-2.39 3.48-3.36 5.3l-.78 1.35-.38.68-.37.73-1.43 2.91-.37.73-.09.18s0 .03-.02.05l-.02.07-.16.36-.6 1.44c-.38.95-.81 1.9-1.15 2.89a66.58 66.58 0 0 0-3.99 23.9c0 3.96.46 7.87 1.03 11.65.36 1.89.63 3.78 1.11 5.6.23.9.43 1.82.66 2.73.25.89.5 1.77.78 2.66 2.04 7.08 4.8 13.55 7.69 19.3 1.43 2.92 2.93 5.63 4.41 8.2.78 1.27 1.5 2.5 2.26 3.68.77 1.19 1.45 2.35 2.2 3.44 2.92 4.42 5.7 8.1 8.06 11.09a97.85 97.85 0 0 0 3.53 4.18c1.18.5 2.34 1.1 3.43 1.8 2.3 1.5 4.3 3.42 5.92 5.7l.59.88c.2.3.41.6.52.86l.87 1.71.02.05.07.13.04.12.1.23.18.45.36.93c.25.62.46 1.23.64 1.87.18.64.4 1.25.55 1.89.13.64.3 1.27.43 1.91.13.64.2 1.3.32 1.94l.13.95.1.96c.27 2.57.2 5.12 0 7.58-.19 2.48-.64 4.89-1.14 7.21a71.77 71.77 0 0 1-1.92 6.7 87.96 87.96 0 0 1-4.98 11.62c-1.34 2.64-2.7 5.03-4.05 7.22.55-.3 1.1-.57 1.64-.84.32-.16.66-.3 1-.46l.05-.04a68.9 68.9 0 0 0 5.5-5.74c2-2.32 4.08-5.1 5.99-8.35a45.85 45.85 0 0 0 4.75-11.13c1.1-4.15 1.62-8.7 1.14-13.36-.07-1.16-.3-2.32-.48-3.49-.09-.59-.25-1.16-.38-1.75-.14-.57-.25-1.18-.44-1.73-.36-1.16-.7-2.37-1.16-3.46-.22-.57-.43-1.13-.66-1.68l-.75-1.69a90.32 90.32 0 0 0-7.55-12.92c-2.85-4.17-5.9-8.22-8.85-12.25a219.23 219.23 0 0 1-8.42-12.08 89.14 89.14 0 0 1-6.63-12.2c-1.77-4.08-3-8.13-3.64-12a45.74 45.74 0 0 1-.54-10.65c.04-.8.18-1.55.25-2.3.11-.73.13-1.46.32-2.12.13-.68.27-1.32.4-1.93.14-.62.23-1.2.41-1.75l.85-2.92c.3-.84.57-1.52.77-2.11l.66-1.76v-.02a1.35 1.35 0 0 1 1.75-.77c.7.27 1.05 1.07.78 1.77l-.05.1s-.23.56-.64 1.65c-.2.55-.47 1.21-.77 2l-.84 2.76c-.18.5-.28 1.07-.41 1.64-.14.6-.25 1.18-.41 1.82-.16.64-.2 1.3-.32 2-.1.7-.23 1.41-.27 2.17-.25 2.98-.19 6.4.38 10.03a49.22 49.22 0 0 0 3.35 11.5 82.93 82.93 0 0 0 6.3 11.95 226 226 0 0 0 8.2 12.06c2.9 4.05 5.89 8.15 8.73 12.4 2.82 4.26 5.51 8.63 7.54 13.27l.75 1.73.66 1.78c.47 1.18.77 2.37 1.13 3.53.2.61.3 1.23.46 1.82.11.61.3 1.2.39 1.8.18 1.2.38 2.4.45 3.62a39.3 39.3 0 0 1-1.34 13.79c-1.25 4.25-3 8.05-5 11.33a58.57 58.57 0 0 1-6.2 8.42 70.16 70.16 0 0 1-4.1 4.3 38.8 38.8 0 0 1 5.45-1.54 58.2 58.2 0 0 0 7.35-7.08 51.45 51.45 0 0 0 5.5-7.58 43.9 43.9 0 0 0 2.46-4.73c.73-1.71 1.43-3.49 1.93-5.38a36.78 36.78 0 0 0 1.35-12.15c0-.52-.1-1.07-.14-1.6-.07-.52-.11-1.06-.18-1.6-.1-.53-.18-1.08-.27-1.63-.1-.54-.19-1.06-.32-1.61-.14-.52-.25-1.07-.39-1.6-.1-.5-.32-1.06-.48-1.59-.18-.52-.32-1.09-.52-1.61l-.6-1.55a66.44 66.44 0 0 0-6.43-12 197.9 197.9 0 0 0-8.06-11.13c-2.78-3.62-5.53-7.14-8.1-10.67a118 118 0 0 1-6.94-10.54c-2-3.5-3.64-6.99-4.83-10.33a44.23 44.23 0 0 1-2.27-9.45c-.23-1.43-.25-2.8-.32-4.05-.04-1.25.02-2.41.02-3.46.1-1.05.19-1.98.25-2.78.07-.81.23-1.48.32-2.04.18-1.1.3-1.69.3-1.69V240c.13-.75.84-1.23 1.6-1.1.74.14 1.22.85 1.08 1.6l-.02.09s-.09.55-.3 1.6c-.09.52-.25 1.13-.31 1.9-.1.76-.19 1.62-.28 2.6-.02.98-.09 2.07-.07 3.23.05 1.19.07 2.46.26 3.83.3 2.7.9 5.75 2.02 8.96 1.1 3.21 2.62 6.58 4.53 10.02 1.91 3.43 4.19 6.92 6.67 10.42 2.5 3.53 5.2 7.08 7.92 10.75 2.73 3.66 5.48 7.4 7.98 11.33 2.5 3.94 4.8 8.03 6.44 12.38a42.72 42.72 0 0 1 2.8 13.25c.18 4.41-.38 8.7-1.57 12.56a45.03 45.03 0 0 1-2.05 5.51 51.83 51.83 0 0 1-8.3 12.47 57.67 57.67 0 0 1-6.4 6.15c2.21-.37 4.44-.52 6.65-.52a59.65 59.65 0 0 0 6.71-5.99 52.45 52.45 0 0 0 5.33-6.46 46.54 46.54 0 0 0 4.75-8.65 37.44 37.44 0 0 0 2-22.28l-.31-1.46c-.1-.46-.28-.98-.39-1.46-.25-1-.61-1.91-.91-2.87a57.85 57.85 0 0 0-2.44-5.6c-1.8-3.66-4-7.12-6.23-10.49-2.28-3.34-4.64-6.58-6.92-9.7-4.6-6.23-8.85-12.15-11.97-17.61a76.37 76.37 0 0 1-3.89-7.67c-.27-.6-.48-1.19-.7-1.73-.23-.55-.44-1.1-.62-1.64l-.52-1.53c-.14-.5-.3-.95-.41-1.4-.28-.9-.46-1.71-.64-2.42-.18-.7-.3-1.3-.39-1.8l-.27-1.5v-.02a1.34 1.34 0 0 1 1.12-1.57c.75-.14 1.45.36 1.57 1.11v.07l.25 1.41c.06.46.18 1.03.34 1.7.16.67.3 1.44.57 2.29.11.43.25.86.36 1.34.16.45.32.95.48 1.46.16.5.34 1.02.57 1.56.2.55.4 1.1.66 1.67.93 2.27 2.16 4.8 3.64 7.46 2.96 5.37 7.08 11.27 11.58 17.57 2.25 3.17 4.57 6.44 6.83 9.86a94.92 94.92 0 0 1 6.21 10.79 55.8 55.8 0 0 1 2.41 5.8c.32 1 .69 2.03.91 3 .14.5.28.96.39 1.5l.3 1.53c.8 4.08 1 8.2.5 12.11a40.77 40.77 0 0 1-2.92 10.95 48.19 48.19 0 0 1-5 8.78 55.63 55.63 0 0 1-5.53 6.51 62.98 62.98 0 0 1-4.87 4.42l-1.2.96 1.52.06c1.38.12 2.77.3 4.14.53a57.16 57.16 0 0 0 11.5-10.04c1.79-2.07 3.59-4.48 5.18-7.2a37.26 37.26 0 0 0 5.32-19.41c-.02-.88 0-1.8-.11-2.68-.07-.89-.14-1.8-.3-2.69l-.2-1.34-.05-.34-.07-.3-.16-.68c-.2-.91-.4-1.82-.63-2.71a66.3 66.3 0 0 0-3.94-10.1 124.1 124.1 0 0 0-5.16-9.3c-1.8-2.95-3.6-5.77-5.3-8.46-1.71-2.69-3.35-5.23-4.79-7.65-.72-1.2-1.43-2.34-2.04-3.46-.64-1.11-1.26-2.16-1.78-3.16s-1.02-1.96-1.5-2.84c-.43-.9-.82-1.74-1.18-2.46-.19-.37-.35-.73-.5-1.05l-.4-.96c-.24-.59-.45-1.09-.6-1.5l-.53-1.25v-.02a1.37 1.37 0 1 1 2.55-1l.02.06s.16.44.48 1.21l.57 1.46.36.93.48 1.02 1.1 2.42 1.4 2.8c.48 1 1.1 2.04 1.69 3.14.59 1.11 1.27 2.25 1.96 3.43 1.38 2.4 2.95 4.97 4.61 7.67 1.67 2.71 3.44 5.58 5.2 8.6 1.77 3.01 3.47 6.22 5.1 9.55a67.28 67.28 0 0 1 3.9 10.56c.21.9.4 1.82.6 2.73l.13.68.1.39.04.34.18 1.41c.16.93.2 1.87.25 2.8.1.93.07 1.87.07 2.8a38.13 38.13 0 0 1-1.66 10.76 41.46 41.46 0 0 1-4.19 9.27 49.25 49.25 0 0 1-5.44 7.28 59.38 59.38 0 0 1-11.12 9.54c1.45.32 2.89.68 4.27 1.14l.14.04.18.07.28.1.54.2 1.1.4c.74.3 1.5.64 2.25.98.7.37 1.43.73 2.11 1.12.69.4 1.4.8 2.03 1.25a28.76 28.76 0 0 1 6.87 6.4 27.22 27.22 0 0 1 4.19 8.1 28.03 28.03 0 0 1-.16 16.98 25.8 25.8 0 0 1-3.64 7.2l-.6.79-.63.75c-.41.5-.87.96-1.32 1.43l-.16.19s-.11.1-.14.1l-.09.08-.34.3-.68.58c-.48.4-1.07.78-1.6 1.17a18.1 18.1 0 0 1-13.83 2.4 17.97 17.97 0 0 1-5.94-2.6c-.43-.33-.82-.65-1.23-.94-.4-.3-.75-.69-1.14-1.03-.18-.18-.34-.31-.54-.54l-.46-.55-.23-.27-.22-.32-.44-.62a12.63 12.63 0 0 1-1.52-10.28 12.19 12.19 0 0 1 2.02-4.03c.41-.6.9-1.05 1.4-1.55a8.47 8.47 0 0 1 2.72-1.68 7.18 7.18 0 0 1 9.36 2l.04.02.02.05a7.23 7.23 0 1 1-12.63 1.66c-.02.05-.06.07-.09.11a11.2 11.2 0 0 0-.07 12.86l.4.5.17.25.23.25.48.53.48.43c.34.3.68.64 1.04.89.4.27.76.54 1.14.82a15.54 15.54 0 0 0 5.42 2.16c3.91.82 8.49.14 12.17-2.41.44-.34.87-.62 1.3-1l.68-.62.34-.32.1-.07c.04-.04-.03.03.02-.04l.16-.16c.38-.43.8-.84 1.16-1.32l.54-.68.5-.73a23.4 23.4 0 0 0 3.14-6.58 25.13 25.13 0 0 0-.2-15.25 24.35 24.35 0 0 0-3.85-7.08 26.26 26.26 0 0 0-6.16-5.57c-9.58-6.15-23.28-7.2-34.48-1.76a30.77 30.77 0 0 0-13.42 12.7l-.57 1.05-.5 1.05c-.35.64-.69 1.6-.98 2.23-.55 1.55-1.14 3.1-1.57 4.66a46.84 46.84 0 0 0-1.8 9.65c-.48 6.54.86 13.14 3.48 19.33 1.28 3.1 2.9 6.1 4.67 9.01.86 1.48 1.82 2.9 2.77 4.33 1 1.4 1.96 2.82 3 4.2 4.1 5.56 8.56 10.86 13.18 16.05 4.6 5.2 9.33 10.25 14.07 15.23 4.75 4.96 9.48 9.9 14.15 14.75 2.34 2.43 4.69 4.82 6.99 7.26 1.13 1.27 2.27 2.53 3.41 3.78.6.61 1.1 1.3 1.61 1.95.53.67 1.05 1.32 1.55 1.99.53.66 1.05 1.31 1.55 1.98.48.68.93 1.38 1.41 2.07.48.68.93 1.38 1.39 2.07l.68 1.02.62 1.07c.82 1.44 1.66 2.85 2.45 4.28.7 1.48 1.44 2.94 2.14 4.4a88.11 88.11 0 0 1 5.85 17.98l.82 4.5.55 4.49c.11.75.16 1.48.18 2.23l.13 2.2c.05.73.12 1.46.12 2.19s0 1.46.02 2.16c.03.77.03 1.55 0 2.32.48-3.73.82-7.64 1.03-11.74.09-2.87.13-5.83-.03-8.83s-.43-6.06-.93-9.1l-.45-2.28c-.14-.78-.37-1.5-.55-2.28l-.14-.57-.07-.3v-.04l-.02-.05-.04-.13-.37-1.16-.73-2.35c-.52-1.52-1.11-2.96-1.68-4.46-.68-1.45-1.3-2.96-2.05-4.41a108.9 108.9 0 0 0-10.6-16.8c-4-5.37-8.35-10.5-12.8-15.43-4.43-4.94-8.89-9.75-13.21-14.39-4.33-4.66-8.5-9.2-12.31-13.63a175.67 175.67 0 0 1-10.27-13c-1.5-2.1-2.82-4.19-4.05-6.19l-1.7-2.98c-.5-1-.98-1.98-1.46-2.91-.5-.94-.84-1.9-1.23-2.8-.36-.91-.75-1.78-1.02-2.67-.3-.86-.57-1.7-.82-2.5s-.41-1.6-.6-2.32c-.15-.75-.36-1.44-.47-2.1a126 126 0 0 0-.28-1.88l-.22-1.62-.07-1.37-.12-2.48a.69.69 0 0 1 .57-.7c.37-.05.7.2.78.57v.06s.11.82.36 2.37l.18 1.3c.12.45.23.98.37 1.52a54 54 0 0 1 .4 1.78c.17.61.4 1.27.6 1.96a57.2 57.2 0 0 0 4 9.62 87.8 87.8 0 0 0 7.24 11.54c2.94 4.08 6.4 8.29 10.22 12.64 3.82 4.34 8.03 8.78 12.4 13.38 4.37 4.6 8.94 9.33 13.43 14.32a219.25 219.25 0 0 1 13.01 15.68l.05.07c-.78-1.94-1.48-4.01-2.12-6.2-.18-.66-.4-1.34-.57-2.04l-.52-2.12c-.18-.7-.3-1.43-.46-2.16a77.17 77.17 0 0 1-1.41-11.7l-.09-2.48.03-2.53c0-.84.02-1.7.09-2.57.04-.87.06-1.73.13-2.6.53-6.94 1.78-14.2 3.73-21.5l.76-2.76.18-.68.09-.36.11-.35.41-1.36c.57-1.82 1.1-3.67 1.73-5.51l1.91-5.55c.7-1.85 1.41-3.7 2.14-5.53a146.5 146.5 0 0 1 10.79-21.54c4.25-6.9 9.2-13.4 14.86-19.12a84.59 84.59 0 0 1 9.1-7.8c3.23-2.3 6.6-4.37 10.13-6.03 1.02-.48 2.07-.91 3.12-1.32l1.34-1.14c1.86-1.64 4.07-3.73 6.48-6.24.8-.86 1.62-1.75 2.46-2.7.07-.17.14-.33.23-.49.25-.66.52-1.38.75-2.13.2-.78.43-1.57.57-2.44.18-.84.25-1.75.34-2.66l.02-1.41c0-.48-.04-.96-.06-1.44a15.26 15.26 0 0 0-1.6-5.73 12.01 12.01 0 0 0-4.03-4.58c-.88-.52-1.82-.98-2.82-1.3a10.84 10.84 0 0 0-8.94 1.43l-.62.46c-.2.16-.38.35-.56.5l-.14.14-.07.07-.04.02-.03.02-.25.28-.3.32-.18.25a7.04 7.04 0 0 0-.63 7.4 5.3 5.3 0 1 1 5.9 5.39 7.21 7.21 0 0 1-5.88-1.03l-.41-.3-.27-.24-.14-.12-.05-.02-.09-.09-.06-.07-.3-.32a5.6 5.6 0 0 1-.57-.68 9.8 9.8 0 0 1-1.82-8.17c.3-1.32.82-2.57 1.68-3.78l.35-.45.3-.35.29-.31c.11-.14.04-.05.09-.1l.02-.02.05-.04.09-.1.18-.15c.25-.23.5-.46.75-.66l.82-.6a14.45 14.45 0 0 1 3.66-1.8 13.69 13.69 0 0 1 11.8 1.78 14.8 14.8 0 0 1 4.86 5.99 17.62 17.62 0 0 1 1.46 6.87 19.8 19.8 0 0 1-.84 6.1c-.05.2-.14.41-.19.62.57-.73 1.14-1.46 1.71-2.24 2.5-3.43 5-7.32 7.12-11.7 1.07-2.16 2-4.48 2.9-6.85a63.9 63.9 0 0 0 2.09-7.44 50.4 50.4 0 0 0 1.04-7.9c.12-1.34.07-2.68.1-4.05l-.1-2.05-.04-1.02v-.18l-.02-.28-.07-.52c-.1-.7-.16-1.4-.25-2.14-.1-.7-.25-1.3-.37-1.96-.2-1.3-.66-2.59-1-3.89a28.52 28.52 0 0 0-3.62-7.14c-3-4.4-7.64-7.51-12.72-8.81a23.4 23.4 0 0 0-7.74-.69c-2.57.19-5.1.76-7.4 1.73-4.61 1.92-8.27 5.47-9.98 9.65-.18.53-.43 1.05-.57 1.6l-.4 1.61c-.1.55-.15 1.1-.24 1.64l-.04.41v.39c0 .3-.03.6-.05.89-.04 2.14.25 4.23 1.05 6.03a10.9 10.9 0 0 0 8.03 6.49c1.6.34 3.19.34 4.58.06a9.22 9.22 0 0 0 3.6-1.5 6.85 6.85 0 0 0 2.08-2.32c.14-.2.21-.41.3-.6l.25-.56c.1-.39.23-.73.27-1.05.05-.32.1-.61.12-.86V297.4c0-.09.07-.18.18-.2.11 0 .2.07.23.18l.04.55c.03.18.05.4.07.66 0 .27-.02.57-.04.93-.03.37-.12.73-.19 1.18-.04.2-.13.44-.2.66-.07.23-.14.48-.27.71a7.72 7.72 0 0 1-2.19 2.85 10.2 10.2 0 0 1-3.96 2.04 13.18 13.18 0 0 1-15.38-6.92 16.8 16.8 0 0 1-1.64-7.17c0-.3 0-.59-.02-.88V291.47l.04-.48c.05-.63.1-1.3.19-1.93l.4-1.96c.16-.63.41-1.27.62-1.93a20.52 20.52 0 0 1 4.44-7.06 22.88 22.88 0 0 1 7.1-4.94 27 27 0 0 1 13.51-2.25 31.54 31.54 0 0 1 7.5.16c.79.11 1.56.2 2.31.39l1.14.22 1.14.32c.36.12.75.2 1.11.34l1.12.4c.75.24 1.45.56 2.18.88.73.3 1.41.7 2.12 1.05.7.36 1.34.81 2.02 1.22.66.46 1.3.92 1.94 1.4.59.52 1.23 1.02 1.8 1.56a29.68 29.68 0 0 1 3.16 3.58c.45.63.93 1.3 1.34 1.98l.62 1.02c.2.34.36.7.54 1.07l.53 1.07.43 1.12.43 1.11.34 1.14.34 1.14.25 1.16.25 1.16.16 1.18.16 1.19c.05.38.05.8.07 1.18.05.8.11 1.6.07 2.37-.02.8 0 1.57-.1 2.36l-.22 2.35c-.16 1-.32 2.02-.5 3.03a7.36 7.36 0 0 1 1.73-.57 5.88 5.88 0 0 1 5.85 2.3c.63.8 1.07 1.63 1.43 2.45.16.44.37.91.46 1.28l.18.61.16.69c.11.45.13.93.2 1.4 0 .48.05.96 0 1.44-.04.96-.3 1.91-.59 2.8-.32.89-.75 1.7-1.25 2.48-1 1.53-2.23 2.8-3.55 3.9-1.16.95-2.37 1.8-3.64 2.52.25.07.5.11.73.2a14.5 14.5 0 0 1 3.11 1.28l.73.43.7.5c.46.34.92.7 1.3 1.14a12.09 12.09 0 0 1 2.8 4.28 15.88 15.88 0 0 1 1.05 4.85c.02.54.05 1.09.02 1.64-.02.56-.04 1.07-.16 1.68a1.4 1.4 0 0 1-2.6.46 10.7 10.7 0 0 0-4.06-4.28 11.49 11.49 0 0 0-5.85-1.35c-2.1.03-4.23.46-6.3 1.07-2.1.62-4.13 1.46-6.13 2.4-4 1.88-7.82 4.18-11.51 6.69a113.7 113.7 0 0 0-5.44 3.93l-1.96 1.5c.32-.06.64-.1.96-.18 3.78-.61 7.62-.66 11.3.16 3.67.82 7.1 2.5 9.8 4.94.65.62 1.25 1.28 1.86 1.91.54.69 1.05 1.41 1.57 2.12a15.37 15.37 0 0 1 2.05 4.87 14.45 14.45 0 0 1-3.83 13.34c-.5.55-1.06.98-1.61 1.43l-.89.6-.23.13-.11.07-.11.07-.05.02-.4.2a10.14 10.14 0 0 1-12.97-2.91 7.33 7.33 0 0 1-1.51-4.87c.07-.77.25-1.43.48-2.02a4.28 4.28 0 1 1 4.25 4.77 4.2 4.2 0 0 1-3.28-1.54c.28.86.78 1.7 1.53 2.46a7.92 7.92 0 0 0 9.92 1.34l.39-.25.04-.02c-.11.06 0 0-.02.02l.07-.07.16-.14c.2-.18.43-.34.63-.5.4-.38.82-.73 1.19-1.18a9.83 9.83 0 0 0 1.82-2.92c.45-1.09.75-2.25.89-3.45a11.4 11.4 0 0 0-1.85-7.24c-.43-.55-.82-1.14-1.27-1.69-.5-.5-.96-1.04-1.5-1.52a17.44 17.44 0 0 0-7.94-3.94c-3.05-.68-6.4-.73-9.75-.2-1.68.22-3.36.66-5.05 1.16-.84.27-1.68.52-2.52.82-.82.34-1.66.66-2.5 1a63.19 63.19 0 0 0-9.65 5.4 82.85 82.85 0 0 0-8.9 7.2 103.34 103.34 0 0 0-15.02 18.13c-1.1 1.66-2.1 3.36-3.14 5.05-.96 1.73-1.96 3.46-2.9 5.21-.88 1.78-1.79 3.53-2.63 5.3-.8 1.8-1.62 3.6-2.4 5.4l-2.18 5.44-1.95 5.46c-.62 1.82-1.16 3.66-1.73 5.48l-.43 1.37-.12.34-.09.32-.18.68c-.25.91-.48 1.82-.7 2.71-.46 1.78-.83 3.55-1.21 5.28.02-.04.02-.07.02-.11 1.43-4.37 3.4-9 6.17-13.5a62.51 62.51 0 0 1 10.46-12.86 69.23 69.23 0 0 1 14.41-10.33c1.3-.75 2.69-1.39 4.05-2.07l1.02-.5c.19-.1.32-.16.55-.25l.52-.23 2.07-.89 1.05-.43 1.1-.41 2.18-.8c.73-.27 1.48-.45 2.2-.68.76-.2 1.46-.48 2.24-.64a51.77 51.77 0 0 1 9.14-1.5c3.1-.18 6.22-.05 9.27.52 3.04.57 6 1.57 8.69 3.05a25.41 25.41 0 0 1 11.49 13.14 22.5 22.5 0 0 1 1.41 8.24c-.07 2.75-.8 5.44-2.18 7.69l-1.05 1.52c-.41.5-.8 1-1.23 1.46-.45.43-.84.91-1.34 1.28-.23.2-.48.38-.7.59l-.76.52c-2 1.37-4.37 2-6.55 2a11.48 11.48 0 0 1-9.65-5.55 9.67 9.67 0 0 1-1.41-4.3 8.8 8.8 0 0 1 1.14-5.08 5.3 5.3 0 1 1-.23 2.1 8.7 8.7 0 0 0-.14 2.9c.16 1.26.66 2.6 1.5 3.86a10.34 10.34 0 0 0 3.58 3.25 10.3 10.3 0 0 0 5.23 1.37 9.95 9.95 0 0 0 5.58-1.94c.2-.16.43-.3.63-.48l.6-.54c.4-.34.75-.78 1.13-1.19.37-.4.66-.86 1.03-1.3l.95-1.47a14.04 14.04 0 0 0 1.66-6.72c0-4.87-2.02-10.01-5.62-13.97-3.57-4-8.69-6.7-14.26-7.67a34.6 34.6 0 0 0-8.56-.41 50.4 50.4 0 0 0-8.6 1.5c-.73.16-1.41.41-2.12.61-.7.23-1.41.41-2.1.66l-2.04.76-1.02.36-1.05.43-2.07.87-.53.23c-.11.04-.31.13-.45.22l-1 .48c-1.32.64-2.64 1.25-3.92 1.98a70.56 70.56 0 0 0-13.9 9.79 58.75 58.75 0 0 0-10.15 12.2 61.04 61.04 0 0 0-6.08 12.9 73.19 73.19 0 0 0-3.48 16.62 42.9 42.9 0 0 1 2.69-7.88c1-2.11 2.18-4.14 3.57-6.05a37.2 37.2 0 0 1 4.76-5.26 32.51 32.51 0 0 1 5.84-4.1c2.12-1.13 4.35-2 6.67-2.64 2.32-.63 4.67-.9 7.08-1.02l1.64-.05c.57 0 1.18.03 1.75.05.6 0 1.16.05 1.75.09.57.05 1.16.07 1.73.16 4.6.48 9.15 1.8 13.22 4.05a26.73 26.73 0 0 1 9.97 9.47 26.94 26.94 0 0 1 3.82 12.7 31.2 31.2 0 0 1-.34 6.37l-.27 1.55c-.1.5-.23 1-.34 1.5-.12.5-.25 1-.41 1.48l-.23.73-.04.18-.07.2-.03.1-.13.34-.5 1.32c-.23.48-.48 1-.73 1.48-.23.52-.52.96-.8 1.39-.3.43-.52.89-.86 1.3a21.17 21.17 0 0 1-4.26 4.3 22.5 22.5 0 0 1-5.07 2.87c-.46.18-.89.31-1.34.45l-.66.23-.69.16c-.45.11-.9.2-1.36.32l-1.37.18c-3.62.45-7.19-.25-10.2-1.46-1.63-.73-3-1.66-4.18-2.73a14.37 14.37 0 0 1-2.84-3.64c-.4-.64-.66-1.32-.94-1.98-.23-.69-.48-1.35-.59-2.03a14.82 14.82 0 0 1-.11-5.8c.09-.6.27-1.16.43-1.73l.11-.41s.05-.14.05-.1l.02-.04.05-.09.06-.18c.12-.25.16-.46.32-.73l.41-.77.46-.69a10.04 10.04 0 0 1 9.47-4.16 6.33 6.33 0 1 1-5.4 2.57 8.88 8.88 0 0 0-2.46 2.64c-1.73 2.94-2.02 7.97.62 12.02.66 1 1.45 1.98 2.46 2.75.97.8 2.11 1.48 3.27 1.94.37.11.73.25 1.1.36l.95.2c.68.19 1.39.26 2.12.35.36.07.72.07 1.07.07l1.09.02c.36-.02.73-.07 1.1-.1l.54-.04.54-.09c.37-.07.73-.11 1.12-.18l1.1-.3.54-.16.54-.2 1.07-.41a18.2 18.2 0 0 0 4-2.46 17.93 17.93 0 0 0 3.26-3.55c.25-.32.43-.7.66-1.05.23-.34.43-.7.6-1.04.15-.34.34-.7.5-1.05.15-.46.31-.89.47-1.34 2.16-6.58 2.1-14.68-1.89-21.03a22.44 22.44 0 0 0-8.19-7.72 31.37 31.37 0 0 0-11.38-3.53c-.5-.09-1.02-.11-1.52-.16-.53-.04-1.03-.09-1.53-.09-.5-.02-1-.04-1.52-.04l-1.64.02c-1.98.09-4.03.27-5.96.8a26.67 26.67 0 0 0-10.72 5.57 30.27 30.27 0 0 0-7.46 9.77c-1.8 3.73-3 7.78-3.46 11.92-1.03 8.29.5 16.69 3.36 24.2a79.44 79.44 0 0 0 2.37 5.48l1.39 2.71 1.34 2.71c.46.91.89 1.82 1.34 2.73l.35.68.3.71c.17.45.36.93.56 1.39.37.93.73 1.84 1.12 2.75l.54 1.37c.16.45.3.93.46 1.39.57 1.84 1.2 3.64 1.7 5.46l1.35 5.4c.34 1.77.63 3.54.95 5.27.19.87.28 1.73.37 2.58.09.86.2 1.7.3 2.52.65 6.35.68 12.25.36 17.48.86-2.41 1.9-5.07 3.18-7.94a98.6 98.6 0 0 1 3.35-6.83 100.03 100.03 0 0 1 9.65-14.77 89.11 89.11 0 0 1 6.62-7.33 72.53 72.53 0 0 1 7.94-6.8l1.07-.8 1.12-.75c.75-.5 1.5-1 2.25-1.53 1.57-.93 3.11-1.93 4.78-2.75a74.23 74.23 0 0 1 10.35-4.56l2.73-.88c.89-.3 1.8-.57 2.69-.87 1.8-.57 3.62-1.11 5.44-1.68a158.98 158.98 0 0 0 21.14-8.51c1.7-.85 3.36-1.78 5.03-2.67l2.4-1.48 1.21-.72c.39-.25.78-.53 1.16-.8l2.33-1.6 2.18-1.72c.75-.55 1.39-1.21 2.1-1.82l1.02-.94c.32-.32.61-.66.93-1 2.5-2.64 4.6-5.62 5.87-8.83.16-.41.34-.8.48-1.2l.34-1.24.18-.61.12-.64.22-1.25c.16-1.69.25-3.4-.02-5.05l-.07-.62-.13-.61c-.1-.41-.16-.82-.28-1.23-.25-.8-.45-1.62-.8-2.37a22.49 22.49 0 0 0-2.27-4.41 21.28 21.28 0 0 0-3.05-3.76 9.6 9.6 0 0 0-1.68-1.36l-1.1-.62-1-.43a13.73 13.73 0 0 0-8.67-.5c-.7.16-1.36.43-2.02.68-.64.32-1.28.6-1.84 1-.62.34-1.14.8-1.69 1.23-.5.48-1 .91-1.43 1.46-.48.47-.82 1.07-1.2 1.59l-.05.05c0-.03-.05.04 0 0l-.07.11-.14.23-.25.45c-.16.3-.25.55-.39.84a9.74 9.74 0 0 0 4.12 11.95l.37.2.32.15c.2.1.43.18.66.25.45.15.93.22 1.38.3a6.62 6.62 0 0 0 3.5-.6 5.3 5.3 0 1 1-.77-10.54 5.3 5.3 0 0 1 4.94 7.22l-.06.25c-.07.18-.14.38-.23.54-.1.19-.14.32-.28.53a7.9 7.9 0 0 1-8.88 3.6 5.98 5.98 0 0 1-.83-.28l-.44-.18-.36-.18a11.2 11.2 0 0 1-5.98-9.56 11.23 11.23 0 0 1 1.11-5.47l.25-.47.11-.23.07-.12s.07-.13.07-.1l.05-.08c.43-.63.82-1.3 1.32-1.89.48-.61 1.04-1.16 1.59-1.73.61-.5 1.2-1.07 1.89-1.5.66-.48 1.39-.84 2.14-1.25.77-.32 1.52-.66 2.34-.89a15.93 15.93 0 0 1 10.38.32c.43.18.86.37 1.32.55.36.2.75.38 1.11.59a11.9 11.9 0 0 1 2.32 1.73 24.13 24.13 0 0 1 3.58 4.19 25.75 25.75 0 0 1 2.66 4.94c.39.86.66 1.8.93 2.7.14.46.23.94.34 1.42l.16.7.1.73c.34 1.93.29 3.91.13 5.9l-.23 1.47-.11.73-.18.73-.39 1.46c-.14.48-.34.93-.52 1.4-.19.49-.39.96-.62 1.44.14-.2.3-.4.44-.63.5-.73.93-1.5 1.34-2.26l.59-1.16c.18-.39.34-.8.5-1.18.18-.39.3-.8.43-1.2.14-.42.28-.83.37-1.24.22-.82.36-1.66.5-2.48v-.02a1.64 1.64 0 0 1 2.89-.75 29.3 29.3 0 0 1 3.87 6.44c.25.57.5 1.16.72 1.75.23.6.41 1.2.6 1.82.18.62.31 1.25.45 1.9l.16.97.1.98c.04.66.06 1.32.01 2 0 .34-.02.68-.06 1-.05.34-.07.69-.16 1-.07.34-.14.69-.23 1l-.3.98c-.25.64-.5 1.3-.84 1.9-.3.58-.66 1.1-1.02 1.65h.36c2.1 0 4.23.2 6.4.78 1.06.3 2.16.7 3.2 1.3 1.05.59 2.05 1.36 2.87 2.34a8.53 8.53 0 0 1 1.7 3.4c.1.29.14.6.19.9.05.3.11.62.11.91l.05.89v.8l-.02.36-.05.46c-.04.3-.04.61-.11.88l-.16.87-.23.86a9.84 9.84 0 0 1-4.4 5.76 11.6 11.6 0 0 1-3.27 1.34c-1.86.48-3.7.57-5.48.48l.7.75c.46.53.91 1.1 1.35 1.67l.61.86.6.91c.36.62.72 1.25 1.04 1.89.16.32.32.66.45 1 .14.34.28.66.4 1.03.24.68.45 1.38.63 2.11l.2 1.1c.07.36.1.72.14 1.09.05.36.05.73.07 1.11.02.37.02.73 0 1.12-.02.36-.02.73-.07 1.11l-.14 1.1c-.04.36-.13.72-.2 1.07-.1.36-.16.7-.28 1.07l-.31 1.04c-.12.34-.28.66-.4 1-.24.69-.58 1.3-.9 1.94-.32.64-.7 1.23-1.07 1.84a1.54 1.54 0 0 1-2.6.16l-.38-.52-.02-.05-.07-.13c-.05-.1-.07-.19-.14-.28-.14-.2-.2-.38-.36-.59l-.44-.6c-.15-.2-.34-.38-.5-.56-.18-.18-.34-.39-.52-.57l-.57-.52-.57-.55c-.2-.18-.4-.34-.61-.5-.43-.32-.82-.66-1.28-.98l-1.36-.89-.68-.43-.73-.38-1.44-.78c-.47-.27-.98-.5-1.48-.73l-1.5-.68c-.98-.5-2.04-.82-3.1-1.23l-1.56-.6-1.6-.5-3.18-1-3.25-.81c-.8-.2-1.6-.41-2.42-.6 2.25.85 4.46 1.78 6.65 2.76 3.3 1.57 6.55 3.2 9.67 5.03a158.73 158.73 0 0 1 17.57 11.77 218.33 218.33 0 0 1 15.15 12.68c4.64 4.2 8.9 8.37 12.75 12.22 3.86 3.8 7.48 7.17 10.92 9.74 3.41 2.57 6.76 4.25 9.44 4.48a8 8 0 0 0 5.74-1.77c.3-.2.54-.43.75-.64.23-.18.38-.36.52-.5l.43-.43.07-.07v-.02a1.7 1.7 0 0 1 2.42.02 1.7 1.7 0 0 1-.03 2.41l-.52.52c-.16.19-.39.4-.66.62-.27.23-.6.52-.98.8a12.5 12.5 0 0 1-3.16 1.75c-1.37.5-3.07.77-4.92.61-1.82-.2-3.73-.8-5.55-1.73a34.06 34.06 0 0 1-5.49-3.5 115.37 115.37 0 0 1-11.15-10.15c-3.84-3.9-7.96-8.04-12.53-12.27a236.07 236.07 0 0 0-14.84-12.68 181.3 181.3 0 0 0-8.3-6.1 139.9 139.9 0 0 0-8.88-5.67 124.14 124.14 0 0 0-9.45-5.03 96.93 96.93 0 0 0-9.96-4.05c-.85-.32-1.71-.54-2.57-.82-.87-.25-1.71-.54-2.58-.75l-2.6-.66-2.6-.52c-.44-.1-.87-.18-1.33-.25l-1.32-.18c-.88-.12-1.75-.28-2.64-.35l-2.64-.2c-.88-.1-1.75-.05-2.64-.07-1.77-.09-3.48.1-5.2.16-.87.1-1.76.2-2.65.32l-1.27.16-1.28.25-2.55.48c-.84.13-1.66.38-2.5.59-.82.2-1.66.39-2.48.61l-2.43.75a70.95 70.95 0 0 0-17.53 8.24 72.96 72.96 0 0 0-13.35 11.13 80.23 80.23 0 0 0-9.1 11.59 88.91 88.91 0 0 0-5.56 9.95 69.12 69.12 0 0 0-3.16 7.73c-.3 1.85-.64 3.53-1 5.1a130.46 130.46 0 0 1 10.44-17.02c2.71-3.74 5.87-7.63 9.6-11.47a86.68 86.68 0 0 1 12.98-11.16c1.27-.84 2.5-1.73 3.86-2.5.66-.41 1.35-.8 2.03-1.2l2.1-1.14 1.06-.57 1.1-.53c.72-.34 1.45-.7 2.2-1.04l2.28-.94 1.16-.48c.39-.15.8-.27 1.18-.4l2.4-.83.15-.04.23-.07.3-.09.59-.16 1.18-.34 1.2-.34c.41-.12.87-.18 1.3-.28l2.62-.52c3.48-.52 7.05-.84 10.72-.75a69.58 69.58 0 0 1 21.94 4.28 93 93 0 0 1 10.65 4.62l1.31.66 1.3.7 2.6 1.42c1.7 1 3.4 1.98 5.1 3.05a183.24 183.24 0 0 1 19.59 14.27 323.5 323.5 0 0 1 18.52 16.66c3.03 2.91 6 5.9 8.99 8.92l4.44 4.58 2.18 2.27 2.23 2.28a116.18 116.18 0 0 0 19.55 15.63 94 94 0 0 0 8.21 4.67c.87.1 1.76.07 2.67.07.45-.02.93-.07 1.4-.1.49-.04.94-.15 1.44-.2 1.91-.32 3.85-1 5.6-2.07l.66-.4c.23-.14.4-.33.61-.49l.62-.5c.2-.16.36-.36.54-.57l.55-.56.07-.07.04-.05.03-.02.09-.14.27-.36c.41-.5.57-.89.87-1.32.47-.94.84-1.94 1.06-2.98.2-1.05.25-2.14.19-3.21a11.15 11.15 0 0 0-2.39-5.94l-.53-.62c-.18-.2-.38-.36-.56-.57l-.14-.13-.07-.07-.04-.05-.03-.02s-.02-.02 0-.02l-.32-.25-.34-.28-.3-.18a7.45 7.45 0 0 0-9.38 1.2l-.22.26-.06.07-.03.04-.11.16-.23.3-.16.25a5.17 5.17 0 0 0-.66 1.73 4.71 4.71 0 0 1 8.85 2.3 4.73 4.73 0 0 1-5.82 4.6c-.05 0-.07 0-.12-.03a3.88 3.88 0 0 1-1.55-.64l-.22-.13-.11-.07-.05-.05-.07-.04h-.02l-.02-.02-.46-.41a6.6 6.6 0 0 1-1.98-5.01c.05-1.03.3-2.07.84-3.08l.23-.38.2-.3.12-.16.02-.04.05-.07.07-.07.27-.32c.18-.2.39-.4.6-.59a9.39 9.39 0 0 1 7.44-2.46c1.27.14 2.5.5 3.68 1.19l.45.25.37.25.36.25.41.34c.25.2.5.4.73.64l.66.7a13.1 13.1 0 0 1 3.2 7.15c.15 1.34.12 2.68-.1 4-.26 1.32-.71 2.6-1.3 3.78a14.36 14.36 0 0 1-5.3 5.51 17.07 17.07 0 0 1-6.65 2.25l-.75.1a83.9 83.9 0 0 0 9.47 3.4c8.03 2.33 16.45 3.3 24.62 2.22a46.89 46.89 0 0 0 22.37-9.18l1.27-.98.64-.47.57-.5 2.23-1.98 2.11-2.19c.37-.36.69-.73 1-1.14l.98-1.16a53.55 53.55 0 0 0 6.56-10.13 53.64 53.64 0 0 0 5.35-22.96c0-7.8-1.8-15.5-5.35-22.08A36.77 36.77 0 0 0 394.59 516a40.2 40.2 0 0 0-9.92-3.47c-.85-.18-1.71-.27-2.57-.4l-1.28-.19-.16-.02H380.57l-.34-.02-.66-.05c-.89-.04-1.82-.13-2.57-.07l-1.2.05-.62.02-.62.1a26.31 26.31 0 0 0-16.66 8.57 27.99 27.99 0 0 0-4.89 7.54c-1.13 2.7-1.8 5.6-2.05 8.3a18.58 18.58 0 0 0 10.93 18.4c2.1.93 4.32 1.43 6.42 1.54.6.07 1.04 0 1.52-.02s1-.13 1.48-.2a12.77 12.77 0 0 0 8.46-6.05 9.75 9.75 0 1 1-6.53-16.96c2.44 0 4.67.9 6.38 2.39a10.89 10.89 0 0 1 4.23 8.56c0 .2-.03.38-.03.56l-.02.3v.2c0 .14 0 .1-.02.14-.02.2-.07.4-.1.64-.08.84-.33 1.7-.58 2.6a15.02 15.02 0 0 1-8 8.96c-1.02.5-2.13.84-3.29 1.11-.6.1-1.16.2-1.8.25-.61.03-1.32.1-1.84.05a21.1 21.1 0 0 1-18.68-13.59c-.25-.7-.53-1.4-.71-2.16-.1-.36-.18-.73-.3-1.12-.06-.38-.1-.75-.18-1.13-.04-.39-.13-.75-.16-1.16l-.06-1.21c-.07-.84 0-1.53.02-2.28l.02-.54.02-.2.03-.14.04-.3c.05-.39.12-.77.18-1.16l.19-1.16c.06-.39.18-.77.27-1.16.09-.39.2-.78.3-1.16.09-.39.18-.78.34-1.16.27-.76.54-1.53.84-2.3a30.23 30.23 0 0 1 13.52-14.84 29.45 29.45 0 0 1 10.3-3.3l.69-.12.7-.04 1.44-.07c.97-.1 1.82 0 2.73.05l.66.02.34.02c-.02 0 .2 0 .25.02l.18.03 1.37.18c.9.13 1.84.23 2.77.43a43.4 43.4 0 0 1 10.83 3.64 39.94 39.94 0 0 1 15.14 13.48c0-.57.02-1.19.06-1.82.16-1.5.46-3.21 1.07-5.01a19.97 19.97 0 0 1 2.78-5.46c1.3-1.78 2.96-3.51 5.1-4.76l.8-.46c.27-.16.56-.25.86-.38l.89-.37c.3-.13.61-.18.9-.27l.94-.25.11-.02.07-.03h.02l.1-.02.22-.02.66.04c.55-.11 1.3-.11 1.98-.13 1.32.04 2.67.25 3.94.66a13.39 13.39 0 0 1 8.42 8.03l.32.93c.09.32.16.64.23.96l.04.23.02.11.03.07v.02l.02.1.05.43.04.43.02.52a9.52 9.52 0 0 1-5.8 9.04c-.27.13-.55.2-.82.3-.27.09-.55.18-.82.22l-.4.1-.12.02-.1.02h-.04l-.18.02-.36.05h-.46a6.75 6.75 0 0 1-6.55-5.03c-.05-.2-.07-.41-.12-.6V524s-.02-.14 0-.1v-.06a4.73 4.73 0 1 1 6.05 3.91h.55l.28-.02.36-.07h.25c-.1.02-.02 0-.02 0h.02l.1-.02.3-.1c.24-.04.44-.13.65-.2a7.44 7.44 0 0 0 4.76-7.26l-.03-.34-.07-.43-.07-.41c0 .02 0 .02 0 0v-.02l-.02-.05-.02-.1-.05-.17-.2-.78-.27-.75a11.07 11.07 0 0 0-6.83-6.37c-1.03-.32-2.1-.48-3.14-.5-2.1 0-4.21.57-6.01 1.57-1.8 1-3.35 2.37-4.57 3.9a19.29 19.29 0 0 0-2.9 4.73c-.38.77-.65 1.56-.93 2.34-.25.75-.43 1.5-.61 2.2a27.34 27.34 0 0 0-.48 2.9c.34.54.68 1.11 1 1.68 3.96 7.15 5.94 15.43 6.08 23.83a57.56 57.56 0 0 1-5.44 24.83 57.96 57.96 0 0 1-6.94 11.09l-1.05 1.27c-.34.44-.7.85-1.1 1.25l-2.27 2.42-2.5 2.27-.64.57-.61.5-1.25.98a51.19 51.19 0 0 1-24.53 10.43c-5.94.84-11.95.68-17.82-.23l.84.2c1.61.37 3.28.85 5.05 1.1l2.69.47c.9.16 1.84.35 2.8.44 7.6 1.09 16.34 1.3 25.82.7l3.6-.23c.61-.04 1.2-.06 1.82-.13l1.84-.23c2.46-.32 4.96-.61 7.54-.93 2.54-.44 5.12-.91 7.73-1.4 1.3-.24 2.64-.45 3.96-.74l3.99-.94c2.68-.63 5.37-1.25 8.12-1.93 2.75-.73 5.55-1.46 8.37-2.19 5.67-1.45 11.45-2.93 17.34-4.46 5.9-1.47 11.93-2.95 18.07-4.32 3.28-.73 6.6-1.44 9.97-2.07l-.16-1.03-.41-1.8c-.14-.59-.25-1.2-.45-1.8l-.55-1.77c-.16-.59-.43-1.16-.64-1.73-.4-1.16-.98-2.25-1.5-3.37-.27-.54-.6-1.07-.89-1.59l-.45-.8-.5-.75a30.56 30.56 0 0 0-4.58-5.48c-1.7-1.64-3.62-3-5.62-4.14a25.36 25.36 0 0 0-12.92-3.28c-4.37.09-8.54 1.57-11.8 4a19.5 19.5 0 0 0-4.06 4.37l-.78 1.26c-.25.43-.43.86-.66 1.3l-.32.65-.25.69c-.16.43-.32.86-.5 1.3-.13.47-.27.97-.38 1.45l-.21 1.3c-.05.43-.07.9-.1 1.34-.01.46.03.89.03 1.34a14.8 14.8 0 0 0 4.05 9.13 14.63 14.63 0 0 0 3.76 2.78c.66.36 1.36.61 2.07.88l.07.03.13.04.3.07.57.16.98.16a9.85 9.85 0 0 0 10.28-6.3A6.58 6.58 0 0 1 447.8 586a6.6 6.6 0 0 1 12.43-3.1c.22.32.45.66.66 1.02.4.78.73 1.71.9 2.74a8.54 8.54 0 0 1-.13 3.37 12.02 12.02 0 0 1-12.9 9.04c-.43-.08-.89-.14-1.32-.21l-.57-.16-.3-.07-.13-.05c.02 0-.12-.02-.14-.04l-.07-.02c-.8-.3-1.61-.57-2.41-1a16.88 16.88 0 0 1-9.26-13.8c-.02-.52-.07-1.05-.05-1.57.03-.52.05-1.05.1-1.6.08-.54.15-1.1.27-1.63l.38-1.46.05-.16.05-.09.06-.18.14-.39.27-.75.28-.75.36-.73c.25-.48.46-1 .73-1.48l.86-1.4a22.43 22.43 0 0 1 4.62-5.04 23.17 23.17 0 0 1 13.31-4.69c4.9-.16 9.95 1.03 14.41 3.5a32.78 32.78 0 0 1 12.43 12.15c.31.58.68 1.15.97 1.74a45.45 45.45 0 0 1 4 11.36l.19.98c1.87-.34 3.75-.66 5.67-.94a146.1 146.1 0 0 1 19.63-1.75l2.5-.02c.85 0 1.7.04 2.54.07.84.04 1.68.04 2.52.11l2.53.2c.84.05 1.68.16 2.52.3l2.53.34 2.52.48 1.26.25 1.25.32c.84.2 1.66.41 2.5.64l2.46.8 1.23.4 1.2.48c.8.32 1.62.64 2.4.98 1.54.77 3.13 1.46 4.61 2.37.75.43 1.5.84 2.23 1.32l2.14 1.45c.73.46 1.39 1 2.07 1.53.69.52 1.37 1.05 2.03 1.6l1.9 1.7.96.87.9.9 1.77 1.83c.59.61 1.11 1.27 1.66 1.9.54.64 1.11 1.28 1.61 1.94l1.5 2 .76 1 .18.17.23.32.34.5.66.97.7 1.14.69 1.14.61 1.14c.43.75.77 1.52 1.14 2.3 1.43 3.1 2.5 6.35 3.16 9.67a45.27 45.27 0 0 1-8.71 36.92 44.69 44.69 0 0 1-6.49 6.62c-.6.48-1.16.98-1.8 1.41l-.9.69-.24.15-.22.16-.12.07-.45.28c-.6.36-1.18.75-1.78 1.11-.66.37-1.4.73-2.11 1.07-.37.18-.7.37-1.07.52l-1.07.41c-.7.25-1.41.55-2.12.78-1.46.38-2.87.82-4.35 1-1.45.3-2.9.34-4.34.43-.73.02-1.44-.04-2.16-.04l-1.07-.05c-.37-.02-.7-.09-1.07-.14l-2.1-.27-2.04-.48c-.35-.09-.69-.13-1-.25l-.98-.32c-.66-.22-1.32-.4-1.94-.66-.61-.27-1.25-.54-1.86-.82-.3-.13-.62-.25-.91-.43l-.87-.5-1.73-1-1.61-1.14-.8-.57c-.25-.2-.5-.4-.73-.63-.48-.44-.98-.85-1.46-1.26-.47-.43-.88-.9-1.32-1.36-.4-.48-.88-.89-1.25-1.39l-1.13-1.48-.55-.73-.07-.09c-.14-.2-.07-.11-.11-.18l-.12-.18-.22-.37-.44-.73c-.13-.25-.3-.47-.43-.77-.27-.57-.57-1.14-.84-1.7a23.92 23.92 0 0 1-1.7-6.81c-.24-2.28 0-4.49.4-6.56.14-.52.25-1.02.37-1.52l.5-1.48c.16-.5.36-.96.57-1.41.22-.46.38-.94.66-1.35.47-.86.95-1.7 1.54-2.45.53-.8 1.16-1.48 1.75-2.17.3-.34.64-.63.96-.95l.96-.89 1.02-.77.5-.4.14-.08.07-.05s.13-.09.11-.06l.25-.17 1-.59 1.14-.54c.36-.2.75-.3 1.12-.43a15.23 15.23 0 0 1 11.4.57c1.93.79 3.61 2.11 4.91 3.73l.41.48.73.97c.07.1.07.2.04.3a12.25 12.25 0 1 1-20.12-2.12l-.24.23-.87.75c-.27.27-.54.57-.82.84-.27.3-.57.55-.8.9-.5.63-1.02 1.24-1.43 1.97-.48.68-.84 1.46-1.2 2.2-.2.4-.32.8-.5 1.22-.16.4-.35.82-.44 1.25-.11.43-.22.86-.36 1.3l-.23 1.34a19.05 19.05 0 0 0 1.62 11.2c.23.4.45.84.68 1.25.1.2.25.43.43.68l.48.7.25.37.12.18.06.07.53.62 1.04 1.22c.35.41.78.75 1.16 1.14.41.37.78.78 1.19 1.14l1.3 1.02.65.53.71.45c.48.3.93.62 1.41.91.5.28 1 .53 1.53.78l.75.38c.25.14.52.23.8.32l1.6.64c.56.18 1.12.32 1.7.5l.84.25c.27.07.56.12.86.18l1.75.35c.6.04 1.19.1 1.78.15.3.03.59.07.88.07h.91c.6-.02 1.21.02 1.83-.02 1.2-.14 2.43-.18 3.61-.48 1.2-.18 2.4-.59 3.58-.93.59-.2 1.16-.48 1.73-.7l.86-.37.8-.41c.52-.3 1.04-.55 1.59-.87.6-.38 1.16-.77 1.75-1.16l.43-.3.12-.06c-.02 0 .2-.14-.02 0l.2-.16.77-.62c.53-.38 1.03-.84 1.53-1.27 2-1.75 3.82-3.73 5.44-5.92a38.85 38.85 0 0 0 6.85-31.8 37.66 37.66 0 0 0-2.78-8.16c-.32-.64-.61-1.32-.98-1.94l-.52-.96c-.18-.31-.37-.59-.55-.88l-.54-.9-.69-.97-.34-.5-.09-.11-.04-.05-.19-.23-.7-.88-1.39-1.8c-.48-.6-1-1.14-1.48-1.73-.5-.57-.98-1.16-1.5-1.71l-1.6-1.62-.79-.8-.84-.74-1.69-1.5c-.57-.48-1.18-.92-1.77-1.4-.6-.45-1.19-.93-1.82-1.31l-1.87-1.26c-.63-.4-1.3-.75-1.95-1.11-1.28-.77-2.69-1.34-4.03-2.03-.69-.3-1.4-.54-2.1-.84l-1.04-.4c-.37-.15-.73-.24-1.07-.35l-2.17-.68-2.2-.57-1.1-.27-1.1-.23-2.26-.43-2.28-.32a36.9 36.9 0 0 0-2.3-.28l-2.3-.18c-.77-.07-1.54-.07-2.32-.11-.77-.03-1.54-.07-2.32-.07l-2.32.02c-6.21.07-12.47.73-18.66 1.66-2 .3-3.98.64-5.96.98l.02 1.8-.13 2.07c-.05 1.39-.32 2.75-.53 4.12a39.84 39.84 0 0 1-6.5 15.34 49.73 49.73 0 0 1-7.97 8.7 20.97 20.97 0 0 1 9.08 3.37 20.51 20.51 0 0 1 4.87 4.64 22.77 22.77 0 0 1 4.46 12.6c.09 2.28-.14 4.58-.8 6.79a14.46 14.46 0 0 1-3.46 6.05 11.6 11.6 0 0 1-6.28 3.33c-.02 0-.06 0-.09.02a1.12 1.12 0 0 1-1.23-1v-.07a17.8 17.8 0 0 0-2.23-6.92 15.92 15.92 0 0 0-4.87-5.35 19 19 0 0 0-6.73-2.82 30.15 30.15 0 0 0-7.47-.6c-.63 0-1.27.08-1.88.12l-1.92.18a182.69 182.69 0 0 1-19.75 1.02 154 154 0 0 1-7.92-.24c-5.28-.32-10.54-.96-15.75-1.96a87.35 87.35 0 0 1-15.24-4.5c-2.46-1-4.87-2.12-7.2-3.42a51.72 51.72 0 0 1-8.53-5.9 41.62 41.62 0 0 1 6.42 24.95 42.71 42.71 0 0 1-1.5 9.24 59.06 59.06 0 0 1-3.4 9.26l-.13.3-.18.34-.3.55-.57 1.1c-.2.36-.36.72-.59 1.08l-.73 1.14c-.93 1.57-2.07 2.91-3.2 4.28a35.8 35.8 0 0 1-5.8 5.3c-.08.16-.14.35-.23.5-.21.46-.37 1-.57 1.58-.12.27-.2.59-.28.9l-.27.98c-.1.35-.14.71-.23 1.07-.07.37-.18.73-.23 1.12-.09.77-.25 1.6-.27 2.46-.09 1.7-.02 3.6.41 5.48.43 1.9 1.19 3.8 2.34 5.47a12.24 12.24 0 0 0 4.7 3.98c.95.4 1.97.73 3.02.89 1.05.13 2.12.11 3.19-.05 2.09-.32 4.11-1.27 5.66-2.7l.48-.55c.18-.19.34-.41.5-.6l.14-.16.06-.06.03-.05.02-.02c.02-.02.02-.02 0 0l.23-.32.25-.37.16-.3c.18-.33.36-.72.5-1.13a6.6 6.6 0 0 1-11.31-6.33l.04-.22c.1-.37.23-.78.4-1.05l.1-.23.07-.11.03-.07.04-.07v-.02l.02-.02c.12-.16.23-.32.37-.48a6.81 6.81 0 0 1 8.08-1.78l.4.2.32.19.16.09.05.02.1.07.08.07.34.25c.23.16.46.36.66.57.2.2.44.39.62.64a9.56 9.56 0 0 1 2.39 6.87 9.6 9.6 0 0 1-1.03 3.87l-.25.48-.25.36-.25.37-.07.09-.02.02-.05.04-.06.1-.16.18-.62.77-.7.7a13.64 13.64 0 0 1-7.1 3.58c-1.34.2-2.71.23-4.05.05-1.35-.2-2.64-.6-3.85-1.14-.61-.32-1.3-.66-1.73-.98l-.36-.25-.18-.14-.1-.07-.02-.02-.04-.04-.1-.1-.75-.63c-.22-.23-.5-.41-.7-.66l-.64-.73c-.2-.25-.43-.46-.61-.73l-.53-.77a17.93 17.93 0 0 1-2.61-6.53 21.37 21.37 0 0 1-.28-6.2 21.04 21.04 0 0 1 1.6-6.48 41.3 41.3 0 0 1-9.7 4.35 46.58 46.58 0 0 1-22.32 1.18c-3.71-.73-7.4-1.91-10.76-3.74a29.05 29.05 0 0 1-8.93-7.21c-2.43-3-4.11-6.6-4.82-10.33-.11-.46-.16-.94-.2-1.4l-.14-1.4-.05-.34V673.49l.07-.7.14-1.42c.02-.48.11-.93.2-1.36l.25-1.35a20.92 20.92 0 0 1 4.83-9.6 19.77 19.77 0 0 1 8.65-5.6c6.39-2.05 13.3-.91 18 2.75a14.04 14.04 0 0 1 4.73 6.92c.8 2.58.8 5.15.5 7.42-.11.57-.23 1.12-.32 1.69l-.09.4-.11.42c-.1.25-.14.5-.23.75a12.7 12.7 0 0 1-1.34 2.91 9.91 9.91 0 0 1-4.12 3.8s-.03 0-.05.02a6.6 6.6 0 1 1 2.91-5.49l-.02.35c.32-.66.6-1.37.8-2.07.07-.23.11-.5.18-.75.02-.12.07-.3.1-.34l.04-.39c.07-.5.16-1.02.22-1.52.19-2.08.07-4.3-.68-6.45a11.66 11.66 0 0 0-4.14-5.57c-2-1.44-4.48-2.46-7.17-2.76-.68-.06-1.34-.16-2.05-.13-.34 0-.68-.03-1.02 0-.34.02-.68.07-1.05.09a8.9 8.9 0 0 0-1.04.13l-1.05.19-1.03.27c-.34.1-.68.18-1.02.32l-1 .38c-.34.14-.64.32-.98.48-.66.3-1.25.7-1.89 1.07-.32.18-.59.43-.88.64-.28.23-.6.41-.85.68-.52.53-1.09.98-1.54 1.57a17.44 17.44 0 0 0-3.87 8.13l-.2 1.16c-.08.39-.14.77-.14 1.16l-.1 1.16-.04.57c-.02.2 0 .43 0 .64l.02 1.3.03.65v.23l.04.3.14 1.18c.04.39.06.8.18 1.19a19.42 19.42 0 0 0 4.12 8.58 24.77 24.77 0 0 0 7.76 6.12c3 1.55 6.28 2.64 9.67 3.3a42.8 42.8 0 0 0 20.37-1.12c6.48-1.98 12.38-5.5 16.65-10.28a38.84 38.84 0 0 0 2.9-3.71l.65-.94c.2-.32.41-.7.62-1.07l.61-1.07.3-.54.07-.14.02-.07.14-.27a54.53 54.53 0 0 0 3.4-8.6 42.08 42.08 0 0 0 1.74-16.71 41.3 41.3 0 0 0-3.85-13.82 44.9 44.9 0 0 0-5.16-8.4c-.37-.45-.75-.88-1.1-1.36l-.45-.52c-.82-.44-1.66-.9-2.48-1.32-.98-.53-1.94-1.1-2.9-1.64-1.88-1.1-3.8-2.12-5.59-3.24l-5.32-3.2a395.76 395.76 0 0 1-18.46-12.25 346.06 346.06 0 0 1-9.28-6.8 101.2 101.2 0 0 1-7.35-4.15c-3.76-2.32-7.35-4.9-10.79-7.62-3.44-2.73-6.7-5.65-9.83-8.74l-2.23-2.28-2.23-2.32c-1.48-1.5-2.94-3.03-4.42-4.53a642.79 642.79 0 0 0-8.9-8.83l-2.02-1.94c.68 1.14 1.43 2.28 2.12 3.51.73 1.37 1.52 2.73 2.23 4.19.68 1.48 1.43 2.98 2.1 4.55.6 1.6 1.29 3.2 1.9 4.9l1.69 5.16 1.36 5.4c.75 3.66 1.48 7.4 1.82 11.2l.32 2.84.27 2.78c.07.95.23 1.82.35 2.73.1.9.3 1.8.45 2.68a49.64 49.64 0 0 0 3 10.15 32.01 32.01 0 0 0 5.06 8.31 25.68 25.68 0 0 0 6.55 5.5 24.93 24.93 0 0 0 6.71 2.67 26.53 26.53 0 0 0 9.15.66c.41-.02.73-.09.93-.11.2-.02.32-.05.32-.05H328a1.7 1.7 0 0 1 .4 3.4l-.37.04c-.25.02-.6.07-1.07.1a30.73 30.73 0 0 1-10.2-.93 27.77 27.77 0 0 1-14.68-9.47 35.28 35.28 0 0 1-5.3-9.12 52.42 52.42 0 0 1-2.93-10.74 78.45 78.45 0 0 1-.73-5.64c-.07-.94-.14-1.9-.23-2.82l-.25-2.78a97.5 97.5 0 0 0-1.55-11c-.4-1.77-.82-3.55-1.23-5.3l-1.54-5.1c-.57-1.64-1.2-3.25-1.78-4.82-.61-1.57-1.34-3.05-1.98-4.5-.66-1.47-1.43-2.83-2.11-4.17-.71-1.35-1.48-2.58-2.19-3.78-.7-1.2-1.5-2.3-2.18-3.37l-.7-1a304.24 304.24 0 0 0-5.7-5.15l.41.57a74.78 74.78 0 0 1 10.29 22.51 81.37 81.37 0 0 1 2.45 13.82c.14 1.18.19 2.39.25 3.6l.1 1.82.02 1.8c.02 1.18.02 2.38.05 3.59l.02 1.8-.05 1.82c-.09 2.41-.07 4.85-.27 7.26-.1 1.2-.16 2.41-.25 3.6-.07 1.2-.27 2.38-.39 3.57-.16 1.18-.27 2.37-.43 3.55l-.62 3.48c-.09.57-.2 1.16-.31 1.73-.12.57-.28 1.14-.41 1.7l-.82 3.38c-.28 1.11-.69 2.18-1 3.25-.37 1.07-.64 2.14-1.1 3.17-.4 1.02-.81 2.04-1.23 3.05l-.31.75-.37.73c-.25.47-.48.95-.7 1.43-.23.48-.48.93-.7 1.41l-.35.7-.41.67-1.6 2.6c-.5.86-1.08 1.63-1.65 2.4-.57.78-1.12 1.55-1.67 2.28-.6.7-1.18 1.39-1.77 2.05l-.87 1c-.27.32-.56.66-.86.93-1.2 1.19-2.3 2.35-3.41 3.35l-3.17 2.75-2.82 2.16c-.43.32-.82.64-1.2.91l-1.12.76-1.75 1.18-1.46.98s-.02 0-.02.02c-.8.52-1.84.3-2.37-.5a1.7 1.7 0 0 1 .5-2.37l.07-.04s.5-.32 1.41-.94l1.71-1.11 1.07-.7c.36-.28.75-.58 1.18-.87l2.73-2.03 3.07-2.57c1.07-.93 2.14-2.02 3.3-3.14.3-.27.57-.57.85-.89l.82-.93 1.7-1.93a57.99 57.99 0 0 0 6.2-9.45 65.15 65.15 0 0 0 4.73-11.77l.84-3.23c.13-.55.3-1.1.4-1.64.12-.54.24-1.11.33-1.68l.66-3.4c.18-1.13.31-2.3.47-3.45.14-1.17.37-2.33.44-3.5.09-1.2.2-2.35.3-3.54.24-2.36.27-4.73.38-7.12l.07-1.78v-7.19c0-.55-.05-1.16-.07-1.75-.05-1.19-.07-2.35-.18-3.5a78.25 78.25 0 0 0-2.19-13.53 72.83 72.83 0 0 0-13.5-27.35c-.58-.5-1.18-1.03-1.79-1.53a304.45 304.45 0 0 0-6.1-4.87 83.85 83.85 0 0 1 7.08 8.35c.48.64.9 1.32 1.39 1.98.45.66.93 1.32 1.34 2.03.43.68.89 1.39 1.32 2.1l1.23 2.18c.43.73.82 1.48 1.18 2.23.37.75.77 1.5 1.14 2.3.68 1.57 1.41 3.14 2 4.8.66 1.64 1.14 3.32 1.66 5.03.25.86.46 1.73.66 2.6.23.86.44 1.75.6 2.63.15.9.34 1.78.5 2.67.13.88.22 1.8.36 2.7l.18 1.37.11 1.37.23 2.66c.25 3.64.39 7.3.34 11-.04 3.68-.22 7.37-.63 11.08-.78 7.37-2.41 14.77-5.46 21.58a42.07 42.07 0 0 1-5.8 9.53 31 31 0 0 1-3.97 3.96 25.09 25.09 0 0 1-4.7 3.03 20.4 20.4 0 0 1-10.75 2.02c-.43-.04-.8-.04-1.25-.1l-1.37-.21c-.45-.07-.86-.19-1.3-.3a18.08 18.08 0 0 1-6.03-2.55 16.27 16.27 0 0 1-3.82-3.46 15.18 15.18 0 0 1-2.43-4.4 14.1 14.1 0 0 1 0-9.41 12.77 12.77 0 0 1 10.22-8.31c.31-.05.63-.12.97-.16.57-.05 1.1-.12 1.76-.12 1.23-.02 2.39.1 3.52.4 1.12.29 2.19.77 3.08 1.38a8.05 8.05 0 0 1 3.25 4.9c.39 1.75.16 3.38-.32 4.68a7.07 7.07 0 0 1-1.96 2.87c-.7.64-1.36.96-1.8 1.18l-.68.28c-.09.02-.16.04-.25.04a4.73 4.73 0 1 1 3.37-6.08c.1-.77.05-1.63-.2-2.5a6.05 6.05 0 0 0-2.64-3.53 8.72 8.72 0 0 0-5.26-1.13c-.45 0-1.05.11-1.62.18-.25.04-.47.11-.72.16-.25.07-.53.09-.78.18-1.02.3-2.02.75-2.96 1.3a9.7 9.7 0 0 0-4.1 5.28c-.72 2.25-.65 4.87.26 7.28a12.09 12.09 0 0 0 5.05 6.01 14.2 14.2 0 0 0 3.9 1.68c.33.12.7.19 1.06.28.37.07.73.18 1.07.2l1.07.14c.34.07.8.07 1.18.09l.62.04h.52l1.12-.02c.75-.07 1.48-.13 2.23-.3 1.45-.31 2.91-.77 4.3-1.47a21.5 21.5 0 0 0 3.91-2.6 27.06 27.06 0 0 0 3.4-3.46 37.7 37.7 0 0 0 5.2-8.62 58.16 58.16 0 0 0 3.33-9.9 80.64 80.64 0 0 0 1.84-10.47c.41-3.56.61-7.13.68-10.68.07-3.57-.07-7.15-.25-10.63-.07-.89-.11-1.77-.18-2.68l-.1-1.3-.13-1.3c-.09-.86-.18-1.7-.3-2.57-.13-.84-.29-1.68-.43-2.53-.1-.84-.31-1.66-.52-2.5-.2-.82-.36-1.66-.59-2.46-.48-1.61-.91-3.23-1.5-4.78a70.85 70.85 0 0 0-8.76-17.05c-3.53-5-7.38-9.44-11.27-13.15-1.93-1.9-3.89-3.58-5.76-5.17a141.4 141.4 0 0 0-3.5-2.78c-.6-.36-1.2-.7-1.8-1.07-.82-.47-1.64-.9-2.46-1.36l-1.22-.68-1.26-.64a90.47 90.47 0 0 0-10.03-4.46A73.89 73.89 0 0 0 216.4 518c-3.4-.77-6.8-1.14-10.15-1.32-3.35-.16-6.65.1-9.86.5-.77.14-1.54.27-2.32.43-.38.07-.77.14-1.16.23l-1.2.3-1.21.3-.6.15-.29.07s-.04.02-.09.02l-.13.05c-.76.23-1.5.48-2.26.7-.36.12-.75.23-1.11.37l-1.1.4-2.16.83-2.1.93-1.04.46-1.02.5-2 1c-.66.36-1.3.73-1.94 1.1-1.3.7-2.5 1.52-3.73 2.27a88.2 88.2 0 0 0-12.81 10.29 119.3 119.3 0 0 0-17.02 20.87 137.22 137.22 0 0 0-7.38 12.72 99.95 99.95 0 0 1 9.63-12.68 90.05 90.05 0 0 1 9.88-9.51 81.34 81.34 0 0 1 12.65-8.65 74.74 74.74 0 0 1 15.15-6.3 73.55 73.55 0 0 1 16.75-2.76l4.28-.1c1.43 0 2.84.1 4.26.15l1.09.04 1.05.1 2.09.2c.68.04 1.39.16 2.1.27.7.11 1.4.23 2.09.32 5.55.93 10.9 2.73 15.65 5.3.62.3 1.19.66 1.75 1 .57.37 1.14.69 1.71 1.07 1.07.8 2.18 1.53 3.14 2.4a36.82 36.82 0 0 1 5.37 5.46l1.14 1.48 1.02 1.52c.34.5.66 1 .96 1.52.3.53.61 1.03.89 1.55a44.17 44.17 0 0 1 2.68 6.22 50.44 50.44 0 0 1 2.46 20.64 38.5 38.5 0 0 1-.89 5.83c-.13.66-.3 1.18-.38 1.52l-.14.52c-.2.73-.96 1.14-1.69.94a1.36 1.36 0 0 1-.93-1.69l.02-.06.14-.48a36.17 36.17 0 0 0 1.25-6.85 48.47 48.47 0 0 0-2.14-19.64 41.63 41.63 0 0 0-2.48-5.9c-.25-.5-.54-.98-.82-1.46-.27-.5-.54-.98-.88-1.45l-.96-1.44-1.05-1.39a35.72 35.72 0 0 0-4.98-5.2c-.91-.85-1.96-1.56-2.96-2.3-.52-.37-1.07-.69-1.6-1.03-.54-.34-1.06-.68-1.65-.98a49.8 49.8 0 0 0-14.98-5.26l-2-.34c-.68-.11-1.34-.23-2.05-.3l-2.09-.22-1.05-.12c-.3-.02-.68-.04-1.02-.04-1.39-.07-2.78-.16-4.16-.18l-4.17.02a71.7 71.7 0 0 0-16.38 2.5 72.34 72.34 0 0 0-14.93 6.01 80.15 80.15 0 0 0-12.54 8.38c-3.73 3.02-7.01 6.19-9.85 9.28a97.63 97.63 0 0 0-12.06 16.3 72.23 72.23 0 0 0-2.05 3.76c0 .02-.03.04-.03.04l-.04.07c-.1.18-.18.36-.27.55-.53 2.61-1.14 5.16-1.83 7.62-.15.6-.31 1.16-.45 1.75a47.8 47.8 0 0 0-.5 1.71c-.34 1.14-.68 2.23-1 3.35-.73 2.16-1.41 4.3-2.19 6.3a155.1 155.1 0 0 1-6.25 14.77 96.95 96.95 0 0 1-4.26 9.88c-2.44 4.73-5.1 9.08-7.85 13.06l-.34.46.07-.1c1.27-1.5 2.43-3.13 3.66-4.77 1.23-1.64 2.46-3.32 3.73-5 2.44-3.49 4.9-7.1 7.42-10.84 2.41-3.8 4.91-7.7 7.42-11.72 2.41-4.1 4.87-8.27 7.35-12.52 2.43-4.26 5.21-8.63 8.17-12.8 2.98-4.18 6.3-8.23 9.9-12.08a92.71 92.71 0 0 1 11.85-10.65 70.23 70.23 0 0 1 15.86-8.95l1.92-.73c1.3-.4 2.57-.88 3.91-1.2 2.64-.73 5.35-1.2 8.06-1.5a41.3 41.3 0 0 1 16.29 1.54c2.62.85 5.14 1.96 7.49 3.37l.86.55.23.14.16.11.09.07.39.27 1.57 1.12c.27.18.52.36.77.57l.8.63 1.57 1.28a43.91 43.91 0 0 1 5.53 5.73c.86 1 1.57 2.14 2.32 3.24.66 1.16 1.36 2.27 1.9 3.48a28.22 28.22 0 0 1 2.7 15.31 28.1 28.1 0 0 1-5.65 13.87c-6.03 7.8-16.02 11.79-24.87 9.6a19.2 19.2 0 0 1-6.01-2.7 19.13 19.13 0 0 1-4.48-4.4 18.64 18.64 0 0 1-3.62-10.92l-.02-.35V587.93l.04-.6.02-.29.05-.36.11-.75a13.51 13.51 0 0 1 11.7-10.9c.68-.1 1.34-.1 1.98-.1h.32l.2.03.41.04c.12 0 .3.05.48.07.18.05.34.07.53.11a9.61 9.61 0 0 1 5.48 3.51c.57.73.98 1.46 1.25 2.14a10 10 0 0 1 .75 3.57 5.3 5.3 0 1 1-7.08-4.98 6.31 6.31 0 0 0-1.13-.27l-.25-.03c-.07 0-.14-.02-.3-.02h-.66.07-.1c-.45.05-.9.05-1.36.16a9.55 9.55 0 0 0-7.62 7.51l-.07.39-.04.2-.03.3-.04.59v.43c.02 2.73.82 5.7 2.66 8.17a14.54 14.54 0 0 0 3.34 3.33c1.35.93 2.85 1.64 4.49 2.07.2.04.4.13.61.16l.57.09.6.11.74.05.75.04H211.47l1.36-.04a21.3 21.3 0 0 0 5.47-1.25c3.6-1.35 6.9-3.83 9.46-7.06a23.72 23.72 0 0 0 4.8-11.59 24.4 24.4 0 0 0-.18-6.55c-.11-.55-.18-1.1-.34-1.64-.14-.55-.3-1.07-.43-1.62-.39-1.04-.73-2.13-1.25-3.16-.44-1.05-1.07-2.02-1.64-3.05-.66-.96-1.28-1.96-2.05-2.84a40.7 40.7 0 0 0-4.94-5.17l-1.39-1.14-.68-.57c-.23-.18-.52-.36-.77-.57l-1.55-1.11-.39-.27-.09-.07c.07.04-.04-.03-.04-.03l-.19-.11-.75-.48a31.06 31.06 0 0 0-6.55-3 33.3 33.3 0 0 0-7.2-1.46 38.71 38.71 0 0 0-7.43 0c-2.48.25-4.99.66-7.42 1.34-1.23.3-2.44.73-3.64 1.1l-1.78.66c-.59.22-1.18.43-1.77.7a66.34 66.34 0 0 0-13.3 7.58 88.43 88.43 0 0 0-11.48 10.1c-3.53 3.67-6.8 7.56-9.74 11.62a151.81 151.81 0 0 0-8.15 12.45l-7.53 12.47c-2.55 4.03-5.15 7.92-7.6 11.72-2.62 3.71-5.17 7.33-7.67 10.79l-3.85 5c-1.27 1.64-2.46 3.26-3.77 4.76l-1.53 1.82a43.6 43.6 0 0 1 10.08-3.82 27.58 27.58 0 0 1 8.99-.68c1.52.16 3.03.48 4.5.95a17.66 17.66 0 0 1 5.15 2.62c.32.23.64.43.93.7l.91.78.78.75a13.38 13.38 0 0 1 2.75 3.94 15 15 0 0 1 1.3 4.57c.2 1.57.2 3.14.04 4.67a25.16 25.16 0 0 1-.84 4.53c-.41 1.5-.87 2.89-1.55 4.37-.2.45-.63.82-1.16.9a1.56 1.56 0 0 1-1.82-1.27l-.02-.09a13.72 13.72 0 0 0-1.2-3.87 6.23 6.23 0 0 0-2.47-2.61 8.12 8.12 0 0 0-3.61-.96c-1.35-.07-2.76.07-4.14.37a44.6 44.6 0 0 0-8.4 2.7c-1.4.57-2.76 1.21-4.12 1.85-1.37.63-2.73 1.32-4.07 2-1.35.68-2.69 1.41-4.03 2.12l-4.05 2.16a81.09 81.09 0 0 1-4.21 2.12c-.73.31-1.5.56-2.23.86-.73.3-1.53.5-2.3.7l-1.16.3c-.39.07-.8.14-1.19.18l-1.18.19c-.4.04-.8.04-1.2.07l-1.21.04-1.2-.07c-.8 0-1.6-.18-2.4-.32a17.35 17.35 0 0 1-6.37-2.7c-.16.09-.32.18-.45.27l-2.23 1.18c-.69.37-1.35.64-1.92.91-.4.2-.8.37-1.16.5-1.34.87-2.43 1.5-3.16 1.91l-1.11.62c-.64.36-1.46.13-1.82-.52a1.36 1.36 0 0 1 .5-1.85s.38-.2 1.11-.63c.73-.44 1.73-1.05 3.1-1.94 2.7-1.75 6.57-4.5 11.22-8.38a134.23 134.23 0 0 0 15.56-15.2c2.73-3.19 5.5-6.7 8.2-10.56 2.63-3.9 5.18-8.13 7.48-12.75a92.42 92.42 0 0 0 5.73-14.93 76.05 76.05 0 0 0 2.85-16.82c.09-1.46.2-2.93.16-4.41-.02-1.48 0-2.99-.1-4.49s-.24-3-.36-4.53c-.04-.75-.2-1.5-.3-2.27l-.33-2.28a88.52 88.52 0 0 0-5.01-18.16l-.82-2.21-.98-2.25c-.32-.78-.68-1.44-1.02-2.17l-.53-1.07-.59-1.04a58.67 58.67 0 0 0-5.3-8.08 50.88 50.88 0 0 0-14.72-12.68 52.35 52.35 0 0 0-18.73-6.26c-6.6-.91-13.4-.68-20 .6-6.6 1.27-13 3.52-18.85 6.7a54.97 54.97 0 0 0-15.38 12.23 42.3 42.3 0 0 0-9.03 16.68 37.56 37.56 0 0 0-1.3 9.24c-.02 1.55.02 3.1.16 4.65l.02.3.02.13v.05l.1.56.2 1.21c.16.73.3 1.41.48 2.16a37.15 37.15 0 0 0 3.32 8.38 41.18 41.18 0 0 0 5.14 7.28c.48.57 1 1.07 1.5 1.62L18 593.3c.55.48 1.1.98 1.67 1.44l.86.68.43.34s.05.05.07.05l.05.04.22.16 1.92 1.3c.61.36 1.16.61 1.75.96.54.34 1.23.56 1.84.84l.96.38c.32.12.66.2.98.32l.97.3c.32.09.64.2.98.25l1.98.4c1.35.14 2.66.33 4 .28 2.65 0 5.29-.32 7.74-1.14a25.78 25.78 0 0 0 12.34-8.17l.59-.68.14-.18c.09-.12-.03.04 0 0l.07-.1.27-.4.54-.8.28-.39.18-.36a18.1 18.1 0 0 0 2.41-9.5 18.62 18.62 0 0 0-4.34-11.28c-.66-.7-1.3-1.44-2.05-2.03l-.53-.45-.06-.07c.1.07-.03 0 0 0l-.16-.12-.32-.22-.62-.43-.54-.3a12.44 12.44 0 0 0-4.85-1.52A12.8 12.8 0 0 0 36.2 568l-.3.4-.2.37-.2.36-.19.39a4.8 4.8 0 0 0-.32.8c-.09.27-.18.52-.22.8a9.19 9.19 0 0 0 2.27 8.41c.25.32.53.48.66.64l.23.2.04.03c.16.16.19.4.05.59a.46.46 0 0 1-.61.09l-.28-.2c-.16-.14-.45-.32-.77-.64a10.17 10.17 0 0 1-3.26-5.92 10.9 10.9 0 0 1 .53-5.49c.07-.15.13-.31.18-.5.1-.16.16-.34.25-.5.1-.16.18-.34.25-.5l.27-.43c.82-1.23 1.8-2.43 3.12-3.46a15.16 15.16 0 0 1 16.36-1.7l.78.4.63.41.32.2.16.1c.05.04 0-.02.14.09l.09.07.66.52c.91.66 1.68 1.46 2.53 2.28a22.81 22.81 0 0 1 3.91 5.94c1 2.25 1.64 4.75 1.82 7.35.1 1.55.02 3.12-.2 4.69.72-.5 1.54-1 2.52-1.5a21.15 21.15 0 0 1 4.96-1.69c1.9-.4 4-.66 6.26-.48a17.94 17.94 0 0 1 7.76 2.3c.3.14.55.37.82.53l.8.57c.27.18.5.43.75.63l.73.69.09.09.04.04.02.02.1.1.13.16.3.34c.36.38.82 1.07 1.23 1.64.7 1.18 1.27 2.45 1.63 3.8.32 1.34.48 2.75.44 4.14a14.01 14.01 0 0 1-2.8 7.67l-.64.8c-.23.25-.48.47-.7.73l-.19.18-.09.09-.04.04-.03.03-.09.06-.34.28-.34.27-.48.32c-1.25.82-2.5 1.27-3.84 1.52a9.82 9.82 0 0 1-7.3-1.63c-.26-.16-.49-.37-.71-.55a5.28 5.28 0 0 1-.64-.6l-.3-.31-.06-.07-.07-.1-.03-.04-.1-.16-.24-.3-.27-.4a6.74 6.74 0 0 1-1.02-3.23c-.1-1.16.16-2.26.56-3.19a5.3 5.3 0 1 1 5.1 6.76c-.16 0-.3 0-.45-.02 1.45.8 3.27 1.09 4.98.7.89-.18 1.8-.61 2.48-1.11l.25-.18.32-.3.3-.25c-.03.02-.05.02 0 0l.02-.02.02-.05.07-.07.14-.13.52-.57.45-.62c.57-.84 1.07-1.73 1.4-2.7.31-.98.52-1.99.54-3.03.02-1.03-.1-2.05-.32-3.05-.27-.98-.66-1.94-1.18-2.8a12.03 12.03 0 0 0-4.35-4.08 15.05 15.05 0 0 0-5.57-1.68c-1.9-.23-3.74-.1-5.4.2-.84.12-1.61.34-2.36.53-.4.09-.73.23-1.07.34-.35.13-.71.2-1.03.34-.32.14-.64.25-.93.39-.3.11-.6.23-.87.36l-.77.37c-.25.1-.5.22-.7.34l-.98.54c-.03.1-.05.19-.1.28-.43 1.32-.93 2.6-1.68 3.93l-.25.5-.25.41-.52.82-.28.41-.06.1c0 .02-.16.25-.14.18l-.16.2-.66.82a30.49 30.49 0 0 1-14.27 9.97 29.4 29.4 0 0 1-9.17 1.57c-1.6.07-3.18-.11-4.78-.25-.8-.14-1.59-.3-2.39-.43-.4-.07-.8-.18-1.18-.3l-1.18-.34c-.39-.11-.8-.2-1.19-.36l-1.13-.46c-.78-.32-1.53-.57-2.3-1-.75-.41-1.57-.8-2.28-1.23-.64-.4-1.27-.84-1.91-1.27l-.25-.16-.11-.07c-.25-.18-.14-.12-.23-.16l-.48-.37-.98-.75c-.64-.5-1.25-1.04-1.89-1.59-.61-.57-1.23-1.12-1.82-1.7-.57-.6-1.18-1.19-1.73-1.83a42.63 42.63 0 0 1-9.8-17.89 36.41 36.41 0 0 1-1.21-10.56 44.98 44.98 0 0 1 5.53-20.62 49.36 49.36 0 0 1 6.26-8.85 58.2 58.2 0 0 1 4.41-4.46 21.97 21.97 0 0 1-7.26-1.62 20.7 20.7 0 0 1-5.32-3.1 17.55 17.55 0 0 1-4.53-5.37 14.9 14.9 0 0 1-1.73-7.53c.09-1.34.39-2.69.84-3.98.5-1.28 1.18-2.49 2-3.58.85-1.09 1.87-2.05 2.98-2.84 1.12-.8 2.4-1.37 3.67-1.8l.98-.27c.32-.07.66-.14 1-.19l.25-.04.11-.02H9.23l.12-.03.43-.02.43-.02h.57a9.95 9.95 0 0 1 9.1 6.56c.12.27.19.56.28.86.09.3.13.57.18.86l.07.44.02.1.02.12V510.1l.03.36-.03.5a7.26 7.26 0 0 1-3.16 5.55c-.41.28-.87.5-1.3.67a5.3 5.3 0 1 1 1.34-8.22 7.2 7.2 0 0 0-3.85-4.17 6.83 6.83 0 0 0-2.65-.56l-.32-.03-.43.05-.4.02H9.63l-.1.03-.17.04-.75.14-.73.22c-1.96.64-3.71 1.87-5.03 3.49-.64.82-1.18 1.73-1.57 2.68-.37.98-.6 2-.73 3.03-.18 2.05.27 4.17 1.14 5.99a15.9 15.9 0 0 0 3.55 4.78c.36.32.7.66 1.1.93.38.3.74.57 1.13.84.77.5 1.52 1 2.32 1.37.75.4 1.55.73 2.28 1.05.75.29 1.45.52 2.13.72.35.1.69.16 1 .25.32.1.64.16.96.2.43.08.84.17 1.23.21 3.5-3 7.37-5.62 11.45-7.78a68 68 0 0 1 20.45-7.06 67.05 67.05 0 0 1 21.65-.32 57.15 57.15 0 0 1 20.3 7.1 54.81 54.81 0 0 1 15.86 14c2.13 2.76 4 5.72 5.6 8.74l.6 1.14.58 1.16c.36.78.77 1.57 1.07 2.32l.95 2.28c.3.8.6 1.6.87 2.39a93.76 93.76 0 0 1 5 19l.34 2.4c.1.8.26 1.56.3 2.36l.2 2.76c.19-4.08.23-8.56.05-13.41-.25-5.53-.8-11.52-2-17.7a99.3 99.3 0 0 0-2.3-9.43 91.55 91.55 0 0 0-3.48-9.47 72.37 72.37 0 0 0-4.9-9.15c-.97-1.5-1.93-3.07-2.95-4.55-1-1.5-2-3-3.05-4.49a145.63 145.63 0 0 0-13.86-17.06 90.1 90.1 0 0 0-16.64-14.07c-6-3.87-12.53-6.76-19.18-7.94-6.6-1.19-13.31-.57-18.84 2.02a21.96 21.96 0 0 0-7.06 5.17 14.02 14.02 0 0 0-3.55 7.12 9.85 9.85 0 0 0 1.5 6.99 11.83 11.83 0 0 0 5.01 4.35 8.41 8.41 0 0 0 9.85-2.57l.17-.21.15-.25a7.1 7.1 0 0 0 .7-1.43 5.63 5.63 0 0 0 .17-3.15 4.28 4.28 0 1 1-1.12-3.07 6.58 6.58 0 0 1 1.75 6.46c-.1.37-.22.76-.43 1.14-.09.2-.18.37-.3.55l-.15.25-.2.27a9.76 9.76 0 0 1-12.1 3.1c-.33-.14-.58-.3-.83-.43l-.41-.25-.39-.28c-.25-.18-.52-.36-.75-.57-1-.8-1.93-1.75-2.73-2.89a11.71 11.71 0 0 1-2.1-8.3 16.52 16.52 0 0 1 3.78-8.47 24.23 24.23 0 0 1 7.74-6.06c3.03-1.5 6.4-2.5 9.88-2.93 3.5-.46 7.12-.32 10.7.25 3.59.59 7.14 1.6 10.58 3a65.46 65.46 0 0 1 9.94 5.17 94.45 94.45 0 0 1 17.4 14.47 147.2 147.2 0 0 1 14.18 17.5c2.14 3.04 4.15 6.18 6.04 9.2a76.71 76.71 0 0 1 5.02 9.68 92 92 0 0 1 3.53 9.9 102 102 0 0 1 2.28 9.76 124.44 124.44 0 0 1 1.84 18.21 137.4 137.4 0 0 1-.43 15.41l-.2 2.3c1-4.14 1.84-8.5 2.45-13.04.16-1.28.37-2.58.48-3.9l.34-3.98c.11-2.68.27-5.42.16-8.2l-.02-2.09c-.03-.7-.1-1.38-.14-2.09l-.14-2.12c-.04-.7-.09-1.4-.2-2.11l-.55-4.28-.82-4.3a83.8 83.8 0 0 0-5.69-17.1l-2.04-4.16-2.37-4.05-.6-1.03-.65-.98-1.34-1.95-1.35-1.99c-.48-.63-1-1.25-1.48-1.88l-1.5-1.9c-.5-.63-.98-1.27-1.55-1.84l-3.3-3.6c-2.27-2.38-4.66-4.77-7-7.19-4.74-4.82-9.52-9.71-14.27-14.72-4.76-5-9.51-10.09-14.18-15.32a227.52 227.52 0 0 1-13.43-16.34c-.54-.7-1.04-1.44-1.54-2.16l-1.53-2.19c-.98-1.5-1.95-2.98-2.86-4.53a70.62 70.62 0 0 1-4.9-9.6 51.45 51.45 0 0 1-3.12-10.43 43.47 43.47 0 0 1-.59-10.86c.28-3.61 1-7.14 2-10.53a45.18 45.18 0 0 1 4.03-9.83c.41-.8.94-1.53 1.41-2.28.53-.73 1.03-1.46 1.6-2.14.95-1.2 2-2.34 3.12-3.4 1-1.54 2.16-3.31 3.4-5.25a114.4 114.4 0 0 0 5.24-8.94 83 83 0 0 0 4.9-11.16 60.47 60.47 0 0 0 1.86-6.35c.48-2.2.93-4.46 1.12-6.78.2-2.32.3-4.69.06-7.06l-.06-.88-.14-.9c-.1-.58-.16-1.18-.27-1.77l-.39-1.75c-.11-.6-.34-1.16-.48-1.73a15.4 15.4 0 0 0-.57-1.73l-.63-1.62-.87-1.7c-.14-.3-.3-.53-.45-.78l-.48-.7a19.78 19.78 0 0 0-5.05-4.96c-2-1.32-4.26-2.28-6.6-2.87-1.16-.32-2.37-.46-3.55-.62l-1.8-.06c-.6-.03-1.2.04-1.8.06-2.39.19-4.73.66-6.94 1.53-.57.18-1.07.48-1.62.7l-.38.19-.2.09-.1.04-.04.03-.8.47c-.25.16-.55.32-.77.48l-.66.48c-.46.3-.85.7-1.25 1.07a15.52 15.52 0 0 0-3.32 17.48c.77 1.8 1.93 3.28 3.36 4.32a10.37 10.37 0 0 0 4.64 2c1.62.28 3.19.17 4.6-.2.36-.09.68-.23 1.02-.34.34-.11.64-.3.96-.43l.2-.1.23-.13.46-.27c.22-.2.5-.34.7-.55.53-.45.96-.95 1.3-1.48a6.31 6.31 0 0 1-10.17-5 6.31 6.31 0 1 1 12.65 0l-.02.56.02.5a8.66 8.66 0 0 1-2.82 6.46c-.25.26-.6.49-.91.74-.14.09-.3.18-.46.3l-.22.13c-.14.09-.19.09-.3.16-.34.16-.7.36-1.07.5-.39.14-.75.3-1.16.4a12.29 12.29 0 0 1-10.72-1.83 12.33 12.33 0 0 1-4.05-4.94 17.45 17.45 0 0 1-1.7-6.56 17.49 17.49 0 0 1 5.16-13.4c.48-.44.91-.92 1.48-1.3l.8-.62c.27-.2.52-.34.77-.5l.77-.48.91-.45c.6-.27 1.16-.6 1.75-.82 2.42-1 5.01-1.57 7.65-1.82.66-.02 1.32-.12 2-.1l2 .08a26.43 26.43 0 0 1 6.5 1.34 126.38 126.38 0 0 1-11.77-13.45 131.1 131.1 0 0 1-9.9-15.07c-.41-.73-.8-1.46-1.2-2.2l-1.17-2.28c-.8-1.53-1.52-3.14-2.27-4.76-.76-1.64-1.44-3.32-2.14-5.03l-.98-2.64-.48-1.32c-.14-.46-.3-.91-.43-1.37-.3-.9-.57-1.82-.87-2.75-.27-.93-.5-1.89-.77-2.82-.55-1.9-.89-3.87-1.32-5.83a77.54 77.54 0 0 1-1.34-12.31c-.14-2.12.02-4.24.09-6.4.07-1.07.2-2.14.3-3.23l.22-1.28c.05-.54.18-1.07.25-1.61l.55-3.23c.23-1.07.52-2.14.77-3.21l.39-1.62c.13-.55.34-1.05.5-1.57l1.05-3.16c.38-1.05.84-2.07 1.25-3.1l.63-1.55.16-.38.05-.1.07-.15.09-.19.36-.72 1.44-2.92.36-.73.43-.72.84-1.48c1.1-2.03 2.4-3.85 3.65-5.74.63-.93 1.38-1.8 2.07-2.7.34-.46.68-.9 1.04-1.35l1.14-1.28a46.36 46.36 0 0 1 22.8-14.45c3.6-.95 7.28-1.41 10.93-1.36.13-.23.27-.48.43-.73a111.2 111.2 0 0 0 3.2-5.97c.3-1.13.55-2.32.67-3.64.16-2.1.02-4.39-.5-6.69a21.25 21.25 0 0 0-2.96-6.78c-.39-.53-.75-1.05-1.16-1.57-.44-.48-.84-.96-1.28-1.41l-.77-.7c-.14-.12-.27-.26-.39-.35l-.36-.27c-.25-.19-.48-.39-.75-.55l-.84-.5a13.72 13.72 0 0 0-7.6-1.73c-1.33.1-2.62.34-3.87.77a14.09 14.09 0 0 0-3.46 1.87c-.28.16-.5.41-.75.61l-.37.32-.09.07-.04.05-.03.02-.16.16-.36.39-.18.18-.14.18c-.18.23-.36.43-.52.7a9.17 9.17 0 0 0-1.4 3.35 9.6 9.6 0 0 0 1.63 7.47c.18.22.34.43.52.63l.09.14.16.16.32.32c.2.16.36.32.57.45.84.6 1.8.98 2.75 1.14a6.81 6.81 0 0 0 5.12-1.25c.1-.1.2-.16.3-.23a4.27 4.27 0 1 1 2.25-3.78v.05l.04.41a5.67 5.67 0 0 1-.97 3.34c-.14.21-.28.37-.41.53-.19.2-.35.32-.5.5a7.87 7.87 0 0 1-5.99 2 8.5 8.5 0 0 1-3.57-1.18c-.3-.16-.57-.41-.84-.62l-.35-.3-.15-.15-.07-.07-.05-.05-.09-.09-.68-.75-.62-.82a11.39 11.39 0 0 1-.18-12.58c.18-.34.48-.69.7-1l.19-.25.18-.2.36-.4.19-.2.07-.07.02-.02.04-.05.12-.09.43-.39c.3-.25.57-.52.89-.75a16.07 16.07 0 0 1 17.8-1.07l.97.62c.32.2.64.48.96.73l.47.38c.16.14.25.25.4.37l.74.73.07.06.02.03.1.04.09.12.18.2.36.43.7.85c.44.59.83 1.2 1.24 1.8a21.58 21.58 0 0 1 2.93 7.69c.37 2 .41 3.93.25 5.76 1.53-3.4 3.19-7.38 4.74-11.9.8-2.33 1.57-4.81 2.27-7.43-.02-.39-.02-.8-.09-1.18l-.14-1.19-.2-1.16c-.07-.38-.18-.77-.27-1.16-.1-.38-.19-.77-.32-1.13-.14-.37-.23-.76-.37-1.12l-.4-1.12c-.33-.72-.62-1.45-.99-2.13-.34-.71-.75-1.4-1.13-2.08a41.46 41.46 0 0 0-5.76-7.47 51.68 51.68 0 0 0-3.41-3.27c-.6-.52-1.21-1.02-1.82-1.53-.62-.47-1.26-.97-1.85-1.38l-.07-.05c-.11-.09-.22-.18-.3-.32a1.27 1.27 0 0 1 .33-1.75l.88-.61.91-.62 1-.5.5-.25c.17-.07.37-.14.55-.18l1.1-.34 1.16-.19c.38-.06.8-.04 1.18-.02l.59.02.6.12c.38.09.79.14 1.13.32.36.16.75.25 1.1.45.33.2.67.37 1 .6.29.22.63.43.9.7.16.16.34.32.5.45 0-.04 0-.06-.02-.1l-.14-1.2-.27-1.15c-.07-.39-.23-.78-.34-1.16-.11-.4-.25-.78-.4-1.16-.17-.4-.3-.76-.49-1.14l-.54-1.12c-.19-.36-.41-.73-.62-1.1-.2-.36-.43-.7-.66-1.06-.2-.36-.45-.7-.68-1.05-.46-.7-.96-1.36-1.48-2.02-.25-.34-.52-.66-.8-.98-.27-.32-.54-.64-.81-.91l-.07-.1a.97.97 0 0 1 .3-1.55c.45-.2.9-.42 1.4-.6.48-.19.98-.32 1.48-.46a9.06 9.06 0 0 1 6.08.73 9.43 9.43 0 0 1 2.46 1.77c.7.69 1.3 1.44 1.84 2.23l-.16-.88c-.46-2.05-.86-4.17-1.5-6.22-.53-2.1-1.34-4.12-2.07-6.19-.41-1.02-.87-2.02-1.32-3.05l-.66-1.52-.78-1.48c-.52-.98-1.02-2-1.57-2.98l-1.77-2.9-.46-.72-.22-.37-.2-.3-1.03-1.43-1.03-1.43c-.34-.48-.68-.98-1.04-1.39l-2.19-2.6c-.34-.45-.75-.84-1.16-1.25l-1.2-1.23c-.41-.4-.8-.84-1.21-1.22l-1.3-1.14c-.89-.75-1.7-1.57-2.66-2.23a44.33 44.33 0 0 0-25.72-9.5 45.58 45.58 0 0 0-26.32 7.29 43.13 43.13 0 0 0-10.06 8.97 36.9 36.9 0 0 0-6.3 11.38c-.3 1.02-.71 2.02-.87 3.07-.2 1.05-.5 2.05-.57 3.1-.1 1.04-.3 2.07-.27 3.11 0 .53-.03 1.05-.03 1.55V89.84l.07.75.14 1.64c.07.47.18.93.25 1.38.11.92.48 1.87.7 2.83a23.15 23.15 0 0 0 10.58 12.81c.78.5 1.62.82 2.42 1.2.39.21.82.33 1.25.49.41.13.84.3 1.25.43.87.18 1.69.43 2.55.57.43.04.87.11 1.28.16.43.07.84.11 1.27.11.43.02.84.02 1.27.05l.32.02h.23l.66-.05.66-.04c.23-.02.46-.02.61-.07l1.1-.18c1.52-.34 3-.87 4.32-1.6a16.37 16.37 0 0 0 7.76-9.53c.34-1.23.6-2.46.64-3.67l.04-.89v-.22c0-.03 0 .07 0 0v-.18l-.02-.48c0-.66-.14-1.12-.18-1.64a11.63 11.63 0 0 0-1.6-3.87 8.6 8.6 0 1 1-3.57-5.08 13.2 13.2 0 0 1 7.26 8.42c.14.64.32 1.37.37 1.94l.06.45.03.12v.43l.02 1.03c.02 1.38-.18 2.82-.5 4.27a18.54 18.54 0 0 1-1.66 4.35 18.94 18.94 0 0 1-12.2 9.63c-.5.11-1 .2-1.5.32-.27.07-.48.09-.7.11l-.67.07-.66.07-.18.02h-2.12c-.5.02-.97-.02-1.47-.09l-1.5-.16c-1-.14-2-.39-3.01-.57l-1.48-.45c-.5-.16-1-.3-1.48-.5-.95-.41-1.98-.78-2.89-1.32-.48-.25-.93-.53-1.4-.78l-1.35-.9c-.94-.58-1.73-1.33-2.62-2.03-.43-.37-.8-.78-1.2-1.16-.4-.41-.82-.78-1.17-1.23-.7-.87-1.45-1.73-2.07-2.71-1.32-1.87-2.32-4-3.14-6.2-.32-1.13-.75-2.2-.95-3.48-.12-.61-.25-1.23-.34-1.82-.05-.54-.12-1.09-.16-1.64l-.07-.81c-.05-.26-.02-.12-.02-.21Zm200.8 255.7a68.58 68.58 0 0 1 5.88-3.47c2.02-1.04 4.12-2 6.32-2.73 2.19-.72 4.49-1.3 6.9-1.4 2.39-.12 4.91.26 7.17 1.47a11.8 11.8 0 0 1 2.52 1.8c-.09-.52-.18-1.05-.31-1.55a11.37 11.37 0 0 0-1.75-3.55 8.54 8.54 0 0 0-.87-.96c-.3-.31-.64-.56-1-.84l-.55-.36-.57-.32a11.38 11.38 0 0 0-2.48-.96c-.43-.13-.89-.2-1.34-.3-.46-.08-.91-.13-1.37-.2l-1.4-.09h-1.44a1.62 1.62 0 0 1-.6-3.12c.65-.25 1.37-.56 2.06-.9.68-.35 1.36-.69 2-1.08a23.65 23.65 0 0 0 3.69-2.57 14.95 14.95 0 0 0 2.86-3.16c.37-.6.69-1.19.89-1.8.2-.62.36-1.25.39-1.89.04-.32 0-.64 0-.96-.05-.31-.05-.63-.16-.95-.1-.57-.43-1.44-.64-1.98-.27-.62-.6-1.2-.96-1.66a3.24 3.24 0 0 0-1.18-.96c-.4-.18-.86-.2-1.39-.11-.52.11-1.09.34-1.61.66a7.54 7.54 0 0 0-2.05 1.96 1.96 1.96 0 0 0-.32.7 1.7 1.7 0 0 1-2.05 1.16 1.68 1.68 0 0 1-1.2-2.05l.02-.04c0-.05.02-.1.04-.14.41-1.41.91-2.8 1.19-4.21.36-1.41.59-2.84.84-4.28l.23-2.16c.09-.73.06-1.44.11-2.16.05-.73 0-1.44-.02-2.17-.03-.36-.03-.72-.05-1.06l-.11-1.07-.12-1.07-.2-1.05-.2-1.05-.3-1.02-.3-1.03-.36-1-.36-1-.46-.98c-.16-.32-.3-.66-.45-.95l-.53-.94c-.32-.64-.75-1.2-1.14-1.8a23.55 23.55 0 0 0-2.75-3.27c-.5-.5-1.05-.96-1.57-1.46a48.1 48.1 0 0 0-1.7-1.32c-.62-.39-1.19-.82-1.8-1.18-.64-.35-1.23-.75-1.9-1.05-.65-.32-1.29-.64-1.97-.89l-1-.4c-.34-.15-.69-.24-1.03-.35l-1.04-.34-.53-.14a26.21 26.21 0 0 1 9.58 8.2 32.87 32.87 0 0 1 4.19 8.33c.4 1.48.91 2.93 1.16 4.48.14.75.32 1.55.41 2.28.1.7.16 1.43.25 2.14l.07.52.02.27v.07l.02.16v.14l.05 1.11c.02.73.09 1.48.09 2.21-.05 1.48-.02 2.94-.16 4.4a57.62 57.62 0 0 1-1.25 8.5c-.6 2.76-1.46 5.4-2.34 7.95a72.13 72.13 0 0 1-3.21 7.21 81.9 81.9 0 0 1-12.79 18.07l.4-.31a66.5 66.5 0 0 1 5.54-3.99Zm191.68 290.6a57.13 57.13 0 0 0 6.63 3.99 60.83 60.83 0 0 0 7.05 3.14 84.19 84.19 0 0 0 14.95 4c5.1.94 10.24 1.48 15.43 1.75 5.19.28 10.38.3 15.56.07 2.6-.11 5.2-.27 7.79-.48 1.3-.09 2.6-.22 3.89-.34l1.98-.18a19.9 19.9 0 0 1 2.02-.11c2.71-.1 5.44.09 8.13.7 2.68.6 5.32 1.69 7.62 3.3 2.3 1.64 4.19 3.8 5.5 6.26a21.8 21.8 0 0 1 2.13 5.88l.13.8a9.45 9.45 0 0 0 4-2.3 12.35 12.35 0 0 0 3.1-5.15c.64-1.96.91-4.05.89-6.15-.05-2.09-.39-4.18-1.02-6.21a21.1 21.1 0 0 0-2.76-5.67 19.41 19.41 0 0 0-4.4-4.55 20.03 20.03 0 0 0-5.68-2.89c-1.02-.32-2.07-.6-3.14-.77l-.25-.05a58.27 58.27 0 0 1-3.3 2.55c-9.15 6.42-19.89 10.2-30.68 11.65a75.56 75.56 0 0 1-24.07-.54c-1.3-.23-2.62-.57-3.92-.85-1.27-.31-2.45-.68-3.68-1l-.23-.07a.69.69 0 0 1-.16-.04l-.11-.05-.46-.16-.9-.3-1.8-.6c-1.21-.42-2.42-.83-3.6-1.21-2.35-.89-4.67-1.82-6.94-2.71-2.28-.96-4.46-1.98-6.67-2.96-1.1-.48-2.16-1-3.23-1.52l-3.16-1.55a72.45 72.45 0 0 1-3.99-2.03 47.84 47.84 0 0 0 7.35 6.35Zm-24.62-19.98a340.8 340.8 0 0 0 22.94 12.15l3.14 1.48a68 68 0 0 0 3.2 1.46c2.17.9 4.36 1.89 6.59 2.8 2.25.86 4.5 1.75 6.8 2.62l3.5 1.16c.6.2 1.19.38 1.76.59l.88.3.44.13.11.05.07.02.22.07c1.21.32 2.46.7 3.67.98 1.2.25 2.37.54 3.6.75a73.28 73.28 0 0 0 22.75.52 69.6 69.6 0 0 0 15.11-3.62c4.9-1.77 9.6-4.14 13.9-7.08a46.91 46.91 0 0 0 11.13-10.7l1.07-1.59.53-.8.47-.84.94-1.66c.27-.57.52-1.16.8-1.73.56-1.14.93-2.37 1.36-3.55.2-.59.34-1.23.5-1.82.14-.61.36-1.2.43-1.84.2-1.25.48-2.48.53-3.76l.15-1.89v-1.11c-9.17 1.7-18.2 3.77-27 5.9-5.9 1.43-11.68 2.86-17.35 4.25l-8.42 2.07c-2.8.66-5.6 1.23-8.35 1.84l-4.1.9c-1.36.26-2.73.45-4.1.7-2.7.43-5.36.9-7.98 1.3-2.64.29-5.25.56-7.8.86l-1.92.2c-.63.07-1.27.07-1.88.12l-3.76.2c-1.23.07-2.46.14-3.66.18-1.2.07-2.42 0-3.6 0l-3.53-.04c-1.16-.02-2.3 0-3.43-.12l-6.6-.5c-2.14-.3-4.19-.61-6.2-.9a85.47 85.47 0 0 1-11.03-2.65c-.25-.06-.5-.16-.75-.22 1.57.88 3.19 1.84 4.87 2.82Zm-205.1-87.65a73.75 73.75 0 0 1 31.31-20.08c.82-.25 1.64-.52 2.48-.77.84-.25 1.69-.43 2.53-.66.84-.2 1.68-.48 2.55-.64l2.6-.52 1.29-.25 1.34-.19c.86-.1 1.75-.25 2.64-.34 1.82-.09 3.64-.3 5.46-.22.91.02 1.82-.03 2.73.04l2.73.18c.91.07 1.82.23 2.73.32l1.37.18c.45.07.91.16 1.34.25l1.16.23c.82.07 1.66.14 2.48.23l3.4.36 1.7.19 1.68.25 3.4.52c1.13.16 2.25.41 3.36.64l3.37.7 3.32.89 1.67.46 1.63.54c1.1.39 2.21.69 3.28 1.16l1.62.66c.54.23 1.06.43 1.59.7l1.57.8.8.4.75.45 1.52.9c.5.33.98.71 1.46 1.05.25.19.5.35.73.55l.68.6.68.6c.23.21.43.46.64.69l.54.6c.14-.3.28-.6.37-.9.09-.27.23-.57.32-.84l.25-.86c.09-.28.13-.57.2-.87.05-.3.14-.57.16-.86l.1-.87.01-.88c.03-.3 0-.6-.02-.87-.02-.3-.02-.6-.07-.87-.04-.3-.06-.56-.13-.86l-.19-.87c-.15-.56-.31-1.13-.54-1.68-.1-.27-.2-.55-.34-.82a21.5 21.5 0 0 0-1.27-2.37l-.5-.75-.55-.73a25.7 25.7 0 0 0-5.3-5.14c-.48-.36-1.03-.75-1.46-1a1.97 1.97 0 0 1-.87-2.2 1.96 1.96 0 0 1 2.44-1.35c1.77.5 3.6.84 5.41.98 1.82.13 3.62.04 5.21-.37a6.54 6.54 0 0 0 3.8-2.34c.44-.57.76-1.25.98-2l.16-.57.12-.6c.04-.2.04-.38.07-.56l.02-.3.02-.36V487.72l-.02-.6c0-.2-.05-.38-.07-.56a4.43 4.43 0 0 0-1.05-2.39 7.89 7.89 0 0 0-3.98-2.28c-1.66-.43-3.5-.62-5.35-.66a34.02 34.02 0 0 0-5.53.36 2 2 0 0 1-1.5-3.6l.07-.04c.43-.32.89-.59 1.27-.9.41-.35.8-.67 1.16-1.03.4-.34.69-.75 1-1.14.28-.41.6-.8.8-1.25.25-.44.44-.9.62-1.35l.22-.7.19-.73c.06-.23.09-.5.13-.75.05-.25.07-.5.1-.75.04-.5.04-1.03.02-1.55l-.07-.77-.12-.8a19.01 19.01 0 0 0-.77-3.14 26.16 26.16 0 0 0-1.91-4.32c-.07.15-.11.31-.18.47-.19.46-.34.94-.57 1.37-.2.43-.41.89-.64 1.32l-.7 1.27c-.5.82-1.03 1.64-1.6 2.42-.54.8-1.18 1.5-1.77 2.25-.64.7-1.28 1.41-1.96 2.07-.66.68-1.36 1.32-2.05 1.96-.7.61-1.4 1.23-2.14 1.82a57.26 57.26 0 0 1-4.52 3.3l-.07.04-.34.28-2.33 1.86-2.4 1.71c-.42.27-.8.57-1.24.84l-1.25.78-2.52 1.57-2.6 1.43c-.86.46-1.73.98-2.62 1.39-7.05 3.5-14.35 6.3-21.7 8.72-1.83.57-3.65 1.11-5.44 1.68l-1.37.41-1.36.41-2.62.82a72.43 72.43 0 0 0-9.92 4.21c-1.6.77-3.08 1.7-4.6 2.57l-2.18 1.44c-.37.22-.73.47-1.07.7l-1.03.75a73.35 73.35 0 0 0-7.67 6.42 83.4 83.4 0 0 0-11.72 14.16 111.3 111.3 0 0 0-6 10.26c2.27-3.5 5.03-7.19 8.44-10.85Zm-76.5 141.77c1.38.53 2.84.82 4.3.96.72.04 1.45.11 2.18.07l1.09-.02 1.1-.14 1.06-.16 1.07-.25 1.07-.25 1.05-.37c.7-.22 1.39-.45 2.05-.77.66-.32 1.34-.57 2-.91 1.27-.73 2.57-1.39 3.89-2.23l3.98-2.35c1.34-.77 2.69-1.52 4.05-2.25 1.37-.73 2.73-1.46 4.14-2.14a89.32 89.32 0 0 1 4.26-1.96 56.78 56.78 0 0 1 4.41-1.68c1.5-.5 3.05-.93 4.67-1.25 1.6-.32 3.25-.48 4.98-.39a11 11 0 0 1 5.15 1.46 9.65 9.65 0 0 1 3.66 4.05c0 .02.02.02.02.05.3-1.14.55-2.28.69-3.44.34-2.69.18-5.44-.87-7.83a10.94 10.94 0 0 0-2.1-3.23l-.74-.78-.73-.66c-.23-.22-.53-.43-.78-.63l-.81-.6a16.02 16.02 0 0 0-3.65-1.82 19.5 19.5 0 0 0-3.98-.95 25.26 25.26 0 0 0-8.33.4c-2.77.57-5.46 1.5-8.08 2.67-1.89.84-3.7 1.82-5.5 2.89a78.55 78.55 0 0 1-2.85 3.16c-1.23 1.32-2.39 2.64-3.6 3.87-1.22 1.2-2.4 2.4-3.54 3.5-.57.58-1.14 1.15-1.71 1.67-.6.52-1.16 1.02-1.73 1.55-1.14 1-2.18 2-3.28 2.89-2.18 1.75-4.18 3.39-6.12 4.69-1.39 1.02-2.73 1.84-3.96 2.6.48.17.98.4 1.48.58ZM86.8 99.37a9.31 9.31 0 0 0-2.25-1.34 7.71 7.71 0 0 0-2.48-.55 6 6 0 0 0-1.28.07c-.2.05-.4.07-.64.12l-.6.16c-.4.13-.78.25-1.17.4.3.32.6.62.86.94a29 29 0 0 1 2.46 3.16c.25.37.5.73.73 1.14.23.39.48.77.68 1.16l.64 1.2c.2.42.39.83.57 1.26.2.4.34.84.5 1.27.14.44.32.87.43 1.32l.34 1.37.19 1.41c.09.46.06.93.06 1.41 0 .48.03.96-.04 1.44l-.18 1.43c-.05.39-.3.75-.66.98-.64.34-1.41.11-1.78-.5l-.07-.12c-.11-.18-.27-.47-.45-.7-.18-.23-.34-.48-.55-.7-.18-.23-.39-.44-.59-.67-.18-.22-.43-.38-.64-.59-.2-.2-.45-.34-.68-.52-.23-.19-.48-.28-.7-.41-.23-.16-.5-.2-.76-.32-.25-.11-.52-.14-.77-.2l-.39-.1-.4-.02c-.28 0-.53-.05-.8 0l-.8.11-.8.25c-.13.05-.27.07-.4.14l-.4.2-.79.4c-.02.02-.04.04-.07.04l.5.4a56.5 56.5 0 0 1 5.33 5.21 41.45 41.45 0 0 1 5.64 8.18c.37.75.73 1.5 1.05 2.28.34.75.6 1.54.86 2.34.25.8.48 1.6.64 2.41.1.41.16.82.23 1.23.04.41.14.82.16 1.23l.07.87c.7-2.82 1.32-5.78 1.82-8.88.25-1.8.54-3.62.7-5.48.1-.94.2-1.87.25-2.83.05-.95.12-1.9.16-2.89a82.27 82.27 0 0 0-.54-13.54l-.23-1.48c-.34-.57-.7-1.12-1.12-1.62a8.16 8.16 0 0 0-1.84-2.07Z" fill="#BF4E70" fill-opacity=".2"/></svg>
