<svg fill="none" xmlns="http://www.w3.org/2000/svg" viewBox="0 0 108 86"><path d="M48.06 3.09c0 .03-.11.06-.33.09-.22.03-.55.05-.97.12-.85.11-2.11.3-3.66.8-.13.04-.26.08-.4.13-.13.05-.27.1-.4.15-.14.05-.28.1-.42.16l-.42.18c-.14.06-.29.12-.43.2-.14.07-.29.14-.44.22-.3.14-.59.31-.91.46-.34.1-.62.34-.91.57-.28.25-.57.47-.94.62-.67.39-1.26.95-1.85 1.55-.58.6-1.28 1.16-1.75 1.94-.09.22-.22.41-.36.59-.14.18-.3.35-.47.52-.31.35-.63.73-.72 1.24-.41.88-.86 1.77-1.22 2.73-.55.9-.63 2.01-.77 3.08-.43 1.03-.4 2.2-.2 3.33-.32 1.15-.12 2.38.45 3.47.27 1.15.54 2.37 1.2 3.45.54 1.12 1.24 2.18 1.97 3.24.96.89 1.83 1.82 2.73 2.83 1.17.67 2.23 1.47 3.4 2.21.29.2.61.33.93.46.32.12.66.23.99.33.34.09.67.19 1.01.28.17.05.34.1.5.15.17.05.34.11.5.17.69.17 1.4.26 2.11.33.71.05 1.44.09 2.15.08.72.03 1.46.01 2.2-.09.74-.09 1.49-.26 2.21-.53 1.49-.37 2.98-.82 4.55-1.08 1.47-.64 3.05-.93 4.66-1.18 1.57-.43 3.2-.63 4.79-1.12 1.62-.31 3.23-.8 4.91-.98 1.67-.21 3.33-.39 4.96-.76 1.63-.38 3.29-.31 4.91-.5 1.64.13 3.24-.29 4.84-.24.37-.02.75-.02 1.12-.01h.15l.05.01.12.02c.01-.04.01-.08.02-.12v-.36c0-.42-.02-.83-.05-1.25-.05-1.55-.09-3.09.01-4.61-.38-1.52.1-3.02.02-4.49.16-1.48-.02-2.94.02-4.37-.07-1.44.17-2.85.02-4.24.01-.55 0-1.1-.02-1.64l-.01-.41v-.27c0-.05 0-.1.01-.17a.88.88 0 0 1-.17-.06l-.03.02c-.02 0-.08.01-.12.01-.09.01-.17.01-.25.02-.17.01-.34.01-.5 0-.34-.01-.67-.05-1-.08-.66-.06-1.32-.15-1.97-.12-1.3-.07-2.58-.15-3.82-.31-.61-.21-1.22-.29-1.83-.32-.61-.05-1.21-.05-1.81-.12-1.18-.19-2.36-.16-3.44-.55-.56-.11-1.1-.23-1.64-.36-.54-.12-1.07-.22-1.6-.27-.53-.08-1.02-.29-1.52-.46-.49-.16-.99-.29-1.52-.21-.99-.15-1.85-.73-2.82-.69-.96.02-1.77-.46-2.61-.68-.83-.23-1.63-.44-2.39-.65-1.71-.47-3.23-.88-4.56-1.22-1.33-.34-2.47-.6-3.39-.78-.93-.19-1.64-.27-2.13-.34-.49-.04-.74-.08-.74-.12 0-.04.31-.09.93-.1.61-.01 1.52.05 2.68.21 1.16.16 2.58.43 4.23.79 1.65.36 3.52.81 5.61 1.3.84.19 1.75.21 2.62.6.9.22 1.87.28 2.82.61.52-.03 1.01.07 1.51.19.5.13 1 .29 1.51.4.52.1 1.04.21 1.58.32.53.11 1.08.19 1.64.23 1.13.03 2.23.43 3.41.48.57.16 1.16.26 1.76.32.6.05 1.21.07 1.83.05 1.21.27 2.48.18 3.76.25.63.16 1.28.21 1.94.2.33 0 .66-.02.99-.03.16-.01.33-.02.5-.04l.25-.02.13-.01.22-.01c.5-.01 1.01-.02 1.52-.02v1.45c0 .18-.01.36-.01.54l-.01.41c-.01.54-.02 1.09.01 1.64-.05 1.39.06 2.81.02 4.24.12 1.44.16 2.89.02 4.37.08 1.48.02 2.98.02 4.49.1 1.52-.01 3.05.01 4.61.01.41 0 .83-.02 1.25l-.02.34-.02.57-.03 1.1c-.33 0-.65 0-.98-.01h-.72l-.15.01c-.36.02-.73.05-1.09.13-1.57.07-3.16.08-4.76.25-1.6.09-3.22.22-4.82.5-1.65-.06-3.26.36-4.87.75-1.62.37-3.24.65-4.84.96-1.6.37-3.18.74-4.74 1.1-1.55.47-3.14.67-4.66 1.17-1.52.5-3.11.64-4.62 1.08-.76.2-1.53.37-2.32.49-.78.12-1.58.18-2.39.13-.8.03-1.58-.08-2.36-.18-.77-.12-1.53-.24-2.31-.3l-.57-.1-.57-.12c-.38-.07-.75-.18-1.12-.28a7.67 7.67 0 0 1-1.07-.42c-.34-.18-.67-.37-.95-.64l-.51-.24c-.17-.09-.32-.19-.48-.28-.32-.19-.62-.41-.92-.63-.3-.21-.58-.45-.88-.66-.29-.23-.58-.43-.89-.64-.23-.29-.48-.55-.73-.81-.12-.13-.25-.25-.38-.38l-.38-.37c-.51-.49-1.01-.99-1.44-1.55-.81-1.15-1.41-2.37-2.09-3.54l-.24-.45c-.08-.15-.14-.31-.2-.46-.06-.16-.12-.31-.18-.47-.05-.16-.1-.32-.14-.48-.05-.16-.09-.32-.13-.48-.04-.16-.08-.32-.11-.48-.08-.32-.16-.63-.23-.94-.12-.3-.18-.62-.22-.94-.05-.32-.06-.63-.08-.95-.02-.31-.02-.63-.03-.94-.01-.15-.02-.31-.04-.46a3.62 3.62 0 0 0-.06-.46c.01-1.22.04-2.43.29-3.57-.09-.61.04-1.18.23-1.72.1-.27.22-.53.33-.79.12-.26.24-.51.33-.76.11-.25.2-.51.29-.77.08-.26.18-.51.27-.76.09-.25.21-.49.34-.72.07-.11.14-.23.21-.33.08-.1.17-.2.26-.3.13-.52.4-.96.7-1.36.16-.19.33-.38.49-.56.17-.18.35-.35.51-.53.16-.18.32-.35.47-.53.15-.18.29-.37.45-.54.15-.17.3-.35.47-.5.17-.15.34-.3.53-.42.12-.19.28-.34.44-.49.16-.14.33-.27.52-.38.18-.11.36-.22.53-.34.17-.11.35-.22.5-.35.36-.19.7-.38 1.01-.6.32-.2.64-.41.97-.57.31-.18.62-.36.94-.49.16-.07.31-.13.47-.19.16-.06.32-.1.47-.14.15-.05.3-.11.45-.16.15-.05.29-.09.44-.14.14-.05.29-.09.42-.13.14-.04.28-.07.41-.11 1.63-.42 2.93-.52 3.8-.53.44-.02.77.01.99.03.21.06.33.08.33.11Z" fill="#BF4E70"/><path d="M88.68 9.54c.11 0 .21 1.16.3 3.28.01.35.03.73.05 1.14.03.41.06.84.04 1.29-.14.46.26.94.04 1.45-.06.51 0 1.04.04 1.59.05.55-.09 1.13.04 1.73.27.6-.3 1.22.04 1.86.07.64.05 1.3.04 1.99-.21.68 0 1.39.03 2.11-.25.72-.14 1.46.03 2.23-.34.76-.29 1.54.03 2.34 0 .4-.03.8-.04 1.21-.01.2-.01.41 0 .61l.01.16c0 .03 0 .04.01.05l.01.03c.01.03.02.06.04.08v.04l.16.07c.18.09.35.18.53.27.35.19.7.39 1.04.61.87.22 1.63.66 2.31 1.27.9.22 1.64.75 2.38 1.32.74.57 1.73.72 2.46 1.36.82.48 1.7.89 2.52 1.4.8.57 1.61 1.15 2.59 1.44.45.22.91.43 1.35.67l.33.18.16.1c.01 0 .01.01.01.01.02.02.04.05.08.12a.256.256 0 0 0-.03-.16c-.04-.07-.04-.04-.01-.04h.02c.01 0 .01 0 .02-.01h.01c0-.01.01-.05.01-.07.02-.2.05-.39.07-.59-.04-1.04.14-2.09 0-3.14.04-1.06-.12-2.12 0-3.2.08-1.07.16-2.14 0-3.19-.17-1.06.07-2.11 0-3.14.25-1.04-.08-2.07.01-3.09-.02-1.02.14-2.03.01-3.03-.04-1-.09-1.99.01-2.96-.38-.98.1-1.94.02-2.89.16-.95-.02-1.89.02-2.81-.07-.92.17-1.83.02-2.73.03-.89-.12-1.77.02-2.64-.19-.86.16-1.71.03-2.54 0-.83-.01-1.64.03-2.44.1-.1.14-.24.14-.37a.559.559 0 0 0-.05-.29c-.13.09-.23.17-.31.22-.06.02-.12.06-.18.09l-.04.03-.08.04c-.08.05-.16.09-.24.14-.33.18-.66.33-1.03.39-.67.28-1.36.47-1.93.86-.6.33-1.4.18-1.81.81-.55.34-1.27.26-1.7.76-.44.47-1.08.47-1.58.7-.51.22-.99.43-1.46.64-4.18 1.82-6.6 2.79-6.67 2.64-.08-.16 2.77-1.67 7.72-4.14.5-.25.93-.68 1.55-.77.54-.25 1.04-.66 1.67-.82.46-.52 1.16-.6 1.78-.88.61-.3 1.29-.52 1.9-.93.29-.22.63-.36.98-.5l.26-.1.07-.03.11-.05.21-.09c.28-.13.56-.26.85-.43.37-.11.71-.24 1.07-.39-.02.84.03 1.57.13 2.46-.16.8.03 1.61.03 2.44-.25.83-.07 1.68.03 2.54.09.86-.04 1.74.02 2.64-.05.89.06 1.8.02 2.73.12.92.16 1.86.02 2.81.08.95.02 1.91.02 2.89.1.97-.01 1.96.01 2.96.05 1-.27 2.01.01 3.03.03 1.02-.04 2.05.01 3.09-.04 1.04-.07 2.09 0 3.14-.27 1.06-.11 2.12 0 3.19.08 1.07.04 2.14 0 3.2.03 1.06.01 2.11 0 3.14.02.2.02.39.02.59l-.01.5-.01.55c-.02.73-.04 1.42-.05 2.12-.4-.23-.78-.43-1.17-.62-.41-.19-.83-.43-1.25-.67l-.31-.18-.16-.1-.32-.21c-.42-.28-.85-.55-1.31-.74-.91-.42-1.79-.87-2.57-1.46-.85-.48-1.56-1.17-2.51-1.43-.85-.42-1.82-.61-2.44-1.39-.85-.37-1.51-1.06-2.36-1.35-.64-.68-1.54-.88-2.29-1.31-.34-.22-.68-.45-1.02-.66-.17-.11-.34-.21-.52-.3-.28-.15-.58-.31-.9-.46l-.02-.24c-.02-.17-.03-.35-.04-.54l-.01-.25v-.16c0-.2.01-.41.03-.61.03-.41.07-.81.05-1.21-.16-.8.21-1.58.03-2.34.04-.76-.02-1.5.03-2.23-.38-.72 0-1.43.03-2.11.05-.68-.25-1.35.04-1.99-.28-.64-.04-1.26.04-1.86.08-.6-.12-1.17.04-1.73-.2-.55.11-1.08.04-1.59.13-.51.01-.99.04-1.45-.04-.46-.03-.89.05-1.29.02-.41.03-.79.05-1.14.16-2.11.26-3.27.36-3.27ZM48.11 9.53c0 .12-.83.16-2.26.52-.12.03-.24.07-.37.11-.13.04-.26.07-.39.12-.13.05-.27.1-.41.15-.14.06-.28.11-.43.15-.17-.02-.3.11-.43.22s-.27.22-.47.2c-.17.04-.33.12-.49.21-.16.09-.3.2-.46.32-.15.11-.32.2-.5.29-.17.09-.34.21-.46.38-.09.22-.29.3-.5.37-.21.08-.41.18-.46.45-.27.35-.6.65-.91.99-.46.21-.59.73-.83 1.15-.48.27-.65.78-.71 1.31-.53.31-.7.85-.55 1.46-.15.51-.42 1.01-.36 1.59-.06.55-.06 1.11-.12 1.69.23.58.24 1.13.13 1.75.33.55.36 1.13.42 1.76.02.16.06.3.12.45.06.14.15.28.22.41.16.27.32.53.38.85.27.57.67 1.07 1.02 1.61.3.57.68 1.15 1.32 1.44.53.4 1.09.74 1.59 1.21.7.14 1.22.53 1.81.92.64.21 1.27.59 1.98.58.68.17 1.39.09 2.09.2.7.08 1.44.08 2.09-.2.32-.15.66-.21 1-.28.17-.03.34-.07.5-.12.17-.04.33-.11.48-.18.18 0 .35-.05.51-.12.08-.03.16-.07.23-.11.07-.04.15-.09.22-.14l.21-.14.21-.15c.14-.1.28-.18.43-.26.55-.38 1.19-.66 1.59-1.21.45-.48.85-.99 1.32-1.44.04-.37.24-.61.46-.85.11-.11.22-.23.33-.36.11-.12.19-.25.24-.41.43-.49.51-1.15.73-1.71.05-.3.18-.58.28-.87l.07-.22c.02-.07.04-.15.05-.22.02-.15.05-.3.02-.45.12-.59-.01-1.17.13-1.75-.05-.14-.07-.28-.07-.43-.01-.14 0-.28.02-.43.02-.14.02-.28.01-.42-.01-.14-.03-.28-.09-.41-.08-.55-.24-1.07-.36-1.59.03-.15.02-.29 0-.42-.03-.13-.08-.25-.14-.37-.06-.12-.13-.23-.21-.34-.07-.11-.14-.22-.2-.33-.2-.48-.62-.8-.71-1.31-.25-.41-.44-.88-.83-1.15-.16-.16-.24-.4-.35-.61-.11-.21-.27-.38-.56-.38-.19-.12-.29-.31-.43-.49-.14-.17-.28-.33-.53-.34-.24-.02-.39-.14-.53-.28s-.27-.3-.43-.4c-.16-.1-.32-.2-.48-.28-.16-.09-.31-.18-.47-.25-.69-.35-1.35-.6-1.93-.79-.58-.18-1.1-.29-1.51-.38-.42-.08-.74-.14-.96-.18-.2-.01-.31-.05-.31-.09 0-.08.57-.2 1.66-.14.54.04 1.21.12 1.98.32s1.63.52 2.53 1c.18.09.39.16.58.25.2.09.38.21.51.41.18.12.38.24.58.36.2.13.38.28.52.48.54.13.74.64 1.05 1.03.35.38.59.85.98 1.23.21.18.35.43.46.68.12.25.21.52.39.75.09.59.36 1.09.68 1.61.02.62.37 1.15.46 1.77-.15.65.09 1.25.2 1.9.1.65-.06 1.31-.1 1.99-.14.66-.18 1.36-.43 2.01-.09.7-.34 1.4-.79 1.97-.26.68-.71 1.27-1.15 1.86-.37.66-.96 1.14-1.5 1.67-.26.28-.6.47-.92.67-.16.11-.32.2-.47.32-.15.12-.29.25-.42.41-.64.45-1.37.74-2.09 1.08-.75.26-1.52.45-2.29.68-.84-.12-1.59.13-2.42.23-.82.08-1.63-.04-2.42-.23-.8-.13-1.57-.37-2.29-.68-.77-.22-1.38-.76-2.08-1.08-.18-.08-.35-.18-.5-.3-.15-.12-.3-.24-.44-.37-.29-.26-.55-.53-.87-.74-.61-.45-1.16-1-1.5-1.67-.22-.3-.38-.63-.54-.96-.09-.16-.16-.32-.26-.47-.05-.08-.1-.15-.16-.22-.05-.07-.12-.14-.18-.21-.19-.31-.42-.6-.59-.92-.08-.16-.15-.33-.19-.5-.04-.18-.04-.36-.01-.56-.15-.32-.2-.67-.23-1.01-.02-.17-.04-.34-.07-.51-.03-.17-.08-.33-.13-.49.05-.18.06-.35.06-.51 0-.17-.02-.33-.04-.49-.03-.16-.05-.33-.08-.49-.02-.16-.04-.33-.04-.49.06-.65.22-1.27.2-1.9-.03-.65.33-1.2.46-1.78.01-.15.05-.3.11-.44s.14-.26.22-.39c.07-.13.15-.25.22-.38s.11-.26.14-.41c.28-.49.51-1.01.86-1.43-.01-.33.15-.55.35-.73.21-.18.44-.32.63-.5.36-.35.51-.92 1.06-1.04.08-.26.26-.43.46-.55.21-.11.43-.2.63-.29.21-.09.36-.25.53-.38.17-.13.34-.26.56-.29.13-.19.32-.27.51-.31.2-.05.39-.08.55-.19.39-.04.67-.28 1-.36.15-.08.3-.13.46-.18.15-.04.31-.06.46-.06.14-.04.29-.06.42-.08.14-.02.27-.05.4-.06 1.49-.15 2.33.03 2.33.11ZM64.26 36.19c.02.1-.97.44-2.79.99-.3.09-.63.19-.98.29-.35.12-.72.24-1.12.33-.43-.03-.75.46-1.25.36-.46.05-.9.22-1.38.39-.47.17-1.01.16-1.5.41-.47.39-1.14-.04-1.63.41-.28.1-.56.17-.86.23-.3.06-.6.11-.91.15-.32-.05-.63.01-.95.08-.16.04-.31.08-.47.13-.16.04-.32.08-.49.11-.34-.08-.68-.1-1.02-.05-.17.02-.34.04-.52.08-.17.03-.35.08-.53.12a2.31 2.31 0 0 0-1.05-.27c-.08 0-.2.01-.26.05-.07.04-.1.1-.07.18h-.06c-.01 0 0 .01 0 .02 0 .03 0 .05.01.08 0 .05 0 .11.01.17 0 .03.01.06.01.1l.01.05.03.1c.05.18.1.36.18.53.18.73.39 1.46.49 2.23.38.71.54 1.49.51 2.31.4.74.48 1.55.52 2.39.04.84.55 1.59.54 2.47.16.84.41 1.67.55 2.54.08.88.15 1.77.56 2.6.24.87.51 1.74.57 2.66.44.84.52 1.77.58 2.71.23.91.25 1.87.58 2.76.16.94.5 1.84.59 2.81.04.33.08.67.14 1l.03.18v.08c.01.04.02.08.03.11.04-.01.08-.01.11-.03.02-.01.03-.02.05-.02.01 0 .01-.01.02-.01s0-.01.02-.01l.05-.01c.95-.17 1.89.07 2.82 0 .93.25 1.86-.08 2.78.01.92-.02 1.82.14 2.72.01.45-.02.89-.05 1.34-.05.22 0 .44 0 .66.01.11.01.22.01.33.02.03.01.04.02.07.03.01-.1-.03-.14-.03-.15-.01-.02.04.01.09-.03 0 .01.01-.02.01-.04l.03-.18.03-.24c.01-.16.02-.32 0-.48.16-.85-.02-1.7.02-2.52-.07-.83.17-1.65.02-2.45.03-.8-.12-1.59.02-2.37-.19-.78.16-1.54.03-2.28 0-.75-.01-1.48.03-2.19.3-.72.05-1.42.03-2.1.03-.68-.17-1.35.03-2 .02-.65.15-1.28.04-1.89-.04-.61.43-1.21.04-1.79-.07-.58.3-1.13.04-1.67-.24-.54.03-1.05.04-1.55.02-.5.03-.97.04-1.43.13-4.09.28-6.43.43-6.43.18 0 .34 2.89.48 7.86.01.5.22 1.01.04 1.55 0 .54.16 1.1.04 1.67.27.58.05 1.17.04 1.79.01.61-.07 1.25.04 1.89.16.65-.08 1.32.03 2-.17.68-.12 1.38.03 2.1-.16.72.04 1.45.03 2.19-.25.75-.07 1.51.03 2.28.09.78-.04 1.57.02 2.37-.05.8.06 1.62.02 2.45.12.83.16 1.67.02 2.52.02.16.03.32.03.48l.01.24v.26c0 .6-.01 1.2-.02 1.79-.41 0-.83-.01-1.24-.01l-.6.03c-.11.01-.22.01-.33.01-.22 0-.44 0-.66-.01-.44-.01-.89-.03-1.34-.02-.9.05-1.8-.27-2.72.01-.92.04-1.84-.04-2.78.01-.93-.03-1.88-.07-2.82 0l-.05-.01c-.02-.01-.06-.01-.09-.01l-.2-.03c-.13-.02-.26-.03-.38-.04-.25-.02-.49-.04-.74-.05-.05-.29-.11-.57-.18-.85l-.1-.42-.03-.1-.06-.18c-.1-.32-.21-.64-.32-.96-.28-.93-.43-1.87-.59-2.81-.22-.92-.4-1.85-.58-2.76-.27-.9-.27-1.84-.56-2.72-.3-.87-.25-1.81-.55-2.66-.26-.86-.49-1.72-.53-2.6-.18-.86-.11-1.76-.52-2.54-.23-.82-.7-1.58-.5-2.47-.26-.79-.16-1.65-.48-2.4.11-.84-.31-1.56-.46-2.32-.11-.77-.17-1.53-.44-2.24a3.68 3.68 0 0 1-.16-.54c-.03-.14-.05-.28-.08-.42l-.08-.47-.15-.9c-.02-.15-.05-.29-.08-.44l-.01-.05-.01-.03v-.01h.01l.33.03c.26-.01.58.01.89.05.16.02.31.04.47.07l.23.04c.08.01.14.03.24.04.09.02.18.03.27.05l.25.03c.17.01.33.01.5-.03.65.05 1.28-.05 1.92-.07.15-.11.3-.18.45-.21.15-.04.3-.05.46-.04.31.01.63.06.93.02.3-.02.58-.14.87-.23.28-.09.56-.15.87-.07.5-.4 1.09-.28 1.63-.33.54-.04.99-.36 1.51-.33.43-.31.97-.13 1.39-.3.47.02.86-.21 1.27-.28.39-.14.77-.22 1.14-.24.36-.07.69-.14 1.01-.21 1.87-.43 2.9-.57 2.93-.47Z" fill="#BF4E70"/><path d="M64.26 65.76c0 .11-.35.21-.99.3-.11.01-.22.03-.35.05-.12.03-.25.06-.39.05-.14-.14-.28.26-.44.04-.15-.06-.31 0-.48.04-.17.05-.34-.09-.52.04-.18.27-.37-.3-.56.04-.2.07-.4.05-.6.04-.21-.21-.42 0-.64.04-.22-.25-.44-.14-.68.03-.23-.34-.47-.29-.71.03-.24.01-.49-.12-.74.03-.25.02-.51.09-.77.03-.26.23-.53.22-.8.02-.27.25-.55.15-.83.02-.28-.14-.56.22-.85.02-.29-.02-.58.06-.88.02a2.5 2.5 0 0 0-.45-.12c-.07-.01-.15 0-.23.02l-.03.01c-.01 0-.01.01-.01.01 0 .01-.01.01-.01.02-.01.02-.01.04-.01.07-.02.03-.02.07-.03.08-.01.01-.02 0-.12-.07.03.03.05.06.08.08.1.09.11.08.09.07a.32.32 0 0 0-.15-.02c.01.01.01.02 0 .04s-.02 0-.01.11c.01.16.03.32.14.46.01.16.07.31.13.47l.01.03c0 .01 0 0 .01.01h.01l.01.01c0 .01-.01.02-.03.05-.02.03-.04.08-.05.12.02.03.1.03.15-.07.01-.02.02-.03.02-.04 0-.01 0-.01.01-.01s.04 0 .05-.01c.08 0 .16.01.24.03.16.03.32.07.48.04.31.25.63-.08.94.01.31-.02.61.14.92.01.3-.04.6-.09.9.01.3-.38.59.1.88.02.29.16.57-.02.85.02.28-.07.56.17.83.02.27.03.54-.12.8.02.26-.19.52.16.77.03.25 0 .5-.01.74.03.24.3.48.05.71.03.23.03.46-.17.67.03.22.02.43.15.64.03.1-.02.21.09.31.15.06.06.15.08.14-.11.03-.04.1.04.18.09.08.05.17.08.11-.05-.03-.06-.04-.09-.03-.1-.01-.03.02-.03.06-.03.04 0 .08-.01.08-.04.02-.09.03-.17.04-.25.04-.32.07-.62.1-.87.03-.27.07-.5.11-.68.07-.37.15-.57.23-.57.09 0 .17.25.25.7.04.23.08.51.12.83.02.17.03.34.05.53.02.28.03.58.05.89.01.19.13.48.11.69-.08 0-.17-.03-.29-.07-.14 0-.25.04-.39.06a.96.96 0 0 1-.47-.03c-.11.14-.31.15-.46.12-.1-.02-.2-.08-.31-.09-.21.01-.42-.07-.64.03-.22.16-.44-.08-.67.03-.23-.17-.47-.12-.71.03-.24-.16-.49.04-.74.03-.25-.25-.51-.08-.77.03-.26.09-.53-.04-.8.02-.27-.05-.55.06-.83.02-.28.12-.56.16-.85.02-.29.08-.58.02-.88.02-.3.1-.59-.01-.9.01-.3.05-.61-.27-.92.01-.31.04-.62-.04-.94.01-.16-.02-.32-.03-.48-.04-.08 0-.16 0-.24.01-.06 0-.12.01-.18.01-.07.01-.15.01-.23.02-.34-.17-.65-.17-1.07-.12-.07-.17-.15-.34-.23-.53-.05-.14-.09-.28-.13-.43l-.05-.23-.04-.2c-.03-.16-.04-.32-.05-.48-.05-.15-.08-.31-.11-.47-.05-.27-.1-.54-.15-.8-.09-.26-.13-.52-.15-.76-.03-.24-.05-.46-.12-.73.06-.01.12-.01.17-.03.23-.06.56-.03.87.01.31.03.58.06.85.01.13-.02.26-.03.39-.05.08-.01.15-.02.23-.02.15 0 .3.02.45.09.3 0 .59.25.88.02.29-.05.57-.36.85.02.28-.1.56.18.83.02.27.28.54.01.8.02.26.05.52.15.77.03.25-.13.5.07.74.03.24-.16.48.21.71.03.23.04.46-.02.68.03.22-.38.43 0 .64.04.21.05.41-.25.6.04.19-.29.38-.04.56.04.18.08.36-.12.52.04.17-.2.33.11.48.04.15.13.3.01.44.04.14-.05.27-.03.39.05.12.02.24.03.35.05.62.07.97.17.97.28ZM71.62 34.64c.02.1-.32.27-.95.49-.11.04-.22.07-.34.11-.12.05-.25.11-.39.12-.17-.11-.24.31-.44.13-.17-.03-.32.06-.48.14-.16.08-.36-.02-.52.14-.13.3-.44-.22-.56.15-.18.12-.39.14-.6.17-.25-.16-.42.09-.64.18-.27-.19-.48-.04-.67.19-.31-.28-.54-.18-.71.19-.03.01-.06.01-.09.02l-.05.01h-.02c-.02 0-.05-.01-.07-.01-.05 0-.11.01-.08.09-.01.01-.03.01-.03.04l.02.07c.01.04.01.07-.02.1.03.01.05.02.07.03l.03.01c.01 0 .02.03.02.04.03.07.04.14.04.21 0 .14-.05.28-.15.42.25.28.15.56.02.85-.14.29.22.58.02.88-.02.3.06.6.02.91-.1.3-.21.62.01.93.06.31.14.63.01.95.26.32.15.64.01.97.04.33-.14.66.01.99-.01.04-.01.08-.01.12v.11l.03.03c.02.02.03.01-.03.08-.03.03-.03.05-.02.07 0 .02.01.03.03.04.03.02.09 0 .14-.07 0-.02.05-.03.09-.04.04-.01.07-.01.11-.01.07 0 .14.02.22.04.14.03.29.06.43.02.08.06.15.08.22.08s.14-.03.21-.06c.14-.06.27-.14.41-.12.13-.05.28-.05.42-.06.07-.01.14-.01.21-.04a.94.94 0 0 0 .18-.12c.12-.07.24-.13.36-.19s.25-.11.39-.12c.04-.22.15-.27.3-.29.14-.02.31 0 .4-.11.3-.03.42-.32.62-.47.07-.11.2-.16.31-.23.11-.07.21-.15.24-.3.05-.04.09-.09.12-.14.03-.05.06-.11.09-.17.06-.11.13-.21.26-.26 0-.15.08-.23.18-.31.1-.08.22-.15.21-.29.05-.11.1-.21.15-.31.05-.1.11-.2.16-.3.18-.05.23-.16.24-.27.01-.06 0-.12 0-.17a.484.484 0 0 1 0-.17c.04-.1.03-.21.03-.32.01-.1.03-.2.14-.29.03-.1.08-.2.12-.29.02-.05.03-.1.03-.15 0-.05-.01-.1-.04-.15-.02-.1.09-.19.16-.28.07-.1.1-.2-.1-.29-.04-.09.03-.18.08-.28.05-.09.07-.19-.07-.26-.26-.15 0-.34-.03-.51-.02-.16-.03-.32-.05-.46-.1-.67-.25-1.19-.36-1.55-.11-.36-.16-.57-.09-.62.04-.02.11.01.21.09.1.09.23.22.37.43.29.4.64 1.05.86 1.95.05.18.27.35.11.57.03.2.18.41.07.63.27.22.03.45.01.68 0 .06-.01.12-.01.17-.01.06-.03.12-.04.17-.02.12-.04.24 0 .37.06.14.02.26-.04.38s-.12.23-.1.38c-.06.05-.1.11-.13.17-.04.06-.07.12-.08.18-.04.13-.04.27-.01.43-.12.1-.17.23-.21.36-.04.14-.05.29-.12.42-.18.07-.27.18-.32.31-.05.14-.07.3-.11.45-.05.15-.15.26-.25.38l-.15.17c-.05.06-.1.12-.14.18-.12.1-.22.22-.31.35-.1.12-.21.24-.34.33-.15.32-.41.54-.76.63-.11.13-.26.22-.41.3-.15.08-.3.16-.46.23-.13.12-.29.19-.45.26-.17.06-.34.09-.5.17-.08.04-.16.06-.25.08-.09.01-.18 0-.27.01-.18.01-.35.04-.5.22-.17.04-.36.06-.54.08l-.27.03c-.09 0-.18.01-.27.03-.18-.01-.37-.01-.55-.02-.09-.01-.18-.01-.28-.01-.05 0-.09 0-.14.01-.05 0-.08.01-.17.01-.14-.08-.27-.13-.4-.17a1.95 1.95 0 0 0-.42-.08c-.15-.01-.31-.02-.48-.02h-.33c-.02 0-.01-.03-.02-.04l-.02-.1c-.04-.29-.06-.61-.05-.93 0-.16.01-.32.01-.48 0-.05 0-.05.01-.08l.01-.06.01-.12c-.03-.33-.01-.66.01-.99-.08-.33.12-.65.01-.97-.12-.32.13-.64.01-.95-.08-.31-.12-.62.01-.93 0-.31.25-.61.02-.91-.05-.3-.36-.59.02-.88-.1-.29.18-.57.02-.85.14-.14.14-.28.11-.42-.01-.07-.04-.14-.06-.21 0-.02-.01-.03-.01-.06l-.01-.09c-.01-.06-.01-.12-.01-.18.03-.24.06-.45.08-.66.01-.11.01-.22 0-.33v-.04c0-.01.02-.01.03-.02l.07-.03c.05-.02.09-.04.13-.07.17-.11.41-.14.65-.17l.34-.03.08-.01c.02 0 .03 0 .05-.01.03-.01.06-.01.09-.03.21-.21.53.1.73-.13.24-.02.46-.13.69-.12.14-.42.44-.1.66-.11.22.01.36-.34.62-.1.14-.32.38-.11.58-.08.2.05.34-.19.54-.07.13-.23.36.04.5-.06.18.1.31-.05.46-.05a.49.49 0 0 1 .41-.03c.13-.01.25-.02.36-.02.69-.07 1.06-.04 1.08.07ZM81.76 13.44c-.01.1-.23.18-.6.23-.06.01-.13.01-.2.02-.07.02-.15.04-.23.02-.06-.15-.2.24-.25.01-.08-.07-.18-.03-.28.01-.1.04-.18-.11-.3 0-.14.26-.17-.32-.32 0-.12.06-.23.03-.35-.01-.09-.22-.24-.03-.37-.01-.09-.26-.24-.17-.39-.02-.09-.36-.23-.32-.41-.02-.14-.01-.26-.16-.43-.03-.14 0-.3.05-.44-.03-.18.21-.33.18-.46-.03-.18.23-.33.11-.47-.04-.14-.16-.35.17-.49-.04-.16-.04-.34.01-.5-.05-.16-.12-.31-.25-.51-.05-.18.04-.36.1-.52-.05-.21.24-.37.1-.53-.06-.19.02-.34-.19-.54-.06-.18-.06-.38.07-.55-.07-.17-.1-.35-.2-.55-.07-.2.14-.35-.12-.54-.07-.15-.27-.37.03-.53-.07-.18 0-.33-.19-.52-.08-.18.02-.35.05-.51-.08-.22.35-.32-.14-.5-.08-.14-.18-.33-.02-.48-.08-.17.05-.29-.21-.47-.08-.15-.05-.32.08-.45-.08-.17.17-.28-.19-.44-.08-.14-.02-.28-.02-.42-.08-.1-.31-.27-.08-.4-.08-.13-.05-.28.13-.38-.08-.12-.04-.23-.18-.36-.08-.12.03-.18-.45-.34-.08-.12.06-.18-.33-.32-.08-.13.23-.2-.06-.29-.08-.09-.03-.18-.05-.27-.08-.77-.22-1.2-.43-1.18-.59.02-.17.6-.27 1.57-.28.1 0 .22-.19.3 0 .1.01.23-.13.33 0 .14-.26.23-.02.35.01.12 0 .23.1.37.01.14-.14.24.11.39.02.11.18.25.16.41.02.12.18.28 0 .42.02.11.27.28.11.44.03.16-.07.3.08.46.03.15.07.32-.02.47.04.17-.1.34-.12.49.04.17-.06.33.03.5.05.18-.08.34.05.51.05.18-.03.31.31.52.05.18-.01.35.09.53.06.18.06.35.12.54.06.15.3.35.15.55.07.19-.06.37.01.55.07.19 0 .37.03.54.07.19-.06.34.16.53.07s.34.17.52.08c.18-.06.36-.08.51.08.17.02.3.29.5.08.17-.03.37-.32.48.08.17-.08.29.22.47.08.12.3.3.05.45.08.14.07.28.18.44.08.16-.12.28.11.42.08.16-.14.25.24.4.08.13.05.26.01.38.08.17-.36.25.03.36.08.11.07.26-.22.34.08.14-.27.22-.01.32.08.09.1.22-.09.29.08.12-.19.17.13.27.08.07.14.17.03.24.07.09-.04.16-.01.22.07.07.02.13.05.19.07.34.15.53.28.52.38Z" fill="#BF4E70"/><path d="M57.99 68.81c.1-.03.26.14.46.49.03.06.07.12.1.19.05.07.1.14.11.22-.12.12.29.11.11.25-.04.11.04.19.11.28.07.09-.04.23.1.31.29.07-.26.28.1.34.09.11.09.24.09.37-.19.15.03.26.08.4-.24.16-.12.29.06.43-.33.16-.28.3.04.45.02.16-.12.31.02.48.02.16.07.34-.01.5.21.19.18.38-.04.52.22.21.09.38-.07.54-.17.15.13.41-.11.55-.06.18-.05.38-.15.56-.16.15-.33.29-.19.56-.02.21-.02.43-.23.55.15.29-.05.43-.26.55-.06.2-.32.29-.29.53-.14.15-.11.41-.31.52-.17.13-.34.26-.32.5.04.25-.26.29-.3.48-.3.03-.12.35-.28.45-.06.16-.29.23-.23.43-.03.16-.03.3-.17.39.16.12.13.16.05.21-.08.04-.18.09-.14.15-.08.05-.08.11-.06.17.02.06.06.1.05.16.05.05.01.1-.01.17-.02.06-.02.13.07.15.01.12.2.15.14.32.11 0 .11.07.11.15 0 .08 0 .16.09.17.08.1.17.19.23.31-.12.3.15.22.25.29.07.11.3.04.26.27.08.1.09.28.26.25.12.03-.07.49.26.24.13.01.01.38.24.22.23-.14.15.14.23.21.07.07.15.13.21.19.62.55.96.91.88 1.05-.09.15-.69.01-1.63-.45-.09-.05-.3.06-.29-.15-.09-.07-.28-.01-.31-.17-.26.15-.23-.11-.32-.2-.11-.07-.16-.23-.34-.23-.21.03-.17-.25-.35-.27 0-.23-.13-.29-.36-.31.01-.23-.25-.22-.36-.36.09-.29-.15-.32-.34-.44-.18-.12-.16-.36-.3-.54-.04-.21-.2-.4-.2-.64-.15-.21-.2-.48-.04-.71-.06-.24.05-.47.12-.68-.03-.25.16-.42.22-.62.04-.22.42-.25.27-.56.07-.2.24-.32.3-.52.13-.15.27-.29.3-.5.34-.02.3-.27.3-.49.03-.2.16-.34.29-.48.07-.17.17-.32.27-.47.01-.19.27-.26.24-.46-.04-.2.25-.26.21-.46-.01-.19 0-.35.18-.46.05-.15.34-.24.15-.45-.01-.17-.28-.38.13-.45-.07-.17.24-.27.1-.44.3-.11.05-.29.08-.43.06-.14.17-.28.05-.42-.13-.14.08-.27.03-.41-.16-.13.21-.27.02-.4.03-.13-.04-.25.01-.38-.39-.09-.02-.24 0-.37.04-.13-.28-.19-.01-.35-.3-.06-.07-.21-.02-.33.06-.12-.16-.18-.02-.31-.21-.05.07-.21-.02-.28.11-.12-.03-.17-.02-.26-.06-.07-.07-.14-.02-.23 0-.07-.01-.14-.01-.21.02-.36.05-.59.15-.63ZM9.61 27.54c.11 0 .22.63.32 1.78.01.19.03.4.05.62.03.22.06.45.05.7-.15.25.27.51.05.78-.07.27-.01.56.04.86.05.3-.09.61.04.94.28.32-.32.66.04 1.01.08.35.06.71.04 1.08-.22.37 0 .75.04 1.14-.26.39-.15.79.03 1.21-.36.41-.3.83.03 1.27.01.43-.13.87.03 1.33.02.45.09.91.03 1.38.24.47.23.95.02 1.43.26.49.16.98.02 1.48s.23 1.01.02 1.52c-.02.51.06 1.04.02 1.57l-.02.07-.01.03c0 .01 0 .01-.01.01l-.03.03c-.02.03-.03.06-.04.09-.02.06-.03.14-.01.17.06-.02.14-.06.2-.12.03-.02.06-.03.08-.05l.01-.01c.01 0 0-.01.04-.01.07-.01.14-.01.21-.01.27-.01.55 0 .82.07.55-.27 1.11-.15 1.67-.01.56-.05 1.13.15 1.71-.01.14.01.29.01.43 0l.22-.01h.06l.01-.01c.03-.02.03-.03.13.03.04 0 .08-.04.09-.11v-.09c0-.07-.01-.14-.01-.22-.01-.14-.04-.29-.08-.43-.18-.57.07-1.14 0-1.7.26-.56-.08-1.12.01-1.68-.03-.55.15-1.1.01-1.64-.05-.54-.1-1.08.01-1.61-.4-.53.1-1.05.02-1.56.17-.52-.03-1.02.02-1.52-.07-.5.18-.99.02-1.48.03-.48-.13-.96.03-1.43-.2-.47.16-.93.03-1.38 0-.45-.01-.89.03-1.32.31-.43.05-.85.03-1.27.03-.41-.18-.81.03-1.21.01-.2.05-.39.07-.58l.01-.11v-.07a.16.16 0 0 0-.05-.11c-.02-.06.09-.21.16-.39-.03-.07-.17-.08-.36.12-.09.04-.13-.04-.23-.1-.17-.06-.33-.08-.5.05-.32.25-.64-.03-.94-.04-.3-.02-.59-.03-.86-.04-2.47-.13-3.88-.29-3.88-.45 0-.18 1.75-.36 4.75-.5.3-.01.61-.23.94-.04.16 0 .33-.04.5-.07.27-.03.56-.04.81.03.34-.14.68-.16.96-.13-.02.34-.09.68-.09.99v.45c-.01.13-.01.27-.02.41-.01.19 0 .38.06.58.17.39-.08.79.03 1.21-.18.41-.13.83.03 1.27-.17.43.04.87.03 1.32-.26.45-.08.91.03 1.38.1.47-.04.95.03 1.43-.05.49.07.98.02 1.48.12.5.17 1.01.02 1.52.09.51.02 1.04.02 1.56.11.53-.01 1.06.01 1.61.05.54-.28 1.09.01 1.64.04.55-.05 1.11.01 1.68-.04.56-.08 1.13.01 1.7-.07.14-.12.29-.14.43-.01.07-.02.14-.02.22v.34c.02.5.09 1.05.15 1.66-.51.04-1.07.05-1.63.05h-.37l-.22-.01-.43-.03c-.57.03-1.14.01-1.71 0-.56.08-1.12-.12-1.67-.01-.28.06-.55.03-.82-.01l-.21-.02c-.02 0-.1-.01-.16-.01l-.19-.01c-.25 0-.49 0-.76.03l-.91.06c-.02-.35-.03-.72-.01-1.1 0-.19.01-.37.03-.56l.03-.27.01-.07.01-.03.02-.07c0-.53.26-1.05.02-1.57-.06-.52-.38-1.02.02-1.52-.1-.5.19-.99.02-1.48.29-.48.01-.96.03-1.43.06-.47.16-.93.03-1.38-.14-.45.08-.89.03-1.33-.17-.43.22-.85.03-1.27.04-.41-.03-.82.04-1.21-.4-.39 0-.77.03-1.14.06-.37-.26-.73.04-1.08-.3-.35-.04-.68.04-1.01.09-.32-.13-.64.04-.94-.21-.3.12-.59.04-.86.14-.27.01-.53.05-.78-.05-.25-.03-.48.05-.7.02-.22.03-.43.05-.62.07-1.15.18-1.78.28-1.78Z" fill="#BF4E70"/><path d="M10.5 47.88c-.11 0-.22-.34-.32-.95-.01-.1-.03-.21-.05-.33-.03-.12-.06-.24-.05-.38.15-.13-.27-.27-.05-.42.07-.15.01-.3-.04-.46-.05-.16.09-.33-.04-.5-.28-.17.32-.35-.04-.54-.08-.19-.06-.38-.04-.58.22-.2 0-.4-.04-.61.26-.21.15-.43-.03-.65.36-.22.3-.45-.03-.68-.01-.23.13-.47-.03-.71-.02-.24-.09-.49-.03-.74-.24-.25-.23-.51-.02-.77a.457.457 0 0 1-.15-.3V39.14c.01-.25.07-.5.14-.71.05-.16.03-.34 0-.55-.03-.21-.08-.44-.08-.64.12 0 .26.01.42.06.25.01.49-.01.74-.02s.51-.02.77 0c.29.11.57.22.86-.01.29-.06.58-.15.88-.01.3-.27.6-.15.9-.01.15-.02.3.01.45.04.08.01.15.02.23.02.04 0 .08-.01.11-.02.06-.01.14-.02.21-.04.28.02.57-.01.87-.03.3-.02.62-.03.85.03-.04.33-.08.64-.09.92-.01.28.01.53.09.81.02.07.04.15.05.21.01.04.02.08.02.11 0 .08-.01.15-.03.23-.03.15-.08.3-.04.45-.26.3.08.6-.01.9.03.3-.15.59-.01.88.05.29.1.58-.01.86.4.28-.1.56-.02.84-.17.28.03.55-.02.81.07.27-.18.53-.02.79-.03.26.13.51-.03.77.2.25-.16.5-.03.74V47c0 .2-.01.4-.03.59-.13.11-.16.23-.15.39.01.16.07.35.1.54-.04.01-.08.02-.13.02-.2-.02-.34.03-.51.05a.99.99 0 0 1-.57-.08c-.17-.01-.35-.05-.5-.07a.4.4 0 0 0-.3.04c-.2.04-.39-.45-.58-.04-.19.07-.37-.32-.54-.04-.17.25-.34-.03-.5-.04-.16-.02-.31-.03-.46-.04-1.32-.13-2.08-.29-2.08-.46 0-.18.94-.36 2.54-.5.16-.01.33-.23.5-.04.17 0 .35-.16.54-.04.19-.29.38-.05.58-.04.1-.01.2.01.3.02.06.01.09 0 .12-.06.01-.08.04-.06.09-.03.05.03.12.06.11 0 .03.03.06.04.09.06.1.02.05-.15-.09-.26.17-.03-.04-.1-.03-.39.26-.24.08-.49-.03-.74-.1-.25.04-.51-.03-.77.05-.26-.07-.52-.02-.79-.12-.27-.17-.54-.02-.81-.09-.28-.02-.56-.02-.84-.11-.28.01-.57-.01-.86-.05-.29.28-.58-.01-.88-.04-.3.05-.6-.01-.9.02-.15.04-.3.04-.45 0-.08 0-.15-.01-.23a.36.36 0 0 0-.02-.11c-.01-.02-.01-.01-.03-.02.14-.04.17-.11.15-.14-.02-.03-.09-.01-.15.03-.11.08-.07.04-.11 0-.01 0 0 .01-.02.01h-.34c-.15 0-.3-.01-.45-.02-.3.09-.6-.12-.9-.01-.3.12-.59-.13-.88-.01-.29.08-.58.13-.86-.01-.02 0-.05-.06-.11-.1-.05-.04-.11-.04-.04.08 0 .01.01.04.04.07.05.06.1.1.11.1 0 0-.04-.04-.2-.08.05.04 0 .04-.04.08 0 0-.01.02-.01.04l-.01.05c-.01.03-.01.06-.01.1 0 .07.01.13.05.2-.29.26-.01.51-.03.77-.06.25-.16.5-.03.74.14.24-.08.48-.03.71.17.23-.22.46-.03.68-.04.22.02.44-.03.65.4.21 0 .41-.04.61-.06.2.26.39-.04.58.3.19.04.36-.04.54-.09.17.13.34-.04.5.21.16-.12.32-.04.46-.14.15-.01.29-.05.42a.4.4 0 0 1-.05.38c-.02.12-.03.23-.05.33-.08.6-.18.94-.29.94Z" fill="#BF4E70"/><path d="M1.95 16.17c.11 0 .31 1.86.57 5.27.04.57.09 1.18.14 1.83.06.65.13 1.35.15 2.08-.11.74.34 1.5.16 2.33-.02.82.08 1.67.17 2.56.1.89 0 1.82.18 2.78.33.95-.22 1.98.19 2.99.13 1.03.16 2.1.19 3.2-.16 1.11.11 2.24.2 3.4-.2 1.18-.03 2.37.21 3.59-.3 1.24-.18 2.5.22 3.76.07 1.28 0 2.6.22 3.94.09 1.34.22 2.7.23 4.1.31 1.38.37 2.8.23 4.25.33 1.43.3 2.9.24 4.39-.07 1.49.37 2.99.24 4.53.06 1.53.21 3.08.24 4.65-.01.79-.03 1.58 0 2.38.01.4.04.8.08 1.2.02.2.04.4.07.6l.05.3c0 .02.01.06.01.07l.01.01.02.02a.3.3 0 0 0 .04.1l.08-.02.03-.01H6.18a29.097 29.097 0 0 1 3.11.05c1.65-.27 3.31-.15 4.98-.01 1.67-.05 3.37.15 5.07-.01.32.01.66.01.97.01.05 0 .09-.01.13-.02l-.01-.11v-.03l.01-.2.01-.4c.02-.53.06-1.06.12-1.6.17-1.73.33-3.44.25-5.15-.09-1.71.24-3.39.25-5.07.34-1.66.08-3.34.25-4.98.06-1.64.31-3.26.25-4.88.03-1.61.06-3.2.25-4.77-.32-1.59.25-3.12.25-4.65.24-1.52.12-3.04.24-4.53 0-1.49.33-2.94.24-4.39.1-1.44.01-2.86.23-4.25-.13-1.4.3-2.75.23-4.1.07-1.34.12-2.65.22-3.93.37-1.27.18-2.54.22-3.76.09-1.22-.06-2.43.21-3.59.04-.58.11-1.15.16-1.72.02-.28.04-.56.05-.84l.01-.21v-.16c0-.06-.01-.12-.03-.17 0-.07.01-.15.03-.25-.08-.02-.15-.05-.26-.08-.05-.02-.11-.03-.17-.05l-.05-.01-.08-.01-.17-.02c-.44-.04-.87-.02-1.3.15-1.04.07-2.04-.32-3-.04-.97.25-1.89-.03-2.79-.04-.89-.02-1.75-.03-2.56-.04-3.67-.07-6.56-.14-8.53-.22-1.97-.08-3.02-.16-3.02-.24 0-.09 1.3-.18 3.71-.26 2.41-.08 5.94-.16 10.4-.23.89-.01 1.82-.23 2.79-.04.96 0 1.96-.16 3-.04.43-.12.86-.15 1.3-.14l.95.03c.36.02.72.03 1.08.05-.03.32-.05.63-.07.94l-.03.67-.03.48-.06.84a14.2 14.2 0 0 0-.03 1.73c.11 1.17-.2 2.36-.14 3.59-.24 1.22-.25 2.47-.15 3.77-.23 1.28-.09 2.6-.16 3.94-.33 1.33-.21 2.7-.17 4.1.03 1.4-.18 2.81-.18 4.25-.12 1.44-.07 2.91-.19 4.39.05 1.49.02 3-.2 4.53.01 1.53-.13 3.08-.21 4.65.03 1.58-.17 3.16-.22 4.77-.02 1.61-.44 3.22-.23 4.88-.04 1.65-.21 3.3-.24 4.98-.12 1.67-.24 3.36-.24 5.07-.37 1.69-.28 3.41-.25 5.15 0 .54-.01 1.07-.03 1.6-.02.32-.03.65-.05.97-.03.51-.05 1.02-.08 1.53-.63-.01-1.26-.01-1.89-.02a32.7 32.7 0 0 0-.98-.02c-1.71.03-3.4.01-5.07 0-1.68.08-3.34-.12-4.98-.01-.69.05-1.39.04-2.08.01-.35-.01-.69-.03-1.03-.04-.3 0-.6-.01-.91-.01h-.94c-.03-.45-.06-.9-.1-1.36l-.04-.51-.03-.3c-.02-.2-.04-.4-.05-.6-.03-.4-.06-.8-.08-1.19-.04-.79-.06-1.59-.02-2.38-.08-1.57.11-3.13-.21-4.65-.13-1.53-.53-3.02-.2-4.53-.17-1.48.05-2.96-.19-4.39.22-1.45-.12-2.86-.18-4.25-.01-1.39.02-2.77-.17-4.1-.21-1.33-.05-2.66-.16-3.94-.23-1.28.09-2.55-.15-3.77-.02-1.23-.14-2.42-.14-3.59-.45-1.14-.11-2.3-.13-3.4 0-1.1-.37-2.16-.12-3.2-.35-1.02-.14-2.03-.11-3 .04-.97-.22-1.88-.09-2.78-.25-.88.03-1.75-.08-2.56.1-.82-.07-1.59-.07-2.33-.08-.73-.1-1.43-.06-2.09-.01-.66-.03-1.27-.04-1.84-.09-3.45-.08-5.32.03-5.33Z" fill="#BF4E70"/><path d="M21.32 81.29c0 .11-.38.22-.82.32-.07.02-.15.03-.22.05-.06.03-.11.06-.23.05-.17-.07-.12 0-.06.05.05.06.11.11-.17-.01-.24-.06-.24 0-.23.04.01.03-.1 0-.2-.01-.09-.01-.16-.01-.02.05.37.14.1.06-.19-.01-.28-.07-.57-.13-.02.05.16.08-.01.06-.19.04-.5-.11-.58-.11-.51-.07.07.03.29.09.33.11-.67-.13-.93-.16-.91-.15.02.02.32.09.75.18-2.01-.35-2.04-.3-.15.03-.02.01-.27-.02-.42-.04-.14-.01-.19-.01.28.07.02.01.13.03.16.05.03.01 0 .01-.28-.02 1.66.23 1.64.22-.12.03.99.13 1.3.16 1.18.15-.41-.04-.84-.09-1.29-.13-.69-.07-.25-.01.16.03.4.05.77.09-.27-.01-.12-.01-.03.01.04.02s.11.02-.15 0c-.6-.05-1.26-.1-1.47-.11-.21-.01.04.02 1.34.13.27.03.55.05.82.08.11.01-.07 0-.96-.07 1.62.13 2.09.17 1.89.15-.66-.05-1.35-.09-2.06-.14.25.02-.28-.01-.65-.04l-.23-.01c-.05 0-.06-.02-.04-.03.03-.01.1-.01.23-.01s.32.04.58.06c-.29.01.13.06.42.09s.44.04-.33.05c-.53.01-1.03.04-1.13.08-.1.03.2.06 1.22.03 1.11-.03.88-.03.52.01-.37.03-.86.09-.44.07-1.46.15-1.15.15-.66.11.5-.04 1.19-.12.72-.04.16-.01-.21.05-.41.1-.2.05-.24.08.46-.03.26-.03.51-.07.57-.08.06 0-.07.03-.53.14 1.76-.38 1.5-.33.99-.2-.53.13-1.31.35-.94.26-.62.18-.52.17-.32.13.2-.04.49-.12.37-.07.29-.08 0 .02-.18.1-.19.08-.28.13.25-.04-.06.04.16-.03.29-.07.13-.04.15-.04-.21.12.54-.22.35-.13.15-.02-.2.1-.39.22-.05.07.08 0 .2-.04.13.04-.51.32-.47.33-.32.27.15-.07.41-.21.48-.24 0 .03.16-.07.25-.12.09-.05.11-.05-.07.13.02.01-.01.07 0 .1s.07.01.21-.1c.07-.05-.03.12-.05.2-.02.09.05.09.28-.23.07-.07.05.03.08.08.02.05.08.06.17-.13.08-.18.1-.18.14-.15.03.03.08.09.13.07.05-.02.09-.03.14-.05.03-.01.06-.03.09-.04.04-.02.07-.04.11-.05.64-.31 1.05-.66 1.26-.96.22-.29.27-.52.36-.51.04 0 .1.07.12.22.02.15.01.38-.09.66-.1.27-.3.57-.58.86-.14.14-.3.29-.48.42-.04.03-.09.07-.14.1-.05.03-.09.07-.15.11-.05.04-.13.08-.2.12-.07.04-.15.08-.22.13-.12.06-.25.18-.38.28-.14.09-.29.16-.4.1-.14.05-.29.15-.45.22-.16.08-.32.13-.42.1-.25.22-.43.28-.56.28-.13 0-.22-.04-.36-.02-.32.08-.49.01-.95.2-.28.13-.41.12-.52.11-.11-.02-.2-.04-.46.05 0-.18-.36-.1-.99.1.03-.18-.69.06-.99.05.25-.28-.44-.08-.99-.01-.52.07-.52-.08-.97-.06-.19-.08-.76-.03-.96-.12-.58.03-.98-.02-.95-.18-.49-.03-.63-.15-.92-.24-.51-.05-.56-.21-.9-.31-.2-.05-.2-.14-.26-.21-.06-.08-.19-.14-.6-.18-.34-.14-.45-.32-.79-.49-.19-.19-.38-.39-.71-.61.1-.12.02-.24-.11-.37s-.31-.27-.45-.42c-.25-.3-.29-.66-.26-1.03V81.04c0-.01 0-.01 0 0v.23c0 .02-.01.06.02.05l.14-.01.57-.03c.29-.03.85-.02 1.1-.06.25-.04.83-.01 1.08-.05.28-.04.6-.07 1.06-.05.35-.02.88.05 1.03-.05.29-.03.41-.18 1-.04.26-.06.77.05.98-.04.49.12.63-.02.94-.03.34.01.68.05.91-.03.23-.09.61.02.87-.02.21-.12.64.11.83-.02.28.01.52-.04.79-.01.12-.28.5-.02.75 0 .25.04.4-.21.7 0 .15-.24.43-.05.66.01.22.06.38-.12.61.01.15-.18.39.09.56.02.19.12.34 0 .5.03.15-.05.3-.04.45.03l.39.03c.71.07 1.1.17 1.1.28ZM1.95.43c.11 0 .22.07.31.2.02.02.03.04.05.07.03.02.06.05.05.08-.14.03.27.06.05.09-.07.03 0 .06.04.1.05.03-.09.07.04.11.28.04-.32.07.04.11.08.04.06.08.04.12-.22.04 0 .08.04.13-.26.04-.15.09.04.14-.36.05-.3.09.03.14.01.05-.13.1.03.15.02.05.09.1.03.16.24.05.23.11.02.16.26.05.16.11.02.17-.14.06.22.11.02.17-.02.06.06.12.02.18-.1.06-.22.12.02.18.06.06.15.12.01.18.27.06.15.12.01.19.05.06-.15.13 0 .19-.04.07.12.13 0 .2-.08.07-.16.13 0 .2.18.06-.07.13 0 .19-.26.06.08.13-.01.19.02.06-.15.12-.01.18.05.06.1.12-.02.18.4.06-.1.12-.02.18-.17.06.02.12-.02.17.07.06-.18.11-.02.17-.03.06.13.11-.02.16.2.05-.17.1-.03.16 0 .05.01.1-.03.15-.31.05-.05.1-.03.14-.03.05.17.09-.04.14-.02.04-.16.09-.04.13.04.04-.45.08-.04.12.07.04-.32.08-.04.11.25.04-.03.07-.04.11-.02.03-.03.07-.04.1-.13.28-.29.44-.46.44-.18 0-.36-.2-.5-.54-.01-.03-.23-.07-.04-.11 0-.03-.17-.07-.04-.11-.29-.04-.05-.08-.04-.12-.01-.04.08-.08-.04-.13-.17-.04.08-.09-.03-.14.18-.05.13-.09-.03-.14.17-.05-.04-.1-.03-.15.26-.05.08-.1-.03-.16-.1-.05.04-.11-.02-.16.05-.05-.07-.11-.02-.17-.12-.06-.17-.11-.02-.17-.08-.06-.02-.12-.02-.18-.1-.06.01-.12-.01-.18-.05-.06.28-.12-.01-.18-.04-.06.05-.12-.01-.19.04-.06.07-.13 0-.19.29-.06.11-.13 0-.2-.08-.07-.04-.13 0-.2-.03-.06-.01-.13 0-.19-.09-.06.12-.13.01-.19-.12-.06.13-.12.01-.18-.08-.06-.13-.12.01-.18 0-.06.26-.12.02-.18-.06-.06-.38-.12.02-.17-.1-.06.19-.11.02-.17.29-.05.01-.11.02-.16.06-.05.16-.11.03-.16-.14-.05.08-.1.03-.15-.17-.05.22-.1.03-.14.04-.05-.03-.09.03-.14-.39-.05 0-.09.04-.13.06-.04-.26-.08.04-.12-.3-.04-.04-.08.04-.11.09-.04-.13-.07.04-.11-.21-.03.12-.07.04-.1.14-.03.01-.06.05-.09-.05-.03-.03-.05.05-.08.02-.03.03-.05.05-.07.09-.13.2-.2.31-.2ZM4.77.43c.11 0 .22.07.31.2.02.02.03.04.05.07.03.02.06.05.05.08-.15.03.27.06.05.09-.07.03 0 .06.04.1.05.03-.09.07.04.11.28.04-.32.07.04.11.08.04.06.08.04.12-.22.04 0 .08.04.13-.26.04-.15.09.03.14-.36.05-.3.09.03.14.01.05-.13.1.03.15.02.05.09.1.03.16.24.05.23.11.03.16.26.05.15.11.02.17-.14.06.23.11.02.17-.02.06.06.12.02.18-.11.06-.22.12.01.18.06.06.15.12.01.18.27.06.15.12.01.19.04.06-.15.13 0 .19-.04.07.12.13 0 .2-.08.07-.16.13 0 .2.18.06-.07.13 0 .19-.26.06.08.13-.01.19.02.06-.15.12-.01.18.05.06.1.12-.01.18.4.06-.1.12-.02.18-.17.06.02.12-.02.17.07.06-.18.11-.02.17-.03.06.13.11-.03.16.2.05-.17.1-.03.16 0 .05.01.1-.03.15-.31.05-.05.1-.03.14-.03.05.18.09-.03.14-.03.04-.16.09-.04.13.04.04-.45.08-.04.12.07.04-.32.08-.04.11.25.04-.03.07-.04.11-.02.03-.03.07-.04.1-.13.28-.29.44-.46.44-.18 0-.35-.2-.5-.54-.01-.03-.23-.07-.04-.11 0-.03-.17-.07-.04-.11-.29-.04-.05-.08-.04-.12-.01-.04.08-.08-.04-.13-.17-.04.08-.09-.03-.14.18-.05.13-.09-.03-.14.17-.05-.04-.1-.03-.15.26-.05.08-.1-.03-.16-.1-.05.04-.11-.02-.16.05-.05-.07-.11-.02-.17-.12-.06-.17-.11-.02-.17-.09-.06-.02-.12-.02-.18-.11-.06.01-.12-.01-.18-.05-.06.28-.12-.01-.18-.04-.06.04-.12-.01-.19.04-.06.08-.13 0-.19.29-.06.11-.13 0-.2-.08-.07-.04-.13 0-.2-.03-.06-.01-.13 0-.19-.08-.06.12-.13.01-.19-.12-.06.13-.12.01-.18-.08-.06-.13-.12.01-.18 0-.06.26-.12.02-.18-.06-.06-.38-.12.02-.17-.1-.06.19-.11.02-.17.29-.05.02-.11.02-.16.06-.05.16-.11.03-.16-.14-.05.08-.1.03-.15-.17-.05.22-.1.03-.14.04-.05-.03-.09.03-.14-.39-.05 0-.09.04-.13.06-.04-.26-.08.04-.12-.3-.04-.04-.08.04-.11.09-.04-.13-.07.04-.11-.21-.03.12-.07.04-.1.14-.03.01-.06.05-.09-.05-.03-.03-.05.05-.08.02-.03.03-.05.05-.07.09-.13.19-.2.31-.2ZM7.59.43c.11 0 .22.07.32.2.02.02.03.04.05.07.03.02.06.05.05.08-.15.03.27.06.05.09-.07.03 0 .06.04.1.05.03-.09.07.04.11.28.04-.32.07.04.11.08.04.06.08.04.12-.22.04 0 .08.04.13-.26.04-.15.09.03.14-.36.05-.3.09.03.14.01.05-.13.1.03.15.02.05.09.1.03.16.24.05.23.11.02.16.26.05.16.11.02.17-.14.06.23.11.02.17-.02.06.06.12.02.18-.11.06-.22.12.01.18.06.06.15.12.01.18.27.06.15.12.01.19.05.06-.15.13 0 .19-.04.07.12.13 0 .2-.08.07-.16.13 0 .2.18.06-.07.13 0 .19-.26.06.08.13-.01.19.02.06-.15.12-.01.18.05.06.1.12-.01.18.39.06-.1.12-.02.18-.17.06.03.12-.02.17.07.06-.18.11-.02.17-.03.06.13.11-.02.16.2.05-.17.1-.03.16 0 .05.01.1-.03.15-.31.05-.05.1-.03.14-.03.05.17.09-.03.14-.03.04-.16.09-.04.13.05.04-.45.08-.04.12.07.04-.32.08-.04.11.25.04-.03.07-.04.11-.01.03-.03.07-.04.1-.13.28-.29.44-.46.44-.18 0-.36-.2-.5-.54-.01-.03-.23-.07-.04-.11 0-.03-.16-.07-.04-.11-.29-.04-.05-.08-.04-.12-.01-.04.08-.08-.03-.13-.17-.04.08-.09-.04-.14.18-.05.13-.09-.03-.14.17-.05-.04-.1-.03-.15.26-.05.08-.1-.03-.16-.1-.05.04-.11-.03-.16.05-.05-.07-.11-.02-.17-.12-.06-.17-.11-.02-.17-.08-.06-.01-.12-.01-.18-.11-.06.01-.12-.02-.18-.06-.06.28-.12-.01-.18-.04-.06.05-.12-.01-.19.04-.06.07-.13-.01-.19.29-.06.11-.13 0-.2-.08-.07-.04-.13 0-.2-.03-.06-.01-.13.01-.19-.09-.06.12-.13.01-.19-.12-.06.13-.12.01-.18-.08-.06-.13-.12.02-.18 0-.06.26-.12.01-.18-.05-.06-.38-.12.02-.17-.1-.06.19-.11.02-.17.29-.05.01-.11.03-.16.06-.05.15-.11.03-.16-.14-.05.08-.1.03-.15-.17-.05.22-.1.03-.14.04-.05-.03-.09.04-.14-.4-.05 0-.09.03-.13.06-.04-.26-.08.04-.12-.3-.04-.04-.08.04-.11.09-.04-.13-.07.04-.11-.21-.03.12-.07.04-.1.14-.03.01-.06.05-.09-.05-.03-.03-.05.05-.08.01-.03.03-.05.05-.07.08-.13.19-.2.3-.2ZM10.41.43c.11 0 .22.07.31.2.02.02.03.04.05.07.03.02.06.05.05.08-.14.03.27.06.05.09-.07.03 0 .06.04.1.05.03-.09.07.04.11.28.04-.32.07.04.11.08.04.06.08.04.12-.22.04 0 .08.04.13-.26.04-.15.09.03.14-.36.05-.3.09.03.14.01.05-.13.1.03.15.02.05.09.1.03.16.24.05.23.11.02.16.26.05.16.11.02.17-.14.06.23.11.02.17-.02.06.06.12.02.18-.11.06-.22.12.02.18.06.06.15.12.01.18.27.06.15.12.01.19.04.06-.15.13.01.19-.04.07.12.13 0 .2-.08.07-.16.13 0 .2.18.06-.07.13-.01.19-.26.06.08.13-.01.19.02.06-.15.12-.01.18.05.06.1.12-.02.18.4.06-.1.12-.02.18-.17.06.02.12-.02.17.07.06-.18.11-.02.17-.03.06.13.11-.02.16.2.05-.17.1-.03.16 0 .05.01.1-.03.15-.31.05-.05.1-.03.14-.03.05.18.09-.03.14-.02.04-.16.09-.04.13.04.04-.45.08-.04.12.07.04-.32.08-.04.11.25.04-.03.07-.04.11-.02.03-.03.07-.04.1-.13.28-.29.44-.45.44-.18 0-.36-.2-.5-.54-.01-.03-.23-.07-.04-.11 0-.03-.17-.07-.04-.11-.29-.04-.05-.08-.04-.12-.02-.04.08-.08-.04-.13-.17-.04.08-.09-.03-.14.18-.05.13-.09-.03-.14.17-.05-.04-.1-.03-.15.26-.05.08-.1-.03-.16-.1-.05.04-.11-.02-.16.05-.05-.07-.11-.02-.17-.12-.06-.17-.11-.02-.17-.09-.06-.02-.12-.02-.18-.11-.06.01-.12-.01-.18-.05-.06.28-.12-.01-.18-.04-.06.05-.12-.01-.19.04-.06.08-.13 0-.19.29-.06.11-.13 0-.2-.08-.07-.04-.13 0-.2-.03-.06-.01-.13 0-.19-.09-.06.12-.13.01-.19-.12-.06.13-.12.01-.18-.08-.06-.13-.12.01-.18 0-.06.26-.12.02-.18-.06-.06-.38-.12.02-.17-.1-.06.19-.11.02-.17.29-.05.01-.11.02-.16.06-.05.16-.11.03-.16-.14-.05.08-.1.03-.15-.17-.05.22-.1.03-.14.04-.05-.03-.09.03-.14-.39-.05 0-.09.04-.13.06-.04-.26-.08.04-.12-.3-.04-.04-.08.04-.11.09-.04-.13-.07.04-.11-.21-.03.12-.07.04-.1.14-.03.01-.06.04-.09-.05-.03-.03-.05.05-.08.02-.03.03-.05.05-.07.09-.13.2-.2.31-.2ZM13.23.43c.11 0 .22.07.32.2.01.02.03.04.05.07.03.02.06.05.05.08-.14.03.27.06.05.09-.07.03-.01.06.04.1.05.03-.09.07.04.11.28.04-.32.07.04.11.08.04.06.08.04.12-.22.04 0 .08.04.13-.26.04-.15.09.03.14-.36.05-.3.09.03.14.01.05-.13.1.03.15.02.05.09.1.03.16.24.05.23.11.03.16.26.05.15.11.02.17-.14.06.23.11.02.17-.02.06.06.12.02.18-.11.06-.22.12.01.18.06.06.15.12.01.18.27.06.15.12.01.19.05.06-.15.13.01.19-.04.07.12.13 0 .2-.08.07-.16.13 0 .2.18.06-.07.13-.01.19-.26.06.08.13-.01.19.03.06-.15.12-.01.18.05.06.1.12-.01.18.4.06-.1.12-.02.18-.17.06.02.12-.02.17.07.06-.18.11-.02.17-.03.06.13.11-.03.16.2.05-.16.1-.03.16 0 .05.01.1-.03.15-.31.05-.05.1-.03.14-.03.05.18.09-.03.14-.02.04-.16.09-.04.13.04.04-.45.08-.04.12.07.04-.32.08-.04.11.25.04-.03.07-.04.11-.02.03-.03.07-.04.1-.13.28-.29.44-.46.44-.18 0-.36-.2-.5-.54-.01-.03-.23-.07-.04-.11 0-.03-.16-.07-.04-.11-.29-.04-.05-.08-.04-.12-.01-.04.08-.08-.04-.13-.17-.04.08-.09-.03-.14.18-.05.13-.09-.03-.14.17-.05-.04-.1-.03-.15.27-.05.08-.1-.03-.16-.1-.05.04-.11-.03-.16.05-.05-.07-.11-.02-.17-.12-.06-.17-.11-.02-.17-.08-.06-.02-.12-.02-.18-.11-.06.01-.12-.01-.18-.06-.06.28-.12-.01-.18-.04-.06.05-.12-.01-.19.04-.06.07-.13-.01-.19.29-.06.11-.13 0-.2-.08-.07-.04-.13 0-.2-.03-.06-.01-.13.01-.19-.09-.06.12-.13.01-.19-.12-.06.13-.12.01-.18-.08-.06-.13-.12.01-.18 0-.06.26-.12.02-.18-.06-.06-.38-.12.02-.17-.1-.06.19-.11.02-.17.29-.05.02-.11.03-.16.06-.05.16-.11.03-.16-.14-.05.08-.1.03-.15-.17-.05.22-.1.03-.14.04-.05-.03-.09.03-.14-.39-.05 0-.09.04-.13.06-.04-.26-.08.04-.12-.3-.04-.04-.08.04-.11.09-.04-.13-.07.04-.11-.21-.03.12-.07.04-.1.14-.03.01-.06.05-.09-.05-.03-.03-.05.05-.08.02-.03.03-.05.05-.07.08-.13.18-.2.3-.2ZM16.04.43c.11 0 .22.07.31.2.02.02.03.04.05.07.03.02.06.05.05.08-.15.03.27.06.05.09-.07.03 0 .06.04.1.05.03-.09.07.04.11.28.04-.32.07.04.11.08.04.06.08.04.12-.22.04 0 .08.04.13-.26.04-.15.09.03.14-.36.05-.3.09.03.14.01.05-.13.1.03.15.02.05.09.1.03.16.24.05.23.11.03.16.26.05.16.11.02.17-.14.06.23.11.02.17-.02.06.06.12.02.18-.11.06-.22.12.01.18.06.06.15.12.01.18.27.06.15.12.01.19.05.06-.15.13.01.19-.04.07.12.13 0 .2-.08.07-.16.13 0 .2.18.06-.07.13-.01.19-.26.06.08.13-.01.19.03.06-.15.12-.01.18.05.06.1.12-.01.18.4.06-.1.12-.02.18-.17.06.02.12-.02.17.07.06-.18.11-.02.17-.03.06.13.11-.03.16.2.05-.17.1-.03.16 0 .05.01.1-.03.15-.31.05-.05.1-.03.14-.03.05.18.09-.03.14-.03.04-.16.09-.04.13.04.04-.45.08-.04.12.07.04-.32.08-.04.11.25.04-.03.07-.04.11-.02.03-.03.07-.04.1-.13.28-.29.44-.45.44-.18 0-.36-.2-.5-.54-.01-.03-.23-.07-.04-.11 0-.03-.17-.07-.04-.11-.28-.04-.05-.08-.04-.12-.01-.04.08-.08-.04-.13-.17-.04.08-.09-.03-.14.18-.05.13-.09-.03-.14.17-.05-.04-.1-.03-.15.26-.05.08-.1-.03-.16-.1-.05.04-.11-.02-.16.05-.05-.07-.11-.02-.17-.12-.06-.17-.11-.02-.17-.09-.06-.02-.12-.02-.18-.1-.06.01-.12-.01-.18-.05-.06.28-.12-.01-.18-.04-.06.04-.12-.01-.19.04-.06.08-.13 0-.19.29-.06.11-.13 0-.2-.08-.07-.04-.13 0-.2-.03-.06-.01-.13 0-.19-.08-.06.12-.13.01-.19-.12-.06.13-.12.01-.18-.08-.06-.13-.12.01-.18 0-.06.26-.12.02-.18-.06-.06-.38-.12.02-.17-.1-.06.19-.11.02-.17.29-.05.01-.11.02-.16.06-.05.16-.11.03-.16-.14-.05.08-.1.03-.15-.17-.05.22-.1.03-.14.04-.05-.03-.09.03-.14-.4-.05 0-.09.04-.13.06-.04-.26-.08.04-.12-.3-.04-.04-.08.04-.11.09-.04-.13-.07.04-.11-.21-.03.12-.07.04-.1.14-.03.01-.06.04-.09-.05-.03-.03-.05.05-.08.02-.03.03-.05.05-.07.09-.13.2-.2.31-.2ZM18.86.43c.11 0 .22.07.32.2.02.02.03.04.05.07.03.02.06.05.05.08-.14.03.27.06.05.09-.07.03-.01.06.04.1.05.03-.09.07.04.11.28.04-.32.07.04.11.08.04.06.08.04.12-.22.04 0 .08.04.13-.26.04-.15.09.03.14-.36.05-.3.09.03.14.01.05-.13.1.03.15.02.05.09.1.03.16.24.05.23.11.03.16.26.05.15.11.02.17-.14.06.23.11.02.17-.02.06.06.12.02.18-.1.06-.22.12.01.18.06.06.15.12.01.18.27.06.15.12.01.19.04.06-.15.13 0 .19-.04.07.12.13 0 .2-.08.07-.16.13 0 .2.18.06-.07.13 0 .19-.26.06.08.13-.01.19.03.06-.15.12-.01.18.05.06.1.12-.01.18.4.06-.1.12-.02.18-.17.06.03.12-.02.17.07.06-.18.11-.02.17-.03.06.13.11-.03.16.2.05-.17.1-.03.16 0 .05.01.1-.03.15-.31.05-.05.1-.03.14-.03.05.18.09-.03.14-.03.04-.16.09-.04.13.05.04-.45.08-.04.12.07.04-.32.08-.04.11.25.04-.03.07-.04.11-.01.03-.03.07-.04.1-.13.28-.29.44-.46.44-.18 0-.36-.2-.5-.54-.01-.03-.23-.07-.04-.11 0-.03-.16-.07-.04-.11-.29-.04-.05-.08-.04-.12-.01-.04.08-.08-.04-.13-.17-.04.08-.09-.03-.14.18-.05.13-.09-.03-.14.17-.05-.04-.1-.03-.15.26-.05.08-.1-.03-.16-.1-.05.04-.11-.03-.16.05-.05-.07-.11-.02-.17-.12-.06-.17-.11-.02-.17-.09-.06-.02-.12-.02-.18-.1-.06.01-.12-.01-.18-.05-.06.28-.12-.01-.18-.04-.06.05-.12-.01-.19.04-.06.07-.13-.01-.19.29-.06.11-.13 0-.2-.08-.07-.04-.13 0-.2-.03-.06-.01-.13.01-.19-.09-.06.12-.13.01-.19-.12-.06.13-.12.01-.18-.08-.06-.13-.12.01-.18 0-.06.26-.12.02-.18-.06-.06-.38-.12.02-.17-.1-.06.19-.11.02-.17.29-.05.01-.11.03-.16.06-.05.15-.11.03-.16-.14-.05.08-.1.03-.15-.17-.05.22-.1.03-.14.04-.05-.03-.09.03-.14-.39-.05 0-.09.04-.13.06-.04-.26-.08.04-.12-.3-.04-.04-.08.04-.11.09-.04-.13-.07.04-.11-.21-.03.12-.07.04-.1.14-.03.01-.06.05-.09-.05-.03-.03-.05.05-.08.02-.03.03-.05.05-.07.08-.13.19-.2.3-.2ZM21.68.43c.11 0 .22.07.31.2.02.02.03.04.05.07.03.02.06.05.05.08-.15.03.27.06.05.09-.07.03 0 .06.04.1.05.03-.09.07.04.11.28.04-.32.07.04.11.08.04.06.08.04.12-.22.04 0 .08.04.13-.26.04-.15.09.03.14-.36.05-.3.09.03.14.01.05-.13.1.03.15.02.05.09.1.03.16.24.05.23.11.03.16.26.05.15.11.02.17-.14.06.23.11.02.17-.02.06.06.12.02.18-.11.06-.22.12.01.18.06.06.15.12.01.18.27.06.15.12.01.19.04.06-.15.13 0 .19-.04.07.12.13 0 .2-.08.07-.16.13 0 .2.18.06-.07.13 0 .19-.26.06.08.13-.01.19.03.06-.15.12-.01.18.05.06.1.12-.01.18.4.06-.1.12-.02.18-.17.06.03.12-.02.17.07.06-.18.11-.02.17-.03.06.13.11-.03.16.2.05-.17.1-.03.16 0 .05.01.1-.03.15-.31.05-.05.1-.03.14-.03.05.18.09-.03.14-.03.04-.16.09-.04.13.04.04-.45.08-.04.12.07.04-.32.08-.04.11.25.04-.03.07-.04.11-.01.03-.03.07-.04.1-.13.28-.29.44-.46.44-.18 0-.35-.2-.5-.54-.01-.03-.23-.07-.04-.11 0-.03-.16-.07-.04-.11-.29-.04-.05-.08-.04-.12-.01-.04.08-.08-.04-.13-.17-.04.08-.09-.03-.14.18-.05.13-.09-.03-.14.17-.05-.04-.1-.03-.15.26-.05.08-.1-.03-.16-.1-.05.04-.11-.03-.16.05-.05-.07-.11-.02-.17-.12-.06-.17-.11-.02-.17-.09-.06-.02-.12-.02-.18-.11-.06.01-.12-.01-.18-.05-.06.28-.12-.01-.18-.04-.06.05-.12-.01-.19.04-.06.07-.13 0-.19.29-.06.11-.13 0-.2-.08-.07-.04-.13 0-.2-.03-.06-.01-.13 0-.19-.09-.06.12-.13.01-.19-.12-.06.13-.12.01-.18-.08-.06-.13-.12.01-.18 0-.06.26-.12.02-.18-.06-.06-.38-.12.02-.17-.1-.06.19-.11.02-.17.29-.05.02-.11.03-.16.06-.05.15-.11.03-.16-.14-.05.08-.1.03-.15-.17-.05.22-.1.03-.14.04-.05-.03-.09.03-.14-.4-.05 0-.09.04-.13.06-.04-.26-.08.04-.12-.3-.04-.04-.08.04-.11.09-.04-.13-.07.04-.11-.21-.03.12-.07.04-.1.14-.03.01-.06.05-.09-.05-.03-.03-.05.05-.08.02-.03.03-.05.05-.07.09-.13.2-.2.31-.2ZM24.49.43c.11 0 .22.07.31.2.02.02.03.04.05.07.03.02.06.05.05.08-.15.03.27.06.04.09-.06.03 0 .06.04.1.05.03-.09.07.04.11.28.04-.31.07.04.11.08.04.06.08.04.12-.22.04 0 .08.04.13-.26.04-.15.09.03.14-.36.05-.3.09.03.14.01.05-.13.1.03.15.02.05.09.1.03.16.24.05.23.11.02.16.26.05.16.11.02.17-.14.06.23.11.02.17-.02.06.06.12.02.18-.11.06-.22.12.01.18.06.06.15.12.01.18.27.06.15.12.01.19.04.06-.15.13 0 .19-.04.07.12.13 0 .2-.08.07-.16.13 0 .2.18.06-.07.13 0 .19-.26.06.08.13-.01.19.03.06-.15.12-.01.18.05.06.1.12-.01.18.4.06-.1.12-.02.18-.17.06.02.12-.02.17.07.06-.18.11-.02.17-.03.06.13.11-.02.16.2.05-.17.1-.03.16 0 .05.01.1-.03.15-.31.05-.05.1-.03.14-.03.05.17.09-.03.14-.03.04-.16.09-.04.13.04.04-.45.08-.04.12.07.04-.32.08-.04.11.25.04-.03.07-.04.11-.01.03-.03.07-.04.1-.13.28-.29.44-.45.44-.18 0-.36-.2-.5-.54-.01-.03-.23-.07-.04-.11 0-.03-.16-.07-.04-.11-.29-.04-.05-.08-.04-.12-.01-.04.08-.08-.04-.13-.17-.04.08-.09-.03-.14.18-.05.13-.09-.03-.14.17-.05-.04-.1-.03-.15.26-.05.08-.1-.03-.16-.1-.05.04-.11-.02-.16.05-.05-.07-.11-.02-.17-.12-.06-.17-.11-.02-.17-.09-.06-.02-.12-.02-.18-.1-.06.01-.12-.01-.18-.05-.06.28-.12-.01-.18-.04-.06.05-.12-.01-.19.04-.06.08-.13 0-.19.29-.06.11-.13 0-.2-.08-.07-.04-.13 0-.2-.03-.06-.01-.13 0-.19-.08-.06.12-.13.01-.19-.12-.06.13-.12.01-.18-.08-.06-.13-.12.01-.18 0-.06.26-.12.02-.18-.06-.06-.38-.12.02-.17-.1-.06.19-.11.02-.17.29-.05.01-.11.02-.16.06-.05.16-.11.03-.16-.14-.05.08-.1.03-.15-.17-.05.22-.1.03-.14.04-.05-.03-.09.03-.14-.39-.05 0-.09.04-.13.06-.04-.26-.08.04-.12-.3-.04-.04-.08.04-.11.09-.04-.13-.07.04-.11-.21-.03.12-.07.04-.1.14-.03.01-.06.04-.09-.05-.03-.03-.05.05-.08.02-.03.03-.05.05-.07.11-.13.21-.2.32-.2Z" fill="#BF4E70"/><path d="M24.51 16.16c0 .11-.7.22-1.99.32-.21.01-.45.03-.69.05a5 5 0 0 1-.79.05c-.28-.14-.57.27-.88.05-.31-.07-.63 0-.97.04-.34.05-.69-.09-1.05.04-.36.28-.74-.32-1.13.04-.39.08-.79.06-1.21.04-.42-.22-.84 0-1.28.04-.44-.26-.89-.15-1.35.03-.46-.36-.94-.3-1.42.03-.49.01-.98-.13-1.49.03-.5.02-1.02.09-1.54.03-.52.24-1.06.23-1.6.03-.54.26-1.1.15-1.66.02-.56-.14-1.13.23-1.71.02h-.43l-.22.01-.32.01c-.53.01-1.08.02-1.6 0l-.06-.01c.05-.58.11-1.11.12-1.6v-.33c0-.07-.01-.15-.02-.22-.02-.15-.06-.3-.12-.44-.06-.61-.15-1.22-.01-1.84-.27-.62-.15-1.24-.01-1.88-.05-.63.15-1.27-.01-1.91.01-.16.01-.32 0-.48l-.03-.36V7.8c-.02-.61-.03-1.26.03-1.81.65.04 1.24.08 1.81.09h.29c.08 0 .16-.01.24-.01.16-.01.32-.04.48-.08.64-.18 1.28.07 1.91 0 .63.26 1.26-.08 1.88.01.62-.03 1.23.15 1.84.01.61-.05 1.21-.1 1.8.01.59-.4 1.18.1 1.75.02.58.17 1.15-.03 1.71.02.56-.07 1.11.18 1.66.02.54.03 1.08-.13 1.6.02.53-.19 1.04.17 1.55.03.5 0 1-.01 1.48.03.48.31.96.05 1.42.03.23.02.46-.03.68-.05.06 0 .11-.01.17-.01.06 0 .09 0 .2.01.19.01.37.04.53.09.36.01.67.05.98.07-.02.35-.02.66.04.96.01.16-.01.33-.05.49-.03.18-.08.25-.11.36-.07.2-.09.4.12.6.07.39-.32.77-.04 1.13.25.36-.03.71-.04 1.05-.01.34-.03.66-.04.97-.13 2.77-.29 4.35-.45 4.35-.18 0-.36-1.96-.5-5.32-.01-.34-.23-.69-.04-1.05 0-.36-.16-.74-.04-1.13-.29-.37-.05-.9-.04-.96-.01-.08.01-.17.02-.26-.08-.01-.18 0-.29.06-.05.04-.09.06-.12.06h-.05l-.08-.01-.17-.02c-.23-.03-.45-.06-.68 0-.46-.18-.94-.13-1.42.03-.49-.17-.98.04-1.48.03-.5-.26-1.02-.08-1.55.03-.52.1-1.06-.04-1.6.03-.54-.05-1.1.07-1.66.02-.56.12-1.13.17-1.71.02-.58.08-1.16.02-1.75.02-.59.1-1.19-.01-1.8.01-.61.05-1.22-.28-1.84.01-.62.04-1.24-.05-1.88.01-.63-.04-1.27-.08-1.91 0-.16-.07-.32-.11-.48-.14-.08-.01-.16-.02-.24-.02h-.2c-.09.02-.13.09-.11.15.04.08.05.09.05.12l-.02.43-.03.48c.03.64.01 1.28 0 1.91.09.63-.12 1.26-.01 1.88.12.62-.13 1.23-.01 1.84.02.15.04.3.05.44l.02.22v.07c0 .02-.02.03-.08.14v.01c.04 0 .05.07.13.1.01 0 .02.01.03.01.02 0 .07 0 .1.01h.22c.14-.01.29-.04.43-.1.58-.06 1.15-.38 1.71.02.56-.1 1.11.19 1.66.02.54.29 1.08.01 1.6.02.53.06 1.04.16 1.54.03.51-.14 1 .08 1.49.03.48-.17.96.22 1.42.03.46.04.91-.02 1.35.03.44-.39.87 0 1.28.04.42.06.82-.26 1.21.04.39-.3.77-.04 1.13.04.36.09.71-.13 1.05.04.34-.21.66.12.97.04.31.14.6.01.88.05.28-.05.54-.03.79.05.25.02.48.03.69.05 1.29.07 2 .18 2 .29Z" fill="#BF4E70"/><path d="M22.06 16.16c0 .11-.53.22-1.5.32-.16.01-.34.03-.52.05-.19.03-.38.06-.59.05-.21-.14-.43.27-.66.05-.23-.07-.47 0-.73.04-.25.05-.52-.09-.79.04-.27.28-.56-.32-.85.04-.29.08-.6.06-.91.04-.31-.22-.63 0-.96.04-.33-.26-.67-.15-1.02.03-.35-.36-.7-.3-1.07.03-.36.01-.74-.13-1.12.03-.38.02-.77.09-1.16.03-.39.24-.8.23-1.21.03-.41.26-.82.15-1.25.02-.42-.14-.85.23-1.28.02-.22-.01-.44.01-.66.02-.11 0-.22.01-.33.01-.2 0-.4 0-.6-.01-.41-.06-.77-.11-1.16-.12.01-.38-.02-.7-.14-1.05-.02-.21-.03-.42-.05-.63v-.13l-.01-.09c-.01-.06-.01-.11-.01-.17-.01-.23 0-.46.07-.7-.27-.47-.15-.94-.01-1.41-.05-.48.15-.95-.01-1.44.01-.12.01-.24 0-.36l-.03-.63c-.02-.46-.03-.95.03-1.35.5.04.96.08 1.39.09h.32c.1 0 .23-.01.27-.01.12-.01.24-.04.36-.08.48-.18.96.07 1.44 0 .48.26.95-.08 1.41.01.46-.03.93.15 1.38.01.46-.05.91-.1 1.35.01.45-.4.89.1 1.32.02.43.17.86-.02 1.28.02.42-.07.84.18 1.25.02.41.03.81-.13 1.21.02.39-.2.78.17 1.16.03.38 0 .75-.01 1.12.03.36.31.72.05 1.07.03.35.03.69-.18 1.02.03.23.03.46.05.68.07.24.02.47.02.77-.04.12-.01.22.01.29.03-.05.24-.13.47-.16.65-.03.19-.01.31.15.44.02.11.01.23-.01.34-.01.06-.03.11-.04.17-.01.04-.03.07-.04.11-.05.14-.08.28.06.42.25.27-.03.53-.04.79-.02.25-.03.5-.04.73-.13 2.08-.29 3.27-.46 3.27-.18 0-.36-1.47-.5-4-.01-.25-.23-.52-.04-.79 0-.14-.04-.28-.07-.42l-.02-.1c0-.01-.01-.03 0-.04 0-.03.02-.06.05-.1-.11-.01-.14-.02-.14-.06 0-.03.04-.1.07-.17-.01-.02-.02-.03-.05-.03-.07.01-.11-.01-.18-.02h-.1c-.02 0-.03.01-.06.02l-.12.03c-.33.17-.67-.08-1.02.03-.35-.18-.71-.13-1.07.03-.36-.17-.74.04-1.12.03-.38-.26-.77-.08-1.16.03-.39.1-.8-.04-1.21.02-.41-.05-.82.07-1.25.02-.42.12-.85.17-1.28.02-.43.09-.88.02-1.32.02-.45.1-.9-.01-1.35.01-.46.06-.92-.28-1.38.01-.47.04-.94-.05-1.41.01-.47-.04-.96-.08-1.44 0a1.34 1.34 0 0 0-.36-.14c-.08-.01-.07-.02-.09-.02-.02 0-.03 0-.05.01-.06.02-.07.09-.04.15.04.07.05.08.05.1 0 0 0 .01-.01.01 0 .01-.01-.01-.01.07l-.03.36c.03.48.01.96 0 1.44.09.47-.12.95-.01 1.41.06.23.03.46 0 .7l-.02.17-.01.09v.05c0 .02 0 .04.03.05.04.02.07.01.08.01.02-.01.01.02.02.09.02 0 .03.02.05.04l.33.06c.22.04.44.04.66-.08.43-.06.86-.38 1.28.02.42-.1.84.19 1.25.02.41.29.81.01 1.21.02.39.06.78.16 1.16.03.38-.14.75.08 1.12.03.36-.17.72.22 1.07.03.35.04.69-.02 1.02.03.33-.39.65 0 .96.04.31.06.61-.26.91.04.29-.3.58-.04.85.04.27.09.54-.13.79.04.25-.21.5.12.73.04.23.14.45.01.66.05a.91.91 0 0 1 .59.05c.19.02.36.03.52.05.95.12 1.48.23 1.48.34Z" fill="#BF4E70"/></svg>