<svg fill="none" xmlns="http://www.w3.org/2000/svg" viewBox="0 0 94 87"><path d="M32.16 24.53c.01.16-2.12.09-5.85.91-.31.06-.63.16-.96.24-.33.09-.67.16-1.02.28-.35.11-.7.23-1.07.35-.36.13-.74.26-1.13.39-.21.03-.4.1-.59.19-.19.09-.38.2-.56.31-.38.21-.75.44-1.22.52-.21.08-.43.16-.63.26-.21.1-.41.21-.62.33-.21.11-.42.23-.62.36-.2.13-.41.26-.61.4-.21.14-.43.25-.64.38-.22.13-.43.26-.65.39-.44.26-.87.57-1.26.93-.09.11-.18.2-.28.29-.1.09-.2.18-.31.26-.22.16-.46.29-.7.44-.24.14-.47.3-.69.48-.21.18-.41.39-.56.65-.77.84-1.63 1.64-2.43 2.56-.98.76-1.55 1.92-2.24 2.99-.46.46-.86.99-1.16 1.58-.33.58-.55 1.21-.77 1.85-.24.26-.43.55-.61.84-.09.15-.17.3-.25.45-.08.15-.14.32-.2.48-.12.33-.23.66-.31 1-.07.35-.11.71-.14 1.07-.12.33-.21.67-.32 1.01-.1.34-.23.68-.31 1.03-.09.35-.17.7-.24 1.06-.06.36-.1.73-.12 1.09-.21 1.45-.3 2.95-.37 4.47.05.38.11.76.15 1.14.05.38.05.77.09 1.15.03.38.05.77.05 1.16.02.39.03.78.03 1.18.5 1.52.74 3.07 1.09 4.67.09.4.22.79.36 1.17.15.38.34.75.51 1.12l.13.28.14.28c.09.18.19.37.27.56.17.38.35.75.49 1.15.75 1.5 1.72 2.89 2.72 4.29.94 1.43 2.04 2.83 3.51 3.84 1.34 1.14 2.79 2.15 4.22 3.23 1.67.71 3.19 1.64 4.83 2.46 1.71.63 3.43 1.35 5.3 1.55 1.82.4 3.7.41 5.58.53 1.89.08 3.79-.01 5.58-.53.89-.27 1.79-.46 2.68-.69.45-.1.89-.24 1.33-.37.44-.13.87-.3 1.28-.48.22-.05.45-.11.66-.19.21-.08.43-.17.63-.26.21-.09.42-.19.62-.29l.59-.33.59-.34.57-.36c.19-.12.38-.23.58-.35.19-.11.38-.24.58-.34 1.5-.98 3.03-1.93 4.22-3.23 1.26-1.23 2.38-2.54 3.51-3.84.35-.81.85-1.48 1.36-2.16.26-.33.51-.68.74-1.03.12-.17.23-.35.34-.53.1-.18.19-.37.28-.56.92-1.41 1.38-3.03 1.91-4.56.19-.79.47-1.55.67-2.33.05-.19.11-.39.16-.58.04-.19.08-.39.12-.59.03-.2.07-.39.09-.59l.03-.29c.01-.1.01-.2.01-.3.06-.39.1-.78.15-1.17l.06-1.17c.03-.39.02-.77.04-1.16.02-.38.05-.77.07-1.15-.06-.38-.08-.76-.09-1.13-.02-.38-.03-.75-.03-1.13.01-.38-.03-.75-.06-1.12-.03-.37-.08-.74-.19-1.09-.07-.36-.13-.72-.2-1.08l-.24-1.06c-.07-.35-.18-.69-.27-1.04-.09-.34-.17-.69-.28-1.02-.04-.36-.11-.71-.2-1.04-.1-.34-.24-.66-.38-.97a9.91 9.91 0 0 0-.22-.47l-.24-.45c-.16-.3-.31-.6-.47-.9-.29-.61-.63-1.18-.99-1.73-.34-.56-.69-1.1-.95-1.7-.7-1.07-1.33-2.17-2.24-2.99-.21-.22-.38-.47-.56-.71-.18-.24-.35-.49-.53-.73a3.65 3.65 0 0 0-.59-.65c-.22-.19-.46-.36-.74-.47-.23-.17-.43-.37-.63-.57-.2-.2-.38-.42-.58-.6-.2-.19-.4-.38-.62-.55-.11-.08-.22-.16-.34-.23-.12-.07-.24-.12-.37-.17-.51-.2-.92-.51-1.34-.82-.2-.15-.4-.32-.6-.47-.2-.16-.41-.29-.62-.42-.21-.13-.42-.25-.63-.37-.21-.12-.42-.23-.63-.34-.21-.11-.42-.22-.62-.33-.2-.11-.41-.2-.62-.3a30.37 30.37 0 0 0-5.08-1.9c-.38-.1-.75-.19-1.11-.29-.36-.09-.7-.15-1.03-.22-.66-.15-1.27-.23-1.81-.32-1.09-.15-1.93-.25-2.5-.29-.58-.07-.88-.12-.88-.16 0-.05.36-.09 1.07-.12.18 0 .38-.02.6-.01.22.01.46.01.72.02.26.01.54.01.85.04.3.03.62.06.96.09 1.36.15 3.04.41 4.95.96 1.91.55 4.04 1.39 6.27 2.63.22.13.46.23.69.35.23.12.46.25.7.37.47.25.92.57 1.31.97.11.08.23.16.34.23.11.08.23.16.34.24.23.16.46.33.7.49.24.16.46.35.68.54.22.19.43.39.63.62 1.07.59 1.79 1.64 2.59 2.61.85.94 1.55 2.04 2.4 3.08.43.52.8 1.1 1.1 1.72.33.6.61 1.25.99 1.85.12.34.23.68.36 1.01.06.17.13.33.2.49.07.17.13.33.2.5.14.33.29.66.44 1 .14.34.29.67.45 1.01.08.36.16.73.26 1.09.09.36.22.72.31 1.08.1.36.21.73.31 1.1.09.37.16.75.23 1.13.01.39.01.78.04 1.17.03.39.09.77.13 1.16.04.39.1.78.16 1.18.05.39.08.79.12 1.19.04.4.04.81.03 1.21-.01.41-.01.82-.06 1.22-.04.41-.07.82-.11 1.23-.05.41-.1.82-.14 1.24-.29 1.64-.54 3.32-1.1 4.96-.39 1.68-1.03 3.34-1.98 4.85-.73 1.62-1.76 3.12-2.85 4.57-1.01 1.53-2.35 2.82-3.7 4.1-.67.65-1.43 1.21-2.2 1.74-.38.28-.78.53-1.15.82-.38.29-.76.57-1.12.89-1.59 1.05-3.35 1.86-5.13 2.63-1.82.68-3.71 1.2-5.63 1.66-1.99.08-3.93.45-5.94.57-2.01.08-4.01-.15-5.94-.57-1.95-.34-3.84-.92-5.64-1.66-1.85-.64-3.46-1.72-5.13-2.63-.42-.23-.83-.48-1.21-.76s-.77-.56-1.12-.87c-.73-.6-1.42-1.23-2.15-1.82-1.43-1.2-2.73-2.55-3.7-4.1-.54-.73-1.01-1.51-1.45-2.29-.23-.38-.44-.78-.67-1.16-.11-.19-.24-.38-.36-.56a18 18 0 0 0-.37-.56c-.21-.39-.45-.76-.66-1.16-.11-.19-.21-.39-.32-.58L3.3 67c-.05-.1-.09-.2-.14-.3-.18-.4-.35-.81-.48-1.22-.12-.42-.2-.85-.24-1.29-.3-.81-.49-1.65-.63-2.48-.04-.21-.08-.42-.12-.62-.03-.21-.07-.42-.1-.62-.04-.21-.07-.41-.12-.62l-.14-.62c.02-.42.01-.84-.03-1.25-.02-.41-.05-.82-.1-1.22-.06-.4-.08-.81-.11-1.22-.03-.4-.06-.81-.04-1.21.03-.4.05-.8.08-1.2.05-.4.09-.79.13-1.18.03-.39.1-.78.13-1.17.04-.39.07-.77.11-1.16.03-.39.08-.77.16-1.15.09-.37.19-.74.29-1.11.09-.37.23-.72.34-1.08l.33-1.07c.08-.36.19-.72.32-1.06.14-.34.3-.67.46-.99.08-.16.16-.33.24-.49.08-.16.17-.32.24-.48.16-.32.28-.65.4-.99.34-.62.64-1.25 1-1.84.33-.61.71-1.17 1.09-1.72.09-.34.26-.64.43-.92.18-.28.37-.55.6-.78.23-.24.46-.47.69-.7.22-.23.47-.44.68-.68.86-.92 1.51-2.02 2.59-2.61.17-.26.37-.48.58-.68.21-.2.43-.4.67-.56.24-.16.48-.31.72-.46.12-.07.24-.15.36-.22l.36-.21c.48-.28.89-.63 1.34-.93.22-.15.44-.3.66-.44.22-.13.46-.24.7-.33.19-.18.4-.32.62-.44.22-.12.45-.21.68-.3.23-.09.46-.17.68-.27.22-.09.44-.17.65-.29.46-.12.87-.32 1.28-.48.2-.09.4-.17.6-.26.2-.09.4-.16.6-.22.39-.16.78-.3 1.16-.42.38-.1.76-.18 1.13-.24.36-.1.72-.17 1.06-.24.34-.07.67-.15.99-.19 1.92-.34 3.43-.37 4.44-.39 1 .05 1.52.09 1.52.15Z" fill="#BF4E70"/><path d="M32.16 43.57c0 .13-.79.18-2.13.54-.22.06-.46.13-.71.22-.12.05-.25.1-.38.15-.13.06-.26.11-.41.15-.17-.03-.28.1-.4.21-.12.11-.24.22-.44.18-.16.03-.31.11-.46.2-.15.09-.29.2-.43.31-.14.11-.31.18-.47.27-.17.08-.32.2-.43.36-.07.23-.26.29-.47.35-.2.07-.4.16-.43.43-.24.34-.56.61-.85.93-.46.18-.56.69-.78 1.08-.48.23-.63.72-.67 1.23-.54.27-.71.79-.52 1.37-.14.47-.42.94-.33 1.49-.06.52-.05 1.05-.11 1.58.25.54.26 1.06.13 1.64.35.51.36 1.05.4 1.64.01.15.05.28.11.42.06.13.14.25.22.38.16.25.31.49.36.8.26.53.64 1 .97 1.5.27.55.61 1.11 1.24 1.34.5.37 1.04.67 1.49 1.13.68.09 1.15.48 1.7.86.6.19 1.18.57 1.86.54.64.17 1.3.06 1.96.19.66.09 1.35.1 1.96-.19.3-.15.62-.21.93-.27.16-.02.32-.06.47-.1.16-.04.31-.09.45-.17.18.01.33-.03.48-.09.15-.06.29-.14.42-.24.13-.09.26-.19.39-.28.13-.09.26-.17.41-.24.51-.36 1.13-.6 1.49-1.13.42-.46.79-.93 1.24-1.34.01-.37.2-.59.41-.8.11-.1.22-.21.32-.32.1-.11.19-.23.23-.38.43-.45.47-1.07.68-1.6.04-.28.17-.54.26-.81.05-.13.1-.27.12-.41.02-.14.04-.28.01-.42.12-.55-.03-1.1.13-1.64a.941.941 0 0 1-.07-.4c-.01-.13.01-.27.02-.4.02-.13.02-.27.02-.4s-.02-.26-.08-.38c-.08-.51-.23-1-.33-1.49.04-.14.04-.28.02-.4-.03-.12-.08-.24-.14-.35-.12-.22-.29-.41-.4-.62-.19-.45-.6-.74-.67-1.23-.23-.39-.39-.84-.78-1.08-.15-.15-.22-.38-.31-.59-.09-.2-.24-.36-.54-.35-.18-.1-.27-.3-.39-.47-.12-.16-.26-.32-.5-.31-.23 0-.38-.12-.51-.25-.13-.14-.24-.3-.39-.39-.15-.1-.3-.19-.45-.27-.15-.09-.29-.17-.44-.24-1.31-.67-2.46-.96-3.24-1.13-.8-.15-1.24-.21-1.24-.31 0-.09.54-.21 1.58-.17 1.03.05 2.57.31 4.3 1.22.17.09.37.14.56.23.19.08.37.2.48.4.34.24.8.39 1.05.8.54.09.71.61 1.01.98.34.36.55.81.94 1.17.21.17.34.4.44.65.11.24.2.5.38.71.06.57.32 1.05.66 1.54 0 .59.36 1.1.45 1.7-.18.63.08 1.19.19 1.82.11.63-.06 1.26-.09 1.9-.15.63-.17 1.3-.42 1.93-.08.68-.3 1.35-.76 1.89-.24.66-.68 1.22-1.1 1.78-.34.64-.92 1.09-1.43 1.6-.25.27-.58.45-.89.63-.32.19-.62.39-.85.71-.61.43-1.32.7-2 1.03-.72.25-1.46.42-2.2.65-.81-.15-1.53.1-2.32.22-.78.09-1.57-.03-2.32-.22-.76-.12-1.5-.35-2.2-.65-.74-.2-1.31-.74-2-1.03-.35-.14-.64-.39-.9-.64-.27-.25-.52-.51-.83-.71-.59-.43-1.13-.94-1.43-1.6-.21-.28-.36-.61-.51-.93-.08-.15-.15-.31-.25-.45s-.21-.28-.34-.4c-.19-.29-.42-.56-.59-.87-.08-.15-.15-.31-.19-.48-.03-.17-.03-.35.02-.54-.15-.3-.19-.64-.22-.97-.02-.16-.03-.33-.06-.49-.02-.16-.07-.32-.14-.47.06-.17.08-.33.07-.49 0-.16-.02-.32-.04-.47-.03-.16-.06-.31-.08-.47-.03-.16-.05-.31-.04-.47.06-.63.23-1.21.19-1.82-.05-.62.32-1.14.45-1.7 0-.15.04-.29.1-.42.06-.13.14-.25.22-.37.15-.24.32-.46.34-.75.28-.47.48-.96.82-1.36-.03-.33.13-.55.32-.71.2-.16.44-.29.62-.46.35-.32.46-.9 1.01-.98.07-.27.23-.43.43-.54.2-.1.42-.17.62-.26.2-.08.35-.23.51-.36.16-.13.32-.25.54-.27.11-.19.3-.26.49-.3.19-.04.38-.06.52-.17.38-.01.64-.26.96-.34.14-.08.29-.13.43-.17.15-.03.3-.05.44-.05.28-.06.54-.1.78-.13 1.49-.16 2.29.02 2.28.12Z" fill="#BF4E70"/><path d="M32.18 43.59c-.12 0-.23-.21-.33-.6-.02-.07-.03-.13-.05-.21a.456.456 0 0 1-.05-.23c.15-.08-.28-.17-.05-.26.07-.09.01-.19-.05-.29-.05-.1.1-.21-.04-.31-.3-.11.33-.22-.04-.34-.08-.12-.06-.24-.04-.36.23-.12 0-.25-.04-.38.28-.13.16-.27-.03-.4.38-.14.32-.28-.03-.43-.01-.14.14-.29-.03-.44-.02-.15-.09-.3-.03-.46-.25-.16-.24-.32-.03-.48-.27-.16-.16-.33-.02-.5.15-.17-.24-.34-.02-.51.02-.17-.06-.35-.02-.52.11-.18.24-.36-.01-.54-.07-.18-.16-.36-.01-.55-.29-.19-.16-.37-.01-.56-.05-.19.16-.38 0-.57.04-.19-.13-.38 0-.58.09-.19.17-.39 0-.58-.18-.19.08-.38 0-.57.27-.19-.09-.38.01-.56-.03-.19.16-.37.01-.55-.05-.18-.1-.36.01-.54-.42-.18.11-.35.02-.53.18-.17-.03-.34.02-.51-.08-.17.19-.33.02-.49.03-.16-.13-.32.03-.48-.21-.16.17-.31.03-.46 0-.15-.01-.3.03-.44.32-.14.06-.29.03-.42.03-.14-.19-.27.03-.4.03-.13.17-.26.04-.38-.05-.12.47-.24.04-.36-.08-.12.33-.23.04-.34-.27-.11.03-.21.04-.31.02-.1.03-.2.05-.29.14-.83.3-1.3.48-1.3.19 0 .37.58.52 1.59.01.1.24.2.04.31 0 .11.17.22.04.34.3.12.06.24.04.36.01.12-.08.25.04.38.18.13-.09.27.04.4-.18.14-.14.28.03.42-.18.15.04.29.03.44-.28.15-.08.31.03.46.1.16-.04.32.03.48-.05.16.07.33.02.49.13.17.18.34.02.51.09.17.02.35.02.53.11.18-.01.36.01.54.06.18-.3.36.01.55.04.18-.05.37.01.56-.04.19-.08.38.01.57-.3.19-.12.39 0 .58.09.2.04.39 0 .58.03.19.01.38-.01.57.09.19-.13.38-.01.56.13.18-.14.37-.01.55.09.18.14.36-.01.54 0 .18-.28.35-.02.52.06.17.4.34-.02.51.11.17-.2.33-.02.5-.31.16-.02.32-.03.48-.06.16-.16.31-.03.46.15.15-.08.3-.03.44.18.15-.23.29-.03.43-.04.14.03.27-.04.4.42.13 0 .26-.04.38-.06.12.28.24-.04.36.32.12.04.23-.04.34-.09.11.13.21-.04.31.22.1-.12.2-.05.29-.15.09-.01.18-.05.26.05.08.03.16-.05.23-.02.07-.03.14-.05.21-.1.39-.21.6-.32.6ZM41.89 49.21c-.06-.1.07-.3.35-.59l.15-.15c.05-.06.1-.13.18-.16.15.09.01-.33.2-.17.11.01.17-.09.23-.18.06-.1.23-.02.25-.2-.06-.31.36.18.27-.2.06-.13.18-.17.29-.22.22.14.22-.12.31-.23.25.17.31 0 .33-.23.31.26.4.14.35-.24.12-.08.32-.03.37-.25.12-.1.22-.24.39-.26.01-.3.15-.37.4-.26 0-.32.2-.31.42-.27.22.05.17-.37.43-.27.16-.07.27-.23.44-.28.21.01.43.03.46-.28.12-.15.24-.32.47-.29.02-.34.24-.32.48-.29.14-.14.41-.05.49-.29.19-.06.27-.3.5-.29.21-.02.42-.05.5-.29.07-.26.37-.12.5-.28.3.14.28-.26.49-.27.15-.12.4-.05.48-.26.13-.13.26-.27.47-.26-.06-.45.36-.08.46-.25.24.07.28-.19.45-.24.11-.15.38 0 .44-.23.16-.05.21-.28.43-.22.03-.26.36 0 .41-.21.13-.07.25-.16.4-.19.29.21.27-.1.38-.18.14-.04.14-.3.37-.17.13-.04.31.02.35-.16.08-.1.45.29.33-.15.06-.13.36.17.31-.13-.04-.29.2-.08.29-.12.09-.04.19-.07.27-.1.79-.29 1.28-.39 1.37-.23.1.17-.32.62-1.12 1.25-.08.06-.06.31-.25.2-.09.05-.1.26-.27.21.05.32-.18.17-.29.22-.1.07-.26.05-.31.22-.03.22-.27.06-.33.23-.21-.09-.31.02-.35.24-.22-.09-.23.18-.37.25-.27-.16-.31.08-.39.26-.09.17-.3.12-.4.26-.17.03-.25.23-.42.27-.08.2-.2.32-.43.27-.1.16-.29.19-.45.28-.1.18-.32.17-.46.28-.13.14-.46-.07-.47.28-.14.13-.35.14-.48.29-.18.06-.37.12-.49.29-.32-.17-.39.09-.5.29-.13.17-.31.23-.5.29-.15.12-.32.2-.5.28-.12.17-.39.07-.49.27-.1.2-.39.07-.48.26-.11.17-.24.3-.47.26-.15.09-.44-.06-.46.25-.12.14-.09.52-.45.24-.09.18-.39-.01-.44.23-.3-.19-.29.15-.43.22-.17.03-.35.01-.42.21-.06.2-.3.08-.4.2-.04.23-.36-.06-.38.18-.14.03-.22.16-.37.17.09.43-.23.13-.35.16-.14.01-.07.36-.33.15.06.33-.18.15-.31.13-.14-.03-.12.22-.29.12.02.24-.23-.01-.27.1-.15-.08-.16.08-.25.09-.05.08-.13.11-.23.08-.07.02-.14.04-.2.06-.37.09-.6.1-.66 0ZM41.87 60.42c.06-.1.3-.09.68.01.06.02.13.04.2.06.08.01.16.02.23.08-.01.17.29-.16.25.09.05.11.16.1.27.1.11 0 .13.19.29.12.24-.2.03.4.31.13.14-.01.23.07.33.15-.01.26.22.13.35.16-.02.3.15.27.37.17-.07.4.08.42.38.18.13.06.19.26.4.2.14.05.31.07.41.21.26-.14.4-.05.43.22.28-.15.36.02.44.23.07.22.41-.04.45.24.14.1.33.12.46.25.1.19.19.38.47.26.19.03.39.05.48.26.31-.16.4.05.49.27.19.05.25.32.5.28.14.14.4.08.5.29.13.17.25.34.5.29.26-.06.29.26.49.29.03.33.37.11.48.29.17.07.24.32.47.29.18.05.36.09.46.28.36-.27.25.27.44.28.06.24.31.15.43.27.18.02.19.33.42.27.12.11.35.04.4.26.24-.1.18.31.39.26.13.08.27.14.37.25-.04.35.22.19.35.24.1.1.33-.02.33.23.1.09.14.28.31.23.13.02-.02.53.29.22.14-.01.03.4.27.2.23-.18.17.14.25.2.08.06.16.13.23.18.64.54.97.91.89 1.07-.1.17-.69.03-1.64-.34-.09-.04-.3.11-.29-.12-.09-.06-.28.04-.31-.13-.25.2-.23-.07-.33-.15-.12-.05-.18-.2-.35-.16-.2.09-.19-.21-.37-.17-.03-.23-.17-.26-.38-.18-.03-.23-.27-.11-.4-.2.01-.32-.22-.22-.42-.21-.19.01-.25-.19-.43-.22-.11-.13-.32-.1-.44-.23-.21.03-.38-.01-.45-.24-.19-.01-.31-.16-.46-.25-.21.01-.3-.19-.47-.26-.19-.04-.17-.44-.48-.26-.18-.06-.3-.23-.49-.27-.14-.13-.29-.26-.5-.28-.02-.36-.28-.29-.5-.29-.21-.02-.36-.16-.5-.29-.18-.07-.34-.18-.49-.29-.21-.02-.26-.3-.48-.29-.23.02-.25-.3-.47-.29-.2-.01-.38-.06-.46-.28-.15-.09-.17-.42-.45-.28-.18-.04-.5.18-.43-.27-.2.01-.19-.34-.42-.27.01-.35-.27-.17-.4-.26-.11-.13-.19-.3-.39-.26-.2.05-.22-.22-.37-.25-.21.08-.13-.34-.35-.24-.1-.1-.25-.11-.33-.23-.32.29-.22-.13-.31-.22-.08-.11-.35.12-.29-.22-.26.22-.22-.08-.27-.2-.05-.13-.25.01-.25-.2-.2.14-.11-.21-.23-.18-.01-.17-.15-.1-.2-.17-.1 0-.16-.05-.18-.16-.06-.05-.11-.1-.15-.15-.26-.3-.39-.5-.33-.6ZM32.15 66.01c.12 0 .23.21.33.6.02.06.03.13.05.21.03.07.06.15.05.23-.15.08.28.17.05.26-.07.09 0 .19.05.29.05.1-.1.2.04.31.3.11-.33.22.04.34.08.12.06.24.04.36-.23.12 0 .25.04.38-.28.13-.16.27.04.4-.38.14-.32.28.03.42.01.14-.14.29.03.44.03.15.1.3.03.46.25.16.24.32.03.48.27.16.16.33.02.49-.15.17.24.34.02.51-.02.17.06.35.02.52-.11.18-.24.36.01.54.07.18.16.36.01.55.29.18.16.37.01.56.05.19-.16.38 0 .57-.04.19.13.38 0 .58-.09.19-.17.39 0 .58.18.19-.08.38 0 .57-.27.19.09.38-.01.56.03.18-.16.37-.01.55.05.18.1.36-.01.54.42.18-.11.35-.02.52-.18.17.03.34-.02.51.08.17-.19.33-.02.5-.03.16.13.32-.03.48.21.16-.18.31-.03.46 0 .15.01.3-.03.44-.33.14-.06.29-.03.42-.03.14.19.27-.04.4-.03.13-.17.26-.04.38.05.12-.47.24-.04.36.08.12-.33.23-.04.34.27.11-.03.21-.04.31-.02.1-.03.2-.05.29-.14.83-.3 1.3-.48 1.3-.19 0-.37-.58-.52-1.59-.02-.1-.24-.21-.04-.31 0-.11-.17-.22-.04-.34-.3-.12-.06-.24-.04-.36-.02-.12.08-.25-.04-.38-.17-.13.09-.27-.04-.4.19-.14.14-.28-.03-.42.18-.14-.04-.29-.03-.44.28-.15.08-.3-.03-.46-.1-.16.04-.32-.03-.48.05-.16-.07-.33-.02-.5-.13-.17-.18-.34-.02-.51-.09-.17-.02-.35-.02-.52-.11-.18.01-.36-.01-.54-.06-.18.3-.36-.01-.55-.04-.19.05-.37-.01-.56.04-.19.08-.38 0-.57.3-.19.12-.39 0-.58-.09-.2-.04-.39 0-.58-.03-.19-.01-.38 0-.57-.09-.19.13-.37.01-.56-.13-.19.14-.37.01-.55-.09-.18-.14-.36.01-.54 0-.18.28-.35.02-.52-.06-.17-.4-.34.02-.51-.11-.17.2-.33.02-.49.31-.16.02-.32.03-.48.06-.16.16-.31.03-.46-.15-.15.08-.3.03-.44-.18-.14.23-.29.03-.42.04-.14-.03-.27.04-.4-.42-.13 0-.26.04-.38.06-.12-.28-.24.04-.36-.32-.12-.04-.23.04-.34.09-.11-.13-.21.04-.31-.22-.1.12-.2.05-.29.15-.09.01-.18.05-.26-.05-.08-.03-.16.05-.23.02-.07.03-.14.05-.21.09-.39.2-.6.32-.6ZM22.44 60.39c.06.1-.07.3-.35.59-.05.05-.1.1-.16.15-.05.06-.1.13-.18.16-.15-.09-.01.33-.2.17-.11-.01-.17.09-.23.18-.06.1-.23.02-.25.2.06.31-.36-.18-.27.2-.06.13-.18.17-.29.21-.22-.14-.22.13-.31.23-.25-.17-.31 0-.33.23-.31-.26-.4-.14-.35.24-.12.08-.32.03-.37.25-.12.1-.22.24-.39.26-.01.3-.15.37-.4.26 0 .32-.2.31-.42.27-.22-.05-.17.37-.43.27-.16.07-.27.23-.45.28-.21-.01-.43-.03-.46.28-.12.15-.24.32-.47.29-.02.34-.24.32-.48.29-.14.14-.41.05-.49.29-.19.06-.27.3-.5.29-.21.02-.42.05-.5.29-.07.26-.37.13-.5.28-.3-.14-.28.26-.49.27-.15.12-.4.05-.48.27-.13.13-.26.27-.47.26.05.45-.36.08-.46.25-.24-.07-.28.19-.45.24-.11.15-.38 0-.44.23-.16.05-.21.28-.43.22-.03.26-.36 0-.41.21-.13.07-.25.16-.4.2-.29-.21-.28.09-.38.18-.14.04-.15.3-.37.17-.13.04-.31-.02-.35.16-.08.1-.45-.29-.33.15-.06.13-.37-.17-.31.13.04.29-.2.08-.29.12-.09.04-.19.07-.27.1-.79.29-1.28.39-1.37.24-.1-.17.32-.62 1.11-1.25.08-.06.06-.31.25-.2.09-.05.1-.26.27-.2-.05-.32.18-.17.29-.22.1-.07.26-.05.31-.22.03-.22.27-.06.33-.23.21.09.31-.02.35-.24.22.08.23-.18.37-.25.27.17.31-.08.39-.26.08-.17.29-.12.4-.26.17-.03.25-.23.42-.27.08-.2.2-.32.43-.27.11-.16.29-.19.45-.28.1-.18.32-.17.46-.28.13-.14.46.07.47-.29.14-.13.35-.14.48-.29.18-.06.37-.12.49-.29.32.17.39-.09.5-.29.13-.17.31-.23.5-.29.15-.12.32-.2.5-.28.12-.17.39-.08.49-.27.09-.2.39-.06.48-.26.11-.17.25-.3.47-.26.15-.09.44.06.46-.25.12-.14.1-.52.45-.24.09-.18.39.01.44-.23.3.19.29-.15.43-.22.17-.03.35-.01.42-.21.06-.2.3-.08.4-.2.04-.23.36.06.38-.18.14-.03.22-.16.37-.17-.09-.43.23-.13.35-.16.14-.01.07-.36.33-.15-.06-.33.18-.15.31-.13.14.03.12-.22.29-.12-.02-.24.23.01.27-.1.15.08.16-.08.25-.09.05-.08.13-.11.23-.07.07-.02.14-.04.2-.06.39-.12.63-.13.69-.03ZM22.45 49.18c-.06.1-.3.09-.68-.01-.06-.02-.13-.04-.21-.06a.476.476 0 0 1-.23-.07c0-.17-.29.16-.25-.09-.05-.11-.16-.1-.27-.1-.11 0-.13-.19-.29-.12-.24.2-.03-.4-.31-.13-.14.01-.23-.07-.33-.15.01-.26-.22-.13-.35-.16.02-.31-.15-.27-.37-.17.07-.4-.08-.42-.38-.18-.13-.06-.19-.26-.4-.19-.14-.05-.31-.07-.41-.21-.26.14-.4.05-.43-.22-.28.15-.37-.02-.44-.23-.07-.21-.41.04-.45-.24-.14-.1-.33-.12-.46-.25-.1-.18-.19-.38-.47-.26-.19-.03-.4-.05-.48-.27-.31.16-.4-.05-.49-.27-.19-.05-.25-.32-.5-.28-.14-.13-.4-.08-.5-.29-.12-.17-.25-.34-.5-.29-.26.07-.29-.26-.49-.29-.03-.33-.37-.11-.48-.29-.17-.07-.24-.32-.47-.28-.18-.05-.36-.09-.46-.28-.36.27-.25-.27-.45-.28-.06-.24-.31-.15-.43-.27-.18-.02-.19-.33-.42-.27-.12-.11-.35-.04-.4-.26-.24.1-.18-.31-.39-.26-.13-.08-.26-.14-.37-.25.04-.35-.22-.19-.35-.24-.1-.1-.33.02-.33-.23-.1-.09-.14-.28-.31-.22-.13-.02.03-.53-.29-.22-.14.01-.03-.4-.27-.2-.23.18-.17-.14-.25-.2-.08-.06-.15-.13-.23-.18-.65-.54-.97-.91-.89-1.07.1-.17.69-.03 1.64.34.09.04.3-.11.29.12.09.06.28-.04.31.13.25-.2.23.07.33.15.12.05.18.2.35.16.2-.09.19.21.37.17.03.23.17.26.38.18.04.23.27.11.4.19-.01.32.22.22.42.21.19-.01.25.2.43.22.11.13.32.1.44.23.21-.03.38.01.45.24.19.01.31.16.46.25.21-.01.3.19.47.26.19.04.17.44.48.26.18.06.3.23.49.27.14.13.29.26.5.28.02.36.28.29.5.29.21.02.36.16.5.29.18.07.34.18.49.29.21.02.26.3.48.29.22-.02.25.31.47.29.2.02.38.06.46.28.15.09.17.41.44.28.18.04.5-.18.43.27.2-.01.19.34.42.27-.01.35.27.17.4.26.11.13.19.3.39.26.2-.05.22.22.37.25.21-.08.13.34.35.24.1.1.25.11.33.23.32-.3.22.13.31.22.08.11.35-.12.29.22.26-.21.22.08.27.21.05.13.25-.01.25.2.2-.14.11.2.23.18.01.17.15.1.2.17.1 0 .15.05.18.16.06.05.11.1.15.15.29.27.42.47.36.57Z" fill="#BF4E70"/><path d="M32.16 24.53c0 .11-1.52.25-4.32.22-.46 0-.97-.03-1.5-.04-.54 0-1.11-.03-1.7-.09-.58-.22-1.26.16-1.9-.16-.33-.08-.67-.12-1.01-.15l-1.07-.09c-.37-.02-.73-.11-1.1-.19-.37-.07-.75-.14-1.16-.15-.84.15-1.51-.64-2.42-.46-.85-.11-1.7-.35-2.56-.63-.2-.12-.41-.21-.63-.28-.22-.08-.44-.14-.67-.2-.46-.11-.92-.21-1.39-.35-.81-.59-1.76-.84-2.77-1.12-.76-.79-1.68-1.2-2.78-1.53-.23-.15-.45-.32-.67-.49-.22-.17-.42-.37-.64-.55-.21-.19-.41-.39-.63-.58-.21-.2-.42-.4-.65-.6l-.28-.35-.14-.18c-.05-.06-.09-.13-.13-.19l-.26-.39c-.08-.14-.15-.28-.22-.42-.16-.28-.24-.6-.35-.91-.06-.33-.15-.65-.14-.99l-.06-.25c-.02-.08-.03-.17-.04-.25-.01-.17-.02-.35-.02-.52 0-.17.04-.35.06-.52.01-.09.03-.17.05-.26l.08-.25c.2-.67.6-1.24 1.06-1.72.14-.3.3-.6.51-.85.1-.13.2-.26.32-.38.12-.11.23-.23.35-.34.24-.23.51-.4.77-.59.27-.18.55-.34.83-.5.29-.15.56-.31.82-.5.27-.17.53-.35.79-.54.27-.17.54-.34.83-.49.29-.14.59-.26.9-.35 1.18-.51 2.36-1.04 3.62-1.41 1.28-.3 2.57-.53 3.8-1.07 1.28-.37 2.59-.73 3.95-.8 1.29-.51 2.68-.57 4.06-.56 1.37-.2 2.77-.1 4.16-.33 1.4-.03 2.81-.23 4.23-.11 1.42.1 2.83.2 4.23.11 1.41-.11 2.78.25 4.16.33 1.34.41 2.74.24 4.06.56 1.35.19 2.62.64 3.95.8 1.3.25 2.6.56 3.8 1.07.34 0 .67.06.98.16.31.1.61.23.9.38.58.29 1.13.65 1.74.87 1.09.69 2.31 1.11 3.34 1.88.27.18.53.36.77.57.24.22.48.42.7.66l.33.35c.11.12.21.24.32.36.22.23.43.49.66.72.36.55.73 1.11.94 1.76l.09.24.06.25c.03.17.08.33.09.5.01.17.02.34.01.51 0 .09-.01.17-.02.25-.01.08-.03.17-.04.25.05.34-.03.67-.1 1-.11.31-.22.63-.4.89-.08.14-.16.28-.24.41-.09.13-.18.25-.27.38-.04.06-.08.13-.13.19l-.14.18c-.09.12-.17.25-.25.38-.77.92-1.65 1.65-2.58 2.23-.27.08-.52.19-.76.32-.24.12-.47.25-.69.4l-.66.42c-.22.14-.44.27-.67.39-.93.41-1.78.99-2.77 1.11-.46.15-.92.27-1.37.39-.23.06-.45.13-.67.2-.22.07-.43.15-.64.24-.86.3-1.84.01-2.56.63-.81.27-1.7.03-2.42.46-.36.21-.75.27-1.13.29-.38.02-.76.01-1.12.05-.36.05-.72.09-1.06.13-.35.04-.69.07-1.02.11-2.99.29-5.35.32-6.96.29-.8-.01-1.42-.05-1.83-.09-.39-.04-.61-.08-.61-.12 0-.05.26-.1.77-.15.25-.03.57-.05.94-.08s.8-.06 1.29-.1c.49-.04 1.03-.09 1.63-.14.6-.07 1.25-.12 1.94-.2 1.4-.15 3-.37 4.77-.67.36-.06.71-.18 1.07-.28.36-.09.74-.17 1.13-.14.76-.14 1.51-.48 2.35-.54.74-.48 1.62-.45 2.48-.69.21-.07.43-.12.64-.18.21-.06.43-.13.65-.19.44-.13.87-.29 1.28-.5.81-.48 1.79-.59 2.61-1.13.95-.25 1.83-.77 2.55-1.47.93-.41 1.59-1.23 2.21-1.98.1-.07.2-.16.29-.24.05-.04.09-.09.14-.13.04-.05.08-.09.11-.15.07-.1.14-.2.21-.31.06-.11.1-.22.15-.33l.07-.17c.02-.06.03-.12.05-.18.03-.12.05-.23.08-.35.01-.24.05-.47.02-.7 0-.06-.01-.12-.01-.17 0-.06 0-.11-.01-.17-.01-.11-.03-.23-.03-.34-.01-.11-.04-.22-.06-.34l-.03-.17-.05-.17c-.12-.46-.36-.91-.67-1.31-.15-.21-.3-.43-.49-.62-.09-.1-.18-.2-.28-.29l-.31-.27c-.2-.19-.43-.34-.64-.52-.22-.17-.46-.33-.68-.51-1.01-.54-2.06-1.05-3.09-1.69-1.13-.41-2.25-.91-3.44-1.3-1.22-.28-2.41-.74-3.67-1-1.26-.24-2.47-.84-3.83-.75-1.3-.18-2.61-.44-3.96-.52-1.33-.19-2.68-.33-4.06-.31-1.35-.38-2.75-.22-4.14-.11-1.39.1-2.77.07-4.13.11-1.37.1-2.72.19-4.06.31-1.33.23-2.67.19-3.96.52-1.28.34-2.6.33-3.83.75-1.23.38-2.43.76-3.67 1-1.18.38-2.45.57-3.44 1.3-.27.14-.52.3-.77.46-.25.17-.49.34-.74.49-.24.16-.49.31-.75.43-.25.13-.52.24-.82.31-.21.19-.45.35-.67.52-.22.17-.46.32-.67.5l-.32.26c-.1.09-.19.19-.28.29-.19.19-.33.42-.45.65-.41.33-.69.79-.79 1.27l-.05.18-.02.18c-.01.12-.03.24-.03.35 0 .12.01.23 0 .35 0 .06 0 .11.01.17.01.06.01.11.01.17-.02.23.04.46.06.69l.09.34c.02.06.03.12.05.17l.07.17c.05.11.09.22.15.33.06.1.13.21.2.31.03.05.07.1.1.15l.12.14c.08.09.17.18.25.27.19.16.36.33.53.51.18.17.34.35.52.52.18.17.35.35.55.5.2.16.39.31.6.44.23.1.45.23.65.37.21.13.41.28.61.43.2.15.41.28.62.4.21.12.44.22.68.28.86.46 1.77.75 2.61 1.13.51-.04.93.11 1.35.3.21.1.41.21.61.31s.41.19.62.26c.83.31 1.74.19 2.48.69.88-.12 1.6.31 2.35.54.37.12.75.15 1.13.19.37.04.73.09 1.08.23.37-.06.71.02 1.05.12.33.09.66.2.99.2.64.23 1.28.15 1.86.25.6 0 1.16.07 1.68.19.53.05 1.02.11 1.48.14 2.79.21 4.31.29 4.31.42ZM74.67 21.59c.13-.01.33 1.51.56 4.29.04.46.08.96.12 1.5.06.53.12 1.1.13 1.7-.15.61.38 1.22.13 1.89-.05.67.05 1.36.14 2.08.09.72-.05 1.49.14 2.27.38.77-.31 1.62.15 2.44.13.84.14 1.71.16 2.61-.23.91.07 1.82.16 2.77-.28.96-.1 1.93.16 2.92-.39 1.02-.28 2.04.17 3.07.06 1.05-.07 2.12.17 3.21.07 1.09.2 2.2.17 3.34.34 1.12.37 2.28.17 3.46.36 1.16.29 2.36.18 3.58-.12 1.22.37 2.43.18 3.69.03 1.25.18 2.51.18 3.79-.07 1.29-.16 2.59.18 3.89.13 1.31.29 2.63.18 3.97.1.33.16.66.21 1 .02.17.04.33.05.5l.01.25.01.23c.02.62.01 1.24.06 1.85.08.29.16.58.25.84.09.27.19.52.31.72.12.2.27.36.31.36.06.03.15 0 .17-.06.01 0 .03-.01.04-.02.01 0 .04-.04.07-.06.03-.02.06-.07.09-.11.03-.04.06-.08.09-.14.12-.2.23-.45.32-.72.18-.55.3-1.16.45-1.79.06-.32.12-.64.15-.97.04-.33.07-.69.09-1.04.04-.7.04-1.4-.02-2.09-.16-1.4.2-2.76.18-4.13.37-1.35.01-2.72.18-4.06.02-1.34.29-2.66.18-3.97 0-1.31-.01-2.61.18-3.89-.42-1.3.23-2.54.18-3.79.26-1.24.07-2.48.18-3.69-.04-1.22.32-2.4.17-3.58.09-1.17-.06-2.33.17-3.46-.19-1.14.29-2.24.17-3.34.05-1.09.07-2.16.17-3.21.42-1.03.15-2.07.17-3.07.08-1-.13-1.98.16-2.92.07-.95.27-1.87.16-2.77-.02-.9.61-1.75.15-2.61-.06-.85.45-1.64.15-2.44-.27-.8.1-1.54.14-2.27l.03-.53c.01-.08.01-.17.02-.25l.01-.14c.02-.2.04-.4.05-.59h-.01l-.62-.03-.95-.03c-.67-.02-1.29-.04-1.87-.06-1.16-.04-2.15-.09-2.96-.14-1.6-.09-2.46-.19-2.46-.29 0-.1.86-.2 2.47-.29.8-.05 1.8-.09 2.96-.14a410.33 410.33 0 0 1 3-.09l1.59-.03-.06 2.66c-.01.73.22 1.49-.04 2.27-.03.78.13 1.61-.05 2.44.31.86-.01 1.72-.06 2.61-.02.9-.17 1.82-.07 2.77.16.96-.18 1.92-.08 2.92-.25.99-.24 2.02-.09 3.07-.25 1.04-.04 2.12-.1 3.21-.36 1.08-.19 2.2-.11 3.34.07 1.14-.14 2.29-.11 3.46-.11 1.17-.02 2.37-.12 3.58.1 1.22.1 2.45-.13 3.69.05 1.25-.08 2.51-.14 3.79.07 1.29-.12 2.58-.14 3.89.01 1.31-.45 2.62-.15 3.98-.01 1.34-.17 2.69-.16 4.06-.1 1.36-.2 2.74-.16 4.13-.2.69-.26 1.38-.27 2.08 0 .35.02.69.03 1.06.02.37.02.75.01 1.14a7.77 7.77 0 0 1-.49 2.32c-.15.39-.34.78-.62 1.16-.07.1-.14.19-.23.28-.08.09-.16.19-.27.28-.1.09-.19.18-.34.27-.07.05-.14.09-.2.13-.07.04-.15.07-.22.11-.29.15-.62.21-.94.22-.32-.01-.65-.07-.94-.22-.15-.07-.29-.15-.42-.24-.15-.1-.23-.18-.33-.28-.1-.09-.18-.19-.26-.28-.08-.1-.15-.19-.22-.29-.26-.38-.44-.77-.58-1.15-.15-.38-.24-.76-.33-1.13-.22-.74-.27-1.48-.28-2.2-.01-.37 0-.69-.01-1.03-.01-.34-.04-.67-.08-1.01-.2-1.33.05-2.67-.15-3.97-.16-1.31-.26-2.6-.14-3.89-.05-1.28.21-2.56-.14-3.79-.12-1.24-.56-2.46-.13-3.69-.17-1.21.13-2.42-.12-3.58.31-1.19-.08-2.33-.11-3.46.02-1.14.09-2.25-.1-3.34-.22-1.08 0-2.17-.1-3.21-.25-1.04.18-2.08-.09-3.07 0-1-.11-1.97-.08-2.93-.52-.93-.08-1.87-.07-2.77.03-.9-.39-1.76-.06-2.61-.4-.83-.12-1.65-.05-2.44.07-.79-.22-1.54-.04-2.27-.28-.72.08-1.43-.03-2.09.14-.67-.04-1.3-.02-1.9a6.48 6.48 0 0 1-.02-1.7v-1.5c-.03-2.76.03-4.28.17-4.29Z" fill="#BF4E70"/><path d="M74.67 21.59c.13-.01.28.39.43 1.13.02.12.05.26.07.4.04.14.08.29.08.45-.17.17.34.31.08.5-.07.18.01.36.08.55.07.19-.09.4.08.6.35.19-.36.44.07.65.1.22.09.45.08.69-.25.25.02.48.07.74-.31.27-.16.52.07.78-.42.28-.34.55.07.81.01.14-.02.28-.03.42 0 .07 0 .14.01.22l.03.11c.02.03.03.03.06.04.02.04.04.07.06.1.02.03.02.06-.02.13.07-.04.12-.07.15-.1.14-.11.06-.06.05.13.1-.16.1-.2.12-.19 0 0 .02 0 .04.01l.06.01c.04.01.08.02.12.04.08.03.16.07.24.11.32.17.65-.27.98-.02.33.02.67-.07 1.01-.02.34.13.69.27 1.04-.02.35-.08.7-.18 1.06-.01.36-.33.72-.19 1.08-.01.18-.03.36.02.55.05l.07.01c.03 0 .02.01.02.01.01 0 .02.01.03 0 .02-.01.03-.03.03-.07.06.03.05-.04.06-.05-.01-.02 0-.02.05-.01s.1-.01.11-.05v-.05c0-.01-.01 0-.01-.03a.985.985 0 0 0-.08-.28c-.2-.38.12-.73.05-1.1.33-.35-.07-.73.05-1.08-.02-.36.21-.7.06-1.06-.04-.35-.09-.7.06-1.03-.46-.36.15-.67.06-1.01.22-.32 0-.66.06-.98a.591.591 0 0 1 0-.23l.06-.06c.04-.04.08-.12-.02-.11.03-.06-.04-.06-.05-.09-.03.01-.03-.01-.01-.08-.13.12-.1.07-.12.01-.01-.06-.06-.13-.11-.04h-.38c-.14 0-.28-.01-.42-.04-.28-.37-.55-.06-.82-.04-.27-.04-.53.21-.78-.04-.25-.03-.5-.2-.74-.05-.24.06-.47-.54-.69-.04-.22.09-.44-.38-.65-.05-.21.31-.41-.04-.6-.05-.19-.02-.38-.03-.56-.05-1.59-.16-2.5-.35-2.5-.55 0-.22 1.13-.43 3.06-.6.19-.02.39-.28.6-.05.21 0 .43-.2.65-.05.22-.35.46-.06.69-.05.24-.02.49.1.74-.04.25-.2.51.1.78-.04.27.21.54.16.82-.04.14.1.28.09.42.06.07-.02.14-.04.22-.06.08-.02.12-.03.27-.03.24.16.45.18.7.15.25-.03.55-.12.87-.18.23-.04.45-.05.64-.04-.03.36-.09.73-.05 1.05-.04.29-.03.56-.02.84 0 .14.01.29.01.43 0 .1 0 .16-.02.25.14.33.18.66-.02.98.09.34-.01.67-.02 1.01.11.35-.04.69-.03 1.04.05.35-.37.69-.03 1.06.03.36-.08.71-.04 1.08-.06.36-.12.73-.04 1.1-.09.09-.15.18-.18.27a.25.25 0 0 0-.02.1c0 .04-.01.08-.01.12 0 .08-.01.16 0 .24.01.33.09.7.14 1.1.02.26.03.53.02.78-.47.01-.97-.02-1.44-.06-.17.01-.34.01-.52.02h-.45c-.18 0-.37-.01-.55-.02-.36.1-.72-.15-1.08-.01-.36.15-.71-.16-1.06-.01-.35.1-.69.16-1.04-.02-.34 0-.68-.32-1.01-.02-.33.07-.66.46-.98-.02-.08.03-.16.03-.24.02l-.12-.03-.06-.02c-.02-.01-.04-.01-.08-.02-.29-.05-.53-.09-.85.02-.16-.14-.32-.17-.53-.16-.2.01-.44.06-.67.1-.03-.1-.05-.22-.05-.34.02-.3.06-.58.07-.84.01-.26-.01-.49-.1-.73-.02-.06-.04-.13-.05-.18a.36.36 0 0 1-.02-.11c0-.07.01-.14.02-.22.03-.14.08-.29.04-.42-.22-.27.24-.56 0-.82.04-.27-.05-.52.01-.78-.49-.23-.02-.5.01-.74.06-.24-.33-.46.02-.7-.37-.21-.07-.44.02-.65.1-.21-.17-.4.02-.61-.26-.18.13-.38.03-.56.16-.18 0-.35.03-.51a.478.478 0 0 1 .04-.45c.02-.14.03-.28.04-.4.13-.78.24-1.19.38-1.2Z" fill="#BF4E70"/><path d="M74.7 21.58c-.11.07-.64-.54-1.49-1.72-.14-.2-.29-.41-.45-.63-.17-.22-.36-.45-.51-.73-.01-.36-.61-.38-.56-.82-.11-.34-.36-.61-.61-.9-.25-.29-.31-.72-.66-.98-.51-.17-.11-.91-.7-1.06-.31-.33-.52-.73-.75-1.14-.02-.53-.49-.81-.79-1.21.01-.59-.37-.95-.82-1.28.1-.67-.23-1.09-.86-1.34-.15-.23-.26-.48-.39-.73-.03-.06-.07-.12-.1-.18l-.08-.12-.09-.15c-.06-.1-.13-.19-.2-.29-.05-.05-.03-.11-.04-.16-.01-.06-.02-.12-.02-.17 0-.12 0-.24.02-.37l.02-.19.02-.15c.04-.18.07-.37.14-.55.12-.36.31-.68.55-.96.19-.76.77-1.29 1.46-1.5.37-.66 1.06-.92 1.74-1.07.34-.07.62-.27.92-.45.29-.18.6-.35.97-.34.66-.2 1.3-.47 1.99-.57.71-.03 1.41-.01 2.07-.39.69-.17 1.4-.35 2.14-.22.7-.38 1.46-.25 2.19-.06.74-.04 1.47.22 2.23.11.74.12 1.52.02 2.25.29.74.23 1.45.49 2.23.51.8 0 1.43.54 2.15.76.29.29.64.42 1 .56.36.13.74.27 1.03.53.33.21.62.48.9.77.28.28.55.58.87.86.28.31.53.68.7 1.11.04.1.08.21.11.33.03.11.06.22.07.34 0 .05.02.15.02.22.01.08.01.16.01.24 0 .15-.01.3-.02.45.05.09.02.16.01.23-.02.07-.04.15-.07.22-.03.07-.06.15-.09.22l-.09.18c-.08.15-.18.28-.3.4-.24.24-.51.46-.64.76-.51.45-.64 1.12-1.02 1.63-.25.59-.84.95-.99 1.58-.35.5-.5 1.12-.96 1.52-.1.63-.78.89-.93 1.47-.3.48-.57.97-.9 1.41-.6.27-.61.89-.86 1.34-.31.42-.35.99-.83 1.28-.14.2-.31.39-.46.58-.07.1-.14.2-.2.3-.09.15-.17.32-.24.5-.09.17-.21.32-.33.43-.3-.06-.57-.15-.81-.18-.06-.01-.12-.01-.17-.01-.06 0-.12.01-.15.02-.08.03-.16.08-.25.18-.44.09-.86-.38-1.27-.05-.41.31-.8-.04-1.18-.05-.38-.02-.74-.03-1.08-.05-3.11-.16-4.89-.35-4.89-.55 0-.22 2.2-.43 5.98-.6.38-.02.77-.28 1.18-.05.41 0 .83-.2 1.27-.05.08-.06.16-.11.25-.13.02-.01.05-.01.05-.02.01-.01.01-.01.02-.01.01-.01.02-.01.04-.01.05 0 .11.04.19.07.04-.01.08-.03.1-.07a.62.62 0 0 1 .08-.12c.07-.1.13-.2.2-.3.13-.2.25-.41.32-.66.08-.53.61-.8.75-1.32.45-.33.68-.82.8-1.38.46-.36.54-.96.84-1.44.57-.32.68-.93.88-1.5.21-.56.66-.99.91-1.55.37-.49.57-1.1.94-1.61.2-.62.49-1.19.98-1.65.12-.3.29-.59.47-.86.09-.14.18-.28.27-.41.03-.05.02-.03.03-.04l.01-.02c.01-.01.02-.02.02-.03l-.04-.04h-.01s0 .01-.01-.02c-.01-.05-.03-.1-.04-.15a.833.833 0 0 0-.04-.15c-.06-.21-.16-.43-.33-.63-.18-.18-.3-.44-.49-.67-.18-.23-.43-.43-.78-.45-.53-.3-1.06-.68-1.69-.88-.59-.3-1.22-.56-1.9-.65-.57-.52-1.31-.47-2.02-.46-.71-.02-1.38-.16-2.07-.28-.69-.04-1.38-.07-2.06-.11-.68.09-1.37-.14-2.03.04-.65.19-1.34-.05-1.98.18-.63.19-1.25.36-1.9.33-.61.14-1.31 0-1.81.48-.28.13-.52.34-.78.49-.26.15-.52.25-.89.15-.24.18-.51.26-.78.36-.27.1-.52.23-.68.47-.32.02-.54.19-.69.4-.16.21-.25.44-.39.62-.15.17-.31.33-.4.53-.05.09-.07.19-.1.29v.07c0 .01.01.02.01.03.01.01.02.03.04.05.02.02.03.03.05.04.02.01.03.02.04.03l.12.26c.11.26.21.52.38.74.46.36.33 1.06.8 1.38.23.47.56.86.76 1.32.66.17.5.83.71 1.25.18.43.75.62.67 1.18.54.19.49.71.62 1.11.12.4.55.61.57 1.04.41.19.26.7.52.95.04.38.34.58.47.87.21.24.35.5.41.79.13.25.25.48.35.69.66 1.29.96 2.03.85 2.1Z" fill="#BF4E70"/></svg>