<svg fill="none" xmlns="http://www.w3.org/2000/svg" viewBox="0 0 67 87"><path d="m52.28 86.516-17.89-.45-.14-.16c-1.21-1.32-1.58-2.41-2.07-3.79-.37-1.06-.78-2.26-1.68-3.91-2.24-4.12-9.44-13.08-10.91-14.55-.79-.78-2.92-2.64-4.81-4.27-1.7-1.47-3.16-2.74-3.53-3.13-1-1.06-2.59-3.04-1.96-4.33.36-.74 1.27-1.03 2.8-.9 1.67.15 3.88 1.98 6.22 3.91.7.58 1.41 1.17 2.11 1.71-.73-1.02-1.63-2.11-2.58-3.24-1.19-1.42-2.42-2.89-3.37-4.34-1.95-2.96-6.39-10.08-5.39-12.23.19-.41.55-.66 1.02-.72 2.03-.25 4.26 1.86 7.03 6.63 1.55 2.66 2.82 4.35 4.83 6.33-1.26-3.16-2.95-7.55-3.38-9.24-.22-.87-.61-2.04-1.01-3.27-.96-2.9-1.95-5.9-1.64-7.34.13-.61.56-.99 1.14-1.02 1.79-.06 4.82 3.36 6.63 9.25 1.71 5.55 3.92 9.47 5.03 11.04-.02-.44-.05-.98-.09-1.58-.2-3.44-.53-9.2-.29-11.5.12-1.18-.03-2.89-.21-4.88-.09-1.04-.19-2.15-.27-3.31-.04-.6.19-1.16.62-1.56.4-.36.94-.52 1.47-.44 1.14.18 3.18 1.35 4.01 7.19.26 1.81.22 3.38.19 4.91-.02 1-.04 1.95.02 2.93.33 5.54 1.68 9.59 2.74 11.37.75 1.27 1.39 1.64 1.7 1.56.2-.05 1.18-.52 1.38-5.07l.07-1.8c.23-5.62.35-8.71 2.42-9.77.67-.34 1.44-.63 2.15-.21 1.1.66 1.81 2.75 1.95 11.15.07 4.19.45 6.91.78 9.31.1.75.2 1.48.29 2.22.38 3.26-.37 9.56-1.22 14.03-.83 4.31.79 6.92 3.17 10.14.32.44.99 1.26 1.97 2.44l.7.89Zm-17.44-1.44 15.27.38c-.62-.76-1.05-1.3-1.3-1.64-2.45-3.32-4.26-6.22-3.35-10.92.85-4.4 1.59-10.57 1.21-13.73-.09-.73-.19-1.46-.29-2.21-.33-2.43-.71-5.18-.79-9.43-.04-2.36-.17-9.53-1.47-10.31-.23-.14-.58-.07-1.18.24-1.55.79-1.67 3.85-1.87 8.92l-.07 1.8c-.16 3.67-.88 5.68-2.14 6-.64.16-1.65-.06-2.81-2.02-1.11-1.88-2.53-6.1-2.87-11.82-.06-1.02-.04-2.03-.02-3.01.03-1.49.06-3.02-.18-4.75-.77-5.39-2.48-6.23-3.18-6.34a.76.76 0 0 0-.64.19c-.2.18-.31.47-.29.75.07 1.15.17 2.25.26 3.28.18 2.04.34 3.79.21 5.07-.23 2.21.1 7.92.29 11.33.08 1.46.14 2.42.13 2.73-.01.37-.26.57-.5.6h-.05c-1.28 0-4.63-6.42-6.48-12.44-1.85-6-4.58-8.55-5.6-8.55h-.03c-.07 0-.16.01-.21.23-.25 1.17.78 4.3 1.62 6.82.41 1.25.81 2.44 1.03 3.34.48 1.88 2.63 7.34 3.87 10.43.12.31.03.63-.23.81a.73.73 0 0 1-.92-.09c-2.7-2.51-4.16-4.33-6-7.5-2.48-4.26-4.51-6.32-6.05-6.14-.16.02-.2.08-.23.15-.51 1.11 1.67 5.74 5.32 11.26.93 1.4 2.14 2.85 3.31 4.25 1.42 1.7 2.76 3.31 3.57 4.78.16.29.11.62-.12.83-.25.22-.62.24-.92.04-1.12-.77-2.32-1.76-3.47-2.71-2.12-1.75-4.31-3.57-5.67-3.69-.99-.08-1.66.04-1.81.34-.24.5.51 1.85 1.79 3.21.33.35 1.85 1.66 3.46 3.06 1.9 1.64 4.05 3.51 4.86 4.32 1.49 1.49 8.81 10.6 11.08 14.78.94 1.72 1.39 3.02 1.75 4.06.43 1.28.75 2.21 1.71 3.3Z" fill="#BF4E70"/><path d="m12.35 57.246-.24-.18c-1.89-1.44-2.64-3.24-2.67-3.32l-.14-.33.27-.24c1.14-.99 2.64.55 3.36 1.29.5.52.71 1.04.61 1.55-.14.73-.84 1.07-.92 1.1l-.27.13Zm-1.7-3.33c.31.53.89 1.37 1.79 2.13.06-.06.11-.13.12-.21.03-.16-.09-.4-.35-.66-.68-.71-1.21-1.13-1.56-1.26ZM11.26 43.746l-.25-.41c-1.61-2.68-1.93-4.6-1.95-4.68l-.03-.18.09-.15c.13-.23.44-.49.86-.49.64 0 1.19.49 1.81 1.52.71 1.16.95 2.18.72 3.01-.22.8-.78 1.12-.85 1.16l-.4.22Zm-1.12-4.85c.15.59.53 1.8 1.38 3.32.02-.04.03-.09.05-.14.1-.38.07-1.08-.62-2.21-.38-.62-.65-.87-.81-.97ZM17.85 36.346h-.03l-.32-.01-.12-.29c-1.21-2.9-1.39-4.9-1.4-4.98l-.02-.27.22-.17c.21-.16.6-.3 1.04-.17.7.21 1.27.98 1.75 2.35.47 1.36.47 2.36.02 2.98-.41.52-.99.56-1.14.56Zm-.81-4.88c.12.69.41 2.04 1.09 3.76.02-.02.04-.04.05-.06.11-.15.31-.66-.17-2.04-.39-1.15-.77-1.53-.97-1.66ZM29.11 32.986c-.25 0-.43-.05-.47-.06l-.3-.09-.05-.31c-.44-2.81-.43-5.04-.43-5.14v-.3l.27-.14c.22-.11.61-.17 1.01.03.66.33 1.09 1.2 1.34 2.65.09.52.17 1.3.14 1.7-.05.66-.28 1.13-.68 1.42-.28.19-.59.24-.83.24Zm-.24-4.96c.02.79.1 2.26.35 3.96.06-.01.11-.03.16-.06.18-.13.23-.43.25-.66.02-.27-.04-.94-.13-1.46-.18-1.09-.45-1.57-.63-1.78ZM43.43 43.406c-.36 0-.72-.04-1.07-.12-.67-.15-1.19-.68-1.28-1.33-.21-1.5.49-2.83 1.12-3.68.36-.48.88-.73 1.45-.74.59.01 1.16.34 1.52.87.65.97.68 2.95.48 3.66-.28.99-1.21 1.34-2.22 1.34Zm.19-4.88c-.24 0-.45.12-.61.33-.52.7-1.1 1.78-.94 2.95.03.24.24.44.5.5.69.15 1.92.21 2.12-.51.15-.54.09-2.19-.35-2.83-.18-.27-.44-.42-.71-.43 0-.01-.01-.01-.01-.01ZM16.48 26.626l-5.37-5.22 11.81-12.15c.42-.44.99-.68 1.6-.69.61-.04 1.19.22 1.62.64l2.1 2.04c.9.88.92 2.32.05 3.23l-11.81 12.15Zm-3.95-5.24 3.93 3.82 11.11-11.44c.49-.51.48-1.32-.03-1.81l-2.1-2.04c-.25-.24-.59-.39-.91-.36-.34.01-.66.14-.9.39l-11.1 11.44Z" fill="#BF4E70"/><path d="M4.38 38.096c-.6 0-1.16-.23-1.59-.65l-2.1-2.04c-.44-.42-.68-.99-.69-1.6-.01-.61.22-1.19.65-1.62l11.81-12.15 5.37 5.22-11.81 12.15c-.42.44-.99.68-1.6.69h-.04Zm8.09-16.65L1.36 32.886c-.49.51-.48 1.32.03 1.81l2.1 2.04c.25.24.56.37.91.36.34-.01.66-.14.9-.39l11.11-11.44-3.94-3.82Z" fill="#BF4E70"/><path d="m16.49 26.616-5.37-5.21 1.64-1.69 5.37 5.22-1.64 1.68Zm-3.96-5.23 3.94 3.82.24-.25-3.93-3.82-.25.25Z" fill="#BF4E70"/><path d="M4.38 38.096c-.6 0-1.16-.23-1.59-.65l-.6-.58.7-.72c.25.24.55.37.91.36.34-.01.66-.14.9-.39l22.28-22.93c.49-.51.48-1.32-.03-1.81l.7-.72.6.58c.9.88.92 2.32.05 3.23L6.02 37.396c-.42.44-.99.68-1.6.69-.02.01-.03.01-.04.01Z" fill="#BF4E70"/><path d="M17.01 27.776c-.57 0-1.18-.08-1.53-.35-.64-.48-.98-1.37-.92-2.39.11-1.83 1.41-3.64 3.48-4.83 1.71-.98 6.96-2.19 9.68-2.56 4.44-.58 5.29-1.33 5.44-1.52l-.03-.05.05-.18c.01-.04.21-1.14-1.82-1.91l-.36-.13c-2.86-.62-6.22-.73-8.59-.71-1.28.01-2.47.59-3.27 1.58l-2.29 2.86c-2.97 4.47-4.97 6.95-6.09 7.55-1.06.58-1.86.86-2.45.88-.49-.01-.91-.19-1.15-.58-.82-1.36.54-5 4.73-12.58l4.77-7.64c1.1-1.77 2.9-3.04 4.93-3.49.88-.19 9.19-.84 14.07-1.21 1.82-.13 3.64.13 5.27.77.68.27 1.37.56 2.07.86 3.19 1.36 6.49 2.77 10.17 2.07.06-.01 6.02-1.09 9.73-1.62l.46-.06 2.89 12.94-.59.03c-2.5.12-8.14 1.26-10.25 1.83-2.45.67-5.1 1.5-7.93 3.11-.35.2-.67.38-.98.56-1.89 1.09-3.13 1.82-5.6 2.19-1.01.15-2.91.26-4.92.38-2.45.14-5.23.3-6.44.55-2.34.49-3.93 1.05-5.95 1.77-1.43.51-3.05 1.08-5.27 1.74-.23.06-.75.14-1.31.14Zm17.16-11.78c.02.16 0 .35-.1.56-.48.92-2.52 1.6-6.22 2.09-2.92.39-7.9 1.62-9.31 2.43-1.78 1.02-2.89 2.53-2.98 4.03-.04.68.15 1.25.52 1.53.27.2 1.5.18 1.95.04 2.19-.65 3.8-1.22 5.22-1.73 2.05-.73 3.67-1.3 6.08-1.8 1.28-.26 3.98-.42 6.59-.57 1.99-.12 3.87-.22 4.83-.37 2.27-.34 3.39-.99 5.24-2.06.31-.18.63-.37.98-.57 2.92-1.66 5.65-2.52 8.16-3.2 2.22-.61 7.17-1.59 9.87-1.83l-2.43-10.89c-3.7.54-9.18 1.53-9.23 1.54-3.97.76-7.41-.71-10.74-2.13-.69-.29-1.37-.58-2.04-.85-1.49-.59-3.16-.83-4.83-.7-8.01.61-13.35 1.06-13.93 1.19-1.77.39-3.33 1.5-4.29 3.04l-4.75 7.62c-4.62 8.38-5.13 10.91-4.73 11.55.02.04.06.09.27.1.24 0 .81-.11 2-.76.54-.29 2.01-1.62 5.76-7.26l2.31-2.89a5.23 5.23 0 0 1 4.04-1.96c2.55-.02 6.24.1 9.29.84l.74.18-.11.15c1.87.94 1.89 2.25 1.84 2.68Z" fill="#BF4E70"/><path d="M17.13 27.386c-.57 0-1.1-.14-1.5-.51-.49-.46-.69-1.04-.56-1.67.29-1.5 2.35-2.91 2.94-3.14l.11-.04.12.01c.98.12 2.86 1.03 2.92 3.68l.01.3-.26.15c-.28.17-2.19 1.22-3.78 1.22Zm1.12-4.32c-.55.29-2.01 1.39-2.2 2.34-.06.29.02.52.27.75.69.64 2.71-.12 3.82-.7-.17-1.85-1.47-2.3-1.89-2.39ZM7.75 24.736c-.08 0-.16-.01-.23-.02-.32-.08-.54-.32-.56-.63-.1-1.44.88-3.84 1.5-4.42l.14-.13h.19c.14 0 1.49 0 2.03.98.4.73-.07 1.73-.59 2.63-.55.94-1.73 1.59-2.48 1.59Zm1.27-4.2c-.37.54-1 2.09-1.06 3.17.38-.11 1.06-.47 1.41-1.07.71-1.22.63-1.57.59-1.64-.18-.31-.64-.42-.94-.46Z" fill="#BF4E70"/></svg>