<svg fill="none" xmlns="http://www.w3.org/2000/svg" viewBox="0 0 90 86"><path d="M89.047 84.24c0 .08-.29.15-.84.22l-.29.03c-.1.02-.21.04-.33.03-.12-.1-.24.19-.37.03-.13-.05-.26 0-.4.03-.14.04-.29-.07-.44.03-.15.2-.31-.22-.47.03-.16.06-.33.04-.51.03-.17-.16-.35 0-.54.03-.18-.19-.37-.11-.57.02-.19-.25-.39-.22-.6.02-.2.01-.41-.09-.62.02-.21.02-.43.06-.65.02-.22.17-.44.16-.67.02-.23.18-.46.11-.69.02-.24-.1-.47.16-.72.01-.24-.01-.49.04-.74.01-.25-.08-.5-.16-.75.01-.25.05-.51.11-.77.01-.26.2-.52.11-.79.01-.27.03-.53-.11-.8 0-.27-.03-.54.09-.81 0-.27-.06-.54-.12-.81 0s-.54-.05-.8 0c-.26-.18-.53.06-.79-.01-.26.02-.52-.11-.77-.01-.25.03-.51.07-.75-.01-.25.28-.49-.07-.74-.01-.24-.12-.48.02-.72-.01-.23.05-.47-.13-.69-.02-.23-.02-.45.09-.67-.02-.22.14-.44-.12-.65-.02-.21 0-.42.01-.62-.02-.2-.22-.4-.04-.6-.02-.19-.02-.38.12-.57-.02-.18-.02-.36-.11-.54-.03-.17.03-.34-.32-.51-.03-.16.05-.32-.23-.47-.03-.15.18-.3-.02-.44-.03l-.41-.03c-1.16-.1-1.82-.21-1.82-.32 0-.13.82-.25 2.23-.36.14-.01.29-.16.44-.03.15 0 .31-.12.47-.03.16-.2.33-.04.51-.03.17-.01.35.06.54-.03.18-.12.37.06.57-.02.19.12.39.09.6-.02.2.12.41-.03.62-.02.21.19.43.06.65-.02.22-.07.44.03.67-.02.23.04.46-.05.69-.02.24-.09.47-.12.72-.01.24-.06.49-.01.74-.01.25-.07.5.01.75-.01.25-.04.51.2.77-.01.26-.03.52.03.79-.01.27.03.53.05.8 0 .27.2.54.08.81 0 .27-.06.55-.03.81 0 .27-.02.54-.01.8 0 .27-.06.53.09.79.01.26-.09.52.09.77.01.25-.06.51-.09.75.01.25 0 .49.19.74.01.24-.04.48-.27.72.01.24-.07.47.14.69.02.23.21.45.01.67.02.22.04.44.11.65.02.21-.1.42.05.62.02.2-.12.4.16.6.02.19.03.38-.02.57.02.18-.28.36 0 .54.03.17.04.34-.19.51.03.16-.21.32-.03.47.03.15.06.3-.09.44.03.14-.15.28.08.4.03.13.1.25.01.37.03.12-.03.23-.02.33.03l.29.03c.55.1.84.17.84.25Z" fill="#BF4E70"/><path d="M75.687 57.93c0 .1-.91.09-2.5.5-.13.03-.27.08-.41.12-.14.05-.29.08-.44.14-.15.06-.3.12-.46.18-.16.06-.31.13-.48.19-.09.01-.17.04-.26.08-.08.05-.16.11-.24.17-.08.06-.16.12-.24.16-.09.04-.17.08-.28.09-.18.07-.37.16-.54.28-.18.12-.35.24-.53.38-.17.14-.37.24-.56.38-.19.13-.38.26-.54.46-.07.12-.15.2-.25.27s-.2.14-.31.2c-.11.07-.21.13-.31.22-.09.09-.17.2-.23.34-.17.2-.34.41-.52.61-.09.1-.18.21-.27.31-.09.11-.18.21-.27.32-.11.09-.21.19-.3.3-.05.06-.09.11-.13.17-.04.06-.08.12-.12.19-.07.13-.15.26-.22.39-.07.14-.14.27-.21.41-.23.2-.39.47-.54.75-.07.14-.12.3-.18.45-.03.08-.05.15-.08.23l-.06.24c-.11.12-.22.25-.3.39a2.826 2.826 0 0 0-.34.95c-.03.17-.05.35-.05.54-.2.65-.44 1.32-.48 2.05-.1.71-.15 1.45-.23 2.19.12.76.12 1.5.06 2.29.23.75.28 1.52.38 2.32.03.2.07.39.12.59.06.19.13.37.2.56.07.19.15.37.22.56.06.19.13.38.17.58.28.76.67 1.46 1.05 2.18.09.18.19.37.28.55.1.18.21.35.32.53.11.17.24.33.37.49.07.08.13.15.21.22l.11.1c.03.03.09.08.09.07.01.01.02.01.03.02.01-.01.03-.01.04-.02l.25-.01c.18-.01.35-.01.53-.02.35 0 .71.01 1.07.05.79-.2 1.6-.11 2.4-.01.81-.03 1.63.11 2.45 0 .82.03 1.65-.09 2.49 0 .83.06 1.66.12 2.49 0 .82-.12 1.64.05 2.45 0 .81.18 1.61-.06 2.4.01.36-.01.72.01 1.07.03.18.01.35.02.53.02h.25c.02 0 .04-.01.05-.01.01-.02.01-.04.02-.06-.01.01.04-.05.07-.09l.09-.12c.06-.08.12-.16.18-.25.11-.17.24-.33.35-.5.11-.17.23-.33.34-.5.11-.17.22-.33.34-.5.05-.22.12-.41.21-.59s.19-.36.29-.52c.11-.17.21-.34.31-.52.05-.09.1-.17.14-.27.04-.09.07-.19.11-.28.1-.17.18-.36.25-.55.07-.19.13-.38.18-.57.05-.2.1-.39.15-.58.04-.2.09-.39.14-.58.13-.78.4-1.53.38-2.32.08-.78-.01-1.54.06-2.29-.09-.37-.08-.74-.1-1.11 0-.37-.04-.74-.13-1.09a24.6 24.6 0 0 0-.48-2.05c0-.18-.04-.35-.08-.52-.04-.17-.1-.33-.17-.48l-.21-.45a4.37 4.37 0 0 1-.22-.43c-.03-.07-.06-.15-.1-.22-.04-.07-.07-.14-.11-.21-.08-.14-.16-.27-.23-.41-.17-.26-.3-.54-.41-.83-.08-.13-.15-.27-.22-.4-.08-.13-.15-.26-.23-.38-.04-.06-.08-.12-.12-.19-.04-.06-.08-.12-.13-.17-.09-.11-.18-.22-.28-.32-.09-.11-.17-.22-.24-.35-.07-.12-.14-.26-.22-.37-.15-.23-.32-.45-.59-.52-.1-.08-.19-.18-.27-.28-.08-.1-.17-.2-.25-.3-.08-.1-.17-.2-.26-.27-.1-.08-.2-.14-.32-.17-.23-.08-.41-.22-.58-.38-.17-.17-.33-.33-.51-.45-.18-.13-.36-.24-.54-.35-.18-.12-.36-.21-.53-.31-1.57-.86-2.93-1.19-3.86-1.37-.47-.08-.82-.13-1.07-.17-.23-.04-.35-.08-.35-.11s.16-.06.46-.08c.08-.01.16-.01.26-.01h.31c.11 0 .23.01.36.01.13.01.27.02.42.04.59.06 1.31.18 2.14.45.82.26 1.76.65 2.72 1.26.19.12.41.21.61.34.2.12.41.26.57.48.1.08.2.16.3.23.1.08.2.16.31.24.1.08.21.16.3.26s.19.2.27.31c.26.11.45.33.63.55.09.11.17.24.26.36.08.12.17.24.26.36l.27.36c.04.06.09.12.13.19.04.06.08.13.13.2.08.13.17.26.26.38.09.13.18.26.28.38.21.24.35.54.5.84.07.15.13.31.21.46.04.08.07.15.11.23.04.08.08.15.12.23.05.17.1.34.16.5.05.17.11.33.18.5.07.16.14.33.21.49.07.16.15.33.23.49.12.74.41 1.42.55 2.18-.03.8.17 1.54.28 2.35.09.81 0 1.63-.03 2.46-.11.83-.16 1.68-.38 2.51-.11.86-.35 1.71-.75 2.48-.27.84-.68 1.61-1.12 2.37-.1.2-.21.39-.32.58-.12.19-.24.37-.37.55-.13.18-.27.35-.4.52l-.2.26-.23.29c-.09.12-.19.24-.28.36-.16 0-.33-.01-.49-.01l-.14-.01-.13-.01c-.18-.01-.35-.03-.53-.04-.35-.02-.71-.02-1.07.07-.79.03-1.59-.03-2.4.01-.81-.03-1.62-.05-2.45 0-.82-.21-1.65-.08-2.49 0-.84.06-1.66.03-2.49 0-.82.02-1.64.01-2.45 0-.81.06-1.61-.09-2.4-.01-.36.04-.71.02-1.07 0l-.53-.03h-.27c-.16 0-.32 0-.48.01-.1-.11-.2-.23-.3-.34-.08-.09-.1-.11-.14-.15l-.11-.12c-.07-.08-.14-.16-.21-.25a6.54 6.54 0 0 1-.4-.52c-.12-.18-.25-.37-.36-.56-.11-.19-.21-.39-.31-.59-.11-.19-.2-.39-.3-.59-.09-.2-.17-.41-.26-.61s-.17-.41-.26-.6c-.05-.1-.1-.19-.15-.29-.05-.1-.1-.19-.16-.28-.09-.2-.18-.39-.27-.59-.09-.2-.18-.39-.25-.6-.07-.2-.14-.41-.18-.63-.04-.22-.06-.44-.05-.66-.07-.2-.1-.42-.14-.63a6.58 6.58 0 0 1-.08-.64c-.05-.42-.07-.84-.16-1.25.03-.21.04-.42.04-.63-.01-.21-.01-.41-.02-.61l-.02-.31c-.01-.1-.01-.2-.01-.3-.01-.2-.02-.41-.01-.61.07-.81.23-1.57.28-2.35.06-.78.36-1.48.55-2.19.03-.19.09-.36.15-.53.06-.17.14-.33.22-.49.08-.16.16-.31.22-.47.07-.16.14-.32.18-.49.04-.08.07-.15.11-.23.04-.08.08-.15.11-.23.07-.15.15-.3.22-.45.16-.29.31-.58.5-.84.03-.18.09-.34.17-.48.08-.14.18-.26.28-.38.05-.06.1-.12.15-.17l.16-.16c.11-.1.21-.21.31-.33.1-.11.19-.23.27-.35.09-.12.16-.25.25-.36.18-.23.36-.45.62-.56.07-.14.15-.26.24-.36.09-.1.19-.19.3-.27.11-.08.21-.15.32-.22.11-.06.22-.13.32-.2.21-.14.39-.3.58-.46.18-.16.38-.29.6-.37.16-.2.36-.29.56-.37.2-.09.41-.14.58-.26.1-.02.19-.06.29-.1l.27-.12a3.15 3.15 0 0 1 .52-.23c.17-.08.33-.16.5-.21.17-.05.33-.08.49-.11.16-.05.31-.07.46-.11.15-.03.29-.07.43-.09.83-.16 1.48-.16 1.91-.16.43.05.66.08.66.12Z" fill="#BF4E70"/><path d="M80.457 53.55c0 .08-.32.15-.9.22l-.31.03c-.11.02-.23.04-.35.03-.12-.1-.26.19-.39.03-.14-.05-.28 0-.43.03-.15.04-.31-.07-.47.03-.16.2-.33-.22-.51.03-.18.05-.36.04-.54.03-.19-.15-.38 0-.58.03-.2-.19-.4-.11-.61.02-.21-.26-.42-.22-.64.02-.22.01-.44-.09-.67.02-.23.02-.46.06-.69.02-.24.17-.48.16-.72.02-.24.18-.49.11-.74.02a.313.313 0 0 0-.19-.02c-.03 0-.06.01-.1.02-.03.01-.07.02-.07.03-.03.03-.01.06-.08-.01h-.04c.01.06.03.1.01.13-.02-.01-.03.1-.05.17l-.03.23c-.01.16.01.31.08.47.04.32.09.63.01.96.17.32.09.65.01.98.01.16-.01.33-.02.5-.01.08-.01.17-.01.25v.06c0 .02 0 .05.01.04.01.01.01.01.03.02-.01.03.01.05.02.05s.01.01.01.02 0 .01-.01.02c0 .01 0 .01-.01.03 0 .03.02.05.05.05.02 0 .03-.01.05-.03.01-.01.01-.02.02-.03l.1-.07c.06-.06.13-.09.2-.12.07-.02.15-.04.22-.05.15-.02.3-.03.44-.1.32.11.56-.21.86-.19.14-.03.29-.04.43-.04s.29-.02.42-.08c.14-.04.28-.06.42-.08.14-.01.28-.02.42.02.13-.14.27-.13.41-.09.14.04.27.12.41.09.13.06.27.06.4.05.13-.01.27-.02.39.01.27-.04.5.19.77.11.25.06.51 0 .73.15.26-.08.45.23.7.19.23.07.45.12.66.23.04.07.09.12.14.15.03.02.03.02.05.03.01 0 .02.01.04 0 .05 0 .08-.04.11-.04.04.03.06.01.08-.01h.02v-.01c.01-.01.02 0 .06.02.01-.03.03-.05.05-.09.01-.04.02-.1-.02-.15-.01-.03.01-.04.03-.07.02-.05.05-.11.07-.16.04-.11.05-.21-.07-.31-.05-.2.19-.4.02-.59-.16-.19.02-.37.03-.55l.03-.5c.08-1.44.18-2.26.28-2.26.11 0 .22 1.02.31 2.76.01.18.14.36.03.55 0 .19.1.38.02.59.09.1.1.2.08.31-.01.05-.02.1-.03.16-.01.08-.02.17-.02.25 0 .18-.01.35-.01.52 0 .17 0 .35.03.58.03.13.03.24.04.34v.06s0 .02-.01.01l-.06-.03c-.04-.02-.09-.04-.13-.07-.18-.09-.34-.18-.49-.2-.18-.14-.33-.23-.5-.28a.564.564 0 0 1-.12-.04.654.654 0 0 0-.11-.02c-.05 0-.11 0-.17.01-.17-.19-.42-.1-.63-.17-.18-.24-.42-.16-.66-.14-.23.03-.45-.12-.69-.11-.23-.07-.47-.02-.71-.07-.12.03-.25.05-.37.05s-.24-.02-.37-.08c-.25.05-.5.02-.76.02-.13.04-.25.05-.38.05s-.26-.01-.39.02c-.13.04-.26.01-.4-.01-.13-.01-.27.01-.38.14-.26.07-.53.08-.79.18-.13.02-.27.05-.4.09l-.2.06c-.06.03-.13.06-.19.1a.502.502 0 0 0-.12-.02c-.07.01-.13.02-.19.04-.12.03-.24.07-.36.13-.24.11-.5.27-.79.43-.07.03-.14.08-.21.1 0-.07-.01-.15-.01-.23 0-.16-.01-.32 0-.48 0-.33.02-.66.03-.98 0-.13-.01-.25-.01-.38v-.25c0-.17.01-.33.01-.5-.05-.33.08-.65 0-.98-.08-.32.08-.64.01-.96-.03-.16-.05-.31-.05-.47 0-.08 0-.16.01-.23 0-.04.01-.08.02-.12.01-.02.02-.12.03-.18 0-.21.02-.4.04-.58.02-.18.04-.35.03-.55.12 0 .23-.02.34-.07.22-.02.45-.09.7-.12.08-.01.09-.01.13-.01.03 0 .06 0 .1.01.06.02.13.06.19.13.25-.07.5.14.74.02.24.21.48.01.72.02.24.04.47.11.69.02.23-.1.45.06.67.02.22-.12.43.16.64.02.21.03.41-.02.61.02.2-.28.39 0 .58.03.19.04.37-.19.54.03.18-.21.34-.03.51.03.16.06.32-.09.47.03.15-.15.3.08.43.03.14.1.27.01.39.03.12-.03.24-.02.35.03l.31.03c.55.11.87.19.87.27Z" fill="#BF4E70"/><path d="M67.287 21.53c.07 0 .13 1.14.19 3.22l.03 1.12c.02.4.04.82.03 1.27-.09.45.17.92.03 1.42-.04.5 0 1.02.03 1.56s-.06 1.11.03 1.69c.18.59-.19 1.19.02 1.82.05.63.03 1.28.02 1.95-.13.67 0 1.36.02 2.07-.16.71-.09 1.44.02 2.18-.22.75-.19 1.51.02 2.29.01.78-.08 1.58.02 2.4.01.82.06 1.65.02 2.49.15.85.14 1.71.01 2.59.16.88.1 1.77.01 2.67-.01.11-.02.21-.02.32v.25c.01.05.02.1.03.12.06-.02.09-.04.12-.04.2-.01.42.01.63.04.8.01 1.62-.04 2.45-.01.83.08 1.66.16 2.51-.01.85-.05 1.7-.11 2.56-.01.86-.2 1.74-.11 2.62-.01.88-.03 1.77.11 2.66 0 .45.01.9-.01 1.35-.02.23-.01.45-.01.68-.01h.05c.01 0 .01 0 .02.01s.03.01.06.02c.01-.01.01-.03.02-.05l.01-.03v-.08c.01-.26.02-.52.02-.78.01-.52-.01-1.04-.06-1.56-.11-1.04.04-2.07 0-3.08.16-1.02-.05-2.03 0-3.03-.02-1 .09-1.99.01-2.97-.03-.98-.06-1.95.01-2.9-.24-.96.06-1.9.01-2.83.1-.93-.02-1.85.01-2.76-.05-.91.11-1.8.01-2.67.02-.88-.08-1.74.02-2.59-.12-.85.1-1.68.02-2.49 0-.82-.01-1.61.02-2.4.02-.1.04-.2.06-.29.01-.05.01-.09.02-.14.01-.02.01-.04.01-.07.01-.09.01-.19 0-.26-.08.01-.16.03-.23.04l-.05.01h-.04l-.06.01c-.08.01-.16.01-.24.01-.64-.02-1.27.12-1.89-.02-.61-.02-1.21-.11-1.79-.03-.58.03-1.14-.32-1.68-.03-.54.05-1.07-.23-1.58-.03-.51.18-.99-.02-1.46-.03l-1.35-.03c-1.93-.05-3.44-.1-4.48-.15-1.03-.05-1.59-.11-1.59-.17 0-.07.68-.13 1.95-.19s3.12-.12 5.46-.17c.47-.01.96-.16 1.46-.03.51 0 1.03-.12 1.58-.03.54-.2 1.1-.04 1.68-.03.58-.01 1.17.06 1.79-.03.61-.12 1.24.06 1.89-.02.24.06.84.08 1.34.08 0 .3.01.6.03.91l.01.24c0 .06.01.1.01.15l.03.29c-.11.78.02 1.58.02 2.4-.16.81-.05 1.65.02 2.49.06.85-.02 1.71.02 2.59-.03.88.04 1.77.01 2.68.08.9.1 1.82.01 2.76.05.93.01 1.88.01 2.83.07.96-.01 1.92.01 2.9.03.98-.17 1.97.01 2.97.02 1-.03 2.01.01 3.03-.02 1.02-.05 2.05 0 3.08-.09.52-.11 1.04-.09 1.56.01.26.02.52.04.78.02.48.04.96.05 1.44-.21.01-.42.01-.63.02-.2 0-.41.01-.61.01-.23.01-.45.01-.68 0-.45 0-.9-.02-1.35-.03-.9.02-1.78.01-2.66 0-.88.06-1.75-.09-2.62-.01-.86.09-1.72-.09-2.56-.01-.85.06-1.68.09-2.51-.01-.83 0-1.64-.19-2.45-.01-.22.01-.42.04-.64.06-.4.02-.83.05-1.26.06-.01-.42-.01-.86.01-1.28l.01-.16v-.05l.01-.04c.01-.05.01-.11.02-.16.02-.11.04-.21.07-.32-.06-.91.12-1.8.01-2.67.18-.88.01-1.74.02-2.59.04-.85.1-1.68.02-2.49-.09-.82.05-1.61.02-2.4-.1-.78.14-1.55.02-2.29.02-.75-.02-1.47.02-2.18-.24-.71 0-1.4.02-2.07.03-.67-.16-1.32.02-1.95-.18-.63-.02-1.24.02-1.82.05-.59-.08-1.15.03-1.69-.13-.54.07-1.06.03-1.56.09-.5 0-.97.03-1.42-.03-.45-.02-.87.03-1.27l.03-1.12c.07-2.08.14-3.22.21-3.22Z" fill="#BF4E70"/><path d="M67.287 21.53c.07 0 .13.57.19 1.62l.03.56c.02.2.04.41.03.64-.09.23.17.46.03.71-.04.25 0 .51.03.78s-.06.56.03.85c.18.28-.19.68.02.73.02.05.03.09.03.14.07-.01.13 0 .2.01.01.02.03.03.04.04 0 .01.03.01.05.01.02 0 .04.01.06.01.07.01.15 0 .22-.01.15-.02.3-.07.46-.08.31.19.63.11.95-.02.32.26.66.22 1-.02.34-.01.69.09 1.04-.02.35-.02.72-.06 1.08-.02.37-.17.74-.16 1.12-.02.38-.18.77-.11 1.16-.02.39.1.79-.16 1.2-.01.41.01.82-.04 1.23-.01.42.07.84.16 1.26-.01.43-.04.86-.11 1.29-.01.44-.2.87-.11 1.32-.01.44-.03.89.11 1.34 0 .23.02.45-.01.68-.02h.08c.01 0 .03.01.06.03.01 0 .03-.02.04-.04.01-.01.01-.02.01-.04l.01-.02V27.22c.01-.26-.01-.52-.06-.79-.11-.52.04-1.04 0-1.55.16-.51-.05-1.02 0-1.53-.01-.25.02-.5.03-.75l.01-.19v-.16c0-.03-.01-.05-.03-.06-.01-.01-.01-.03-.02-.03-.03.01-.05.02-.07.02h-.05l-.06-.01-.24-.03c-.42.28-.83-.07-1.23-.01-.4-.12-.8.02-1.2-.01-.39.05-.78-.13-1.16-.02-.38-.02-.76.09-1.12-.02-.37.14-.73-.12-1.08-.02-.35 0-.7.01-1.04-.02-.34-.22-.67-.04-1-.02-.32-.02-.64.12-.95-.02-.31-.02-.61-.11-.9-.03-.29.03-.57-.32-.85-.03-.27.05-.54-.23-.79-.03-.26.18-.5-.02-.74-.03l-.68-.03c-1.94-.1-3.06-.21-3.06-.32 0-.13 1.37-.25 3.73-.35.24-.01.48-.16.74-.03.26 0 .52-.12.79-.03.27-.2.56-.04.85-.03.29-.01.59.06.9-.03.31-.12.62.06.95-.02.32.12.66.09 1-.02.34.12.69-.03 1.04-.02.36.19.72.06 1.08-.02.37-.07.74.03 1.12-.02.38.04.77-.05 1.16-.02.39-.09.79-.12 1.2-.01.41-.06.82-.01 1.23-.01l.24-.03h.37c.3.01.6.01.91.02v.61c.01.22 0 .46-.01.69v.08l-.01.05-.01.09-.02.19c-.03.25-.03.5.06.75.02.5-.03 1.01.01 1.53-.02.51-.05 1.03 0 1.55-.09.26-.11.52-.09.79 0 .1.01.2.02.31.01.12.02.24.02.36.02.26.04.52.05.78l-.63.03h-.62c-.23 0-.45-.02-.68-.03-.45.02-.9.01-1.34 0-.44.06-.88-.09-1.32-.01-.43.09-.86-.09-1.29-.01-.43.06-.85.09-1.26-.01-.42 0-.83-.19-1.23-.01-.4.04-.8.27-1.2-.01-.39.07-.78-.14-1.16-.02-.38-.21-.76-.01-1.12-.02-.37-.04-.73-.11-1.08-.02-.35.1-.7-.05-1.04-.02-.34.12-.67-.16-1-.02-.32-.03-.64.02-.95-.02-.15.14-.31.14-.46.1-.07-.02-.15-.05-.22-.07l-.06-.02c-.02-.01-.03-.01-.06-.02a1.973 1.973 0 0 0-.6 0c-.15.02-.3.04-.45.05-.01-.21 0-.46.08-.7-.05-.1-.07-.23-.08-.36-.01-.06-.01-.13-.01-.2 0-.04.01-.08.01-.12.02-.15.08-.3.1-.45.05-.3-.08-.58.03-.85-.13-.27.07-.53.03-.78.09-.25 0-.49.03-.71-.03-.23-.02-.44.03-.64l.03-.56c.05-1.09.12-1.66.19-1.66ZM83.697 80.88c-.05-.06-.03-.18.03-.36.01-.03.02-.06.04-.09.01-.04.01-.08.04-.1.09.04-.08-.19.05-.11.05 0 .05-.06.05-.12s.1-.03.06-.13c-.11-.17.21.07.07-.14-.01-.08.03-.11.07-.15.14.05.06-.09.08-.15.16.07.14-.03.08-.16.21.1.22.02.08-.17.03-.06.13-.06.09-.18.02-.07.02-.15.09-.18-.09-.16-.05-.21.09-.19-.1-.16-.01-.18.09-.2.11-.01-.05-.21.09-.21.04-.06.04-.16.09-.21.09-.03.19-.07.09-.22 0-.09-.02-.2.09-.22-.12-.16-.02-.2.09-.23.01-.09.14-.11.09-.24.05-.07 0-.19.09-.24.08-.06.15-.12.08-.24-.08-.12.1-.14.08-.24.17-.02 0-.18.07-.24.01-.08.13-.12.07-.23-.01-.09-.02-.17.06-.23-.22-.15.1-.13.07-.23.12-.05.02-.16.06-.22-.03-.09.14-.12.06-.22.03-.07-.05-.16.05-.21-.11-.1.12-.12.05-.2.01-.07.01-.14.05-.2.2-.03.05-.12.04-.19.03-.06-.09-.14.04-.18.02-.06.11-.1.04-.17-.02-.06.28-.08.04-.16-.04-.06.2-.09.04-.15-.15-.06.03-.1.04-.14.01-.05.02-.09.04-.13.09-.38.19-.6.29-.6.06 0 .11.07.16.2.02.07.05.15.07.25.02.1.04.21.06.33.01.05.13.11.02.16 0 .05.09.12.01.17.17.08.03.12.01.18 0 .06-.06.12 0 .19.09.08-.06.12 0 .2-.12.05-.09.12-.01.21-.12.05 0 .15-.02.22-.17.04-.07.14-.02.23s-.05.15-.03.24c-.05.07.01.17-.03.25.06.1.07.2-.04.25.03.1-.03.17-.05.26.04.11-.05.17-.06.26.01.1-.21.11-.07.27 0 .1-.08.17-.07.27-.05.08-.1.16-.08.27-.2.02-.12.15-.09.27.02.11-.04.19-.1.27-.02.1-.06.18-.1.26.01.11-.14.13-.11.25.03.12-.15.12-.11.24.01.11 0 .21-.12.23-.04.08-.22.06-.12.22-.01.09.13.29-.12.21.01.11-.18.07-.13.2-.19-.05-.08.13-.12.19-.07.04-.16.06-.13.18s-.11.09-.12.17c.05.13-.18.02-.12.16-.06.04-.06.12-.12.14.16.23-.07.1-.12.13-.06.02.06.22-.11.12.11.18-.05.1-.11.11-.07 0 0 .14-.11.1.07.14-.11.02-.1.09-.09-.03-.05.06-.1.07 0 .05-.03.07-.09.06-.03.02-.06.04-.08.05-.17.09-.28.11-.33.05ZM27.547 57.51c0 .11-.22.21-.61.3-.07.01-.14.03-.21.05-.07.03-.16.06-.24.05-.08-.14-.17.26-.27.04-.09-.06-.19 0-.3.04-.1.05-.21-.09-.32.04-.11.27-.23-.3-.35.04-.12.08-.24.05-.37.04-.13-.21-.26 0-.39.03-.13-.25-.27-.14-.41.03-.14-.35-.29-.29-.43.03-.15.01-.3-.12-.45.03-.15.02-.31.09-.47.03-.16.23-.32.22-.49.02-.17.25-.33.15-.51.02-.17-.14-.35.22-.52.02-.18-.02-.36.06-.54.02-.18-.1-.36-.22-.55.01-.19.06-.37.15-.56.01-.19.27-.38.15-.57.01-.19.04-.39-.14-.58 0-.2-.04-.39.12-.59 0-.2-.08-.4-.16-.59 0-.2.17-.39-.07-.58 0-.19-.25-.39.08-.57-.01-.19.02-.38-.14-.56-.01-.18.05-.37.09-.55-.01-.18.38-.36-.1-.54-.02-.18-.16-.35.02-.52-.02-.17.07-.34-.18-.51-.02-.16-.03-.33.12-.49-.02-.16.19-.32-.16-.47-.03-.15 0-.31.01-.45-.03-.15-.3-.29-.05-.43-.03-.14-.03-.28.17-.41-.03-.13-.02-.26-.15-.39-.03-.13.04-.25-.43-.37-.04-.12.07-.23-.3-.34-.04-.11.25-.22-.03-.32-.04-.1-.02-.2-.03-.3-.04-.85-.13-1.33-.28-1.33-.44 0-.18.6-.34 1.62-.48.1-.01.21-.22.32-.04.11 0 .23-.16.34-.04.12-.28.24-.05.37-.04.13-.01.26.08.39-.03.13-.16.27.08.41-.03.14.17.29.12.43-.03.15.17.3-.03.45-.03.15.25.31.08.47-.03.16-.09.32.04.49-.02.17.05.34-.07.51-.02.17-.12.35-.16.52-.02.17-.08.35-.02.54-.02.18-.1.36.01.55-.01.19-.05.37.27.56-.01.19-.04.38.04.57-.01.19.03.39.07.58 0 .2.28.39.11.59 0 .2-.08.4-.04.59 0 .2-.03.39-.01.58 0 .19-.08.38.12.57.01.19-.12.38.13.56.01.19-.08.37-.12.55.01.18 0 .36.25.54.02.18-.05.35-.37.52.02.17-.1.34.19.51.02.17.28.33.01.49.02.16.06.32.15.47.03.15-.14.3.07.45.03.15-.16.29.21.43.03.14.04.28-.02.41.03.13-.38.27 0 .39.03.13.05.25-.25.37.04.12-.29.23-.04.35.04.11.08.22-.12.32.04.1-.2.2.11.3.04.09.13.18.01.27.05.08-.05.17-.03.24.04.07.02.15.03.21.05.41.09.62.19.62.3ZM27.547 66.36c0 .11-.22.21-.61.3-.07.02-.14.03-.21.05-.07.03-.16.06-.24.05-.08-.14-.17.26-.27.04-.09-.06-.19 0-.3.04-.1.05-.21-.09-.32.04-.11.27-.23-.3-.35.04-.12.07-.24.05-.37.04-.13-.21-.26 0-.39.04-.13-.25-.27-.14-.41.03-.14-.35-.29-.29-.43.03-.15.01-.3-.12-.45.03-.15.02-.31.09-.47.03-.16.23-.32.22-.49.02-.17.25-.33.15-.51.02-.17-.14-.35.22-.52.02-.18-.02-.36.06-.54.02-.18-.1-.36-.22-.55.01-.19.06-.37.15-.56.01-.19.26-.38.15-.57.01-.19.04-.39-.14-.58 0-.2-.04-.39.12-.59 0-.2-.08-.4-.16-.59 0-.2.17-.39-.07-.58 0-.19-.25-.39.08-.57-.01-.19.02-.38-.14-.56-.01-.18.05-.37.09-.55-.01-.18.38-.36-.1-.54-.02-.18-.16-.35.02-.52-.02-.17.07-.34-.18-.51-.02-.16-.03-.33.12-.49-.02-.16.19-.32-.16-.47-.03-.15 0-.31.01-.45-.03-.15-.3-.29-.05-.43-.03-.14-.03-.28.17-.41-.03-.13-.03-.26-.16-.39-.04-.13.04-.25-.43-.37-.04-.12.07-.23-.3-.34-.04-.11.25-.22-.03-.32-.04-.1-.01-.2-.03-.3-.04-.85-.13-1.33-.28-1.33-.44 0-.18.6-.34 1.62-.48.1-.01.21-.22.32-.04.11 0 .23-.16.34-.04.12-.28.24-.05.37-.04.13-.01.26.08.39-.03.13-.16.27.08.41-.03.14.17.29.13.43-.03.15.17.3-.03.45-.03.15.25.31.08.47-.03.16-.09.32.04.49-.02.17.05.34-.06.51-.02.17-.12.35-.16.52-.02.17-.08.35-.02.54-.02.18-.1.36.01.55-.01.19-.05.37.27.56-.01.19-.04.38.05.57-.01.19.04.39.07.58 0 .2.28.39.11.59 0 .2-.08.4-.04.59 0 .2-.03.39-.01.58 0 .19-.08.38.12.57.01.19-.12.38.13.56.01.19-.08.37-.13.55.01.18 0 .36.25.54.02.18-.05.35-.37.52.02.17-.1.34.19.51.02.17.28.33.02.49.02.16.05.32.15.47.03.15-.14.3.07.45.03.15-.16.29.21.43.03.14.04.28-.02.41.03.13-.38.27 0 .39.03.13.05.25-.25.37.04.12-.29.23-.04.35.04.11.08.22-.12.32.04.1-.2.2.11.3.04.09.13.18.01.27.05.08-.05.17-.03.24.04.07.02.15.03.21.05.41.09.62.19.62.3Z" fill="#BF4E70"/><path d="M34.617 54.15c.05.05-.39.51-1.06 1.51-.33.5-.71 1.14-1.07 1.94-.35.8-.68 1.76-.88 2.88-.13.74-.2 1.55-.18 2.42.03.87.16 1.77.37 2.72.01.25.09.48.17.72.09.23.19.46.31.69.23.46.49.9.64 1.43.23.48.51.96.85 1.4.08.11.18.22.26.33.09.11.18.22.28.32.1.1.19.21.29.31l.19.19.23.24.08.08c0 .21.01.42.01.63v.45c-.01.3-.01.61-.02.92-.01.62-.01 1.25.05 1.89.27 1.31-.3 2.66.04 4.07.04.7.05 1.41.05 2.14v1.1c0 .47-.01.95-.01 1.43-.02.23-.04.45-.05.67-.54-.03-1.06-.04-1.55-.04-.34 0-.69.01-1.03.03-.69.03-1.39.08-2.1.1-1.58-.25-3.2-.14-4.87.03-1.66-.35-3.37-.29-5.11.03-1.74.01-3.52-.12-5.34.03-1.82.02-3.67.09-5.56.03-1.89.23-3.81.22-5.77.02-.47.06-.94.1-1.41.12l-.35.02-.63-.01H.077c0-.49.01-.99.01-1.49l.01-.37.01-.22.02-.39c.02-.52.05-1.04.09-1.57.14-2.02-.22-4.07-.02-6.14.02-2.08-.06-4.18-.02-6.31.1-2.13.22-4.29-.01-6.47-.06-2.18-.15-4.39-.01-6.62-.26-2.23-.15-4.48-.01-6.75-.05-2.27.14-4.56-.01-6.88.04-2.31-.12-4.64 0-6.99.03-1.18.07-2.36.1-3.54.06-1.22.22-2.43.47-3.63.24-1.2.72-2.35 1.33-3.39.16-.26.31-.52.48-.77.17-.25.33-.5.52-.74.18-.24.35-.49.55-.72l.28-.35c.14-.18.33-.37.5-.56l.54-.51c.09-.09.17-.16.26-.23l.26-.22.51-.44.78-.69.13-.12.07-.06.03-.03s.01-.02.01-.01v.02l.02.7.06 1.39.06 1.42.03.63.01.42c.02.56.02 1.12 0 1.68.03 2.23-.14 4.44-.01 6.62l.03 1.63c0 .27.01.54.01.81v.41l.02.37c.04.99.21 1.96.48 2.91.51.86.94 1.7 1.46 2.51.52.8 1.15 1.57 1.95 2.11.73.64 1.59 1.09 2.5 1.39.9.3 1.84.45 2.77.53.49.01.98.01 1.46.02.25.01.5.01.75.02s.47 0 .7 0c.92-.02 1.85-.18 2.68-.55.86-.28 1.66-.72 2.38-1.25s1.36-1.13 1.98-1.76c.48-.74.98-1.44 1.38-2.21.4-.77.69-1.59.78-2.44.03-.21.05-.42.08-.63l.02-.16.01-.16.01-.31c.03-.41.01-.88.02-1.31 0-.89.01-1.77.03-2.64.3-1.74.05-3.45.03-5.11.02-.83-.03-1.65-.05-2.46l-.01-.3v-.33l.03-.98c.02-.64.06-1.27.12-1.8l.01-.45.01-.22v-.2l.01.01c.23.21.45.42.68.64.23.21.43.41.64.62l.31.3.15.15.15.16.59.65c.21.24.3.36.43.52l.19.23.18.23c.12.15.25.3.37.45.22.32.42.65.57 1 .08.18.16.35.23.52.07.18.14.35.21.53.07.17.13.35.2.52l.21.51c.14.34.32.66.51.98.06.17.12.34.17.52.04.18.08.35.11.53l.05.26.03.26.06.52c.03.35.06.69.1 1.03.02.17.04.34.07.51.01.08.03.17.05.25.01.08.03.17.05.25.15.68.13 1.31.09 1.94-.04.63-.11 1.25-.12 1.85-.01 1.21-.03 2.37-.04 3.47-.06 4.98-.13 8.89-.21 11.56-.04 1.34-.07 2.36-.11 3.05 0 .69-.04 1.04-.08 1.03-.05.01-.09-.43-.13-1.28-.04-.85-.08-2.11-.13-3.74-.08-3.27-.16-8.06-.23-14.1-.01-.6-.06-1.22-.09-1.85-.03-.63-.03-1.28.04-1.9l-.01-.24-.03-.24-.06-.48c-.05-.32-.11-.63-.17-.95-.04-.16-.07-.32-.11-.48l-.05-.24-.06-.24c-.04-.16-.08-.32-.11-.49-.04-.16-.08-.32-.12-.49-.16-.3-.33-.6-.46-.91-.07-.16-.15-.31-.21-.47-.07-.15-.13-.32-.21-.47l-.21-.48c-.07-.16-.15-.31-.23-.47-.15-.32-.34-.62-.53-.92-.1-.15-.21-.29-.32-.44l-.16-.22-.17-.21c-.09-.12-.18-.23-.28-.35l-.15-.18c-.11-.12-.22-.23-.34-.33-.06-.04-.11-.08-.16-.12 0 .08.02.19.03.28.04.21.05.34.06.46 0 .06 0 .12-.01.18 0 .19-.01.38-.02.58-.03.81-.06 1.63 0 2.46-.17 1.66-.13 3.37.03 5.11-.08.87-.07 1.75-.05 2.64.01.45.05.88.03 1.37v.54l-.02.18c-.03.24-.05.48-.09.72-.3.93-.59 1.85-.97 2.76-.37.91-.86 1.79-1.46 2.6-.61.81-1.38 1.51-2.23 2.1-.85.59-1.79 1.05-2.77 1.42-1 .32-2.04.55-3.1.63-.26.01-.54.03-.79.04-.25 0-.5.01-.75.01h-.75c-.12 0-.26-.01-.4-.01l-.41-.02a9.76 9.76 0 0 1-3.24-.55 9.197 9.197 0 0 1-2.9-1.65c-.93-.63-1.74-1.44-2.42-2.35a11.39 11.39 0 0 1-1.59-3.03 9.574 9.574 0 0 1-.67-3.4l-.01-.44.01-.41c0-.27.01-.54.01-.81.01-.54.01-1.09 0-1.63-.05-2.18.27-4.39-.01-6.62-.01-.56-.01-1.12-.01-1.68v-.59l.01-.11v-.19c-.01 0-.03.02-.04.04-.06.05-.12.12-.16.19-.02.02-.02.01-.06.05l-.26.31c-.18.2-.33.43-.49.64-.16.21-.3.45-.45.67-.15.22-.28.46-.41.7-.53.95-.93 1.97-1.18 3.03-.42 1.01-.62 2.12-.64 3.23-.01.54.02 1.14.05 1.72.03.58.06 1.17.08 1.76.08 2.35.04 4.68 0 6.99.03 2.31.01 4.61 0 6.88.08 2.27-.12 4.52-.01 6.75.12 2.23-.13 4.44-.01 6.62.08 2.18.12 4.34-.01 6.47 0 2.13-.25 4.24-.02 6.31.05 2.08.37 4.13-.02 6.14.03.52.03 1.05.01 1.57l-.01.39v.17l-.01.04-.03.19c.05.01.1.02.16.02h.48c.47 0 .94-.01 1.41-.05 1.96.28 3.88.01 5.77.02 1.89.05 3.74.15 5.56.03 1.82-.14 3.6.07 5.34.03 1.74-.16 3.45.21 5.11.03 1.66.04 3.29-.03 4.87.03.71-.17 1.41-.19 2.1-.15.35.02.69.05 1.03.08.03 0 .02 0 .03.01l.02.01.04.01.09.02c.06.01.13.03.21.04.01-.05.02-.1.02-.16.01-.07.01-.14.01-.23 0-.18-.01-.37-.02-.55l-.06-1.1c-.03-.72-.04-1.44.11-2.14-.29-1.4-.04-2.76.04-4.07.04-.64.01-1.27-.01-1.89-.01-.31-.02-.61-.01-.92 0-.15 0-.3.01-.45v-.08l.01-.05.02-.12-.02-.03a.36.36 0 0 1-.1-.07c-.02-.01-.03-.01-.05-.04l-.09-.08c-.11-.11-.21-.23-.32-.34-.1-.12-.19-.24-.28-.37-.09-.13-.18-.25-.25-.38-.32-.52-.57-1.05-.88-1.53-.2-.54-.44-1.04-.63-1.55-.1-.25-.19-.51-.28-.76-.07-.25-.16-.5-.2-.76-.28-.99-.37-1.98-.3-2.9.01-.91.12-1.77.29-2.54.26-1.16.64-2.15 1.06-2.96.42-.81.85-1.44 1.23-1.93.79-.93 1.31-1.31 1.33-1.29Z" fill="#BF4E70"/><path d="M6.927 38.04c-.05.02-.2-.27-.42-.86a9.98 9.98 0 0 1-.49-2.71c-.01-.39-.03-.81-.05-1.26-.03-.45-.06-.93-.04-1.44.14-.51-.26-1.04-.04-1.6.06-.56 0-1.15-.04-1.76-.05-.61.09-1.25-.04-1.91-.27-.66.3-1.35-.04-2.06-.07-.71-.05-1.45-.04-2.2.21-.76 0-1.54-.03-2.34.25-.8.14-1.62-.03-2.47.35-.84.29-1.71-.03-2.59-.01-.88.12-1.79-.03-2.71-.01-.23-.02-.46-.02-.7 0-.25-.01-.5.01-.75.01-.5.1-1.01.22-1.5-.02-1.05.36-2.1 1.03-2.95.14-.53.39-1.02.72-1.45.33-.44.72-.83 1.15-1.18.43-.35.8-.76 1.21-1.13.41-.38.86-.74 1.41-.92.99-.54 2.05-1.03 3.2-1.23.58-.07 1.16-.1 1.75-.12l.44-.01c.14-.01.28-.02.43-.02.27-.02.55-.06.83-.12.28-.01.55-.03.84-.04l.45-.01c.15 0 .3.01.45.02.6.04 1.21.15 1.79.37.63.02 1.23.19 1.8.45.57.26 1.09.62 1.58 1.01.54.32 1.02.73 1.46 1.16.45.44.87.9 1.32 1.34.38.51.76 1.02 1.09 1.57.33.55.6 1.14.77 1.76.18.62.3 1.25.4 1.87.1.63.18 1.25.26 1.88.17 1.18-.07 2.34 0 3.49-.25 1.15.08 2.29-.01 3.42.03 1.13-.14 2.25-.01 3.35.05 1.11.09 2.2-.01 3.28.38 1.08-.1 2.15-.02 3.2-.16 1.05.02 2.09-.02 3.11.07 1.02-.18 2.03-.02 3.02v.19l-.01.2-.01.4v.39l-.03.39c-.02.13-.03.26-.04.39l-.02.19c-.01.06-.03.13-.04.19-.06.25-.13.5-.23.74-.03.26-.09.51-.17.75l-.06.18-.08.17-.17.34c-.11.23-.24.44-.36.66-.06.11-.12.22-.17.33-.05.11-.11.22-.16.33-.49.85-1.07 1.64-1.76 2.27-.21.12-.42.24-.6.38-.09.07-.18.14-.26.22-.09.07-.17.14-.26.22-.17.15-.33.32-.51.46s-.35.28-.54.41c-.4.21-.76.47-1.15.66-.38.22-.8.35-1.23.4-.41.1-.82.2-1.23.25-.2.03-.4.07-.6.1-.2.03-.4.07-.59.12-.2.04-.4.02-.6 0-.2-.03-.39-.06-.58-.09-.37-.06-.73-.08-1.08.11-.18.02-.35.01-.53-.01-.18-.02-.36-.07-.54-.1-.18-.04-.35-.05-.53-.07-.17-.02-.35-.01-.53.03-.09.02-.18.03-.27.04-.09 0-.17-.01-.26-.02-.17-.03-.33-.07-.49-.12-.32-.12-.61-.28-.92-.37-.3-.12-.59-.23-.87-.35-.27-.14-.55-.26-.8-.41-1.15-.64-2.04-1.42-2.72-2.16-.35-.37-.62-.75-.87-1.09-.23-.36-.44-.68-.59-1-.08-.15-.16-.3-.22-.43-.06-.14-.11-.27-.16-.39s-.09-.23-.13-.34c-.03-.1-.06-.2-.08-.29-.14-.33-.17-.51-.13-.53.04-.02.17.18.36.56.03.05.05.1.08.15.03.05.06.11.1.16.07.11.14.24.22.37.07.14.17.28.27.42.1.15.2.31.32.47.47.66 1.14 1.41 2.04 2.13.9.72 2.06 1.38 3.46 1.82.28.07.58.11.88.15.15.02.3.03.45.07.07.02.15.04.22.07.07.02.15.05.22.08.16.02.32.03.47.03.16.01.32-.01.49-.02.16-.01.32-.01.49 0 .18 0 .35.01.53.04.36-.14.72-.15 1.08-.13l.53.03c.18.01.35.03.53 0l.54-.06c.18-.02.36-.06.54-.09.36-.05.72-.18 1.06-.33.33-.21.69-.31 1.05-.46.36-.13.72-.3 1.03-.55.76-.27 1.4-.84 1.87-1.53.17-.12.33-.26.47-.41.14-.16.26-.33.39-.5.22-.36.43-.73.64-1.11.08-.08.16-.16.23-.24.06-.09.12-.18.18-.28.11-.19.21-.39.27-.6.03-.11.07-.21.1-.32l.04-.16.03-.16.12-.66c.13-.89.35-1.75.3-2.7.05-.99-.06-2-.02-3.02-.12-1.02-.16-2.06-.02-3.11-.08-1.05-.02-2.12-.02-3.2-.1-1.08.01-2.17-.01-3.28-.05-1.11.27-2.23-.01-3.35-.04-1.13.04-2.27-.01-3.42.03-1.15.07-2.32-.01-3.48.14-.54.11-1.1 0-1.63-.12-.54-.32-1.06-.55-1.55-.44-.99-.92-1.96-1.57-2.82-.69-.82-1.48-1.55-2.36-2.13-.47-.25-.91-.53-1.38-.75-.47-.23-.97-.42-1.48-.5-.52-.07-1.02-.18-1.52-.26-.13-.02-.26-.04-.38-.05-.13-.01-.26-.02-.38-.02-.26-.01-.55 0-.82.03-.28.02-.55.04-.83.05l-.21.01-.19.01c-.12.01-.25.01-.37.02-.5.04-.99.07-1.49.11-.49.1-.98.19-1.45.33-.48.14-.93.36-1.3.7-.41.26-.76.61-1.11.92-.35.32-.7.61-1.17.82-.29.37-.62.7-.93 1.06-.31.35-.58.74-.72 1.19-.34.34-.52.77-.65 1.21-.12.44-.18.89-.28 1.32-.11.43-.22.86-.26 1.3-.03.22-.03.44-.03.66 0 .22.02.46.05.69.14.92-.07 1.82-.03 2.71.16.88-.21 1.75-.03 2.59-.04.84.02 1.67-.03 2.47.38.8 0 1.58-.03 2.34-.05.76.25 1.49-.04 2.2.29.71.04 1.4-.04 2.06-.08.66.12 1.3-.04 1.91.2.61-.11 1.2-.04 1.76-.13.56-.01 1.1-.05 1.6.05.51.03.98-.04 1.44-.02.45-.03.87-.05 1.26-.04 1.15.1 2.03.18 2.63.12.59.17.92.12.93ZM43.487 50.45c0-.09.87-.27 2.48-.06.13.02.27.04.41.07.14.03.29.05.44.09.15.03.31.06.47.09.16.05.32.1.48.16.14.12.33.13.52.15.19.01.39.05.52.23.17.1.34.2.53.28.19.08.38.16.58.24.2.08.37.22.55.35.18.13.36.26.59.34.27.02.41.24.56.43.14.2.28.41.58.44.41.29.77.66 1.1 1.08.19.53.67.83 1.02 1.28.1.61.47 1.03.89 1.49-.06.69.21 1.19.71 1.68.2.6.23 1.24.48 1.85.13.64.26 1.3.21 1.98.24.68.2 1.4-.11 2.07.14.74-.12 1.45-.45 2.1-.09.16-.15.33-.2.51-.05.18-.1.35-.15.54-.1.36-.22.72-.48 1.01-.36.66-.7 1.35-1.2 1.94-.55.56-1.14 1.04-1.56 1.74-.54.58-1.13 1.15-1.89 1.47-.54.66-1.36.95-2.17 1.12-.76.35-1.6.4-2.39.71-.83.12-1.66.36-2.52.24-.85-.08-1.67-.24-2.52-.24-.22.01-.42-.03-.63-.07-.21-.04-.4-.12-.6-.19-.2-.07-.39-.15-.58-.23-.1-.04-.19-.08-.29-.11-.1-.04-.19-.07-.29-.1-.17-.13-.35-.23-.53-.33-.18-.09-.37-.16-.56-.24-.38-.15-.77-.3-1.08-.55-.7-.42-1.23-1.03-1.89-1.47-.61-.5-1.18-1.06-1.56-1.74-.2-.09-.34-.23-.46-.38a2.06 2.06 0 0 1-.28-.5c-.08-.18-.14-.36-.21-.54-.07-.18-.15-.35-.25-.51-.2-.73-.65-1.34-.83-2.06-.14-.34-.2-.7-.24-1.06-.05-.35-.08-.71-.21-1.04-.07-.7-.26-1.39-.11-2.07-.04-.17-.05-.34-.04-.51.02-.17.05-.33.09-.5.03-.16.09-.32.12-.49.03-.16.05-.32.05-.49.1-.64.25-1.27.48-1.85.47-.5.47-1.13.71-1.68.28-.52.41-1.12.89-1.49.34-.45.76-.81 1.02-1.28.15-.22.42-.33.64-.47.23-.13.41-.29.46-.6.16-.19.39-.3.61-.41.22-.11.41-.23.53-.47.06-.12.13-.21.22-.28.09-.07.19-.12.3-.17.21-.09.43-.14.62-.24.19-.11.37-.2.56-.28.18-.09.37-.17.55-.24 1.62-.67 3-.84 3.92-.87.46-.01.82 0 1.05.04.21.02.34.06.34.09 0 .1-.6.15-1.67.37-.53.12-1.18.27-1.91.54s-1.54.64-2.37 1.16c-.17.1-.31.25-.46.39-.08.07-.16.13-.25.18a.91.91 0 0 1-.3.13c-.35.25-.58.65-1 .86-.08.25-.22.42-.41.57-.17.16-.39.28-.55.46-.31.37-.67.72-.87 1.2-.07.26-.23.46-.38.67-.07.11-.15.21-.22.33-.06.12-.12.24-.15.37-.38.41-.57.95-.58 1.53-.33.48-.28 1.1-.38 1.66-.35.54-.23 1.17-.13 1.77.09.6-.01 1.22.14 1.83.04.63.29 1.22.44 1.84.3.58.59 1.14.76 1.79.37.54.67 1.14 1.08 1.68.48.47.85 1.05 1.38 1.51.14.1.26.23.38.36.12.13.24.25.37.38.25.24.54.46.92.53.61.35 1.21.74 1.9.96.65.3 1.35.54 2.08.6.67.41 1.46.32 2.19.21.74-.08 1.47-.11 2.19-.21.71-.17 1.41-.36 2.08-.6.63-.34 1.36-.49 1.9-.96.13-.12.28-.22.42-.32.14-.1.3-.18.44-.28.3-.19.58-.39.8-.67.45-.53.87-1.05 1.38-1.5.2-.27.45-.51.65-.77.11-.13.2-.27.27-.42.04-.08.07-.15.1-.23.02-.08.04-.16.05-.25.13-.3.18-.64.27-.95.04-.16.1-.3.17-.45.07-.14.17-.27.32-.4.04-.32.18-.61.28-.91l.08-.23c.02-.08.04-.15.05-.23.03-.15.05-.31.02-.47.09-.14.15-.3.18-.45.03-.15.03-.31.03-.46 0-.15-.03-.31-.04-.46-.02-.15-.03-.3-.03-.45.05-.6.08-1.21-.13-1.77-.22-.55-.16-1.14-.38-1.66a1.43 1.43 0 0 1-.17-.38c-.04-.13-.07-.27-.09-.4-.02-.14-.06-.27-.11-.4a.963.963 0 0 0-.21-.35c-.2-.5-.52-.92-.75-1.37-.3-.1-.44-.3-.55-.53-.11-.22-.18-.48-.33-.67-.13-.2-.35-.33-.53-.48-.18-.15-.36-.29-.42-.56-.27-.04-.44-.18-.58-.34-.15-.16-.26-.37-.42-.52-.15-.16-.33-.26-.52-.35-.18-.09-.36-.19-.49-.36-.22-.01-.37-.13-.52-.25-.15-.13-.29-.27-.47-.31-.27-.28-.65-.29-.94-.43-.16-.03-.32-.08-.46-.13-.15-.05-.28-.11-.41-.19-.14-.05-.28-.09-.41-.12a7.64 7.64 0 0 0-.38-.11c-1.49-.37-2.36-.4-2.35-.53Z" fill="#BF4E70"/><path d="M43.497 59.51c-.1.06-.34-.28-.8-.76-.08-.08-.16-.16-.26-.24-.1-.07-.21-.13-.3-.22-.01-.09-.1-.08-.19-.07-.08.01-.15.03-.17-.1-.05-.06-.12-.08-.19-.1-.08 0-.15-.01-.23.01-.15.02-.31-.13-.49-.01-.09.13-.16.07-.25 0-.09-.05-.19-.1-.24.08-.07.06-.15.09-.23.12-.04.02-.08.03-.12.04-.04.02-.08.03-.12.05-.13-.06-.21 0-.28.07-.06.08-.1.18-.15.26-.31-.06-.39.2-.34.45-.4-.02-.47.27-.2.54-.04.19-.2.38-.04.61.02.12.04.23.07.34.03.11.05.23.04.36.29.19.33.4.25.72.08.04.14.08.19.13.05.05.09.11.11.17.05.12.05.27.07.42.01.16.13.26.24.35.12.1.23.2.23.38.07.13.18.24.27.36.09.12.19.23.27.37.11.31.23.63.61.73.26.2.53.39.66.72.42.07.56.39.7.73.27.22.38.6.73.74.1.16.12-.05.15.14.02.04.05.06.09.04.02-.01.03-.03.04-.05v-.04c0-.01 0-.02-.01-.02 0-.01.02-.04.02-.06.13-.37.54-.45.73-.74.41-.08.41-.55.7-.73.21-.26.55-.39.66-.72.17-.28.34-.55.61-.73-.05-.24.06-.34.19-.43.14-.09.31-.15.36-.3.15-.08.22-.21.28-.34.06-.14.09-.28.18-.39.04-.14.13-.24.23-.35.05-.05.09-.11.12-.17.03-.06.04-.13.02-.21.14-.24.05-.52.25-.72-.07-.14-.01-.24.06-.36.06-.11.12-.23.06-.34.01-.22-.02-.41-.04-.61.06-.07.08-.13.08-.18a.27.27 0 0 0-.05-.15c-.04-.04-.08-.08-.12-.11-.04-.03-.09-.06-.11-.1a.244.244 0 0 0-.09-.11c-.04-.03-.08-.06-.11-.09-.08-.05-.13-.12-.14-.25-.06-.08-.11-.16-.17-.23-.07-.06-.14-.13-.25-.11-.05-.01-.08-.05-.1-.1l-.09-.15c-.06-.1-.16-.13-.29.04-.09.02-.16-.07-.24-.13-.08-.05-.17-.09-.25.04-.08.13-.16.12-.24.09-.08-.03-.17-.09-.24-.08-.08 0-.15.02-.22.03-.07.02-.14.03-.2.06-.29.1-.53.26-.73.44-.2.18-.36.36-.49.51-.26.3-.42.47-.5.43-.07-.04-.05-.32.16-.81.11-.24.26-.54.54-.85.14-.15.31-.31.53-.44.21-.13.46-.24.73-.31.11-.03.21-.1.32-.14.11-.05.23-.05.35.03.11 0 .24-.03.37-.05.13-.01.26 0 .38.09.16-.1.3-.08.42-.01l.18.12c.06.05.11.09.17.13.13.05.24.15.36.23.11.09.23.17.38.23.17.04.26.17.34.3.04.07.07.14.12.2.04.06.09.12.16.18.03.36.18.6.42.89-.03.18 0 .34.05.51.03.08.05.17.07.25.01.04.02.09.02.13v.12c-.14.16-.16.31-.15.48 0 .16.04.33.06.51.01.35-.21.64-.28.96-.04.07-.07.15-.1.23-.03.08-.06.15-.09.23-.06.16-.11.32-.22.46-.03.17-.08.34-.16.5-.08.15-.2.28-.35.38-.06.17-.16.3-.26.44s-.22.26-.32.4c-.13.34-.44.52-.64.81-.19.29-.65.34-.68.78-.21.28-.51.48-.71.77-.27.23-.54.46-.74.76-.58.19-.89.75-1.38 1.38-.24-.18-.49-.42-.73-.67-.12-.12-.24-.25-.35-.38l-.17-.19-.08-.09-.05-.06c-.27-.23-.51-.5-.74-.76-.3-.2-.4-.59-.72-.77-.33-.18-.37-.6-.69-.78-.28-.21-.54-.45-.64-.81-.11-.13-.16-.31-.23-.47a.652.652 0 0 0-.36-.37c-.11-.13-.28-.22-.41-.34a.467.467 0 0 1-.1-.53c-.13-.12-.16-.3-.2-.47-.02-.08-.04-.16-.07-.24a.487.487 0 0 0-.14-.21c.07-.21.01-.35-.06-.51-.07-.15-.19-.29-.22-.45 0-.17 0-.34-.01-.5 0-.16-.02-.33-.09-.49a.564.564 0 0 1-.04-.12.285.285 0 0 1 0-.13c0-.09.02-.18.04-.26.05-.17.12-.33.15-.5-.02-.09 0-.18.04-.25a.8.8 0 0 1 .15-.21c.06-.06.12-.12.16-.19.04-.07.08-.14.08-.23.2-.25.35-.53.62-.69-.02-.25.12-.34.27-.39.16-.04.33-.03.47-.07.07-.02.13-.06.18-.1.06-.04.11-.09.17-.13.12-.08.26-.12.42-.01.1-.17.24-.2.37-.18.13.03.26.1.38.14.11.05.22.02.34.01.11-.01.23 0 .32.1.13-.08.24-.02.32.05.09.08.17.17.27.18.06.1.15.15.23.19a.8.8 0 0 1 .24.14c.17.07.29.21.34.37.09.12.17.24.23.35.19.34.28.61.32.8 0 .22 0 .33-.05.36Z" fill="#BF4E70"/></svg>