<svg fill="none" xmlns="http://www.w3.org/2000/svg" viewBox="0 0 59 87"><path d="M29.099 24.065c-.23 0-.47-.02-.7-.07-.94-.2-1.76-.79-2.25-1.62l-1.77-3.02c-.49-.83-.6-1.83-.32-2.75.29-.92.95-1.68 1.82-2.09l14.63-6.85 11.33-6.66a3.618 3.618 0 0 1 4.95 1.28c.52.89.66 1.86.42 2.8a3.55 3.55 0 0 1-1.67 2.21l-11.38 6.7-13.05 9.42c-.59.43-1.29.65-2.01.65Zm11.36-15.27-14.16 6.63a2.4 2.4 0 0 0-1.29 1.48c-.21.66-.12 1.35.23 1.95l1.77 3.02c.35.6.92 1 1.59 1.15.68.14 1.36 0 1.92-.41l12.68-9.16-.02-.04.42-.26 11.43-6.72c.6-.35 1.03-.92 1.21-1.6.18-.68.08-1.38-.28-1.98-.76-1.3-2.37-1.71-3.61-.98l-11.86 6.98-.03-.06Z" fill="#BF4E70"/><path d="m43.709 14.305-.31-.44-3.49-5.93.59-.27 11.34-6.67a3.618 3.618 0 0 1 4.95 1.28c.52.89.66 1.86.42 2.8a3.55 3.55 0 0 1-1.67 2.21l-11.83 7.02Zm-2.39-5.96 2.69 4.57 11.03-6.49c.6-.35 1.03-.92 1.21-1.6.18-.68.08-1.38-.28-1.98-.76-1.3-2.37-1.71-3.61-.98l-11.04 6.48ZM40.909 14.405l-9.79 7.07c-1.05.76-2.52.45-3.18-.67l-1.33-2.27c-.66-1.12-.21-2.55.96-3.1l10.94-5.12 2.4 4.09Z" fill="#BF4E70"/><path d="M29.829 22.395a2.716 2.716 0 0 1-2.32-1.33l-1.33-2.26c-.38-.65-.47-1.44-.25-2.17.22-.72.75-1.32 1.43-1.64l11.35-5.31 2.86 4.87-10.16 7.34c-.46.32-1.01.5-1.58.5Zm8.48-11.42-10.52 4.92c-.44.21-.76.57-.9 1.03-.14.46-.09.95.16 1.36l1.33 2.26c.25.42.64.7 1.11.8.48.1.95 0 1.34-.29l9.42-6.8-1.94-3.28ZM28.189 86.505h-17.33l-.01-.49c-.1-4.73-.48-16.15-1.87-19.89-.34-.92-.83-2.12-1.4-3.54-2.44-6.04-6.53-16.14-7.56-24.57-.1-.84.2-1.65.8-2.18.25-.21.52-.37.81-.46.63-.19 1.18-.19 1.66.01-.33-1.14-.5-2.46.12-3.25 1.07-1.36 2.21-1.44 2.8-1.37.27.03.53.11.75.21-.1-.36-.19-.67-.24-.91-.19-.89-.37-2.19.29-3.14.47-.68 1.28-1.11 2.49-1.29.5-.08.99.04 1.42.33-.23-1.02-.09-1.89.41-2.57.7-.95 1.98-1.33 2.95-1.37.78-.01 1.35.24 1.8.76.07-.4.2-.78.42-1.13.56-.9 1.59-1.44 3.13-1.65 1.09-.15 2.17.17 3.13.92 1.54 1.21 2.61 3.38 2.86 5.82.22 2.17.15 4.39.1 6.01l-.01.31c-.09 2.92-.08 4.27.98 8.32 1.16 4.38 1.07 9.88 1 14.72-.04 2.46-.07 4.78.05 6.73.12 1.87-.24 3.77-.59 5.61-.32 1.68-.62 3.26-.55 4.73.27 6.07 1.11 10.91 1.46 12.71l.13.62Zm-16.35-1h15.13c-.4-2.16-1.12-6.7-1.37-12.26-.07-1.59.24-3.23.57-4.96.34-1.78.69-3.62.57-5.36-.13-2-.09-4.34-.06-6.81.07-4.78.15-10.2-.97-14.45-1.1-4.19-1.11-5.58-1.02-8.61l.01-.32c.05-1.59.12-3.77-.1-5.87-.22-2.14-1.17-4.11-2.48-5.13-.74-.58-1.57-.83-2.38-.72-1.23.17-2.02.56-2.42 1.19-.75 1.19-.07 3.3.58 5.34.45 1.41.92 2.87.98 4.16.02.53.08 1.79-.72 1.84h-.04c-1.16 0-1.56-3.54-1.67-5.07-.38-5.08-1.33-5.49-2.16-5.43-.7.03-1.7.3-2.18.96-.35.48-.42 1.13-.2 1.95.22.83.55 1.88.89 2.97 1.19 3.84 1.71 5.73 1.42 6.45l-.15.36h-.45c-.9-.12-1.46-3.19-1.51-3.62-.41-3.74-1.27-4.91-1.74-5.27-.24-.18-.48-.25-.75-.21-.92.14-1.51.43-1.82.87-.33.48-.38 1.24-.14 2.36.15.7.59 2.08 1.07 3.53 1.36 4.23 1.72 5.53 1.42 6.06l-.11.19-.28.1c-.18.04-.38 0-.54-.12-.69-.48-.99-2.31-1.09-3.07-.25-1.88-.56-3.22-.96-4.11-.11-.25-.53-.63-1.11-.7-.66-.07-1.31.26-1.89.99-.27.34-.35 1.29.24 2.92.23.64.5 1.33.77 2.03 1.45 3.75 1.92 5.21 1.08 5.67-.2.11-.42.12-.62.04-.33-.14-.57-.5-.77-1.18-.09-.29-.15-.6-.19-.97-.21-1.72-.59-3.23-1.05-4.13-.53-1.06-1.15-.98-1.73-.8-.16.05-.31.13-.45.25-.35.3-.52.8-.46 1.31 1.01 8.3 5.07 18.33 7.5 24.32.58 1.42 1.07 2.63 1.41 3.56 1.38 3.66 1.81 13.73 1.94 19.75Zm5.89-55.02c.03.18.06.35.1.51-.03-.17-.07-.34-.1-.51Z" fill="#BF4E70"/><path d="M19.969 26.675c-.35 0-.69-.07-1.02-.22-1.57-.72-2.15-2.97-2.17-3.07l-.03-.12.03-.12c.03-.1.3-1 1.93-1.88 1.33-.72 2.53-.4 2.58-.38l.14.04.1.1c.07.07 1.66 1.81 1.36 3.47-.14.78-.65 1.39-1.52 1.83-.49.23-.95.35-1.4.35Zm-2.17-3.37c.19.61.72 1.85 1.58 2.24.45.21.96.17 1.55-.13.58-.29.9-.65.98-1.11.16-.89-.59-2.01-1.01-2.5-.27-.04-.95-.08-1.71.32-.93.52-1.28.98-1.39 1.18ZM13.679 26.895c-.24 0-.47-.04-.7-.13-1.11-.43-1.61-1.77-1.63-1.82l-.08-.22.12-.2c1.15-1.93 3.13-1.81 4.02-1.48l.19.07.09.19c.36.79.64 2.48-.87 3.29-.39.2-.77.3-1.14.3Zm-1.3-2.08c.17.34.5.84.96 1.02.3.12.63.07 1.01-.13.83-.44.64-1.37.5-1.79-.48-.11-1.66-.24-2.47.9ZM9.369 30.465c-.18 0-.34-.03-.48-.06-1.07-.29-1.64-1.42-1.71-1.55l-.1-.21.1-.21c.89-1.92 2.75-2 3.62-1.77l.2.05.1.18c.41.7.84 2.27-.5 3.17-.45.3-.88.4-1.23.4Zm-1.16-1.84c.19.29.53.71.95.82.28.08.57.01.89-.21.69-.47.45-1.27.29-1.64-.46-.07-1.5-.07-2.13 1.03ZM5.479 35.175c-.18 0-.33-.03-.46-.06-.93-.26-1.4-1.23-1.45-1.33l-.1-.21.1-.21c.83-1.79 2.57-1.87 3.38-1.65l.21.05.1.19c.34.61.66 1.99-.59 2.83-.46.29-.86.39-1.19.39Zm-.89-1.62c.14.22.39.51.7.59.25.07.51 0 .82-.21.59-.4.48-1 .37-1.31-.43-.04-1.33-.02-1.89.93ZM2.219 39.245c-.17 0-.32-.03-.44-.07-.84-.27-1.22-1.23-1.26-1.33l-.07-.2.09-.19c.76-1.64 2.18-1.61 2.82-1.36l.15.06.09.13c.05.08.52.79.37 1.57-.08.42-.33.79-.72 1.05-.39.25-.74.34-1.03.34Zm-.67-1.57c.11.2.3.47.54.54.06.02.25.08.59-.16.17-.12.27-.25.3-.41.04-.23-.05-.5-.13-.67-.29-.04-.87-.03-1.3.7ZM19.639 34.455l-1.8-1c-.87-.48-1.47-1.28-1.78-2.39-.55-1.93-.06-4.33.27-4.92l.72-1.29.21 1.46c.09.63.16 1.31.22 2.07.08 1.12.24 3.19 1.02 4.35l1.14 1.72ZM15.369 36.495l-1.91-.84c-.88-.39-1.52-1.1-1.88-2.12-.68-1.88-.23-4.23.05-4.8l.56-1.14.36 1.21c.28.92.34 1.38.42 1.95l.04.29c.17 1.16.44 3.1 1.03 3.82l1.33 1.63ZM11.479 40.415l-1.96-.67a3.197 3.197 0 0 1-2.03-2.01c-.59-1.65-.05-3.61.26-4.12l.6-.98.3 1.11c.17.64.32 1.37.43 2.17.17 1.28.37 2.39.96 3.01l1.44 1.49ZM5.759 43.435c-.83-.31-1.42-.92-1.72-1.78-.46-1.35-.08-2.88.22-3.37l.6-.97.3 1.1c.2.74.38 1.62.46 2.31.05.44.19 1.59.55 1.8l-.41.91Z" fill="#BF4E70"/><path d="m17.709 34.325.11-1.49c.06-.81.05-1.27-.04-1.96-.13-.97-.28-1.43-.73-2.82-.14-.44-.31-.97-.52-1.64l-.34-1.09 1.03.49c1.12.54 1.87 1.58 2.16 3.01.33 1.6.02 3.55-.69 4.37l-.98 1.13Zm.42-6.16c.11.36.21.66.29.93 0-.02-.01-.04-.01-.05-.06-.28-.15-.58-.28-.88ZM27.579 86.005c-.34-1.74-1.19-6.63-1.47-12.78-.06-1.33.17-2.74.43-4.18-1.42 2.86-2.68 8.93-1.65 16.96h2.69Z" fill="#BF4E70"/><path d="M28.189 86.505h-3.73l-.06-.44c-1.04-8.1.19-14.22 1.7-17.25l1.59-3.2-.65 3.51c-.25 1.34-.49 2.76-.43 4.07.27 6.07 1.11 10.91 1.46 12.71l.12.6Zm-2.85-1h1.64c-.39-2.11-1.09-6.51-1.35-11.9-.6 3.05-.86 7.12-.29 11.9ZM47.839 86.505h-17.32l.12-.6c.35-1.8 1.19-6.63 1.46-12.71.07-1.47-.23-3.06-.55-4.74-.35-1.84-.71-3.74-.59-5.61.13-1.96.09-4.28.05-6.74-.07-4.84-.16-10.33 1-14.72 1.07-4.05 1.08-5.4.98-8.32l-.01-.34c-.05-1.62-.12-3.83.1-5.98.25-2.44 1.32-4.61 2.86-5.82.96-.75 2.05-1.08 3.13-.92 1.54.21 2.57.75 3.13 1.65.22.34.35.72.42 1.13.45-.52 1.03-.77 1.8-.76.97.04 2.25.42 2.95 1.37.5.68.64 1.55.41 2.57.43-.3.92-.41 1.42-.33 1.2.19 2.02.61 2.49 1.29.66.95.48 2.25.29 3.14-.05.24-.13.55-.24.91.23-.1.48-.18.75-.21.58-.07 1.73.01 2.79 1.37.62.79.46 2.11.12 3.25.48-.2 1.03-.2 1.66-.01.29.09.56.24.81.46.6.53.9 1.34.8 2.18-1.03 8.44-5.12 18.54-7.57 24.58-.57 1.41-1.06 2.61-1.4 3.53-1.4 3.75-1.77 15.16-1.87 19.89l.01.49Zm-16.11-1h15.13c.13-6.01.56-16.08 1.92-19.73.35-.93.83-2.14 1.41-3.55 2.43-5.99 6.49-16.02 7.5-24.32.06-.5-.12-1-.46-1.31-.14-.12-.29-.2-.44-.25-.58-.18-1.2-.26-1.73.8-.46.91-.84 2.42-1.05 4.14-.04.36-.11.68-.19.97-.2.68-.44 1.04-.77 1.18-.2.08-.42.07-.62-.04-.83-.46-.36-1.92 1.08-5.66.27-.7.54-1.4.77-2.04.59-1.63.51-2.58.24-2.92-.57-.73-1.23-1.06-1.89-.99-.58.07-1 .45-1.11.7-.4.89-.72 2.23-.96 4.11-.1.76-.4 2.59-1.09 3.07-.17.12-.36.16-.54.12l-.21-.05-.17-.24c-.3-.53.05-1.84 1.42-6.07.47-1.46.92-2.83 1.06-3.53.24-1.13.2-1.88-.14-2.36-.31-.44-.9-.73-1.82-.87-.27-.04-.51.03-.75.21-.47.36-1.33 1.53-1.74 5.27-.05.43-.6 3.5-1.51 3.62l-.39.05-.21-.41c-.29-.72.24-2.61 1.42-6.45.34-1.09.66-2.15.89-2.98.22-.81.15-1.47-.2-1.95-.49-.66-1.48-.93-2.18-.96-.85-.05-1.78.36-2.16 5.43-.12 1.53-.51 5.07-1.67 5.07h-.04c-.8-.05-.74-1.3-.72-1.84.06-1.29.53-2.75.98-4.16.65-2.04 1.33-4.15.58-5.34-.4-.63-1.19-1.02-2.42-1.19-.81-.11-1.64.14-2.38.72-1.31 1.03-2.26 2.99-2.48 5.13-.22 2.09-.15 4.26-.1 5.85l.01.34c.09 3.03.09 4.42-1.02 8.61-1.12 4.25-1.04 9.67-.97 14.45.04 2.48.07 4.82-.06 6.82-.11 1.74.24 3.58.57 5.36.33 1.74.64 3.38.57 4.97-.24 5.52-.97 10.06-1.36 12.22Zm9.25-55.03c-.04.18-.07.35-.1.52.04-.16.07-.33.1-.52Z" fill="#BF4E70"/><path d="M38.739 26.675c-.45 0-.92-.12-1.4-.36-.87-.43-1.38-1.05-1.52-1.83-.3-1.66 1.29-3.4 1.36-3.47l.1-.1.14-.04c.05-.01 1.25-.34 2.58.38 1.63.89 1.91 1.78 1.93 1.88l.03.12-.03.12c-.02.1-.6 2.34-2.17 3.07a2.3 2.3 0 0 1-1.02.23Zm-.93-4.86c-.41.49-1.17 1.61-1.01 2.5.08.46.4.82.98 1.11.59.29 1.09.34 1.55.13.86-.39 1.39-1.63 1.58-2.24-.12-.2-.47-.66-1.4-1.17-.75-.42-1.42-.38-1.7-.33ZM45.029 26.895c-.37 0-.75-.1-1.14-.31-1.5-.8-1.22-2.5-.87-3.29l.09-.19.19-.07c.89-.34 2.87-.46 4.02 1.48l.12.2-.08.22c-.02.06-.52 1.4-1.63 1.82-.23.1-.46.14-.7.14Zm-1.17-2.98c-.14.42-.32 1.34.5 1.79.38.2.71.25 1.01.13.45-.17.79-.68.96-1.02-.82-1.14-2-1.01-2.47-.9ZM49.329 30.465c-.35 0-.77-.1-1.23-.41-1.34-.9-.91-2.47-.5-3.17l.1-.18.2-.05c.86-.23 2.73-.15 3.62 1.77l.1.21-.1.21c-.06.13-.64 1.26-1.71 1.55-.14.04-.3.07-.48.07Zm-.96-2.88c-.17.38-.4 1.18.29 1.65.32.22.61.28.89.21.42-.11.76-.53.95-.82-.63-1.1-1.68-1.1-2.13-1.04ZM53.229 35.175c-.33 0-.74-.09-1.19-.4-1.25-.84-.93-2.22-.59-2.83l.1-.19.21-.05c.81-.21 2.55-.14 3.38 1.65l.1.21-.1.21c-.05.11-.51 1.07-1.45 1.33-.13.04-.28.07-.46.07Zm-1-2.54c-.12.32-.22.91.37 1.31.31.21.57.27.82.21.31-.08.55-.37.7-.59-.56-.96-1.47-.98-1.89-.93ZM56.479 39.245c-.29 0-.63-.08-1.02-.35-.39-.26-.64-.63-.72-1.05-.15-.78.31-1.49.37-1.57l.09-.13.15-.06c.65-.24 2.07-.27 2.82 1.36l.09.19-.07.2c-.04.11-.41 1.06-1.26 1.33-.13.05-.28.08-.45.08Zm-.63-2.26c-.13.26-.3.76.17 1.08.35.23.53.18.6.16.23-.07.43-.34.54-.54-.44-.75-1.04-.74-1.31-.7ZM39.059 34.455l1.15-1.71c.77-1.15.93-3.23 1.02-4.35.06-.77.13-1.44.22-2.07l.21-1.47.72 1.3c.33.6.83 2.99.27 4.92-.32 1.11-.92 1.91-1.78 2.39l-1.81.99ZM43.329 36.505l1.32-1.62c.59-.73.87-2.67 1.04-3.82l.04-.28c.08-.58.14-1.03.42-1.96l.36-1.21.56 1.13c.29.58.73 2.92.05 4.8-.37 1.02-1 1.73-1.88 2.12l-1.91.84ZM47.229 40.405l1.43-1.49c.6-.62.79-1.73.96-3.01.11-.83.25-1.54.43-2.17l.3-1.11.6.98c.31.51.85 2.48.26 4.12-.35.98-1.05 1.67-2.03 2.01l-1.95.67ZM52.949 43.435l-.42-.9c.36-.21.5-1.37.55-1.8.08-.69.26-1.58.46-2.31l.3-1.11.6.98c.3.48.69 2.02.22 3.37-.29.85-.88 1.47-1.71 1.77Z" fill="#BF4E70"/><path d="m40.999 34.325-.99-1.13c-.71-.81-1.02-2.77-.69-4.37.29-1.43 1.04-2.47 2.16-3.01l1.03-.49-.34 1.09c-.21.66-.37 1.18-.51 1.62-.45 1.39-.6 1.86-.73 2.83-.09.68-.1 1.14-.04 1.96l.11 1.5Zm-.43-6.16c-.13.3-.22.6-.27.87 0 .02-.01.04-.01.05l.28-.92ZM31.119 86.005c.34-1.74 1.19-6.63 1.47-12.78.06-1.33-.17-2.74-.43-4.18 1.42 2.86 2.68 8.93 1.65 16.96h-2.69Z" fill="#BF4E70"/><path d="M34.249 86.505h-3.73l.12-.6c.35-1.8 1.19-6.63 1.46-12.71.06-1.31-.18-2.73-.43-4.07l-.65-3.51 1.59 3.2c1.51 3.03 2.74 9.15 1.7 17.25l-.06.44Zm-2.52-1h1.64c.57-4.78.31-8.85-.29-11.9-.27 5.4-.96 9.79-1.35 11.9Z" fill="#BF4E70"/></svg>