<svg fill="none" xmlns="http://www.w3.org/2000/svg" viewBox="0 0 82 85"><path d="M74.037 35.194c0 .11-1.17.21-3.31.3-.36.01-.74.03-1.15.05-.41.03-.84.06-1.3.05-.46-.14-.95.26-1.46.04-.51-.06-1.04 0-1.6.04-.56.05-1.14-.09-1.74.04-.6.27-1.23-.3-1.87.04-.65.07-1.31.06-2 .04-.05-.01-.09-.03-.14-.04a.387.387 0 0 1-.11-.03l-.14-.03c-.1-.01-.19 0-.27.02.01.11.03.21.05.29l.03.18V36.304c-.23.81-.13 1.65.03 2.5-.31.85-.26 1.73.03 2.62.01.89-.11 1.81.02 2.74.02.93.08 1.89.02 2.85.21.97.2 1.96.02 2.96.22 1 .13 2.02.02 3.06-.13 1.04.2 2.09.02 3.16-.01 1.07.05 2.15.02 3.24-.09 1.1-.19 2.2.01 3.32.05 1.12.13 2.26.01 3.4.05.23.08.46.11.69l.03.35v.09l.11.23c.07.15.14.31.2.47.13.32.25.64.37.96.54 1 .91 2.12 1.54 3.09.48 1.06 1.13 2.03 1.56 3.14.46 1.09.92 2.18 1.56 3.14.33.48.57 1 .8 1.53.12.26.23.53.35.79l.18.39.05.1c.01.03.04.07.03.07.01.01.01.02.02.02-.02.07 0 .16.02.23s.06.11.08.13c.03-.1.05-.21.07-.27.01-.03.01-.06.02-.08 0-.01.01-.02.02-.03l.01-.01.05-.09c.48-1.01 1.1-1.92 1.49-2.97.45-1 .9-1.99 1.46-2.9.17-1.14 1.02-1.86 1.42-2.83.59-.85.9-1.86 1.39-2.75.18-.43.42-.83.65-1.23.12-.2.23-.4.34-.6.05-.1.1-.2.15-.31l.04-.08c0-.01.01-.02.01-.03 0-.02.01-.03.01-.05l-.03-.06V66.934l-.01-.37c-.01-.25-.02-.5-.02-.74-.02-.49-.02-.98.05-1.47-.17-.97.14-1.92.02-2.85 0-.93-.01-1.85.03-2.74.27-.89.05-1.77.03-2.63.03-.85-.15-1.69.03-2.5.02-.81.14-1.6.03-2.37-.04-.77.39-1.51.03-2.23-.06-.72.27-1.42.04-2.09-.22-.67.03-1.32.04-1.94.01-.62.03-1.22.04-1.79.06-2.56.12-4.57.19-5.94s.14-2.1.21-2.1c.08 0 .16.9.23 2.58.07 1.68.14 4.14.2 7.24.01.62.2 1.27.04 1.94 0 .67.14 1.37.04 2.09.25.72.05 1.46.03 2.23.01.77-.07 1.56.03 2.37.14.81-.07 1.65.03 2.5-.15.86-.11 1.73.03 2.63-.15.89.03 1.81.03 2.74-.23.93-.07 1.88.02 2.85.04.48.03.97.02 1.47-.01.25-.01.49-.02.74v.37l.01.19.01.21c0 .14-.01.27-.01.41l-.24.48-.15.31c-.1.21-.19.42-.29.63-.19.42-.39.84-.61 1.25-.36.96-.78 1.91-1.36 2.77-.4.97-.92 1.89-1.4 2.84-.4 1.01-.97 1.92-1.44 2.91-.45 1.01-1.19 1.84-1.47 2.98l-.05.11-.1.2-.19.39c-.13.26-.26.52-.39.79-.26.52-.52 1.03-.79 1.55-.42-.86-.83-1.68-1.27-2.52l-.28-.59-.18-.39c-.12-.26-.25-.52-.37-.78-.25-.52-.52-1.03-.81-1.53-.3-1.17-.96-2.14-1.56-3.14-.59-1.01-1.08-2.08-1.56-3.14-.54-1.02-1.04-2.06-1.53-3.09-.17-.29-.32-.6-.46-.91l-.21-.46-.11-.23-.2-.42.01-.57v-.35c0-.23-.01-.46-.03-.69-.11-1.14.11-2.28.01-3.4-.07-1.12-.11-2.23.01-3.32 0-1.09.23-2.18.02-3.24-.05-1.07-.33-2.12.02-3.16-.09-1.04.17-2.06.02-3.06.26-1 .01-1.99.02-2.96.05-.97.13-1.92.02-2.85-.12-.93.07-1.85.02-2.74-.15-.9.19-1.77.03-2.62.03-.85-.02-1.69.03-2.5l-.03-.07-.01-.03c0-.01-.01-.04-.01-.06-.02-.08-.03-.16-.04-.25-.02-.17-.04-.34-.05-.51-.02-.34-.01-.68.01-.99.37.02.72.07 1.05.1.16.02.32.03.48.05l.06.01h.05l.07.01c.05 0 .09.01.14.01.69.05 1.36-.25 2 .04.65-.29 1.27-.04 1.87.04.6.08 1.18-.12 1.74.04.56-.2 1.09.11 1.6.04.51.14 1 .01 1.46.04.46-.05.9-.03 1.3.05.41.02.79.03 1.15.05 2.13.13 3.3.23 3.3.34ZM66.257 2.814c0 .13-.64.15-1.69.56-.18.06-.36.15-.55.25-.09.06-.19.12-.29.17-.1.06-.2.12-.31.17-.13-.01-.21.12-.3.23-.08.12-.17.23-.33.21-.12.05-.23.14-.34.23-.1.1-.2.22-.3.33-.19.24-.5.35-.63.69-.01.11-.05.18-.11.24s-.14.1-.21.14c-.15.08-.3.2-.28.44-.15.34-.36.63-.55.95-.35.23-.35.69-.47 1.08-.36.27-.41.73-.38 1.19-.41.31-.48.79-.26 1.3-.06.44-.24.89-.12 1.38-.01.24.02.47.02.72.01.26.01.51-.02.77.21.52.2 1.05.02 1.59.22.54.13 1.09.02 1.65-.13.56.2 1.12.02 1.69-.01.29.01.58.02.87.01.15.01.29.01.44v.1c0 .01 0 .03-.01.04-.03.05-.07.13-.09.21.03.02.08.03.14.02.03-.01.06-.02.08-.04l.04-.04c.04-.01.09-.03.13-.05.54-.06 1.09-.14 1.64-.01.55-.27 1.11-.15 1.67-.01.56-.04 1.13.14 1.7-.01.57.04 1.15-.12 1.73 0 .58.08 1.16.16 1.73 0 .57-.17 1.14.07 1.7.01.56.25 1.12-.08 1.67.01.55-.02 1.1.14 1.64.01l.13-.01c.02 0 .02-.01.02-.01l.03-.02c.02-.01.03-.02.06-.01 0-.02.02-.03.06-.05a.678.678 0 0 0-.09-.06l-.02-.01v-.07c-.01-.15.01-.29.04-.44.06-.29.15-.58.11-.87.14-.57-.02-1.14.02-1.69-.06-.56.16-1.11.02-1.65.03-.54-.11-1.07.02-1.59-.08-.26-.05-.52-.01-.77s.09-.48.01-.72c-.02-.47-.09-.93-.12-1.38.19-.51-.13-.89-.26-1.3-.09-.43-.39-.74-.38-1.19-.13-.38-.2-.81-.48-1.08-.1-.16-.12-.37-.17-.57-.05-.19-.14-.36-.38-.38-.13-.12-.17-.31-.25-.48a1.71 1.71 0 0 0-.13-.23.425.425 0 0 0-.23-.12c-.36-.07-.41-.48-.63-.69-.11-.1-.21-.2-.32-.3-.11-.09-.21-.18-.32-.27a7.245 7.245 0 0 0-2.48-1.27c-.63-.16-.99-.21-.99-.3 0-.08.44-.21 1.28-.12.42.05.93.16 1.51.4.58.24 1.21.6 1.85 1.12.25.21.63.3.76.71.24.27.58.47.73.86.42.16.49.65.67 1.02.22.37.33.8.59 1.18.31.36.26.89.49 1.32-.02.52.13.97.35 1.44-.07.53.18 1.01.19 1.55-.1.27-.12.54-.09.8.02.26.09.51.13.77.08.52-.03 1.05.02 1.59-.04.54.06 1.09.02 1.65.11.56.15 1.12.02 1.69.04.29.04.58.04.87 0 .15-.01.29-.01.44l-.01.35v.41c.03.4.04.81.04 1.21-.33 0-.66-.01-.98-.02l-.48-.01h-.37c-.54.05-1.09-.27-1.64.01-.55.04-1.11-.04-1.67.01-.56-.03-1.13-.07-1.7.01-.57-.28-1.15-.11-1.73 0-.58.08-1.16.04-1.73 0-.57.03-1.14.01-1.7-.01-.56.08-1.12-.12-1.67-.01-.55.12-1.1-.13-1.64-.01l-.13.02-.24.02-.5.03c-.34.01-.68.02-1 .01.01-.42.03-.84.08-1.25 0-.13 0-.27.01-.41l.01-.2c0-.03 0-.08.01-.09l.01-.06c.02-.14.04-.29.05-.44.03-.29.03-.58-.07-.87-.05-.57-.33-1.14.02-1.69-.09-.56.17-1.11.02-1.65.26-.54.01-1.07.02-1.59.02-.26.06-.52.07-.77.02-.26.01-.53-.03-.8-.1-.55.15-1.04.19-1.55-.03-.27.06-.51.16-.73.09-.23.2-.45.18-.71.17-.45.26-.92.49-1.32-.07-.29.02-.5.16-.68.14-.18.31-.32.43-.5.12-.17.18-.38.26-.58.08-.19.2-.37.41-.44.02-.25.12-.42.27-.54.07-.06.15-.12.23-.17.08-.05.16-.1.23-.15.29-.21.42-.61.76-.71.07-.19.21-.27.36-.34.15-.06.3-.1.4-.22.16-.03.27-.11.39-.19s.22-.17.35-.22c.11-.08.22-.15.34-.2.12-.04.24-.07.35-.08.22-.07.43-.14.63-.18.59-.13 1.05-.13 1.36-.11.29.03.45.08.45.13Z" fill="#BF4E70"/><path d="M51.638 21.174c.1 0 .19 1.03.27 2.92.01.31.03.65.04 1.01.03.36.05.74.04 1.15-.13.41.24.83.04 1.28-.06.45-.01.92.04 1.41.04.49-.08 1 .04 1.53.25.53-.27 1.08.04 1.65.07.57.05 1.16.03 1.76-.03.1-.05.22-.07.32-.01.05-.02.11-.01.17 0 .11.03.2.06.27.1-.03.18-.05.25-.06.02.03.04.06.07.08.02.01.03.02.05.03.02.01.03.01.07.02.15.02.29.03.44.02.3-.02.6-.09.9-.18.61.35 1.23.29 1.86-.03.63-.01 1.28.12 1.95-.03.66-.02 1.34-.09 2.03-.03.69-.23 1.39-.22 2.1-.02.71-.25 1.44-.15 2.17-.02.74.14 1.48-.22 2.24-.02.76.01 1.52-.06 2.3-.02.78.1 1.56.22 2.36-.01.8-.06 1.6-.14 2.41-.01.81-.27 1.63-.15 2.46-.01.83-.04 1.66.14 2.51 0 .42.02.84-.01 1.27-.03l.4-.02c.02 0 .05.01.1.04.02-.01.04-.04.05-.09l.01-.03v-.08l.01-.36c.01-.47-.01-.94-.08-1.41-.15-.94.06-1.87 0-2.79.22-.92-.07-1.84.01-2.74-.02-.91.13-1.8.01-2.69-.02-.44-.04-.88-.05-1.32v-.49l.01-.15c.01-.03.02-.06.05-.12-.04.01-.08.03-.1.05-.05.04-.05.05-.05.04v-.03c0-.01-.01-.01-.01-.02.01 0-.03-.01-.04-.01l-.06-.01c-.33-.06-.66-.13-.99-.09-.76-.16-1.5.02-2.24-.02-.74.07-1.46-.18-2.17-.02-.71-.03-1.41.12-2.1-.02-.69.19-1.36-.16-2.03-.03-.66 0-1.31.01-1.95-.03-.63-.3-1.26-.05-1.86-.03-.61-.03-1.2.17-1.77-.03-.58-.02-1.14-.16-1.68-.04-.54.04-1.07-.43-1.58-.04-.51.07-1.01-.31-1.48-.04-.48.25-.94-.03-1.38-.04-.44-.01-.86-.03-1.27-.04-3.63-.13-5.71-.28-5.71-.44 0-.18 2.57-.34 6.97-.48.44-.01.9-.22 1.38-.04.48 0 .97-.16 1.48-.04.51-.28 1.04-.05 1.58-.04.54-.01 1.1.08 1.68-.04.58-.16 1.17.08 1.77-.03.61.17 1.23.13 1.86-.03.63.17 1.28-.03 1.95-.03.66.26 1.34.07 2.03-.03.69-.09 1.39.04 2.1-.02.71.05 1.44-.07 2.17-.02.73-.12 1.48-.16 2.24-.02.33-.04.66-.04.99-.04.59.01 1.17.01 1.77.02v.63c.02.38.03.79.04 1.2v.34l-.01.33c-.01.44-.03.88-.02 1.32.05.89-.24 1.78.01 2.69.03.91-.04 1.82.01 2.74-.03.92-.07 1.86 0 2.79-.12.47-.15.94-.13 1.41.04.76.09 1.54.13 2.31-.38.02-.79.03-1.2.04l-.56.01h-.32c-.42 0-.85-.03-1.27-.05-.84.03-1.68.01-2.51 0-.83.08-1.65-.12-2.46-.01-.81.12-1.62-.13-2.41-.01-.79.08-1.58.13-2.36-.01-.78 0-1.55-.25-2.3-.02-.76.05-1.5.37-2.24-.02-.73.1-1.46-.19-2.17-.02-.71-.28-1.41-.01-2.1-.02-.69-.06-1.36-.15-2.03-.03-.66.14-1.31-.07-1.95-.03-.64.16-1.26-.21-1.86-.03-.3-.02-.6-.01-.9-.01h-.44c-.11 0-.22-.01-.33-.01l-.36-.02c-.33.11-.67.16-.98.17-.01-.4.03-.83.08-1.23l.06-.56c.01-.06.02-.12.02-.17.01-.05.01-.11.01-.16.05-.61-.23-1.19.03-1.76-.26-.57-.04-1.12.04-1.65.07-.53-.11-1.04.04-1.53-.18-.49.1-.96.04-1.41.12-.45.01-.88.04-1.28-.04-.41-.03-.79.04-1.15.01-.36.03-.7.04-1.01.11-1.92.2-2.95.3-2.95ZM5.087 18.024c0 .04-.11.08-.33.13-.22.05-.53.16-.93.36-.39.21-.85.56-1.31 1.11-.22.29-.45.61-.64 1.01-.2.39-.37.85-.5 1.35-.04.17-.09.34-.11.52-.03.18-.07.36-.08.55-.02.19-.04.38-.04.58 0 .1 0 .2-.01.3v.32c.03.88.06 1.82.05 2.81-.14.99.26 2.04.04 3.14-.06 1.1-.01 2.25.04 3.45.05 1.2-.09 2.45.04 3.75.27 1.3-.31 2.65.04 4.04.08 1.39.05 2.83.04 4.32-.21 1.48 0 3.01.03 4.58-.25 1.57-.14 3.18.03 4.83-.35 1.65-.29 3.35.03 5.08.01 1.73-.12 3.5.03 5.31.02 1.8.09 3.65.03 5.52.12.94.17 1.88.17 2.84 0 .24 0 .48-.01.72l-.01.35c0 .1 0 .19-.01.29-.01.19.01.38 0 .58.01.19.03.39.04.59.08.17.14.35.23.51.04.08.08.17.12.25.04.08.09.15.13.23.08.16.18.3.26.46.04.07.1.14.14.21.05.07.09.15.14.21.4.54.86 1.03 1.42 1.32.27.17.58.2.87.21.35-.01.73-.05 1.09-.08.73-.07 1.47-.12 2.21.02 1.48.02 2.99-.08 4.52-.02 1.52.14 3.07.3 4.63-.02 1.56-.09 3.14-.2 4.73-.01 1.6-.37 3.21-.21 4.83-.01 1.63-.06 3.27.2 4.92-.01 1.65.06 3.32-.16 5 0 .34.01.67-.02 1-.13.33-.12.64-.31.93-.57.28-.27.54-.59.75-.96.2-.38.36-.8.46-1.24.08-.45.15-.89.19-1.33.01-.11.01-.22.01-.34l.01-.17v-.21l.02-.85c.03-1.14.07-2.27.04-3.4.25-2.26-.08-4.49.01-6.71-.02-2.21.14-4.41.01-6.58-.05-2.17-.09-4.31.01-6.43-.38-2.12.1-4.21.02-6.27.16-2.06-.02-4.1.02-6.1-.07-2.01.18-3.98.02-5.92.03-1.94-.12-3.85.02-5.73-.09-.94-.05-1.87-.01-2.79.05-.76-.04-1.56-.34-2.2-.24-.68-.59-1.27-1.01-1.72-.42-.45-.9-.78-1.4-.97-.12-.09-.25-.15-.37-.21-.13-.04-.26-.07-.4-.09-.31-.03-.61-.02-.92 0-.61.04-1.21.13-1.81.14-1.19-.04-2.35.24-3.48-.05-1.13-.03-2.23-.22-3.3-.05-1.07.06-2.11-.6-3.11-.05-1 .1-1.97-.43-2.91-.05-.94.34-1.84-.04-2.7-.06l-2.48-.06c-3.56-.09-6.36-.19-8.27-.29-1.86-.09-2.88-.2-2.88-.31 0-.12 1.26-.25 3.6-.36 2.34-.11 5.76-.22 10.09-.31.86-.02 1.77-.31 2.7-.06.94 0 1.91-.22 2.91-.05 1-.38 2.04-.07 3.11-.05 1.07-.02 2.17.1 3.3-.05 1.13-.22 2.29.11 3.48-.05.6.12 1.2.16 1.81.15.31-.01.61-.03.92-.06.18 0 .35-.02.53-.02.18.02.36.02.54.05.69.34 1.35.76 1.95 1.35.16.14.29.32.43.48.14.17.27.36.4.55.24.4.47.82.63 1.3.22 1.02.37 2.04.4 3.1.03.92.1 1.85.15 2.79.09 1.87-.04 3.78.02 5.73-.05 1.94.07 3.91.02 5.92.12 2 .17 4.04.02 6.1.08 2.06.02 4.15.02 6.27.1 2.12-.01 4.26.01 6.43.05 2.17-.27 4.36.01 6.58.04 2.22-.04 4.45.01 6.71-.02 1.13-.04 2.26-.04 3.4v1.07l-.01.26c-.01.17-.01.34-.02.51-.05.68-.17 1.35-.34 2.01-.27.6-.56 1.15-.88 1.65-.33.5-.69.95-1.09 1.35-.4.39-.84.71-1.3.95-.47.24-.97.37-1.47.42-1.68.11-3.34.05-5 0-1.65.04-3.29.02-4.92-.01-1.63.12-3.24-.16-4.83-.01-1.59.16-3.17-.18-4.73-.02-1.56.11-3.11.17-4.63-.02-1.52 0-3.03-.35-4.52-.02-.74.04-1.48.16-2.21.22-.37.02-.73.03-1.1 0-.45-.05-.89-.19-1.28-.49-.85-.23-1.6-.93-2.18-1.76-.08-.1-.14-.22-.21-.33-.07-.11-.14-.22-.2-.34-.12-.24-.25-.46-.35-.71l-.16-.37-.14-.38c-.1-.25-.18-.52-.27-.78-.03-.29-.05-.58-.07-.86-.01-.29-.04-.56-.04-.84l-.01-.42v-.37c0-.24-.01-.48-.01-.72-.03-.96-.1-1.9-.09-2.84.05-1.88.15-3.72.03-5.52-.14-1.81.07-3.58.03-5.31-.16-1.73.21-3.42.03-5.08.04-1.65-.03-3.26.03-4.83-.38-1.57 0-3.1.04-4.58.06-1.48-.25-2.92.04-4.32-.29-1.39-.04-2.74.04-4.04.08-1.3-.12-2.55.04-3.75-.2-1.2.11-2.35.04-3.45.13-1.1.01-2.15.04-3.14-.05-.99-.03-1.93.05-2.81 0-.11 0-.22.01-.33.01-.12.01-.23.02-.35.01-.23.04-.45.07-.67.02-.22.07-.43.11-.64.04-.21.1-.4.15-.59.17-.57.39-1.07.64-1.49.24-.43.51-.77.77-1.06.54-.56 1.07-.87 1.51-1.03.44-.15.78-.18 1.01-.17.23.04.34.07.34.11Z" fill="#BF4E70"/><path d="M11.127 1.094c0 .09-.2.12-.49.35-.14.12-.31.28-.45.54-.14.25-.25.59-.27.98-.01.13 0 .26.01.44.01.17.02.35.02.54.03.37.06.76.05 1.18-.14.42.26.86.04 1.32-.06.46 0 .94.04 1.45.05.5-.09 1.03.04 1.57.27.55-.3 1.11.04 1.69.08.59.06 1.19.04 1.81-.21.62 0 1.26.04 1.92-.13.33-.16.66-.15 1 .01.17.03.34.06.51.02.08.03.17.05.25.02.04.04.06.06.09-.19.18-.26.53-.23.72.16-.03.37-.16.49-.37h.06l.04.01.1.01c.13.01.27.02.4.04.27.02.54.01.81-.09.55-.03 1.1-.12 1.67-.04.57-.32 1.14-.31 1.73-.03.59-.35 1.18-.21 1.79-.03.61.19 1.22-.31 1.84-.03.62.02 1.25-.08 1.89-.02.64.14 1.29.3 1.94-.02.65-.08 1.32-.2 1.99-.02.67-.37 1.34-.2 2.03-.01.68-.06 1.37.2 2.06-.01.69.06 1.39-.16 2.1 0 .23.04.59.08.56.1.06.02.13.03.17.01a.573.573 0 0 0-.08-.23l-.05-.06c-.01-.01-.01-.01-.01-.02v-.14c0-.24.01-.48.03-.72.03-.48.07-.95.04-1.43.25-.95-.08-1.88.01-2.81-.02-.93.15-1.85.01-2.76-.05-.91-.09-1.81.01-2.7-.38-.89.1-1.76.02-2.63l.03-.16.02-.13c.01-.05.01-.11.01-.16a.75.75 0 0 0-.09-.3c-.1-.18-.22-.28-.34-.4-.07-.03-.14-.05-.2-.09-.03-.02-.07-.03-.1-.04-.01-.01-.06-.01-.09-.02l-.11-.02c-.3-.05-.59-.08-.89.03-.59-.05-1.16.17-1.73-.03-.57.26-1.12-.22-1.67-.04-.55 0-1.08.02-1.6-.04-.52-.41-1.03-.07-1.53-.04-.5-.05-.99.24-1.46-.05-.47-.03-.94-.22-1.38-.05-.45.06-.88-.6-1.3-.05-.42.1-.83-.42-1.22-.05-.39.34-.77-.04-1.13-.05l-1.04-.06c-3.02-.18-4.73-.39-4.73-.61 0-.25 2.11-.48 5.74-.67.36-.02.74-.31 1.13-.05.39 0 .8-.22 1.22-.05.42-.38.86-.07 1.3-.05.45-.02.91.11 1.38-.05.47-.22.96.11 1.46-.05.5.24 1.01.18 1.53-.04.52.23 1.06-.05 1.6-.04.55.36 1.1.11 1.67-.04.57-.13 1.14.05 1.73-.03.29.04.59.01.89-.01l.11-.01c.04 0 .07-.01.13 0a1.503 1.503 0 0 1 1 .35c.44.22.84.67 1.08 1.27.12.3.2.64.23.98.01.17.02.34.01.51 0 .04 0 .09-.01.12l-.03.24c.08.87.02 1.74.02 2.63.1.89-.01 1.79.01 2.7.05.91-.27 1.83.01 2.76.04.93-.04 1.87.01 2.81-.02.47-.04.95-.04 1.43 0 .24 0 .48.01.72l.02.55c.01.23.02.45.02.68-.08.46-.12.89-.14 1.34-.46-.03-.87-.01-1.31.03-.53.04-.68.11-.95.16-.7.11-1.4.05-2.1 0-.69.04-1.38.02-2.06-.01-.68.12-1.36-.16-2.03-.01-.67.16-1.33-.18-1.99-.01-.65.11-1.3.17-1.94-.02-.64 0-1.27-.35-1.89-.02-.62.07-1.24.51-1.84-.03-.61.13-1.2-.26-1.79-.03-.59-.39-1.16-.02-1.73-.03-.57-.08-1.12-.21-1.67-.04-.27.09-.54.07-.81.03-.13-.02-.26-.05-.4-.06l-.1-.01-.16-.01c-.11 0-.22 0-.34.01-.44.11-.87.05-1.22-.02.03-.36.06-.71.07-1.02.01-.32 0-.61-.05-.9 0-.15.01-.29.01-.44v-.77c0-.34 0-.67.02-1-.38-.66 0-1.3.03-1.92.06-.62-.25-1.22.04-1.81-.29-.58-.04-1.15.04-1.69s-.12-1.07.04-1.57c-.2-.5.11-.98.04-1.45.13-.46.01-.9.04-1.32-.04-.42-.03-.81.05-1.18.01-.18.02-.36.02-.54 0-.09.01-.16.01-.27.01-.1.01-.2.03-.3.08-.58.3-1.02.53-1.3.23-.29.48-.44.67-.51.45-.13.65 0 .65.06ZM.807 32.885c.11 0 .21 1.98.3 5.59.02.6.03 1.25.05 1.94.03.69.06 1.43.05 2.21-.14.78.26 1.6.04 2.46-.06.86-.01 1.76.04 2.71.05.94-.09 1.92.04 2.94.27 1.02-.31 2.08.04 3.17.08 1.09.05 2.22.04 3.39-.21 1.16 0 2.36.03 3.59-.25 1.23-.14 2.5.03 3.79-.12.17-.2.49-.22.8.15.04.36.02.53-.04.03-.02.12-.03.2-.05.08-.02.16-.04.23-.07.16-.05.31-.12.47-.19.98-.02 1.98.17 3-.04 1.02-.03 2.06-.12 3.12-.04 1.06-.32 2.14-.31 3.23-.03 1.1-.35 2.21-.21 3.34-.03 1.13.19 2.28-.3 3.45-.03 1.16.02 2.35-.08 3.54-.02 1.2.14 2.41.3 3.63-.02 1.22-.08 2.46-.2 3.71-.02 1.25-.37 2.52-.2 3.79-.01 1.27-.06 2.56.2 3.86-.01.65.03 1.3-.01 1.95-.04l.49-.02h.48c.03 0 .07.02.14.06.02-.04.04-.11.06-.2l.02-.66.01-.68c.01-.91-.01-1.81-.09-2.71-.17-1.8.07-3.59 0-5.36.25-1.77-.08-3.53.01-5.26-.02-1.74.14-3.45.01-5.16-.05-1.7-.09-3.38.01-5.04-.38-1.66.1-3.3.02-4.92.02-.17.03-.34.04-.5 0-.04 0-.1.01-.11l.01-.03c0-.02.01-.04.01-.07.01-.09.01-.18 0-.26-.1.01-.19.04-.26.05-.33.02-.67.03-1 .01-1.13.1-2.25-.25-3.34-.03-1.1-.04-2.18.17-3.23-.03-1.06.26-2.1-.22-3.12-.04-1.02 0-2.02.02-3-.04-.98-.41-1.93-.07-2.87-.04-.93-.05-1.84.24-2.73-.05-.89-.03-1.75-.22-2.59-.05-.84.06-1.65-.6-2.44-.05-.79.1-1.55-.43-2.28-.05-.73.34-1.44-.04-2.12-.06l-1.95-.06c-2.79-.09-4.99-.19-6.49-.29-1.5-.1-2.3-.21-2.3-.32 0-.12.99-.24 2.82-.36 1.84-.11 4.52-.22 7.91-.32.68-.02 1.38-.31 2.12-.05.73 0 1.49-.22 2.28-.05.79-.38 1.6-.07 2.44-.05.84-.02 1.7.11 2.59-.05.89-.22 1.8.11 2.73-.05.93.24 1.89.17 2.87-.04.98.23 1.98-.05 3-.04 1.02.36 2.06.11 3.12-.04 1.06-.13 2.14.05 3.23-.03 1.1.07 2.21-.09 3.34-.03.33-.05.66-.09 1-.12.63-.03 1.29-.04 1.93-.04 0 .64-.01 1.29-.02 1.93l-.01.48-.01.24v.14c-.01.17-.02.34-.04.5.08 1.62.02 3.26.02 4.92.1 1.66-.01 3.34.01 5.04.05 1.7-.27 3.42.01 5.16.04 1.74-.04 3.49.01 5.26-.04 1.77-.07 3.55.01 5.36-.14.9-.17 1.8-.14 2.71 0 .23.01.45.02.68l.04.7c.03.86.06 1.72.08 2.58-.6.03-1.22.04-1.85.05l-.51.01h-.49c-.65-.01-1.3-.04-1.95-.06-1.3.04-2.58.02-3.86-.01-1.27.11-2.54-.17-3.79-.01-1.25.17-2.49-.18-3.71-.01-1.23.11-2.44.17-3.63-.02-1.2 0-2.38-.35-3.54-.02-1.17.08-2.32.51-3.45-.03-1.13.13-2.25-.26-3.34-.03-1.1-.39-2.18-.02-3.23-.03-1.06-.08-2.1-.21-3.12-.04-1.02.19-2.02-.1-3-.04-.16.04-.31.05-.47.06h-.23l-.29-.02c-.54-.03-1.04-.09-1.51-.12.03-.82.03-1.53-.03-2.3.04-1.29-.03-2.56.03-3.79-.38-1.23 0-2.43.04-3.59.06-1.17-.25-2.29.04-3.39-.29-1.09-.04-2.15.04-3.17s-.12-2 .04-2.94c-.2-.94.11-1.84.04-2.71.13-.86.01-1.68.04-2.46-.05-.78-.03-1.52.05-2.21.02-.69.03-1.34.05-1.94.06-3.61.16-5.59.27-5.59Z" fill="#BF4E70"/><path d="M21.003 38.03c0 .008-.021.016-.058.024-.018.005-.044.008-.073.014a.76.76 0 0 1-.047.008c-.015.002-.034.008-.052.01a2.727 2.727 0 0 1-.125.025c-.045.014-.094.024-.146.04-.053.014-.107.036-.168.057-.06.022-.12.052-.187.076-.086.043-.178.087-.272.146-.047.027-.091.063-.14.095l-.074.049c-.023.019-.05.035-.073.054a.208.208 0 0 0-.078.051c-.024.024-.042.052-.063.076a.896.896 0 0 1-.065.076.241.241 0 0 1-.086.056c-.029.022-.055.041-.081.066-.026.024-.05.05-.073.078-.05.054-.091.114-.138.176-.089.122-.214.224-.28.381-.015.09-.078.146-.138.209-.057.065-.117.13-.12.232-.034.084-.076.163-.112.247-.021.04-.042.08-.063.124l-.06.127c-.128.15-.146.358-.203.55a.792.792 0 0 0-.128.278 1.417 1.417 0 0 0-.037.317.907.907 0 0 0-.086.143.835.835 0 0 0-.047.157.871.871 0 0 0 .008.338c-.018.111-.039.22-.06.333a1.39 1.39 0 0 0-.018.347c-.008.116-.01.232-.01.351-.006.12-.006.239-.016.358.028.121.047.24.05.362a2.17 2.17 0 0 1-.009.279c-.002.03-.005.062-.01.095.02.06.037.121.047.184a2.315 2.315 0 0 1 .042.376c.002.065.002.127.005.192.005.262.151.495.167.763.065.254.164.503.25.758.07.26.16.525.342.733.146.23.308.444.45.682.221.168.38.381.568.582.107.083.214.165.326.243.055.038.115.07.175.103.063.027.123.054.19.067.063.025.123.052.188.065l.097.025a.582.582 0 0 0 .07.01c.008 0 .014-.002.021 0l.04.014.002-.003a.07.07 0 0 0 .003-.027c0-.005-.003-.013-.003-.021 0-.003 0-.006-.003-.011l-.002-.008-.008-.027c-.01-.038-.026-.076-.037-.114l-.03-.114c-.027-.075-.04-.151-.066-.227a1.497 1.497 0 0 1-.044-.24 3.731 3.731 0 0 1-.003-.244c.01-.163.031-.32.044-.48a.923.923 0 0 0 .034-.113 1.751 1.751 0 0 0 .05-.227l.023-.114.021-.113.026-.114c.01-.038.019-.076.032-.111.013-.035.026-.07.041-.105.1-.29.267-.539.381-.812a3 3 0 0 1 .48-.72.61.61 0 0 1 .102-.192 1.02 1.02 0 0 1 .144-.154c.102-.098.214-.179.3-.287.22-.165.38-.387.59-.552a2.123 2.123 0 0 1 .31-.238c.055-.036.107-.073.16-.111.051-.038.101-.079.148-.125.026-.016.052-.035.078-.054l.079-.054.154-.11a1.6 1.6 0 0 1 .323-.182c.094-.084.206-.138.319-.181.005-.003.015-.006.018-.009h.005l.013-.002a.403.403 0 0 0 .029-.008c.002 0 .005-.003.008-.003v-.008c0-.006 0-.008-.003-.014a.083.083 0 0 0-.01-.027l-.006-.07a.978.978 0 0 0-.01-.087c-.008-.057-.013-.114-.021-.17-.013-.114-.029-.225-.042-.336a.748.748 0 0 0-.026-.333c-.029-.105-.07-.205-.096-.308-.045-.208-.152-.39-.167-.595-.058-.192-.1-.39-.204-.55-.047-.084-.057-.181-.084-.27a.498.498 0 0 0-.052-.127.292.292 0 0 0-.099-.098c-.099-.143-.11-.346-.258-.44-.146-.096-.183-.266-.282-.383-.024-.03-.047-.056-.07-.086-.027-.027-.05-.054-.074-.081a2.598 2.598 0 0 0-.146-.152 3.065 3.065 0 0 0-.652-.498 2.625 2.625 0 0 0-.556-.238c-.32-.092-.503-.097-.503-.124 0-.011.054-.022.164-.03a1.942 1.942 0 0 1 .334.024c.047.006.094.02.146.03.206.049.457.138.726.295.266.16.55.384.816.685.107.116.25.219.316.39.097.143.23.273.292.454.154.127.188.333.267.514.08.181.135.379.23.57.109.188.109.415.192.62.003.114.024.225.047.336.026.111.06.22.1.333-.003.119.015.233.039.349.01.06.02.116.033.176l.016.09.005.045.006.062c-.006.052-.006.1-.008.15v.105c-.008.008-.021.01-.032.016-.044.022-.086.04-.128.062l-.114.06c-.102.06-.19.135-.287.205a3.792 3.792 0 0 1-.3.193c-.05.032-.102.062-.152.097-.026.016-.05.032-.075.051-.024.02-.047.038-.073.057-.05.033-.102.068-.152.106l-.143.116c-.047.038-.094.081-.141.122-.047.04-.097.078-.146.119-.17.19-.345.37-.551.53-.162.203-.345.39-.506.604-.141.227-.313.433-.441.673a3.06 3.06 0 0 1-.102.179l-.055.087-.052.089c-.016.03-.034.06-.05.092a.597.597 0 0 0-.039.095.637.637 0 0 0-.047.205c-.086.26-.177.525-.2.801-.048.27-.063.555.002.825a.758.758 0 0 0 .005.203c.005.033.013.065.018.098.008.032.021.065.032.095l.008.024.018.043c.013.03.023.062.039.092.034.062.065.125.1.19.067.13.143.26.22.397l-.043.006c-.126 0-.259 0-.39-.008-.13-.009-.26-.011-.404-.04-.083-.015-.104-.02-.148-.03l-.115-.036c-.079-.022-.152-.057-.225-.087a2.674 2.674 0 0 1-.806-.484 2.188 2.188 0 0 1-.094-.07c-.029-.025-.057-.052-.086-.079-.029-.027-.055-.054-.084-.08l-.075-.087c-.026-.03-.052-.057-.076-.087-.023-.03-.05-.06-.073-.087l-.076-.084a1.16 1.16 0 0 0-.075-.083c-.026-.027-.052-.054-.076-.084a1.171 1.171 0 0 1-.065-.092l-.063-.095-.05-.1-.11-.195a2.204 2.204 0 0 0-.116-.187 2.643 2.643 0 0 1-.363-.792c-.105-.268-.125-.558-.256-.807-.083-.265-.222-.52-.167-.806-.018-.065-.026-.133-.034-.2a2.583 2.583 0 0 1-.013-.2 2.39 2.39 0 0 0-.042-.393 1.22 1.22 0 0 0 .008-.39c-.01-.127-.031-.254-.026-.381.008-.127.02-.252.031-.373.008-.125.016-.247.01-.368-.01-.122.014-.241.032-.36.026-.117.05-.233.065-.347a.99.99 0 0 1 .07-.338c.02-.054.037-.108.05-.162a.587.587 0 0 0 .026-.165c.032-.109.06-.212.09-.317.028-.103.062-.206.101-.303-.023-.236.143-.392.232-.568a.797.797 0 0 0 .058-.138c.018-.046.034-.092.05-.138a.538.538 0 0 1 .156-.238c.01-.1.06-.182.112-.255.057-.07.123-.132.18-.2.117-.127.177-.298.313-.39a.405.405 0 0 1 .154-.178l.091-.068c.03-.024.058-.046.081-.076a.441.441 0 0 0 .09-.062.992.992 0 0 0 .08-.068c.026-.024.052-.046.076-.07.026-.022.054-.04.08-.06.027-.021.05-.043.076-.062a.835.835 0 0 1 .081-.051.694.694 0 0 1 .165-.076c.101-.054.203-.095.3-.132.073-.022.138-.05.203-.063.065-.013.125-.032.183-.04.057-.008.11-.017.156-.022.05-.003.092-.005.13-.005.022 0 .037-.003.056 0l.047.002.073.008c.05.003.068.011.068.017Z" fill="#BF4E70"/><path d="M11.434 43.766c.005.003.002.027-.01.065-.006.02-.016.043-.027.073-.005.014-.01.03-.018.046l-.016.054-.042.125a3.14 3.14 0 0 0-.039.154c-.013.057-.023.116-.036.181-.013.065-.019.136-.029.209-.003.048-.008.1-.01.154-.006.054 0 .108-.003.165 0 .057.008.116.01.176.003.06.01.122.013.187-.015.065.014.13.037.194.024.065.05.13.034.206.01.143.065.284.125.425.029.073.052.146.076.224a.866.866 0 0 0 .107.222c.068.06.083.147.107.23.026.084.05.173.136.228.026.035.052.073.075.11l.076.114c.047.079.099.157.151.236a.687.687 0 0 0 .157.246c.068.073.14.14.209.214.041.097.099.184.174.257a1.47 1.47 0 0 0 .248.192c.086.219.261.357.48.433.17.138.327.31.538.408.188.13.394.241.59.38.06.015.114.034.172.059.029.01.055.024.08.038.027.013.056.024.082.04.052.027.104.06.156.095.052.032.102.068.152.108.03.005.06.014.091.022a1.54 1.54 0 0 1 .26.097c.116.049.223.114.338.17.112.063.237.09.362.117.126.024.25.051.368.108.248.068.509.1.767.144.256.06.527.108.794.043.268-.022.53-.068.8-.087.251-.124.507-.17.77-.254a.973.973 0 0 1 .092-.046c.031-.014.06-.033.091-.049.029-.016.06-.03.092-.046l.088-.051c.06-.033.113-.076.167-.117a1.26 1.26 0 0 0 .146-.146c.1-.092.188-.197.264-.313l.029-.044.015-.021.006-.008.002-.003c.003-.008.008-.014.013-.022l.008-.01-.005-.014a.102.102 0 0 1-.005-.03l.401-.2.06.143.15.352-.33-.019c-.263-.016-.519-.065-.777-.114a1.208 1.208 0 0 1-.232-.07 1.612 1.612 0 0 1-.214-.11l-.102-.063c-.034-.022-.065-.046-.1-.068l-.098-.065c-.032-.024-.066-.046-.097-.067-.107-.12-.227-.217-.347-.314-.06-.049-.115-.1-.172-.152a1.577 1.577 0 0 1-.152-.173c-.2-.23-.334-.506-.514-.744a3.245 3.245 0 0 1-.38-.793.63.63 0 0 1-.116-.187c-.026-.067-.044-.138-.062-.208-.029-.143-.05-.284-.097-.417a3.419 3.419 0 0 0-.088-.408c-.034-.136-.074-.268-.09-.404-.033-.132-.038-.27-.051-.403-.006-.067-.008-.135-.016-.2a2.647 2.647 0 0 0-.031-.197c-.003-.065-.01-.133-.016-.198l-.016-.195c-.013-.13-.01-.26.006-.387a1.227 1.227 0 0 1 .005-.379c.005-.032.01-.062.013-.092l.002-.01v-.006l.003-.008c.003-.005.003-.01.003-.013.002-.011.002-.02.002-.03.003-.006-.008-.006-.01-.006l-.016-.002c-.031-.014-.06-.03-.089-.044l-.154-.07c-.101-.049-.203-.087-.302-.135-.178-.154-.402-.163-.603-.214-.1-.035-.2-.049-.3-.07a.978.978 0 0 1-.287-.087c-.097-.022-.19-.051-.285-.07a.999.999 0 0 0-.281-.027c-.094-.006-.183-.04-.272-.065-.088-.02-.18-.033-.266.021a.42.42 0 0 1-.13-.005l-.128-.016a.374.374 0 0 0-.248.032.49.49 0 0 1-.235.049c-.078.003-.157-.005-.23.01a2.818 2.818 0 0 0-.216.047l-.105.024c-.034.01-.067.019-.099.03a3.461 3.461 0 0 0-.41.151c-.062.03-.122.057-.18.09-.028.016-.054.032-.083.046a.204.204 0 0 1-.042.021l-.039.025c-.204.13-.363.265-.483.384-.245.24-.342.406-.362.392-.01-.005.01-.062.06-.165.054-.097.14-.246.287-.408.146-.163.347-.347.618-.506.068-.041.138-.082.214-.117.076-.04.154-.07.238-.105.166-.063.347-.125.54-.168.078-.019.156-.046.235-.068a.609.609 0 0 1 .253-.016c.086-.005.172-.027.26-.035a.77.77 0 0 1 .269.003.556.556 0 0 1 .282-.025c.094.014.19.035.287.049.097.01.196.024.295.043.1.017.198.035.303.038.104-.003.206.03.308.06.102.035.203.067.31.086.196.103.407.168.634.209.097.065.206.102.316.146l.165.06.041.015c.016.006.024.009.05.022l.138.065c.018.014.04.027.058.04l.028.02c.003.002.013.005.013.01l-.002.02a3.713 3.713 0 0 0-.019.154l-.005.073-.005.065c-.003.03-.003.06-.003.089.003.119.019.24.032.362.015.122.01.244.015.369 0 .062.003.124.006.186.005.062.01.125.018.187 0 .032.003.062.005.095l.01.094c.008.063.016.127.027.19.023.124.044.251.062.381.076.25.144.5.178.766.091.249.159.509.263.76.125.238.217.498.36.734.04.056.07.119.102.178.034.06.065.122.1.181.036.06.072.12.117.171a.763.763 0 0 0 .151.14c.183.204.368.412.595.564.214.167.451.31.715.376.19.127.423.146.642.119l-.183.332-.102-.164c.139-.068.277-.139.415-.209l.1.179.047.089c-.016.03-.034.06-.053.09l-.107.178-.013.021c-.005.009-.005.011-.01.014l-.018.027-.037.052a2.442 2.442 0 0 1-.334.367 2.715 2.715 0 0 1-.79.536 1.923 1.923 0 0 1-.434.168c-.073.022-.149.035-.222.057-.073.019-.146.035-.216.06a1.566 1.566 0 0 1-.22.045c-.072.011-.148.014-.221.02-.073.002-.146.002-.22.008-.072.002-.146.005-.216.016-.29.027-.58.019-.853-.054a1.744 1.744 0 0 1-.206-.041l-.204-.051a1.712 1.712 0 0 0-.407-.07c-.136-.025-.271-.041-.402-.071a.811.811 0 0 1-.365-.176c-.13-.032-.245-.097-.363-.154-.057-.03-.115-.063-.175-.09a1.205 1.205 0 0 0-.18-.07 1.393 1.393 0 0 0-.326-.2l-.086-.038-.086-.04a1.941 1.941 0 0 1-.167-.087c-.206-.144-.397-.295-.608-.409-.217-.108-.368-.303-.553-.438-.204-.12-.306-.346-.491-.468l-.225-.238a2.259 2.259 0 0 1-.206-.247.512.512 0 0 1-.224-.219c-.05-.092-.091-.19-.143-.276-.05-.086-.12-.157-.178-.235a.974.974 0 0 1-.08-.122.488.488 0 0 1-.045-.14c-.16-.125-.185-.325-.24-.493-.024-.087-.066-.163-.102-.24-.034-.08-.068-.158-.07-.242-.102-.14-.063-.316-.11-.46.002-.078-.013-.149-.024-.219-.013-.07-.028-.138-.028-.208-.01-.068-.021-.133-.019-.198 0-.065.003-.127.016-.187.005-.06.005-.119.016-.175l.023-.163c.018-.078.031-.151.05-.216.02-.068.036-.13.057-.187.021-.057.042-.108.06-.154.024-.046.042-.087.06-.122a.934.934 0 0 0 .026-.051c.01-.014.019-.03.026-.044.016-.027.032-.046.045-.062.031-.027.047-.04.055-.038Z" fill="#BF4E70"/><path d="M20.7 48.499a.248.248 0 0 1-.078-.003l-.014-.003c-.007 0-.015 0-.012-.002.036-.006-.068.002-.011-.003.016-.003 0-.003-.01-.005-.013 0 .023-.006-.01-.006-.071.006.077-.01-.011-.005-.018 0-.016-.003-.01-.006.054-.008 0-.005-.011-.005.065-.008.036-.008-.008-.008.089-.011.076-.011-.008-.008-.002-.003.032-.008-.008-.008-.005-.003-.023-.003-.008-.008-.06.002-.057 0-.007-.009-.066.003-.04-.002-.006-.008.037-.005-.057-.002-.005-.008.003-.003-.015-.005-.005-.01.026-.006.055-.011-.005-.011-.016-.003-.04-.006-.003-.011-.07 0-.039-.006-.002-.011-.01-.003.036-.008-.003-.011.01-.005-.031-.005 0-.01.149-.009.297-.017.446-.023-.02.003-.039.009 0 .009.045 0-.018.008 0 .01-.065.009.021.006-.002.009.005.002-.037.008-.003.008.013.002.024.002-.003.008.1-.003-.026.008-.002.008-.042.005.008.005-.005.008.018 0-.045.008-.006.008-.008.003.032.003-.005.008.05 0-.042.008-.005.008 0 .003.003.006-.008.008-.078.009-.013.006-.008.009-.008.002.045 0-.008.008-.005.002-.039.008-.007.008.01 0-.113.013-.008.008.018 0-.079.01-.01.005.062-.005-.008.003-.011.006l-.01.005a.343.343 0 0 1-.113.035.25.25 0 0 1-.128-.016c-.002-.002-.057.003-.01-.005 0-.003-.042 0-.01-.006-.07.006-.014-.002-.01-.005-.004-.003.017-.005-.011-.005-.042 0 .02-.009-.008-.009.044-.005.031-.008-.008-.008.042-.005-.01-.005-.008-.008.065-.008.018-.008-.008-.008-.023 0 .01-.005-.008-.008.014-.003-.018-.005-.005-.008-.031 0-.041-.003-.005-.008-.02-.003-.005-.006-.005-.011-.026-.003.003-.008-.005-.01-.013-.004.07-.012-.003-.012-.01-.002.01-.008-.003-.01.008-.006.019-.009-.002-.011.073-.008.026-.008 0-.011l.46-.025c.02.003.01.006 0 .009.007.002.004.005 0 .01.02.003-.032.008 0 .008.03 0-.035.009-.004.009.021.002.034.002-.002.008 0 .002-.065.01-.003.008.013.003.097 0-.005.008.026 0-.047.008-.005.008-.073.008-.003.005-.005.008-.014.003-.04.008-.008.008.036 0-.019.006-.008.008.042 0-.055.008-.008.008-.01.003.008.003-.008.009.1-.008 0 .002-.008.008-.015.002.066-.003-.01.008.076-.005.01.003-.01.005-.021.003.03 0-.01.006.051-.003-.03.005-.011.005-.034.005-.003.003-.01.005.012 0 .007.003-.011.006l-.01.005a.149.149 0 0 1-.084.033ZM20.71 47.728a.576.576 0 0 1 .092.021c.008.003.015.003.01.003-.037-.005.068.014.01.005-.015-.002-.002 0 .01.006.014.003-.023-.003.011.005.07.011-.078-.01.01.006.02.002.014.005.011.005-.055-.008 0 .003.008.005-.065-.008-.037-.002.008.006-.089-.014-.076-.008.008.005.002.003-.032-.002.008.006.005.002.02.005.005.005.06.01.057.01.005.006.063.01.04.008.005.005-.036-.003.055.01.005.005-.005 0 .014.006.003.006-.026-.003-.055-.006.003.005.015.003.036.008.002.006.068.01.037.008.003.005.01.003-.04-.003 0 .005-.01 0 .029.009 0 .006-.021 0-.042-.003 0 .005.044.008-.018 0-.003.006-.065-.006.021.005-.002.005.005.003-.037-.003-.003.005.01.003.023.006-.005.003.099.014-.026 0-.005.006-.042-.003.005.002-.006.002.019.003-.047-.002-.005.003-.008 0 .032.005-.008.003.05.008-.041-.003-.008.002 0 .003.003.003-.007.003-.079-.008-.013 0-.008.003-.008 0 .044.008-.008.002-.005 0-.04-.002-.01.003.01.003-.113-.01-.01.003.017.003-.08-.005-.011.003.062.008-.008 0-.01.002l-.011.003a.543.543 0 0 1-.238-.027c-.002 0-.057-.008-.01-.003 0 0-.042-.005-.01-.005-.07-.008-.014-.003-.01-.005-.004-.003.02 0-.009-.006-.042-.005.021 0-.008-.005.045.002.034 0-.007-.006.044.003-.008-.002-.008-.005.065.005.02 0-.006-.006-.023-.005.011-.002-.005-.005.013 0-.015-.005-.005-.005-.031-.006-.042-.008-.005-.006-.021-.005-.003-.005-.003-.005-.026-.006.005-.003-.002-.006-.013-.002.07.006-.003-.005-.008-.003.013-.003 0-.005.01 0 .018-.003 0-.006.073.008.029 0 0-.005-.02-.006-.01-.006 0-.006-.008-.002-.003-.005.003-.005-.021-.005.031 0 .002-.005-.031-.006.034 0 .003-.006-.021-.005-.031-.008.005-.005 0-.003.065.005.005-.006-.013-.002-.094-.016.006-.005-.024-.006.05.003.005-.006.073.009.005-.002.008-.002.013 0 .039.002.007-.003-.034-.005.019 0 .008-.003-.042-.008.055.006.008-.002.01 0-.005-.003.008-.003-.1-.016 0-.003.01-.003.013 0-.065-.013.01-.002-.075-.014-.01-.003.011-.003.021.003-.031-.008.01 0-.052-.008.03.003.011 0 .034.005.003 0 .01 0-.01-.003-.007-.003.014 0h.013c.023-.017.05-.014.075-.008ZM11.434 55.236c.005-.002.023.011.05.041l.046.06c.01.01.018.024.029.037.01.014.023.027.036.041l.084.1.107.114c.039.04.086.081.133.124.05.044.104.084.16.13l.122.087c.041.03.088.057.135.084.047.03.1.051.152.078.052.027.107.052.162.081.047.046.114.054.18.065.065.014.13.022.188.07.125.06.268.082.417.1.073.011.149.028.224.044a.865.865 0 0 0 .238.016c.083-.032.164-.003.248.02.083.018.17.04.256-.009l.13-.014c.044-.002.089-.008.133-.01.089-.006.18-.011.274-.02.097.022.19.006.284-.016.095-.024.188-.056.282-.08.102.01.204.002.3-.03.05-.014.097-.033.147-.054.047-.022.093-.047.14-.074.225.033.428-.054.603-.213.201-.084.423-.138.61-.28.204-.105.398-.235.612-.34a1.766 1.766 0 0 1 .6-.406c.02-.024.042-.049.062-.07.021-.025.045-.046.066-.068.044-.043.094-.081.143-.119.097-.078.206-.143.31-.216.11-.068.191-.168.277-.268.084-.1.167-.198.274-.279.18-.19.337-.406.504-.617.177-.2.355-.417.43-.69.115-.252.207-.509.33-.76.02-.287.109-.542.172-.818l.007-.105c.003-.035.003-.07.005-.105.003-.036.006-.07.006-.106v-.106c.002-.07-.008-.14-.013-.208a1.28 1.28 0 0 0-.05-.203 1.607 1.607 0 0 0-.13-.392l-.021-.046-.01-.025-.006-.01-.003-.003a.086.086 0 0 1-.01-.022c-.003-.003-.003-.008-.005-.01l-.01-.003a.322.322 0 0 0-.027-.008l.029-.463.151.016.368.04-.182.29c-.146.23-.316.436-.486.644-.052.063-.11.122-.175.173-.065.05-.127.098-.198.138l-.104.06c-.034.019-.07.035-.105.054-.036.019-.07.038-.104.054a1.82 1.82 0 0 0-.104.054 2.99 2.99 0 0 0-.436.155c-.07.03-.144.054-.214.078a1.596 1.596 0 0 1-.22.049c-.294.065-.59.048-.876.089-.29.016-.577.01-.854-.054a.574.574 0 0 1-.213.008 1.02 1.02 0 0 1-.204-.049c-.133-.046-.26-.097-.397-.124-.253-.108-.521-.14-.767-.246-.128-.036-.245-.098-.363-.157-.057-.03-.114-.06-.174-.087a1.205 1.205 0 0 0-.09-.038c-.03-.01-.06-.024-.09-.032-.058-.03-.115-.057-.173-.084a4.86 4.86 0 0 1-.172-.084l-.083-.043a2.083 2.083 0 0 1-.235-.157 1.082 1.082 0 0 1-.313-.195l-.07-.06c-.009-.005-.006-.005-.009-.008l-.005-.005-.01-.011a.062.062 0 0 0-.024-.016c-.002-.003-.002 0-.005.003l-.005.005a.056.056 0 0 0-.01.013l-.084.06-.133.103c-.092.067-.175.138-.264.205-.216.084-.336.28-.48.433-.078.07-.14.157-.206.236a1.196 1.196 0 0 1-.217.216c-.065.076-.138.146-.2.22a1.14 1.14 0 0 0-.165.24c-.05.081-.123.144-.188.211-.063.07-.117.146-.115.252a.62.62 0 0 1-.068.114l-.078.105a.417.417 0 0 0-.096.238.542.542 0 0 1-.076.236c-.037.07-.084.138-.107.21-.026.074-.05.144-.07.217l-.032.106c-.008.035-.016.07-.026.102-.04.155-.06.304-.078.444-.005.07-.013.138-.016.206 0 .068-.005.13-.002.192.005.249.039.457.078.625.094.35.182.517.162.53-.01.006-.047-.04-.107-.135a2.135 2.135 0 0 1-.199-.462 2.771 2.771 0 0 1-.112-.81c0-.08.003-.165.01-.251.006-.087.019-.176.032-.265.028-.182.068-.374.13-.569.021-.078.04-.162.06-.246a.65.65 0 0 1 .113-.235c.036-.081.062-.168.101-.252.018-.043.037-.084.06-.127.024-.04.05-.079.079-.117a.581.581 0 0 1 .12-.265c.057-.078.125-.151.182-.232.058-.082.118-.163.183-.241.063-.081.128-.163.183-.255.052-.094.127-.17.203-.248.078-.074.157-.15.227-.236.185-.124.342-.281.49-.465.105-.057.189-.136.28-.211.044-.038.089-.079.133-.12l.034-.03.018-.013.024-.019c.039-.03.08-.062.122-.092l.063-.032.047-.025.003-.002.002.002.008.006c.04.032.078.065.117.095l.058.043.055.038c.023.016.05.032.073.046.101.057.211.103.318.154.055.024.107.052.16.081l.077.046.079.044c.052.03.104.06.159.089.055.027.11.054.167.076.026.016.055.03.08.043.03.013.056.024.084.038.058.024.113.048.173.07.117.04.232.087.35.135.245.06.49.122.73.225.253.043.506.11.767.143.264.006.525.054.793.044.066-.006.134-.003.201-.003.068 0 .136.003.201.003.068-.003.136-.008.201-.02a.758.758 0 0 0 .196-.064c.26-.062.527-.125.767-.252.248-.105.486-.252.67-.454.202-.109.335-.309.424-.52.062.111.122.222.185.333-.06.003-.12.008-.183.01l.031-.475h.201c.034 0 .068-.003.1.002l.14.276.014.025.005.016.013.03.023.06c.066.153.105.318.139.483.075.325.083.658.05.977-.003.163-.037.32-.077.471-.018.076-.044.152-.062.227-.021.076-.045.15-.058.225a1.942 1.942 0 0 1-.167.428c-.034.067-.07.132-.104.2-.034.067-.068.132-.094.203-.123.273-.274.53-.47.741a2.839 2.839 0 0 1-.135.165c-.05.051-.097.103-.144.154-.099.103-.188.209-.26.33-.09.109-.17.222-.262.328a.842.842 0 0 1-.328.24c-.092.1-.204.174-.311.25-.055.035-.11.073-.162.11a1.846 1.846 0 0 0-.149.127 1.258 1.258 0 0 0-.331.192c-.1.08-.198.158-.305.223-.222.113-.444.208-.645.343-.198.141-.436.182-.642.276-.099.06-.211.087-.32.111-.11.022-.217.046-.317.098a50.31 50.31 0 0 0-.31.08c-.102.03-.206.05-.308.063a.5.5 0 0 1-.295.092c-.102 0-.203-.013-.303-.008-.096.003-.19.03-.287.043a.614.614 0 0 1-.14.011.439.439 0 0 1-.141-.03c-.186.082-.363.003-.533-.032-.083-.022-.167-.022-.25-.027a.592.592 0 0 1-.238-.057c-.167.019-.297-.1-.438-.13-.063-.04-.13-.062-.196-.09-.065-.023-.13-.042-.188-.078a.877.877 0 0 1-.175-.084.887.887 0 0 1-.148-.108c-.047-.035-.097-.065-.139-.1a4.197 4.197 0 0 0-.125-.103c-.055-.054-.11-.102-.156-.154-.045-.051-.09-.097-.126-.146l-.099-.133c-.026-.043-.05-.08-.07-.116-.01-.016-.021-.032-.029-.049-.008-.016-.016-.032-.02-.046a1.435 1.435 0 0 1-.032-.07c-.021-.035-.026-.057-.018-.06Z" fill="#BF4E70"/><path d="M20.81 49.49a.209.209 0 0 1-.024.08l-.008.011c-.002.008-.005.016-.008.011 0-.038-.01.07-.008.01 0-.015-.005-.002-.01.012-.005.013-.003-.025-.01.01-.01.073.002-.08-.01.009-.006.018-.009.013-.011.008.002-.057-.008 0-.013.008.002-.068-.003-.04-.013.008.008-.095.002-.078-.013.008-.006.003-.006-.035-.013.005-.006.006-.014.022-.016.006-.013.062-.018.057-.016.005-.013.065-.015.038-.015.003 0-.038-.019.057-.016.003-.005-.006-.013.013-.016.002 0-.027-.002-.06-.015 0-.008.017-.019.038-.016 0-.018.07-.018.038-.016 0-.008.011-.005-.04-.018-.002-.003-.011-.016.03-.016-.003.026-.151.055-.303.084-.455 0 .022.003.044.013.003.013-.043.005.022.013.003-.005.068.013-.02.013.005.005-.005.003.04.013.006.005-.011.013-.025.013.005.021-.1.005.027.013.006-.002.043.01-.006.013.008.008-.02.003.048.01.008.003.008.014-.033.011.008.01-.049.003.043.01.008.003 0 .008-.003.011.008-.005.081.005.014.01.01.003.009.013-.042.01.012.003.008.003.043.009.01.005-.01-.006.117.008.011.005-.019-.003.084.007.011.01-.065.006.008.008.011l.005.014a.245.245 0 0 1 .026.121.204.204 0 0 1-.057.125c-.003.002-.013.06-.01.01-.003 0-.01.041-.01.009-.011.073-.009.013-.011.008-.006.002-.006-.022-.013.008-.008.043-.005-.022-.013.008.002-.046-.006-.035-.013.008.002-.046-.01.008-.013.006.005-.07-.006-.022-.016.005-.008.024-.008-.01-.016.005-.002-.013-.013.017-.015.003-.01.033-.016.043-.016.003-.008.022-.01.002-.016.002-.01.028-.01-.005-.015 0-.008.014 0-.073-.016 0-.008.009-.01-.013-.018 0-.003-.01-.008-.021-.019-.002.008-.076-.005-.03-.018-.003l.086-.468c.008-.022.01-.008.013.003.005-.006.01-.003.013.002.008-.021.006.033.013.006.01-.03.003.035.013.005.008-.021.014-.032.014.006.005 0 0 .07.013.005.005-.014.023-.097.013.008.007-.024 0 .052.01.008-.005.076.008.006.01.008.003.017.003.041.01.008.009-.035.006.022.011.009.01-.044 0 .056.01.01.003.011.009-.005.011.011.016-.102.005.003.008.011.003.016.013-.067.008.01.01-.078.008-.01.008.012 0 .024.008-.033.008.01.007-.053.002.03.005.014 0 .035.005.003.005.014.003-.011.005-.008.005.013l.005.014a.129.129 0 0 1 .014.078Z" fill="#BF4E70"/><path d="M20.549 49.451a.193.193 0 0 1-.032.076c-.002.003-.005.008-.008.01-.002.009-.008.014-.008.012.006-.038-.018.067-.01.01 0-.016-.005-.002-.01.009-.006.013 0-.025-.01.008-.019.07.01-.081-.014.008-.008.019-.01.013-.013.008.008-.057-.008-.003-.013.005.01-.067 0-.04-.013.006.016-.092.01-.079-.013.005-.005.003 0-.035-.016.006-.005.005-.015.021-.015.002-.019.06-.024.054-.016.003-.02.062-.02.035-.016 0 .006-.038-.026.054-.015 0-.006-.005-.016.01-.016 0 .003-.027.005-.06-.016 0-.01.014-.02.035-.015-.003-.026.068-.021.035-.018-.002-.008.01 0-.041-.019-.003-.002-.014-.02.027-.018-.005.044-.147.091-.295.136-.442-.003.022-.003.044.013.006.018-.043.002.021.013.005-.016.065.015-.019.013.006.005-.006-.003.04.013.005.008-.01.015-.022.013.008.031-.097.003.027.01.008-.008.044.01-.002.01.009.009-.017-.002.048.011.008.003.01.016-.03.01.01.016-.048-.002.044.011.011.003 0 .008 0 .01.011-.013.079.006.014.008.01.003.009.016-.042.008.012.003.008-.003.043.008.01.005-.01-.018.117.008.011.008-.019-.01.082.008.014.015-.065.002.008.005.013l.005.014c.013.038.02.081.013.124a.19.19 0 0 1-.068.117c-.002.002-.018.057-.01.008-.003 0-.016.04-.013.008-.018.073-.01.01-.013.008-.005.003-.003-.022-.013.005-.013.041-.003-.021-.013.006.005-.046 0-.035-.016.005.005-.043-.01.008-.016.006.01-.068-.005-.022-.015.002-.01.022-.008-.013-.016.003-.003-.013-.013.014-.016 0-.013.03-.02.04-.015 0-.01.02-.01 0-.016 0-.013.024-.01-.005-.016 0-.01.014.01-.073-.018-.003-.008.009-.008-.016-.018-.002-.003-.011-.005-.022-.018-.003.015-.073-.003-.03-.019-.005l.141-.455c.01-.019.013-.008.013.005.008-.005.01 0 .013.006.01-.02 0 .032.013.005.013-.03 0 .036.013.008.01-.019.019-.03.014.008.005 0-.008.068.01.009.008-.014.034-.095.01.008.01-.025-.005.051.01.008-.015.076.009.005.011.01 0 .017-.002.041.01.009.014-.035.003.022.011.01.013-.04-.005.058.008.012.003.01.008-.006.008.01.026-.1.005.003.008.011 0 .016.02-.065.007.01.019-.075.008-.007.006.015-.003.021.013-.03.005.013.013-.054 0 .03.005.014-.005.035.005.002.005.013.006-.01.006-.008.003.014l.003.013a.213.213 0 0 1 0 .081ZM20.024 49.278c-.01.027-.026.049-.042.07l-.008.011c-.005.006-.007.014-.007.008.013-.035-.032.063-.01.009.004-.017-.004-.003-.011.008-.008.01.005-.025-.01.008-.032.065.028-.076-.011.005-.01.016-.01.011-.01.006.02-.052-.006-.003-.011.005.026-.062.01-.038-.01.005.036-.083.028-.073-.01.006-.006 0 .007-.033-.011.003-.006.005-.016.019-.01.002-.03.054-.032.052-.011.003-.032.06-.024.032-.01 0 .012-.035-.032.049-.011 0 0-.005-.013.01-.01 0 .007-.027.018-.054-.011 0-.01.014-.023.032-.01-.003-.034.063-.024.033-.01-.002-.009.008.01-.038-.011-.003.002-.011-.021.024-.01-.006.07-.135.138-.273.208-.408-.008.021-.013.04.008.005.023-.04-.003.02.008.006-.026.06.015-.017.008.005.005-.005-.01.038.007.005.008-.01.016-.019.006.009.047-.092-.006.027.005.008-.016.04.008-.003.005.008.01-.016-.016.046.005.008-.002.008.018-.027.005.008.024-.046-.013.04.006.01.002.004.005 0 .002.012-.031.073 0 .013.003.01 0 .009.023-.037.002.011 0 .008-.013.04.003.011.008-.01-.044.108.003.011.01-.016-.029.076 0 .01.028-.059 0 .009 0 .014v.014a.289.289 0 0 1-.026.119.246.246 0 0 1-.079.105c-.002.003-.028.055-.01.009-.003 0-.021.038-.01.005-.032.068-.011.01-.011.005-.003.003.005-.021-.01.006-.021.038.005-.022-.01.005.015-.043.007-.032-.011.003.015-.04-.01.005-.01.003.025-.063.002-.022-.011.002-.013.022 0-.01-.01.003.002-.014-.014.014-.011 0-.016.027-.026.038-.01 0-.014.019-.008 0-.01 0-.017.022-.006-.005-.011 0-.01.01.026-.068-.01-.003-.009.008 0-.013-.011-.002 0-.011.002-.022-.01-.003.03-.068.005-.03-.011-.005.07-.141.143-.282.214-.423.013-.016.01-.005.008.006.005-.006.008 0 .008.005.013-.019-.008.033.007.006.016-.027-.01.032.008.008.013-.02.021-.027.005.008.003 0-.023.062.006.008.007-.01.047-.087.005.008.013-.022-.016.049.005.008-.031.07.003.006.005.008-.002.014-.013.038.003.011.018-.032-.003.02.002.011.021-.038-.018.054.003.01-.003.012.008-.002.003.012.044-.092.002.002.002.01-.005.014.032-.06.003.011.034-.07.008-.008 0 .014-.008.021.016-.027 0 .013.023-.048-.01.03 0 .014-.013.035.003.003 0 .013.005-.01.005-.005 0 .014l-.003.014c-.013.013-.02.04-.031.067ZM19.85 49.189a.31.31 0 0 1-.048.068l-.008.008c-.005.005-.01.013-.01.008.016-.036-.037.06-.01.008.005-.016-.003-.003-.01.008-.009.01.007-.024-.011.005-.037.065.034-.073-.01.006-.011.016-.011.01-.011.005.023-.051-.003-.002-.01.006.03-.06.012-.036-.011.002.042-.084.034-.07-.01.003-.006 0 .01-.033-.011.003-.005.002-.016.016-.01.002-.034.052-.034.05-.01 0-.035.057-.027.033-.011 0 .015-.035-.034.05-.01 0 0-.005-.014.011-.011-.002.01-.025.023-.054-.01-.003-.011.014-.027.03-.011-.003-.04.06-.026.03-.01-.002-.011.008.012-.038-.011-.006.003-.01-.023.022-.01-.005.078-.13.156-.263.235-.393-.008.02-.016.038.007.006.026-.038-.005.019.008.005-.031.06.016-.016.008.006.005-.006-.016.035.005.008.008-.008.018-.02.005.008.053-.087-.007.024.006.008-.019.04.007-.003.005.008.01-.016-.018.043.002.008-.002.008.021-.027.003.011.026-.043-.016.04.003.01.002.004.005 0 .002.012-.036.07-.002.013.003.01-.003.009.026-.037.003.011 0 .006-.016.04 0 .011.007-.01-.05.106 0 .011.01-.016-.034.076 0 .01.03-.056 0 .009 0 .014v.014a.323.323 0 0 1-.032.116.241.241 0 0 1-.083.1c-.003.003-.032.052-.01.006-.003-.003-.024.035-.011.005-.037.065-.01.011-.01.006-.006.002.005-.022-.011.005-.021.035.005-.022-.01.003.018-.04.01-.033-.011.002.018-.04-.01.006-.01.003.028-.062.005-.021-.01.003-.017.022 0-.014-.011 0 .002-.014-.013.01-.01 0-.019.027-.027.035-.011 0-.013.016-.008 0-.01-.003-.016.022-.006-.008-.011-.003-.01.011.029-.067-.01-.002-.008.005 0-.014-.01-.003.002-.01.002-.022-.011-.005.034-.065.008-.028-.01-.006l.242-.406c.013-.016.01-.005.008.006.008-.006.008 0 .008.005.013-.016-.01.03.007.006.019-.027-.013.032.006.008.013-.017.02-.027.005.008.002.002-.029.062.005.008.01-.01.055-.084.005.008.016-.022-.02.046.006.008-.034.068.002.005.005.01-.005.014-.016.039.002.012.021-.03-.005.019.003.01.023-.037-.024.052.003.011-.003.011.007-.002.002.011.05-.09.003.003 0 .011-.005.014.037-.057 0 .01.04-.067.008-.007 0 .014-.008.022.018-.027 0 .014.026-.046-.01.027 0 .014-.015.032.003.002-.003.013.008-.01.006-.005-.002.014l-.003.013c-.015.024-.026.051-.039.076Z" fill="#BF4E70"/><path d="M21.003 60.97c0-.008.02-.016.057-.024.02-.005.044-.008.073-.014a.76.76 0 0 1 .047-.008c.016-.002.034-.008.052-.01.037-.009.079-.017.123-.025.044-.01.094-.024.146-.04.052-.014.11-.036.17-.057.06-.02.12-.052.188-.076.086-.043.177-.087.27-.146.048-.027.092-.063.142-.095l.073-.049c.023-.019.05-.035.075-.054a.208.208 0 0 0 .079-.051c.023-.024.041-.052.062-.076a.88.88 0 0 1 .066-.076.204.204 0 0 1 .086-.054c.029-.022.055-.04.08-.068.027-.024.05-.05.074-.078.05-.054.091-.114.138-.176.089-.122.214-.224.28-.381.018-.09.078-.146.138-.209.057-.065.117-.13.122-.232.034-.084.076-.163.112-.247l.063-.124.06-.127c.128-.152.146-.358.204-.55a.749.749 0 0 0 .127-.278c.024-.103.037-.209.04-.317a.907.907 0 0 0 .086-.143.835.835 0 0 0 .047-.157.873.873 0 0 0-.008-.338c.018-.111.039-.22.06-.333.015-.114.031-.228.018-.347a5.18 5.18 0 0 0 .01-.351c.006-.12.006-.239.016-.36a2.09 2.09 0 0 1-.042-.641l.01-.095a1.11 1.11 0 0 1-.046-.184c-.013-.063-.02-.125-.029-.187l-.013-.19c-.002-.064-.002-.127-.005-.192-.005-.262-.151-.495-.167-.763-.065-.254-.164-.503-.25-.757-.071-.26-.16-.525-.342-.733-.146-.23-.308-.444-.45-.682-.221-.168-.38-.382-.568-.585-.107-.081-.214-.165-.326-.243a1.86 1.86 0 0 0-.175-.103c-.063-.027-.123-.054-.19-.068-.063-.024-.123-.051-.189-.065l-.096-.024a.58.58 0 0 0-.07-.011c-.008 0-.014.003-.021 0-.008-.003-.019-.005-.04-.014l-.002.003c-.003.006-.003.014-.003.024 0 .006.003.014.003.022 0 .006 0 .008.003.011v.008l.007.027c.01.038.026.076.037.114l.031.114c.026.075.04.151.065.227.024.078.034.16.045.24.002.082.005.163 0 .244-.01.163-.032.32-.045.476-.013.038-.026.076-.034.114-.01.038-.02.076-.028.114a1.678 1.678 0 0 0-.021.113c-.008.038-.016.076-.021.114-.008.038-.013.076-.02.114l-.027.11c-.01.038-.018.076-.031.111-.013.036-.026.07-.042.106-.1.29-.266.538-.381.812a3.07 3.07 0 0 1-.477.72.608.608 0 0 1-.102.192.986.986 0 0 1-.068.08c-.024.025-.05.05-.076.074-.102.097-.216.178-.3.287-.22.165-.38.387-.59.552-.047.046-.099.086-.151.127-.052.04-.107.076-.162.11-.055.036-.107.074-.159.112a1.303 1.303 0 0 0-.149.124 1.362 1.362 0 0 0-.078.054l-.078.055c-.052.037-.102.075-.154.11-.105.07-.209.138-.324.182a.99.99 0 0 1-.318.181l-.021.008h-.005l-.013.003-.029.008c-.003 0-.005 0-.008.003v.008c0 .005 0 .008.003.013.002.011.005.02.01.027l.005.07.01.087.02.17c.012.114.028.225.04.336a.787.787 0 0 0 .027.333c.029.106.07.206.1.309.043.208.15.39.166.598.058.192.1.387.204.549.044.084.055.181.083.27.013.047.029.09.052.128.024.038.055.07.1.097.099.143.112.346.26.441.147.095.183.265.282.382.024.03.047.056.07.086.027.027.05.054.074.081.047.054.099.103.146.152a2.91 2.91 0 0 0 1.208.736c.319.105.501.108.499.135 0 .011-.055.022-.165.03-.055 0-.123 0-.203-.005a5.911 5.911 0 0 0-.13-.017c-.048-.005-.095-.019-.147-.03a2.623 2.623 0 0 1-.725-.294 3.57 3.57 0 0 1-.817-.685c-.107-.116-.25-.22-.313-.39-.097-.143-.23-.273-.293-.454-.154-.127-.188-.333-.266-.514-.08-.182-.138-.38-.23-.569-.109-.186-.109-.413-.19-.62a2.072 2.072 0 0 0-.047-.335c-.026-.11-.06-.219-.099-.33 0-.119-.016-.235-.04-.352a159.181 159.181 0 0 1-.05-.265l-.004-.046-.005-.062c.005-.051.005-.1.008-.149v-.105l.031-.017c.044-.021.086-.04.128-.065l.115-.06c.101-.059.19-.134.287-.205.096-.07.195-.132.3-.192.05-.032.102-.062.151-.097l.076-.052.07-.057c.052-.032.102-.067.152-.105l.143-.116c.047-.038.094-.081.141-.122.047-.04.097-.079.146-.12.17-.189.345-.37.55-.53.163-.203.345-.39.507-.603.14-.227.31-.433.438-.674.032-.06.066-.119.102-.178l.055-.087.052-.09c.016-.029.034-.059.05-.091a.71.71 0 0 0 .039-.095.637.637 0 0 0 .047-.206c.086-.26.177-.524.2-.8.048-.271.063-.555-.002-.826a.755.755 0 0 0-.005-.203c-.005-.032-.013-.065-.02-.1-.009-.032-.022-.065-.032-.095L21 49.968l-.018-.043c-.013-.03-.024-.062-.04-.092l-.099-.19c-.067-.13-.143-.26-.221-.397l.044-.006c.125 0 .258 0 .389.008.13.009.26.011.404.04.084.015.105.02.149.03l.115.036c.078.022.151.057.224.087.3.108.57.284.806.484.032.022.063.046.095.07l.086.079.08.08.076.087c.026.03.052.057.076.087.023.03.05.06.073.087l.076.084.075.083a1.138 1.138 0 0 1 .141.176l.063.095.057.097.11.195c.036.065.076.127.117.187.16.246.293.509.363.793.104.268.125.557.256.806.083.265.221.52.167.806.018.065.026.133.034.2.007.068.01.133.013.2a2.434 2.434 0 0 0 .041.393 1.374 1.374 0 0 0-.018.198c0 .065.005.13.01.192.011.127.032.254.03.381-.009.128-.022.252-.032.374-.008.124-.016.246-.01.368.007.124-.014.243-.032.36a4.22 4.22 0 0 0-.065.346.99.99 0 0 1-.07.338 1.931 1.931 0 0 0-.05.163.592.592 0 0 0-.026.165c-.029.108-.06.214-.089.316a2.93 2.93 0 0 1-.102.303c.024.236-.143.393-.232.569a.866.866 0 0 0-.057.135l-.05.138a.537.537 0 0 1-.157.238c-.01.1-.06.181-.112.254-.057.07-.122.133-.18.2-.117.128-.175.298-.313.39a.405.405 0 0 1-.154.179l-.091.068c-.029.024-.058.046-.081.075a.441.441 0 0 0-.089.063.992.992 0 0 0-.08.067c-.027.025-.053.046-.076.07-.026.022-.055.041-.081.06-.026.022-.05.043-.076.062-.026.02-.055.035-.08.052a.647.647 0 0 1-.165.075c-.102.054-.204.095-.298.133-.073.022-.138.049-.203.062-.066.014-.125.033-.183.04-.057.009-.11.017-.16.023-.046.002-.09.002-.13.005-.02 0-.039.003-.054 0-.019 0-.034-.003-.047-.003a1.557 1.557 0 0 1-.073-.008c-.053.003-.073-.003-.073-.01Z" fill="#BF4E70"/><path d="M30.574 55.236c-.005-.002-.003-.027.01-.064.006-.02.016-.044.027-.073.005-.014.01-.03.018-.046l.016-.055.041-.124c.013-.046.026-.098.04-.154.015-.057.023-.117.036-.182.013-.065.018-.135.029-.208.002-.049.008-.1.01-.154.005-.054 0-.108.003-.165 0-.057-.008-.117-.01-.176-.003-.06-.011-.122-.014-.187.016-.065-.013-.13-.036-.195-.021-.065-.05-.13-.034-.203a1.437 1.437 0 0 0-.125-.425 2.482 2.482 0 0 1-.076-.224.864.864 0 0 0-.107-.222c-.068-.06-.084-.146-.107-.23-.026-.084-.05-.173-.136-.227a1.64 1.64 0 0 1-.075-.111l-.076-.114a5.898 5.898 0 0 0-.151-.235.72.72 0 0 0-.154-.247c-.068-.073-.141-.14-.21-.213a.779.779 0 0 0-.174-.257 1.488 1.488 0 0 0-.248-.192c-.086-.22-.26-.358-.48-.433-.17-.138-.326-.311-.538-.409-.188-.13-.394-.24-.59-.379a1.632 1.632 0 0 1-.49-.23c-.052-.032-.102-.07-.151-.108-.032-.005-.06-.014-.092-.022a1.515 1.515 0 0 1-.261-.098c-.114-.048-.221-.113-.336-.17-.112-.062-.238-.089-.363-.116a1.474 1.474 0 0 1-.368-.108c-.248-.068-.509-.1-.767-.143-.256-.06-.527-.109-.793-.044-.27.022-.53.068-.801.087-.25.124-.51.17-.77.254a.94.94 0 0 1-.092.046l-.088.049c-.029.016-.06.03-.092.046l-.088.051c-.06.033-.113.076-.167.117a1.276 1.276 0 0 0-.146.146c-.1.092-.188.197-.261.314l-.03.043c-.007.013-.023.032-.02.032-.003.008-.008.014-.013.022l-.008.01.005.014a.1.1 0 0 1 .006.03l-.402.2-.063-.148-.146-.347.331.02c.267.015.52.064.778.113.078.016.157.038.232.07.073.033.146.068.214.111l.102.062c.034.022.065.046.1.068.03.022.064.043.098.065.032.024.066.046.097.068.107.119.227.216.344.313.06.05.115.1.172.155.055.054.105.11.152.173.2.23.334.506.511.744.16.252.298.514.381.793.05.057.089.121.115.186.026.068.047.139.063.209.028.143.05.284.094.416.02.141.052.276.088.41.034.134.073.267.09.402.033.133.038.27.051.404.003.067.008.135.016.2.003.032.008.065.013.097.005.033.01.065.018.097.003.066.01.133.016.198l.016.195c.013.13.01.26-.006.387.024.127.01.254-.005.379-.005.03-.01.062-.013.092l-.003.01v.003l-.002.008c-.003.006-.003.011-.003.014-.002.01-.002.019-.002.03v.002h.002l.008.003c.005 0 .01.003.016.003.031.013.06.03.091.043l.154.07c.102.05.204.087.303.136.177.154.402.162.603.213.099.036.2.05.3.07.099.017.195.041.287.087.096.022.19.052.284.07a.996.996 0 0 0 .282.028c.094.005.183.04.271.062.09.019.18.033.267-.022a.418.418 0 0 1 .13.006l.128.016a.39.39 0 0 0 .248-.03.49.49 0 0 1 .235-.049c.078-.002.156.006.23-.01.072-.014.145-.027.213-.046l.105-.025.099-.03c.148-.043.284-.097.41-.15.06-.033.122-.058.18-.09.054-.033.112-.06.161-.095.204-.127.363-.265.483-.384.243-.244.34-.406.36-.392.01.005-.01.062-.06.164-.055.098-.14.247-.287.41a2.606 2.606 0 0 1-.618.505c-.068.038-.139.081-.214.116-.076.038-.154.07-.238.106a3.763 3.763 0 0 1-.54.168c-.076.019-.154.046-.235.067a.607.607 0 0 1-.253.017c-.086.005-.172.027-.26.035a.772.772 0 0 1-.271-.003.554.554 0 0 1-.283.024c-.094-.013-.19-.035-.287-.048a3.922 3.922 0 0 1-.295-.044 2.708 2.708 0 0 0-.303-.037c-.104.002-.206-.03-.308-.06a2.03 2.03 0 0 0-.31-.086 2.182 2.182 0 0 0-.637-.209c-.096-.065-.206-.103-.316-.146l-.167-.06-.041-.016c-.016-.005-.024-.008-.05-.021-.047-.022-.091-.044-.138-.065a1.141 1.141 0 0 1-.058-.04l-.028-.02c-.006-.003-.01-.005-.013-.01l.002-.02a3.57 3.57 0 0 0 .018-.154l.006-.073.005-.065c.003-.03.003-.06.003-.09-.003-.12-.021-.24-.032-.362-.015-.121-.01-.243-.015-.368 0-.062-.003-.124-.006-.186-.005-.063-.01-.125-.018-.187 0-.033-.003-.062-.005-.095l-.01-.095c-.008-.062-.016-.127-.027-.189a8.162 8.162 0 0 1-.062-.382 5.003 5.003 0 0 1-.178-.765c-.091-.25-.159-.509-.263-.76-.126-.239-.217-.498-.36-.734-.04-.057-.07-.119-.102-.178l-.1-.182a1.282 1.282 0 0 0-.117-.17.763.763 0 0 0-.151-.141c-.183-.203-.368-.411-.595-.563a1.928 1.928 0 0 0-.715-.376c-.19-.127-.423-.146-.642-.119.063-.108.125-.22.185-.327.034.051.066.105.1.157-.139.07-.277.137-.416.208-.034-.06-.065-.12-.096-.179l-.05-.089c.013-.03.034-.06.05-.09l.107-.178c.02-.035.029-.043.042-.062l.036-.052c.097-.138.214-.254.334-.367.232-.233.51-.406.79-.536.137-.079.285-.125.434-.168.073-.022.149-.035.222-.057.073-.019.146-.035.22-.06.072-.021.145-.035.218-.048.073-.01.149-.014.222-.02.073-.002.146-.002.22-.007.072-.003.145-.006.216-.016.29-.027.58-.02.853.054.07.01.139.021.206.04l.204.052c.133.038.266.065.407.07.136.024.271.04.402.07a.81.81 0 0 1 .365.176c.13.033.248.098.363.154.057.03.115.063.175.09a1.205 1.205 0 0 0 .18.07 1.426 1.426 0 0 0 .329.2c.114.052.23.1.339.163.206.14.396.295.608.408.216.109.368.303.55.441.204.12.306.347.49.468l.225.239c.076.078.144.16.206.246.105.046.17.13.225.22.05.091.091.188.143.275.05.087.12.157.178.236a.974.974 0 0 1 .08.121c.022.044.037.09.045.14.16.125.185.326.24.493.026.087.066.163.102.241a.671.671 0 0 1 .07.241c.102.14.066.317.11.46-.003.078.013.149.024.22.013.07.028.137.028.208.013.067.021.132.018.197a.909.909 0 0 1-.015.19c-.005.06-.008.119-.016.175l-.023.163c-.019.078-.032.151-.05.216-.02.068-.036.13-.057.187-.021.057-.042.108-.06.154a22.788 22.788 0 0 1-.089.173 7.45 7.45 0 0 1-.07.105c-.024.028-.04.044-.045.041Z" fill="#BF4E70"/><path d="M30.574 43.766c-.005.003-.023-.01-.05-.04l-.046-.06-.03-.038c-.01-.013-.023-.027-.036-.04l-.083-.1a4.158 4.158 0 0 1-.107-.114c-.04-.04-.086-.079-.133-.125-.047-.043-.105-.084-.16-.13a9.54 9.54 0 0 1-.122-.086c-.042-.03-.089-.054-.136-.084-.047-.03-.099-.051-.151-.078-.052-.028-.107-.052-.162-.082-.047-.046-.115-.054-.18-.065-.065-.013-.13-.021-.188-.07a1.375 1.375 0 0 0-.417-.1c-.073-.01-.15-.027-.225-.043a.866.866 0 0 0-.237-.017c-.084.033-.165.003-.248-.019-.084-.018-.17-.04-.256.009-.044.005-.086.01-.13.013l-.133.011c-.09.005-.18.01-.274.019a.622.622 0 0 0-.282.016c-.094.025-.188.057-.282.081a.746.746 0 0 0-.3.027.92.92 0 0 0-.144.054 1.755 1.755 0 0 0-.14.074c-.225-.033-.428.054-.603.213-.201.084-.42.138-.608.28-.204.105-.397.232-.611.337a1.888 1.888 0 0 1-.6.406 1.638 1.638 0 0 1-.272.257c-.096.079-.206.144-.31.217-.107.067-.19.168-.277.268-.041.048-.083.1-.127.146-.047.046-.095.089-.147.13a4.674 4.674 0 0 0-.258.3l-.245.317c-.18.2-.355.416-.434.69-.117.251-.208.508-.328.76-.024.287-.113.541-.175.817-.003.07-.01.138-.013.208l-.008.106v.105c-.003.141.016.282.06.415.04.23.144.438.248.64-.068-.04-.136-.08-.201-.121.05.003.1.005.149.01v.463h-.037l-.036-.002-.454-.033.193-.305c.149-.236.323-.444.498-.655a1.36 1.36 0 0 1 .373-.306l.105-.06.104-.054c.07-.038.141-.07.209-.108l.057-.016.058-.016c.036-.011.073-.025.11-.038.07-.027.143-.054.213-.084a1.593 1.593 0 0 1 .433-.127c.295-.065.59-.046.877-.087.29-.016.577-.008.85.057.147-.035.285-.003.418.038.134.046.261.1.397.124.253.111.522.141.767.247.128.035.245.1.363.157.115.062.232.116.355.156.227.117.467.206.663.366.101.038.193.1.276.165l.063.051.031.027.013.011.003.006a.11.11 0 0 0 .039.032c.008-.006.013-.014.02-.024l.087-.065c.044-.036.089-.07.133-.103.091-.068.175-.138.264-.203a.72.72 0 0 0 .266-.192c.036-.04.073-.081.107-.122.034-.04.068-.084.104-.122.078-.07.141-.157.206-.235.063-.081.133-.154.214-.217l.102-.11c.034-.036.065-.074.1-.111.064-.074.12-.155.161-.241.05-.081.123-.144.188-.211.063-.07.117-.146.115-.252a.621.621 0 0 1 .067-.114c.024-.035.053-.07.079-.105a.417.417 0 0 0 .096-.238.543.543 0 0 1 .076-.236c.037-.07.084-.138.107-.21.026-.074.05-.144.07-.217l.032-.106c.008-.035.015-.07.026-.103.02-.075.031-.154.047-.227.013-.073.02-.146.031-.216a3.008 3.008 0 0 0-.06-1.023c-.102-.341-.19-.509-.167-.52.01-.005.047.04.107.136.055.097.136.248.198.462.063.211.115.485.113.807-.003.08-.003.165-.01.248-.006.087-.019.176-.03.266a3.776 3.776 0 0 1-.13.568l-.06.246a.65.65 0 0 1-.112.236c-.037.078-.063.167-.102.251a1.843 1.843 0 0 1-.057.125c-.024.04-.05.078-.079.116a.582.582 0 0 1-.12.265c-.057.079-.125.152-.182.233a3.885 3.885 0 0 1-.183.24c-.031.041-.063.082-.094.125-.031.04-.063.084-.089.13-.052.098-.128.17-.203.246a2.36 2.36 0 0 0-.227.236 2.24 2.24 0 0 0-.49.465c-.105.054-.189.133-.277.211-.045.04-.09.079-.134.12-.023.018-.044.037-.07.056-.04.03-.08.062-.123.092a2.773 2.773 0 0 0-.125.065c-.07-.06-.138-.108-.206-.157l-.044-.03-.032-.021c-.02-.014-.044-.027-.065-.04-.091-.047-.188-.087-.282-.133-.216-.098-.41-.25-.64-.339-.106-.062-.22-.105-.336-.154a6.235 6.235 0 0 1-.35-.135 4.53 4.53 0 0 1-.727-.225c-.128-.021-.253-.048-.381-.076-.128-.024-.256-.051-.387-.067-.263-.006-.524-.054-.79-.044-.066.006-.133.003-.201.003l-.201-.002a.855.855 0 0 0-.394.084c-.261.062-.527.121-.767.248a1.932 1.932 0 0 0-.671.45c-.206.11-.342.313-.43.527a13.67 13.67 0 0 1-.186-.335l.076-.008.036-.003.019-.003h.018v.476l-.149.008-.128.006-.078-.127a2.256 2.256 0 0 1-.282-.788 2.938 2.938 0 0 1-.044-.977l.002-.06.008-.059c.005-.04.01-.078.018-.119.014-.078.034-.154.053-.232.02-.076.044-.152.062-.228.024-.073.045-.149.06-.224.019-.076.045-.15.07-.22a7.45 7.45 0 0 1 .097-.208c.034-.068.07-.132.105-.2.034-.068.068-.133.096-.203.123-.273.274-.528.473-.739.083-.116.185-.216.282-.322.099-.1.187-.205.26-.33.045-.054.086-.11.13-.165.043-.054.084-.11.131-.162a.849.849 0 0 1 .33-.241c.09-.1.203-.173.31-.249.11-.07.216-.146.308-.238a.958.958 0 0 0 .174-.084c.055-.033.107-.07.157-.108a3.316 3.316 0 0 1 .305-.222c.222-.114.444-.208.645-.341.198-.14.436-.179.642-.276.2-.122.44-.1.634-.208l.31-.082c.102-.03.207-.048.308-.062a.48.48 0 0 1 .295-.09c.102 0 .204.014.3.009.097-.003.19-.03.287-.04a.62.62 0 0 1 .141-.011c.047.002.094.01.141.03a.473.473 0 0 1 .272-.028c.088.014.174.044.258.06.083.021.167.021.25.03a.59.59 0 0 1 .238.056.44.44 0 0 1 .23.046c.07.033.138.068.208.084.063.04.13.065.196.09.065.024.13.043.188.078a1.01 1.01 0 0 1 .323.192c.047.035.097.065.139.1l.122.103c.055.054.11.103.157.154.044.052.089.098.125.146l.1.133.07.116a.458.458 0 0 1 .05.095l.03.07c.014.05.016.074.011.076Z" fill="#BF4E70"/><path d="M27.56 43.712c-.005.027-.044.049-.107.065a.668.668 0 0 1-.034.008c-.013.006-.026.011-.036.006-.008-.041-.034.067-.042.008-.01-.02-.029-.006-.044.005-.016.01-.03-.027-.047.005-.024.07-.026-.086-.052.006-.019.019-.037.014-.055.005-.016-.056-.04-.002-.058.006-.018-.07-.039-.04-.06.008-.018-.095-.041-.079-.065.008-.02.003-.044-.035-.065.008-.024.008-.045.027-.07.01-.022.063-.045.063-.071.012-.021.067-.047.043-.073.01-.029-.035-.045.063-.076.011-.026-.002-.05.022-.078.014-.029-.024-.06-.051-.081.014-.026.018-.047.046-.081.016-.016.076-.047.048-.083.019-.027.016-.063-.027-.084.019-.031-.003-.05.043-.086.021-.034-.013-.068-.027-.086.022-.016.051-.06-.003-.084.021-.044-.056-.05.036-.08.022-.027.016-.066-.019-.081.025-.024.021-.045.04-.079.021.005.106-.057-.008-.075.025-.04-.033-.047.024-.076.021-.018.027-.065-.027-.073.022-.026.003-.034.051-.07.022-.003.056-.06-.022-.069.021-.02.008-.041.022-.065.022-.052-.065-.044.005-.062.019-.024 0-.021.06-.06.019-.021.002-.055-.022-.058.016-.013.019-.083-.087-.055.016-.007.024-.067-.057-.05.014.014.067-.033.008-.049.013l-.044.011c-.128.032-.214.035-.235 0-.023-.04.037-.127.164-.24.014-.012.003-.071.04-.033.015-.008.013-.054.044-.036-.016-.075.029-.03.047-.035.016-.013.044 0 .052-.035.003-.049.05 0 .058-.035.039.033.054.01.06-.038.039.03.039-.03.065-.038.05.054.055 0 .068-.035.015-.032.052-.01.07-.038.029.003.044-.035.076-.035.015-.04.039-.062.078-.035.02-.03.052-.025.08-.035.022-.035.058-.017.084-.03.027-.024.079.051.087-.03.026-.019.062-.005.088-.027.034 0 .066.003.092-.027.047.065.067.014.093-.024.027-.027.06-.025.095-.022.028-.016.062-.016.093-.016.026-.027.068.019.092-.017.026-.037.065.025.091-.01.026-.027.055-.04.089-.008.029-.006.065.06.088-.006.027-.016.05-.105.087-.002.026-.03.06.043.083 0 .031.075.055.002.081.002.026.014.052.038.078.003.024-.038.05.019.073.008.024-.043.047.057.07.008.024.01.045-.008.069.01.026-.102.044.004.062.015.019.016.045-.066.06.013.026-.076.04-.008.055.016.016.025.04-.03.05.017.023-.052.028.032.047.016.01.038.028.005.041.016.016-.01.027-.003.037.019l.031.019c.06.03.086.062.081.09ZM29.183 52.368c-.026.008-.062-.013-.107-.062-.008-.008-.015-.016-.023-.027-.01-.008-.021-.016-.024-.03.03-.027-.073.003-.026-.032.01-.02-.01-.027-.026-.038-.018-.008.008-.04-.029-.04-.07.015.058-.068-.03-.044-.027-.008-.03-.027-.035-.046.042-.043-.015-.035-.034-.049.05-.051.013-.057-.036-.051.068-.065.044-.079-.04-.054-.012-.02.006-.057-.038-.057-.019-.016-.045-.027-.042-.057-.063.014-.073-.008-.045-.06-.065.017-.06-.018-.047-.059.016-.043-.075-.008-.047-.062-.01-.025-.041-.035-.05-.063.006-.037.011-.08-.051-.064-.03-.014-.063-.022-.055-.065-.07.024-.065-.02-.058-.065-.026-.014-.007-.07-.057-.068-.01-.03-.063-.022-.06-.068-.005-.038-.01-.075-.06-.067-.052.01-.029-.057-.06-.065.026-.068-.055-.027-.057-.065-.026-.014-.016-.068-.06-.06-.03-.01-.058-.019-.058-.06-.086.058-.023-.056-.057-.056.008-.051-.045-.03-.055-.057-.031-.002-.01-.07-.055-.054-.013-.022-.057-.005-.055-.051-.05.024-.013-.065-.052-.052-.018-.016-.036-.027-.05-.048.03-.079-.028-.038-.046-.047-.014-.018-.06.011-.045-.045-.013-.017-.01-.06-.044-.044-.021 0 .031-.119-.042-.04-.026.005.016-.09-.039-.038-.05.046-.024-.025-.034-.038a.396.396 0 0 0-.031-.035c-.092-.098-.136-.173-.115-.211.023-.04.125-.033.282.027.015.005.06-.033.047.019.015.01.052-.017.052.021.055-.051.04.011.055.025.018.008.023.04.057.03.042-.022.024.043.06.032-.008.051.018.054.06.035-.005.049.044.022.063.04-.021.071.026.05.065.044.034-.003.034.04.065.046.013.027.052.022.068.049.042-.006.07.002.068.051.037.003.047.035.068.057.039 0 .041.043.068.06.031.01-.006.094.067.062.03.016.037.054.068.067.016.03.032.06.068.068-.029.076.024.068.065.073.037.01.053.043.066.073.026.019.044.049.062.076.037.01.016.07.06.076.045.002.013.07.055.075.034.011.063.03.052.076.019.025-.018.09.05.076.029.016.112-.008.044.076.037.01-.008.075.042.073-.047.065.026.048.04.073.002.03-.006.067.036.07.044.003.008.054.031.07.05 0-.023.07.029.068.002.027.028.038.026.065.099-.027.018.04.02.062-.005.025.079.008.019.06.076-.016.026.03.016.057-.014.027.044.021.01.054.055-.006-.013.043.008.048-.026.028.01.03.008.047.015.008.015.021.002.04v.038c-.005.084-.018.124-.047.135ZM22.774 58.156c-.02-.019-.018-.065 0-.127.003-.01.008-.022.01-.033.003-.013.003-.027.014-.037.036.013-.04-.065.016-.041.02 0 .018-.024.018-.043 0-.022.036-.011.02-.046-.049-.057.084.019.022-.049-.006-.027.007-.038.02-.054.055.013.021-.033.024-.054.068.019.052-.016.023-.06.09.03.09.003.027-.062.007-.022.05-.022.026-.062.005-.025 0-.054.026-.068-.042-.051-.029-.07.028-.068-.047-.05-.013-.062.027-.073.044-.008-.032-.073.028-.073.016-.021.008-.054.029-.075.034-.014.073-.03.026-.079-.005-.032-.013-.068.026-.081-.055-.051-.018-.068.026-.084-.002-.032.055-.043.026-.084.018-.024-.01-.067.026-.086.03-.025.058-.046.026-.087-.034-.04.034-.054.024-.087.07-.01-.005-.062.023-.084 0-.03.05-.048.021-.083-.005-.03-.013-.06.021-.081-.091-.047.034-.05.018-.082.047-.019.003-.054.019-.078-.013-.03.054-.043.018-.076.01-.024-.026-.057.016-.073-.045-.032.047-.043.015-.07.003-.025.003-.046.016-.068.078-.014.018-.043.013-.068.01-.021-.04-.048.016-.062.008-.019.044-.038.015-.06-.01-.021.115-.032.013-.056-.018-.02.081-.033.013-.054-.062-.022.01-.033.014-.05.005-.015.01-.031.013-.045.036-.133.075-.211.117-.211.044 0 .089.097.12.268.003.016.055.038.008.054-.003.019.039.04.008.057.07.024.01.04.005.062.003.022-.024.04.003.065.039.027-.027.043.002.07-.047.02-.037.044.003.073-.045.02.002.052-.003.076-.07.016-.026.049-.002.078.02.03-.019.052-.006.082-.015.024.008.056-.008.084.026.035.032.065-.01.086.016.033-.005.06-.013.09.018.035-.016.059-.016.091.008.036-.08.044-.015.093 0 .032-.026.059-.021.094-.018.03-.034.057-.024.095-.078.01-.044.054-.029.097.011.038-.01.068-.028.095-.003.035-.018.065-.032.092.011.038-.05.051-.033.092.018.04-.053.046-.037.087.008.038.008.07-.037.084-.01.03-.083.03-.039.08 0 .033.063.098-.039.08.01.037-.065.029-.041.075-.079-.008-.03.049-.042.07-.026.017-.058.027-.042.068.018.04-.042.035-.044.062.023.043-.07.014-.042.06-.021.016-.018.043-.042.054.073.073-.023.038-.042.051-.023.008.032.073-.041.046.052.062-.013.04-.04.04-.028.003.006.05-.039.039.034.046-.041.008-.036.032-.037-.008-.018.025-.034.03 0 .019-.01.027-.034.024a.188.188 0 0 1-.031.02c-.063.029-.105.037-.126.018ZM14.742 55.29c.006-.026.045-.048.107-.064a.668.668 0 0 1 .034-.008c.013-.006.026-.011.037-.006.008.04.034-.068.042-.008.013.019.028.005.044-.005.016-.011.029.027.047-.006.023-.07.026.084.052-.005.018-.02.037-.014.055-.006.016.057.04.003.057-.005.019.07.04.04.06-.008.019.095.042.078.063-.008.02-.003.044.035.068-.008.023-.008.044-.027.068-.011.02-.063.044-.063.07-.011.021-.068.047-.043.073-.01.029.034.045-.063.076-.014.026.002.05-.022.078-.014.029.024.06.051.078-.016.026-.02.047-.046.081-.016.016-.076.047-.05.084-.017.026-.016.065.027.083-.019.032.006.05-.043.086-.021.034.013.068.03.087-.02.018-.05.06.003.083-.02.044.056.05-.036.084-.023.026-.013.065.02.08-.024.024-.019.045-.04.079-.022-.005-.105.057.009.075-.021.04.032.047-.025.076-.022.018-.027.065.027.073-.021.026 0 .034-.05.07-.022.003-.057.06.022.069-.022.02-.008.041-.021.065-.021.052.065.044-.006.062-.022.024 0 .021-.06.06-.019.021-.003.055.022.058-.016.01-.02.083.086.055-.016.007-.025.067.056.052-.014-.013-.068.034-.008.047-.014.015-.002.031-.008.044-.01.128-.033.214-.035.235.002.023.041-.037.128-.165.241-.012.011-.002.068-.041.033-.016.008-.013.056-.045.035.016.076-.028.03-.05.035-.015.014-.046 0-.051.035-.003.049-.047 0-.058.035-.039-.032-.055-.01-.06.038-.039-.03-.039.03-.065.038-.05-.054-.055 0-.068.038-.016.032-.052.01-.07.035-.029 0-.045.035-.076.035-.016.041-.04.063-.078.036-.021.03-.053.024-.081.032-.021.035-.058.016-.084.032-.026.025-.078-.05-.086.03-.026.02-.062.006-.088.027-.034 0-.066-.002-.092.027-.05-.065-.068-.013-.094.025-.026.027-.06.024-.094.021-.028.017-.062.017-.094.02-.026.026-.067-.022-.091.016-.026.038-.065-.025-.091.01-.026.028-.055.041-.09.008-.028.006-.064-.059-.088.006-.026.016-.05.105-.086.003-.026.027-.057-.044-.083 0-.032-.076-.055 0-.081-.003-.026-.014-.053-.038-.079-.003-.023.038-.05-.019-.073-.008-.026.043-.047-.057-.07-.008-.024-.01-.047.008-.068-.01-.026.102-.044-.003-.063-.014-.018-.017-.044.065-.06-.014-.026.076-.039.008-.054-.016-.016-.025-.04.03-.05-.016-.023.051-.029-.036-.047-.017-.01-.038-.029-.005-.042-.016-.015.011-.028.003-.036-.019l-.031-.019c-.053-.035-.079-.067-.074-.094ZM13.117 46.635c.026-.009.062.013.107.062a.244.244 0 0 1 .023.027c.01.008.021.016.024.03-.029.027.073-.003.026.032-.01.019.01.027.028.038.019.008-.007.04.03.04.07-.016-.058.068.03.044.027.008.03.027.034.046-.039.043.016.035.034.048-.05.052-.013.055.037.052-.068.065-.045.078.039.054.013.019-.005.057.04.057.017.016.043.027.04.057.063-.014.074.008.045.06.066-.017.06.018.047.059-.015.043.076.008.047.062.01.024.042.035.05.062-.005.038-.01.081.052.065.029.014.063.022.055.065.07-.024.065.019.055.065.026.014.007.07.057.068.01.03.063.024.06.067.005.038.01.076.06.068.052-.01.029.057.06.065-.026.068.055.027.057.065.027.013.016.067.06.06.03.01.058.018.058.059.086-.057.023.057.057.057-.008.051.045.03.055.056.031.003.01.07.055.055.016.021.06.005.055.051.05-.024.013.065.052.051.018.017.039.028.05.05-.03.078.028.037.046.045.013.02.06-.01.047.044.013.016.008.059.042.043.024 0-.031.119.042.04.026-.005-.013.09.039.038.05-.046.023.027.034.038.01.014.02.025.031.035.092.098.136.173.115.211-.023.04-.125.033-.282-.027-.015-.005-.06.03-.05-.019-.015-.01-.051.014-.051-.021-.055.051-.04-.011-.055-.025-.019-.008-.024-.04-.058-.03-.041.022-.023-.043-.06-.032.008-.051-.018-.054-.06-.035.005-.049-.044-.022-.062-.038.02-.07-.027-.049-.066-.043-.036.002-.034-.04-.065-.046-.013-.027-.052-.022-.065-.049-.042.005-.07-.003-.068-.054-.037-.003-.047-.035-.068-.057-.039 0-.042-.043-.068-.06-.031-.01.003-.094-.07-.062-.029-.016-.037-.054-.068-.067-.016-.03-.031-.06-.068-.07.029-.076-.023-.068-.065-.074-.037-.01-.052-.043-.065-.073-.029-.019-.045-.048-.063-.075-.036-.011-.016-.07-.06-.076-.044-.006-.013-.07-.055-.076-.034-.01-.062-.03-.052-.076-.018-.024.018-.09-.05-.076-.028-.016-.112.008-.044-.075-.036-.011.008-.076-.042-.073.047-.065-.026-.05-.039-.074-.002-.03.005-.067-.034-.07-.044-.002-.008-.054-.031-.07-.05 0 .024-.07-.029-.068-.002-.027-.028-.038-.023-.065-.1.027-.018-.04-.021-.065.005-.024-.078-.008-.018-.06-.076.017-.026-.029-.016-.056.013-.027-.044-.019-.01-.054-.055.005.013-.044-.008-.049.026-.027-.01-.03-.008-.046-.016-.008-.016-.022-.003-.04v-.038c.006-.079.019-.12.045-.127ZM19.526 40.847c.02.018.02.064 0 .127-.003.01-.008.021-.01.032-.003.014-.003.027-.014.038-.036-.013.04.065-.016.04-.02.003-.018.025-.018.044.003.022-.036.014-.02.046.049.057-.084-.019-.022.049.006.027-.007.038-.02.054-.055-.014-.021.032-.024.054-.068-.019-.052.016-.023.06-.09-.03-.09-.003-.027.062-.007.021-.05.024-.026.065-.005.024 0 .054-.026.067.042.052.029.07-.028.07.047.052.013.063-.026.074-.045.008.03.073-.03.073-.015.021-.007.057-.025.075-.034.014-.073.03-.029.079.005.032.016.065-.026.081.055.052.018.068-.026.084.002.032-.055.043-.026.084-.019.024.01.068-.026.087-.03.021-.058.045-.026.086.033.04-.032.051-.024.087-.07.01.005.062-.023.084 0 .03-.047.048-.021.084.005.03.013.059-.021.08.091.047-.034.05-.018.082-.047.019-.003.054-.019.078.013.03-.055.044-.018.076-.01.024.026.057-.016.073.045.033-.047.043-.015.07-.003.025-.003.05-.016.07-.078.014-.018.044-.013.069-.01.021.04.048-.016.062-.008.021-.044.038-.015.06.01.02-.115.029-.013.056.018.019-.081.032-.013.054.062.022-.01.033-.014.049l-.012.046c-.037.133-.076.208-.118.21-.044 0-.089-.096-.117-.267-.003-.016-.055-.038-.008-.054.002-.019-.04-.04-.008-.057-.07-.024-.01-.04-.005-.062-.003-.022.023-.04-.003-.065-.039-.027.026-.043-.003-.07.047-.02.037-.044 0-.073.045-.02-.002-.052.003-.076.07-.016.026-.049.003-.079-.021-.03.018-.051.005-.08.016-.025-.008-.058.008-.085-.026-.032-.031-.065.01-.086-.015-.033.005-.06.013-.09-.018-.035.016-.06.016-.092-.008-.035.08-.043.018-.092-.002-.032.026-.06.021-.094.018-.03.034-.057.024-.095.078-.01.044-.054.026-.097-.01-.038.01-.068.028-.095.003-.035.019-.065.032-.092-.01-.038.05-.049.034-.092-.019-.04.052-.046.036-.087-.008-.038-.008-.07.037-.084.01-.03.083-.03.039-.08 0-.033-.063-.098.039-.08-.01-.037.065-.03.04-.075.077.01.028-.049.04-.07.027-.017.058-.03.043-.068-.019-.04.041-.035.044-.062-.023-.044.073-.014.042-.06.02-.016.018-.046.041-.054-.073-.073.024-.038.042-.051.024-.008-.031-.073.042-.046-.052-.063.013-.04.04-.04.028-.004-.006-.05.038-.039-.034-.046.042-.008.037-.032.036.008.018-.025.034-.03 0-.019.01-.027.034-.024.01-.008.02-.014.03-.02.061-.037.103-.045.124-.026Z" fill="#BF4E70"/></svg>