<svg viewBox="0 0 77 85" fill="none" xmlns="http://www.w3.org/2000/svg"><path d="M38.331.11c0 .03-.08.06-.22.09-.07.02-.17.03-.28.05-.05.01-.11.02-.18.03-.06.01-.13.03-.2.04-.14.03-.3.06-.48.09-.17.05-.36.09-.56.15-.2.05-.41.13-.64.21-.23.08-.46.19-.72.28-.33.16-.68.32-1.04.54-.18.1-.35.23-.54.35-.09.06-.19.12-.28.18-.09.07-.19.13-.28.2-.11.04-.21.1-.3.19s-.16.19-.24.28c-.08.1-.16.19-.25.28-.09.09-.2.16-.33.21-.11.08-.21.15-.31.24s-.19.19-.28.29c-.19.2-.35.42-.53.65-.34.45-.82.83-1.07 1.41-.06.33-.3.54-.53.77-.22.24-.45.48-.46.86-.13.31-.29.6-.43.91-.08.15-.16.3-.24.46-.08.15-.15.31-.23.47-.49.55-.56 1.32-.78 2.03-.24.31-.39.66-.49 1.03-.09.38-.14.77-.14 1.17-.13.17-.24.35-.33.53-.08.19-.14.38-.18.58-.08.4-.06.82.03 1.25-.07.41-.15.81-.23 1.23-.06.42-.12.84-.07 1.28-.03.43-.04.86-.04 1.3-.02.44-.02.88-.06 1.32.11.45.18.89.19 1.34.01.22.01.45 0 .68l-.03.35c-.01.11-.02.23-.04.35.08.22.14.45.18.68.05.23.08.46.11.69.02.23.04.47.05.7.01.24.01.47.02.71.02.97.58 1.83.64 2.82.25.94.63 1.86.96 2.8.27.96.61 1.94 1.31 2.71.56.85 1.18 1.64 1.72 2.52.85.62 1.46 1.41 2.18 2.15.41.31.82.61 1.25.9.21.14.44.26.67.38.24.1.47.2.73.25.24.09.47.19.72.24l.37.09c.11.02.3.05.27.04.03 0 .05-.01.08 0s.07.02.15.05l.01-.01c.01-.02.01-.05.01-.1 0-.02-.01-.05-.01-.08 0-.01 0-.02-.01-.04 0-.01 0 0-.01-.03l-.03-.1c-.04-.14-.1-.28-.14-.42l-.12-.42c-.1-.28-.15-.56-.25-.84-.09-.29-.13-.59-.17-.89-.01-.3-.02-.6-.01-.9.04-.6.12-1.18.17-1.77.05-.14.1-.28.13-.42.04-.14.08-.28.11-.42.03-.14.06-.28.08-.42l.09-.42c.03-.14.05-.28.08-.42l.1-.42c.04-.14.07-.28.12-.41.05-.13.1-.26.16-.39.38-1.07 1.02-1.99 1.46-3 .51-.97 1.09-1.9 1.84-2.66.08-.27.23-.5.39-.71.08-.1.17-.21.26-.3s.19-.18.29-.27c.39-.36.82-.66 1.15-1.06.84-.61 1.46-1.43 2.26-2.04.18-.17.38-.32.58-.47.2-.15.4-.28.61-.41.21-.13.41-.27.61-.41.2-.14.39-.29.57-.46.1-.06.2-.13.3-.2l.3-.2.59-.41c.4-.26.8-.51 1.24-.67.36-.31.79-.51 1.22-.67.02-.01.06-.02.07-.03h.02l.05-.01c.04-.01.08-.02.11-.03.01 0 .02-.01.03-.01v-.03c0-.02 0-.03-.01-.05a.3.3 0 0 0-.04-.1l-.02-.26c-.01-.11-.02-.21-.04-.32-.03-.21-.05-.42-.08-.63-.05-.42-.11-.83-.16-1.24.08-.43.01-.84-.1-1.23s-.27-.76-.37-1.14c-.17-.77-.58-1.44-.64-2.2-.22-.71-.38-1.44-.78-2.03-.18-.31-.22-.67-.32-1a1.8 1.8 0 0 0-.2-.47 1.1 1.1 0 0 0-.38-.36c-.38-.53-.42-1.28-.99-1.63-.56-.35-.7-.98-1.08-1.41-.09-.11-.18-.21-.27-.32-.1-.1-.19-.2-.28-.3-.18-.2-.37-.38-.56-.56-.84-.81-1.7-1.4-2.5-1.84-.79-.44-1.52-.7-2.13-.88-1.23-.34-1.93-.36-1.93-.46 0-.04.21-.08.63-.11.21 0 .47 0 .78.03.15.02.32.04.5.06.18.02.36.07.56.11.79.18 1.75.51 2.78 1.09 1.02.59 2.11 1.42 3.13 2.53.41.43.96.81 1.21 1.44.37.53.88 1.01 1.12 1.68.59.47.72 1.23 1.02 1.9.31.67.52 1.4.88 2.11.42.69.42 1.53.74 2.29.01.42.09.83.18 1.24.1.41.23.81.38 1.23-.01.44.06.86.15 1.29.04.22.08.43.13.65l.06.33.02.17.02.23c-.02.19-.02.37-.03.55v.39c-.03.03-.08.04-.12.06-.17.08-.33.15-.49.23l-.44.22c-.39.22-.73.5-1.1.76-.37.25-.75.49-1.15.71-.19.12-.39.23-.58.36-.1.06-.19.12-.29.19-.09.07-.18.14-.28.21-.19.12-.39.25-.58.39l-.55.43c-.18.14-.36.3-.54.45-.18.15-.37.29-.56.44-.65.7-1.32 1.37-2.11 1.96-.62.75-1.32 1.44-1.94 2.23-.54.84-1.2 1.6-1.69 2.49-.12.22-.25.44-.39.66l-.21.32-.2.33c-.06.11-.13.22-.19.34-.06.11-.11.23-.15.35-.05.12-.09.24-.12.37s-.05.26-.06.39c-.33.96-.68 1.94-.77 2.96-.18 1-.24 2.05.01 3.05-.02.25-.03.5.02.75.02.12.05.24.07.36.03.12.08.24.12.35l.03.09.07.16c.05.11.09.23.15.34.13.23.25.46.38.7.26.48.55.96.85 1.47l-.17.02c-.48 0-.99 0-1.49-.03s-1-.04-1.55-.15c-.32-.05-.4-.07-.57-.11l-.44-.13c-.3-.08-.58-.21-.86-.32-1.15-.4-2.18-1.05-3.09-1.79-.12-.08-.24-.17-.36-.26-.11-.09-.22-.19-.33-.29-.11-.1-.21-.2-.32-.3l-.29-.32c-.1-.11-.2-.21-.29-.32-.09-.11-.19-.22-.28-.32l-.29-.31c-.09-.11-.19-.21-.29-.31-.1-.1-.2-.2-.29-.31-.09-.11-.17-.22-.25-.34-.08-.11-.16-.23-.24-.35l-.19-.37-.42-.72c-.14-.24-.29-.47-.45-.69-.61-.91-1.12-1.88-1.39-2.93-.4-.99-.48-2.06-.98-2.98-.32-.98-.85-1.92-.64-2.98-.07-.24-.1-.49-.13-.74s-.04-.49-.05-.74c-.01-.25-.02-.49-.05-.73a4.48 4.48 0 0 0-.11-.72c.03-.12.04-.24.05-.37.01-.12.02-.24.02-.36 0-.24-.02-.48-.04-.71-.04-.47-.12-.94-.1-1.41.03-.47.08-.93.12-1.38.03-.46.06-.91.04-1.36-.04-.45.05-.89.12-1.33.1-.43.19-.86.25-1.28 0-.44.12-.85.27-1.25.07-.2.14-.4.19-.6.06-.2.1-.4.1-.61.12-.4.23-.78.34-1.17.11-.38.24-.76.39-1.12-.09-.87.55-1.45.89-2.1.09-.16.16-.33.22-.51.07-.17.13-.34.19-.51.13-.34.31-.65.6-.88.04-.37.23-.67.43-.94.22-.26.47-.49.69-.74.45-.47.68-1.1 1.2-1.44.13-.29.34-.5.59-.66.12-.09.24-.17.35-.25.11-.09.22-.17.31-.28.13-.07.24-.14.34-.23.11-.08.21-.16.31-.25s.2-.17.29-.26c.1-.08.21-.15.31-.22.1-.08.19-.16.29-.23.1-.07.2-.13.31-.19.21-.12.41-.22.63-.28a11 11 0 0 1 1.15-.49c.28-.08.53-.18.78-.23.25-.05.48-.12.7-.15.22-.03.42-.06.6-.08.19-.01.35-.02.5-.02.08 0 .14-.01.21 0 .07 0 .13.01.18.01.11.01.21.02.28.03.19.01.26.04.26.06Z" fill="#BF4E70"/><path d="M1.662 21.31c.02.01.01.1-.04.24-.02.07-.06.16-.1.27-.02.05-.04.11-.07.17-.02.06-.04.13-.06.2-.05.14-.1.29-.16.46-.05.17-.1.36-.15.57-.05.21-.09.43-.14.67-.05.24-.07.5-.11.77-.01.18-.03.37-.04.57-.02.2 0 .4-.01.61 0 .21.03.43.04.65.01.22.04.45.05.69-.06.24.05.48.14.72.09.24.19.48.13.76.04.53.25 1.05.48 1.57.11.27.2.54.29.83.1.28.22.56.41.82.26.22.32.54.41.85.1.31.19.64.52.84.1.13.2.27.29.41.1.14.19.28.29.42.18.29.38.58.58.87.12.36.35.64.6.91.26.27.54.52.8.79.16.36.38.68.67.95.14.13.29.26.45.38.16.12.33.23.5.33.33.81 1 1.32 1.84 1.6.65.51 1.25 1.15 2.06 1.51.72.48 1.51.89 2.26 1.4.23.06.44.13.66.22.11.04.21.09.31.14.1.05.21.09.31.15.2.1.4.22.6.35.2.12.39.25.58.4.12.02.23.05.35.08a6.015 6.015 0 0 1 1 .36c.44.18.85.42 1.29.63.43.23.91.33 1.39.43.48.09.96.19 1.41.4.95.25 1.95.37 2.94.53.98.22 2.02.4 3.04.16 1.03-.08 2.03-.25 3.07-.32.96-.46 1.94-.63 2.95-.94.11-.06.23-.12.35-.17.12-.05.23-.12.35-.18.11-.06.23-.11.35-.17l.34-.19c.23-.12.43-.28.64-.43.2-.16.39-.35.56-.54.38-.34.72-.73 1.01-1.16l.11-.16.06-.08c.01-.01.02-.03.02-.03l.01-.01c.01-.03.03-.05.05-.08l.03-.04c-.01-.02-.01-.03-.02-.05a.36.36 0 0 1-.02-.11l1.54-.74c.08.18.15.35.23.53l.57 1.3-1.26-.07c-1.01-.06-1.99-.24-2.98-.42-.3-.06-.6-.14-.89-.26-.28-.12-.56-.25-.82-.41l-.39-.23c-.13-.08-.25-.17-.38-.25l-.38-.24c-.12-.09-.25-.17-.37-.25-.41-.44-.87-.8-1.33-1.16-.23-.18-.44-.37-.66-.56-.21-.2-.4-.41-.58-.64-.77-.85-1.28-1.87-1.97-2.75-.61-.93-1.14-1.9-1.46-2.93a2.31 2.31 0 0 1-.44-.69c-.1-.25-.17-.51-.24-.77-.11-.53-.19-1.05-.37-1.54-.08-.52-.2-1.02-.34-1.51-.13-.5-.28-.99-.34-1.49-.13-.49-.15-1-.2-1.49-.02-.25-.03-.5-.06-.74s-.07-.49-.12-.73c-.01-.24-.04-.49-.06-.73l-.06-.72c-.05-.48-.04-.96.02-1.43-.09-.47-.04-.94.02-1.4.02-.12.04-.23.05-.34l.01-.04v-.02l.01-.03c.01-.02.01-.04.01-.05.01-.04.01-.07.01-.11.01-.02-.03-.02-.04-.02-.02 0-.04-.01-.06-.01-.12-.05-.23-.11-.34-.16-.2-.09-.39-.17-.59-.26-.39-.18-.78-.32-1.16-.5-.68-.57-1.54-.6-2.31-.79-.38-.13-.77-.18-1.15-.26a3.86 3.86 0 0 1-1.1-.32c-.37-.08-.73-.19-1.09-.26-.36-.08-.72-.12-1.08-.1-.36-.02-.7-.15-1.04-.24-.34-.07-.69-.12-1.02.08-.17.02-.33.01-.5-.02l-.49-.06c-.33-.05-.65-.04-.95.12-.3.15-.6.18-.9.18-.3.01-.6-.02-.88.04-.28.05-.56.1-.83.17l-.4.09c-.13.04-.26.07-.38.11-.57.16-1.09.36-1.57.56-.24.11-.47.21-.69.33-.11.06-.21.12-.32.17-.05.03-.1.06-.16.08l-.15.09c-.78.48-1.39.98-1.85 1.42-.94.89-1.31 1.5-1.39 1.45-.04-.02.04-.23.23-.61.21-.36.54-.91 1.1-1.51s1.33-1.28 2.37-1.87c.26-.15.53-.3.82-.43.29-.15.59-.26.91-.39.64-.23 1.33-.46 2.07-.62.3-.07.6-.17.9-.25.31-.07.63-.12.97-.06.33-.02.66-.1 1-.13.17-.02.34-.03.51-.04.17 0 .35.02.52.05.35-.14.72-.13 1.08-.09.36.05.73.13 1.1.18.37.04.75.09 1.13.16.38.06.76.13 1.16.14.4-.01.79.11 1.18.22.39.13.78.25 1.19.32.75.38 1.56.62 2.43.77.37.24.79.38 1.21.54.21.07.42.15.63.22l.16.06c.06.02.09.03.19.08.18.08.35.16.53.24.07.05.15.1.22.15l.11.07c.01.01.05.02.05.04l-.01.07c-.03.2-.05.38-.07.57l-.02.27-.02.24c-.01.11-.01.22-.01.33.01.44.07.89.12 1.34.06.45.04.9.06 1.36 0 .23.01.46.02.69.02.23.04.46.07.69 0 .12.01.23.02.35l.04.35c.03.23.06.47.1.7.09.46.17.93.24 1.41.29.92.55 1.85.68 2.83.35.92.61 1.88 1.01 2.81.48.88.83 1.84 1.38 2.71.15.21.27.44.39.66.13.22.25.45.38.67.14.22.28.44.45.63.17.19.36.38.58.52.7.75 1.41 1.52 2.28 2.08.82.62 1.73 1.15 2.74 1.39.73.47 1.62.54 2.46.44-.23.41-.47.82-.7 1.23-.13-.2-.26-.4-.39-.61.53-.25 1.06-.51 1.59-.77.13.22.25.44.38.66l.18.33c-.06.11-.13.22-.2.33l-.41.66-.05.08c-.02.03-.02.04-.04.05l-.07.1-.14.19c-.37.51-.82.94-1.28 1.36-.89.86-1.95 1.5-3.03 1.98-.52.29-1.09.46-1.66.62-.28.08-.57.13-.85.21-.28.07-.56.13-.83.22-.28.08-.56.13-.84.17-.28.04-.57.05-.85.07-.28.01-.56.01-.84.03-.28.01-.56.02-.83.06-1.11.1-2.22.07-3.27-.2-.27-.04-.53-.08-.79-.15-.26-.06-.52-.13-.78-.19-.51-.14-1.02-.24-1.56-.26-.52-.09-1.04-.15-1.54-.26-.5-.12-.99-.29-1.4-.65-.5-.12-.94-.36-1.39-.57-.22-.11-.44-.23-.67-.33-.11-.05-.23-.1-.34-.14-.11-.04-.23-.08-.35-.12-.19-.17-.4-.3-.61-.42-.21-.12-.42-.23-.64-.32l-.33-.14-.33-.15c-.22-.1-.43-.2-.64-.32-.79-.53-1.52-1.09-2.33-1.51-.83-.4-1.41-1.12-2.12-1.62-.78-.44-1.17-1.28-1.88-1.73-.29-.3-.58-.59-.86-.88a8.44 8.44 0 0 1-.79-.91c-.4-.17-.65-.48-.86-.81-.19-.34-.35-.7-.55-1.02-.19-.32-.46-.58-.68-.87-.11-.14-.22-.29-.31-.45-.08-.16-.14-.33-.17-.52-.61-.46-.71-1.2-.92-1.82-.09-.32-.25-.6-.39-.89-.13-.29-.26-.58-.27-.89-.39-.52-.24-1.17-.42-1.7.01-.29-.05-.55-.09-.81-.05-.26-.11-.51-.11-.77-.04-.25-.08-.49-.07-.73 0-.24.01-.47.06-.69.02-.22.02-.44.06-.65.03-.21.06-.41.09-.6.07-.29.12-.56.19-.8.08-.25.14-.48.22-.69.08-.21.16-.4.23-.57.09-.17.16-.32.23-.45.04-.07.07-.13.1-.19.04-.05.07-.11.1-.16.06-.1.12-.17.17-.23.12-.1.18-.15.21-.14Z" fill="#BF4E70"/><path d="M37.172 38.8c-.11.01-.21.01-.3-.01l-.05-.01c-.03 0-.06 0-.05-.01.14-.02-.26.01-.04-.01.06-.01 0-.01-.04-.02-.05 0 .09-.02-.04-.02-.27.02.3-.04-.04-.02-.07 0-.06-.01-.04-.02.21-.03 0-.02-.04-.02.25-.03.14-.03-.03-.03.34-.04.29-.04-.03-.03-.01-.01.12-.03-.03-.03-.02-.01-.09-.01-.03-.03-.23.01-.22 0-.03-.03-.25.01-.15-.01-.02-.03.14-.02-.22-.01-.02-.03.01-.01-.06-.02-.02-.04.1-.02.21-.04-.02-.04-.06-.01-.15-.02-.01-.04-.27 0-.15-.02-.01-.04-.04-.01.14-.03-.01-.04.04-.02-.12-.02 0-.04.57-.03 1.14-.06 1.71-.08-.08.01-.15.03 0 .03.17 0-.07.03 0 .04-.25.03.08.02-.01.03.02.01-.14.03-.01.03.05.01.09.01-.01.03.38-.01-.1.03-.01.03-.16.02.03.02-.02.03.07 0-.17.03-.02.03-.03.01.12.01-.02.03.19 0-.16.03-.02.03 0 .01.01.02-.03.03-.3.03-.05.02-.03.03-.03.01.17 0-.03.03-.02.01-.15.03-.03.03.04 0-.43.05-.03.03.07 0-.3.04-.04.02.24-.02-.03.01-.04.02l-.04.02c-.12.06-.27.11-.43.13-.18.02-.34 0-.49-.06-.01-.01-.22.01-.04-.02 0-.01-.16 0-.04-.02-.27.02-.05-.01-.04-.02-.01-.01.07-.02-.04-.02-.16 0 .08-.03-.03-.03.17-.02.12-.03-.03-.03.16-.02-.04-.02-.03-.03.25-.03.07-.03-.03-.03-.09 0 .04-.02-.03-.03.05-.01-.07-.02-.02-.03-.12 0-.16-.01-.02-.03-.08-.01-.02-.02-.02-.04-.1-.01.01-.03-.02-.04-.05-.01.27-.04-.01-.04-.04-.01.04-.03-.01-.04.03-.02.07-.03-.01-.04.28-.03.1-.03 0-.04l1.76-.09c.08.01.04.02 0 .03.03.01.02.02 0 .04.08.01-.12.03 0 .03s-.13.03-.01.03c.08.01.13.01-.01.03 0 .01-.25.04-.01.03.05.01.37 0-.02.03.1 0-.18.03-.02.03-.28.03-.01.02-.02.03-.05.01-.15.03-.03.03.14 0-.07.02-.03.03.16 0-.21.03-.03.03-.04.01.03.01-.03.03.38-.03 0 .01-.03.03-.06.01.25-.01-.04.03.29-.02.04.01-.04.02s.12 0-.04.02c.2-.01-.11.02-.04.02-.13.02-.01.01-.04.02.05 0 .03.01-.04.02l-.04.02a.58.58 0 0 1-.32.12ZM37.212 35.95c.11.02.21.04.3.07.02.01.03.01.05.01.03.01.06.01.04.01-.14-.02.26.05.04.02-.06-.01-.01 0 .04.02.05.01-.09-.01.04.02.27.04-.3-.04.04.02.07.01.05.02.04.02-.21-.03 0 .01.03.02-.25-.03-.14-.01.03.02-.34-.05-.29-.03.03.02.01.01-.12-.01.03.02.02.01.08.02.02.02.23.04.22.04.02.02.24.04.15.03.02.02-.14-.01.21.04.02.02-.02 0 .05.02.01.02-.1-.01-.21-.02.01.02.06.01.14.03.01.02.26.04.14.03.01.02.04.01-.15-.01 0 .02-.04 0 .11.03 0 .02-.08 0-.16-.01 0 .02.17.03-.07 0-.01.02-.25-.02.08.02-.01.02.02.01-.14-.01-.01.02.04.01.09.02-.02.01.38.05-.1 0-.02.02-.16-.01.02.01-.02.01.07.01-.18-.01-.02.01-.03 0 .12.02-.03.01.19.03-.16-.01-.03.01 0 .01.01.01-.03.01-.3-.03-.05 0-.03.01-.03 0 .17.03-.03.01-.02 0-.15-.01-.04.01.04.01-.43-.04-.04.01.07.01-.3-.02-.04.01.24.03-.03 0-.04.01l-.04.01c-.13.01-.28.02-.44 0-.18-.02-.34-.05-.47-.1-.01 0-.22-.03-.04-.01 0 0-.16-.02-.04-.02-.27-.03-.05-.01-.04-.02-.01-.01.08 0-.03-.02-.16-.02.08 0-.03-.02.17.01.13 0-.03-.02.17.01-.03-.01-.03-.02.25.02.08 0-.02-.02-.09-.02.04-.01-.02-.02.05 0-.06-.02-.02-.02-.12-.02-.16-.03-.02-.02-.08-.02-.01-.02-.01-.02-.1-.02.02-.01-.01-.02-.05-.01.27.02-.01-.02-.03-.01.05-.01 0-.02.04 0 .07-.01 0-.02.28.03.11 0 0-.02-.08-.02-.04-.02 0-.02-.03-.01-.01-.02.01-.02-.08-.02.12 0 .01-.02-.12-.02.13 0 .01-.02-.08-.02-.12-.03.02-.02 0-.01.25.02.02-.02-.05-.01-.36-.06.02-.02-.09-.02.19.01.02-.02.28.03.02-.01.03-.01.05 0 .15.01.03-.01-.13-.02.07 0 .03-.01-.16-.03.21.02.03-.01.04 0-.02-.01.03-.01-.38-.06 0-.01.04-.01.05 0-.25-.05.04-.01-.29-.05-.04-.01.04-.01.08.01-.12-.03.04 0-.2-.03.11.01.04 0 .13.02.01 0 .04 0-.04-.01-.03-.01.05 0h.05c.09-.06.19-.05.29-.03ZM1.661 63.7c.02-.01.09.04.19.15.05.06.11.13.18.22.04.04.07.09.11.14.04.05.09.1.14.15.1.11.2.23.32.37.13.13.26.27.41.42.15.15.33.3.51.46.19.16.4.31.61.48.15.1.31.21.47.32.16.11.34.21.52.31.18.11.38.19.58.29.2.1.41.19.62.3.18.17.44.2.69.24.25.05.5.08.72.26.48.22 1.03.3 1.6.37.28.04.57.1.86.16.29.05.6.09.91.06.32-.12.63-.01.95.07.32.07.65.15.98-.03.17-.02.33-.04.5-.05.17-.01.34-.03.51-.04.34-.02.69-.04 1.05-.07.37.08.73.02 1.09-.06.36-.09.72-.21 1.08-.3.39.04.78.01 1.15-.11.19-.05.37-.12.56-.2.18-.08.36-.17.54-.27.86.12 1.64-.2 2.31-.79.77-.31 1.62-.51 2.34-1.03.78-.39 1.52-.87 2.34-1.26.33-.34.69-.6 1.07-.86.19-.12.39-.24.6-.34.2-.11.41-.21.63-.3.08-.09.16-.18.24-.26.08-.09.17-.17.25-.25.17-.16.36-.3.55-.44.37-.29.79-.53 1.19-.8.42-.25.73-.62 1.06-.99.32-.37.64-.73 1.05-1.03.69-.7 1.29-1.5 1.93-2.28.68-.74 1.36-1.54 1.65-2.55.44-.93.79-1.88 1.26-2.81.08-1.06.42-2 .66-3.02l.03-.39c.01-.13.01-.26.02-.39s.02-.26.02-.39v-.39c.01-.26-.03-.52-.05-.77-.04-.26-.11-.51-.19-.75-.1-.5-.27-.99-.5-1.45l-.08-.17-.04-.09-.02-.04-.01-.01a.3.3 0 0 1-.04-.08c-.01-.01-.01-.03-.02-.04-.01 0-.03-.01-.04-.01-.03-.01-.06-.02-.1-.03l.11-1.71.58.06 1.41.15-.7 1.07c-.56.85-1.21 1.61-1.86 2.38-.2.23-.42.45-.67.64-.25.18-.49.36-.76.51l-.4.22c-.13.07-.27.13-.4.2-.14.07-.27.14-.4.2s-.27.13-.4.2c-.59.14-1.12.35-1.67.57-.27.11-.55.2-.82.29-.28.08-.56.14-.84.18-1.13.24-2.26.18-3.36.33-1.11.06-2.21.04-3.27-.2-.28.06-.55.07-.82.03-.27-.03-.53-.1-.78-.18-.51-.17-1-.36-1.52-.46-.97-.4-2-.52-2.94-.91-.49-.13-.94-.36-1.39-.58-.22-.11-.44-.22-.67-.32-.11-.05-.23-.1-.34-.14-.12-.04-.23-.09-.35-.12-.22-.11-.44-.21-.66-.31-.22-.1-.44-.2-.66-.31l-.32-.16c-.11-.06-.21-.12-.31-.18-.21-.12-.4-.25-.59-.4-.45-.16-.84-.43-1.2-.72l-.27-.22c-.03-.02-.02-.02-.03-.03l-.02-.02-.04-.04a.236.236 0 0 0-.09-.06c-.01-.01-.01 0-.02.01l-.02.02c-.01.01-.03.03-.04.05a6.1 6.1 0 0 1-.32.22c-.17.13-.34.26-.51.38-.35.25-.67.51-1.01.76-.83.31-1.29 1.03-1.84 1.6-.3.26-.54.58-.79.87-.25.3-.51.57-.83.8-.25.28-.53.54-.77.81-.25.27-.46.57-.63.89-.19.3-.47.53-.72.78-.24.26-.45.54-.44.93-.07.15-.16.29-.26.42l-.3.39c-.2.26-.36.54-.37.88-.02.33-.14.61-.29.87-.14.26-.32.51-.41.78-.1.27-.19.53-.27.8l-.12.39c-.03.13-.06.26-.1.38-.15.57-.23 1.12-.3 1.64-.02.26-.05.51-.06.76 0 .25-.02.48-.01.71.02.92.15 1.69.3 2.31.36 1.29.7 1.91.62 1.96-.04.02-.18-.15-.41-.5-.21-.36-.52-.92-.76-1.71a9.92 9.92 0 0 1-.43-2.99c0-.3.01-.61.04-.93.02-.32.07-.65.12-.98.11-.67.26-1.38.5-2.1.08-.29.15-.6.23-.91.09-.3.21-.61.43-.87.14-.3.24-.62.39-.93.07-.16.14-.31.23-.47.09-.15.19-.29.3-.43.05-.38.24-.68.46-.98.22-.29.48-.56.7-.86.22-.3.45-.6.7-.89.24-.3.49-.6.7-.94.2-.35.49-.63.78-.92.3-.27.6-.55.87-.87.71-.46 1.31-1.04 1.88-1.72.4-.21.72-.5 1.07-.78.17-.14.34-.29.51-.44l.13-.11.07-.05.09-.07c.15-.11.31-.23.47-.34l.24-.12.18-.09.01-.01.01.01.03.02c.15.12.3.24.45.35l.22.16.21.14c.09.06.19.12.28.17.39.21.81.38 1.22.57.21.09.41.19.61.3l.3.17.3.16c.2.11.4.22.61.33.21.1.42.2.64.28.1.06.21.11.31.16.11.05.21.09.32.14.22.09.43.18.66.26.45.15.89.32 1.34.5.94.22 1.88.45 2.8.83.97.16 1.94.41 2.94.53 1.01.02 2.01.2 3.04.16.25-.02.51-.01.77-.01s.52.01.77.01c.26-.01.52-.03.77-.07.25-.05.51-.12.75-.24 1-.23 2.02-.46 2.94-.93.95-.39 1.86-.93 2.57-1.68.77-.4 1.28-1.14 1.62-1.92.24.41.47.82.71 1.23-.23.01-.46.03-.7.04l.12-1.76h.77c.13 0 .26-.01.38.01l.54 1.02.05.09.02.06.05.11.09.22c.25.57.4 1.18.53 1.79.29 1.2.32 2.43.19 3.61-.01.6-.14 1.18-.29 1.74-.07.28-.17.56-.24.84-.08.28-.17.55-.22.83-.07.28-.17.55-.27.81-.11.26-.24.52-.37.77s-.27.49-.4.74-.26.49-.36.75c-.47 1.01-1.05 1.96-1.8 2.74-.17.21-.34.42-.52.61-.19.19-.37.38-.55.57-.38.38-.72.77-1 1.22-.34.4-.65.82-1 1.21-.36.38-.75.71-1.26.89-.35.37-.78.64-1.19.92-.21.13-.42.27-.62.41-.1.07-.2.15-.29.23-.1.08-.19.16-.28.24-.24.08-.46.19-.67.31-.21.12-.41.25-.6.4-.38.29-.76.58-1.17.82-.85.42-1.7.77-2.47 1.27-.76.52-1.67.67-2.46 1.02-.38.22-.81.32-1.23.41-.42.08-.83.17-1.21.36-.4.1-.8.2-1.19.3-.39.11-.79.18-1.18.23-.35.26-.74.32-1.13.34-.39 0-.78-.05-1.16-.03-.37.01-.73.11-1.1.16-.18.03-.36.05-.54.04-.18-.01-.36-.04-.54-.11-.71.3-1.39.01-2.04-.12-.32-.08-.64-.08-.96-.1-.32-.03-.63-.06-.91-.21-.64.07-1.14-.37-1.68-.48-.24-.15-.5-.23-.75-.33-.25-.09-.5-.16-.72-.29a3.43 3.43 0 0 1-.67-.31c-.21-.12-.4-.25-.57-.4-.18-.13-.37-.24-.53-.37-.16-.13-.32-.26-.48-.38-.21-.2-.42-.38-.6-.57-.17-.19-.34-.36-.48-.54-.14-.18-.26-.34-.38-.49-.1-.16-.19-.3-.27-.43a1.74 1.74 0 0 1-.11-.18c-.03-.06-.06-.12-.08-.17-.05-.1-.09-.19-.12-.26-.08-.13-.1-.21-.07-.22Z" fill="#BF4E70"/><path d="M37.592 42.46a.75.75 0 0 1-.09.3c-.01.01-.02.03-.03.04-.01.03-.02.06-.03.04 0-.14-.04.26-.03.04 0-.06-.02-.01-.04.04s-.01-.09-.04.04c-.04.27.01-.3-.04.03-.02.07-.03.05-.04.03.01-.21-.03 0-.05.03.01-.25-.01-.15-.05.03.03-.35.01-.29-.05.03-.02.01-.02-.13-.05.02-.02.02-.05.08-.06.02-.05.23-.07.21-.06.02-.05.24-.06.14-.06.01 0-.14-.07.21-.06.01-.02-.02-.05.05-.06.01 0-.1-.01-.22-.06 0-.03.06-.07.14-.06 0-.07.26-.07.14-.06 0-.03.04-.02-.15-.07-.01-.01-.04-.06.11-.06-.01.1-.56.21-1.12.32-1.68 0 .08.01.16.05.01.05-.16.02.08.05.01-.02.25.05-.07.05.02.02-.02.01.15.05.02.02-.04.05-.09.05.02.08-.37.02.1.05.02-.01.16.04-.02.05.03.03-.07.01.18.04.03.01.03.05-.12.04.03.04-.18.01.16.04.03.01 0 .03-.01.04.03-.02.3.02.05.04.04.01.03.05-.16.04.04.01.03.01.16.03.04.02-.04-.02.43.03.04.02-.07-.01.31.03.04.04-.24.02.03.03.04l.02.05c.07.14.11.29.1.45a.74.74 0 0 1-.22.46c-.01.01-.05.22-.04.04-.01 0-.04.15-.04.03-.04.27-.03.05-.04.03-.02.01-.02-.08-.05.03-.03.16-.02-.08-.05.03.01-.17-.02-.13-.05.03.01-.17-.04.03-.05.02.02-.26-.02-.08-.06.02-.03.09-.03-.04-.06.02-.01-.05-.05.06-.06.01-.04.12-.06.16-.06.01-.03.08-.04.01-.06.01-.04.1-.04-.02-.06 0-.03.05 0-.27-.06 0-.03.03-.04-.05-.07 0-.01-.04-.03-.08-.07-.01.03-.28-.02-.11-.07-.01.11-.58.22-1.16.33-1.73.03-.08.04-.03.05.01.02-.02.04-.01.05.01.03-.08.02.12.05.02.04-.11.01.13.05.02.03-.08.05-.12.05.02.02 0 0 .26.05.02.02-.05.09-.36.05.03.03-.09 0 .19.04.03-.02.28.03.02.04.03.01.06.01.15.04.03.03-.13.02.08.04.03.04-.16 0 .21.04.04.01.04.03-.02.04.04.06-.38.02.01.03.04.01.06.05-.25.03.04.04-.29.03-.04.03.04 0 .09.03-.12.03.04.03-.2.01.11.02.05 0 .13.02.01.02.05.01-.04.02-.03.02.05l.02.05c.05.08.06.18.05.29Z" fill="#BF4E70"/><path d="M36.592 42.32c-.02.1-.06.2-.12.28-.01.01-.02.03-.03.04-.01.03-.03.05-.03.04.02-.14-.07.25-.04.04 0-.06-.02-.01-.04.03-.02.05 0-.09-.04.03-.07.26.04-.3-.05.03-.03.07-.04.05-.05.03.03-.21-.03-.01-.05.02.04-.25 0-.15-.05.02.06-.34.04-.29-.05.02-.02.01 0-.13-.06.02-.02.02-.06.08-.06.01-.07.22-.09.2-.06.01-.08.23-.08.13-.06 0 .02-.14-.1.2-.06 0-.02-.02-.06.04-.06 0 .01-.1.02-.22-.06 0-.04.05-.08.13-.06-.01-.1.25-.08.13-.07-.01-.03.04 0-.15-.07-.01-.01-.05-.08.1-.07-.02.17-.54.35-1.09.52-1.63-.01.08-.01.16.05.02.07-.16.01.08.05.02-.06.24.06-.07.05.02.02-.02-.01.15.05.02.03-.04.06-.08.05.03.12-.36.01.1.04.03-.03.16.04-.01.04.03.03-.06-.01.18.04.03.01.04.06-.11.04.04.06-.18-.01.16.04.04.01 0 .03 0 .04.04-.05.29.02.05.03.04.01.03.06-.16.03.04.01.03-.01.16.03.04.02-.04-.07.43.03.04.03-.07-.04.3.03.05.06-.24.01.03.02.05l.02.05c.05.14.08.3.05.46-.03.17-.12.32-.26.43-.01.01-.07.21-.04.03-.01 0-.06.15-.05.03-.07.27-.04.04-.05.03-.02.01-.01-.08-.05.02-.05.15-.01-.08-.05.02.02-.17 0-.13-.06.02.02-.16-.04.03-.06.02.04-.25-.02-.08-.06.01-.04.08-.03-.05-.06.01-.01-.05-.05.05-.06 0-.05.11-.08.15-.06 0-.04.07-.04 0-.06 0-.05.09-.04-.02-.06 0-.04.05.04-.27-.07-.01-.03.03-.03-.06-.07-.01-.01-.04-.02-.08-.07-.01.06-.27-.01-.11-.07-.02l.54-1.68c.04-.07.05-.03.05.02.03-.02.04 0 .05.02.04-.07 0 .12.05.02.05-.11 0 .13.05.03.04-.07.07-.11.05.03.02 0-.03.25.04.03.03-.05.13-.35.04.03.04-.09-.02.19.04.03-.06.28.03.02.04.04 0 .06-.01.15.04.03.05-.13.01.08.04.04.05-.15-.02.21.03.04.01.04.03-.02.03.04.1-.37.02.01.03.04 0 .06.08-.24.03.04.07-.28.03-.03.02.05-.01.08.05-.11.02.05.05-.2 0 .11.02.05-.02.13.02.01.02.05.02-.04.02-.03.01.05l.01.05c.02.09.02.19 0 .3ZM34.581 41.68c-.04.1-.1.18-.16.26l-.03.04c-.02.02-.03.05-.03.03.05-.13-.12.23-.04.03.02-.06-.01-.01-.04.03s.02-.09-.04.03c-.12.24.11-.28-.04.02-.04.06-.04.04-.04.02.08-.19-.02-.01-.04.02.1-.23.04-.14-.04.02.14-.31.11-.27-.04.02-.02 0 .03-.12-.04.01-.02.02-.06.07-.04.01-.11.2-.12.19-.04.01-.12.22-.09.12-.04 0 .05-.13-.12.18-.04 0 0-.02-.05.04-.04 0 .03-.1.07-.2-.04 0-.04.05-.09.12-.04-.01-.13.23-.09.12-.04-.01-.03.03.04-.14-.04-.01.01-.04-.08.09-.04-.02.27-.5.53-1.01.8-1.51-.03.08-.05.15.03.02.09-.15-.01.07.03.02-.1.22.06-.06.03.02.02-.02-.04.14.03.02.03-.04.06-.07.02.03.18-.34-.02.1.02.03-.06.15.03-.01.02.03.04-.06-.06.17.02.03-.01.03.07-.1.02.03.09-.17-.05.15.02.04.01.01.02 0 .01.04-.12.27 0 .05.01.04 0 .03.09-.14.01.04 0 .03-.05.15.01.04.03-.04-.17.4.01.04.04-.06-.11.28 0 .04.11-.22 0 .03 0 .05v.05c0 .14-.03.29-.1.44a.91.91 0 0 1-.3.39c-.01.01-.11.2-.04.03-.01 0-.08.14-.04.02-.12.25-.04.04-.04.02-.01.01.02-.08-.04.02-.08.14.02-.08-.04.02.06-.16.03-.12-.04.01.06-.15-.04.02-.04.01.1-.23.01-.08-.04.01-.05.08 0-.04-.04.01.01-.05-.05.05-.04 0-.06.1-.1.14-.04 0-.05.07-.03 0-.04 0-.06.08-.02-.02-.04 0-.04.04.1-.25-.04-.01-.03.03 0-.05-.04-.01 0-.04.01-.08-.04-.01.12-.25.02-.11-.04-.02.27-.52.55-1.04.82-1.56.05-.06.04-.02.03.02.02-.02.03 0 .03.02.05-.07-.03.12.03.02.06-.1-.04.12.03.03.05-.07.08-.1.02.03.01 0-.09.23.02.03.03-.04.18-.32.02.03.05-.08-.06.18.02.03-.12.26.01.02.02.03-.01.05-.05.14.01.04.07-.12-.01.07.01.04.08-.14-.07.2.01.04-.01.04.03-.01.01.04.17-.34.01.01.01.04-.02.05.12-.22.01.04.13-.26.03-.03 0 .05s.06-.1 0 .05c.09-.18-.04.11 0 .05-.05.13.01.01 0 .05.02-.04.02-.02 0 .05l-.01.05c-.05.05-.08.15-.12.25ZM33.911 41.35c-.05.09-.11.18-.18.25l-.03.03c-.02.02-.04.05-.04.03.06-.13-.14.22-.04.03.02-.06-.01-.01-.04.03s.03-.09-.04.02c-.14.24.13-.27-.04.02-.04.06-.04.04-.04.02.09-.19-.01-.01-.04.02.12-.22.05-.13-.04.01.16-.31.13-.26-.04.01-.02 0 .04-.12-.04.01-.02.01-.06.06-.04.01-.13.19-.13.18-.04 0-.13.21-.1.12-.04 0 .06-.13-.13.18-.04 0 0-.02-.05.04-.04-.01.04-.09.09-.2-.04-.01-.04.05-.1.11-.04-.01-.15.22-.1.11-.04-.01-.04.03.05-.14-.04-.02.01-.04-.09.08-.04-.02.3-.48.6-.97.9-1.45-.03.07-.06.14.03.02.1-.14-.02.07.03.02-.12.22.06-.06.03.02.02-.02-.06.13.02.03.03-.03.07-.07.02.03.2-.32-.03.09.02.03-.07.15.03-.01.02.03.04-.06-.07.16.01.03-.01.03.08-.1.01.04.1-.16-.06.15.01.04.01.01.02 0 .01.04-.14.26-.01.05.01.04-.01.03.1-.14.01.04 0 .02-.06.15 0 .04.03-.04-.19.39 0 .04.04-.06-.13.28 0 .04.12-.21 0 .03 0 .05v.05c-.01.14-.05.29-.12.43a.9.9 0 0 1-.32.37c-.01.01-.12.19-.04.02-.01-.01-.09.13-.04.02-.14.24-.04.04-.04.02-.02.01.02-.08-.04.02-.08.13.02-.08-.04.01.07-.15.04-.12-.04.01.07-.15-.04.02-.04.01.11-.23.02-.08-.04.01-.06.08 0-.05-.04 0 .01-.05-.05.04-.04 0-.07.1-.1.13-.04 0-.05.06-.03 0-.04-.01-.06.08-.02-.03-.04-.01-.04.04.11-.25-.04-.01-.03.02 0-.05-.04-.01.01-.04.01-.08-.04-.02.13-.24.03-.1-.04-.02l.93-1.5c.05-.06.04-.02.03.02.03-.02.03 0 .03.02.05-.06-.04.11.03.02.07-.1-.05.12.02.03.05-.06.08-.1.02.03.01.01-.11.23.02.03.04-.04.21-.31.02.03.06-.08-.08.17.02.03-.13.25.01.02.02.04-.02.05-.06.14.01.04.08-.11-.02.07.01.04.09-.14-.09.19.01.04-.01.04.03-.01.01.04.19-.33.01.01 0 .04-.02.05.14-.21 0 .04.15-.25.03-.03 0 .05s.07-.1 0 .05c.1-.17-.04.1 0 .05-.06.12.01.01-.01.05.03-.04.02-.02-.01.05l-.01.05c-.06.09-.1.19-.15.28Z" fill="#BF4E70"/><path d="M38.331 84.89c0-.03.08-.06.22-.09.08-.02.17-.03.28-.05.05-.01.11-.02.18-.03.06-.01.13-.03.2-.04.14-.03.3-.06.47-.09.17-.04.36-.09.56-.15.2-.05.42-.13.65-.21.23-.07.46-.19.72-.28.33-.16.68-.32 1.04-.54.18-.1.35-.23.54-.35.09-.06.18-.12.28-.18.09-.07.19-.13.29-.2.11-.04.21-.1.3-.19s.16-.19.24-.28c.08-.1.16-.19.25-.28.09-.09.2-.16.33-.2.11-.08.21-.15.31-.25.1-.09.19-.19.28-.29.19-.2.35-.42.53-.65.34-.45.82-.83 1.07-1.41.07-.33.3-.54.53-.77.22-.24.45-.48.47-.86.13-.31.29-.6.43-.91.08-.15.15-.3.24-.46.08-.16.15-.31.23-.47.49-.56.56-1.32.78-2.03.24-.31.4-.66.49-1.03.09-.38.14-.77.15-1.17.13-.17.24-.35.33-.53.08-.19.14-.38.18-.58.08-.4.06-.82-.03-1.25.07-.41.15-.81.23-1.23.06-.42.12-.84.07-1.28.03-.43.04-.86.04-1.3.02-.44.02-.88.06-1.33-.11-.45-.18-.89-.19-1.34a7.71 7.71 0 0 1 0-.68l.03-.35c.01-.11.02-.23.04-.35-.08-.22-.14-.45-.18-.68-.05-.23-.08-.46-.11-.69-.02-.23-.03-.47-.05-.7-.01-.24-.01-.47-.02-.71-.02-.97-.58-1.83-.64-2.82-.25-.94-.63-1.86-.96-2.8-.27-.96-.61-1.94-1.31-2.71-.56-.85-1.18-1.64-1.72-2.52-.85-.62-1.46-1.41-2.18-2.16-.41-.3-.82-.61-1.25-.9-.21-.14-.44-.26-.67-.38-.24-.1-.47-.2-.73-.25-.24-.09-.47-.19-.72-.24l-.37-.09c-.11-.02-.3-.05-.27-.04-.03 0-.05.01-.08 0s-.07-.02-.15-.05l-.01.01c-.01.02-.01.05-.01.09 0 .02.01.05.01.08 0 .02 0 .03.01.04v.03l.03.1c.04.14.1.28.14.42l.12.42c.1.28.15.56.25.84.09.29.13.59.17.89.01.3.02.6 0 .9-.04.6-.12 1.18-.17 1.76-.05.14-.1.28-.13.42-.04.14-.08.28-.11.42-.03.14-.06.28-.08.42-.03.14-.06.28-.08.42-.03.14-.05.28-.08.42l-.1.41c-.04.14-.07.28-.12.41-.05.13-.1.26-.16.39-.38 1.07-1.02 1.99-1.46 3-.51.97-1.09 1.9-1.83 2.66-.08.27-.23.5-.39.71-.08.1-.17.21-.26.3s-.19.18-.29.27c-.39.36-.83.66-1.15 1.06-.84.61-1.46 1.43-2.26 2.04-.18.17-.38.32-.58.47-.2.15-.41.28-.62.41-.21.13-.41.27-.61.41-.2.14-.39.29-.57.46-.1.06-.2.13-.3.2l-.3.2c-.2.14-.39.28-.59.41-.4.26-.8.51-1.24.67-.36.31-.78.51-1.22.67l-.08.03h-.02l-.05.01-.11.03c-.01 0-.02 0-.03.01v.03c0 .02 0 .03.01.05a.3.3 0 0 0 .04.1l.02.26c.01.11.02.21.04.32.02.21.05.42.07.63.05.42.11.83.16 1.24-.07.43-.01.84.1 1.23s.27.76.38 1.14c.17.77.58 1.44.64 2.21.22.71.38 1.43.78 2.03.17.31.21.67.32 1 .05.17.11.33.2.47.09.14.21.26.38.36.38.53.43 1.28 1 1.63.56.35.7.98 1.08 1.41.09.11.18.21.27.32.1.1.19.2.28.3.18.2.38.38.56.56.84.81 1.7 1.4 2.5 1.84.8.43 1.53.7 2.13.88 1.22.39 1.92.4 1.91.5 0 .04-.21.08-.63.11-.21 0-.47 0-.78-.02-.15-.02-.32-.04-.5-.06-.18-.02-.36-.07-.56-.11-.79-.18-1.76-.51-2.78-1.09-1.02-.59-2.1-1.42-3.13-2.53-.41-.43-.96-.81-1.2-1.44-.37-.53-.88-1.01-1.12-1.68-.59-.47-.72-1.23-1.02-1.9-.31-.67-.53-1.4-.88-2.1-.42-.69-.42-1.53-.73-2.29-.02-.42-.09-.83-.18-1.24-.1-.41-.23-.81-.38-1.22 0-.44-.06-.87-.15-1.3-.04-.22-.08-.43-.13-.65l-.06-.33-.02-.17-.02-.23c.02-.19.02-.37.03-.55v-.39l.12-.06c.17-.08.33-.15.49-.24l.44-.22c.39-.22.73-.5 1.1-.76.37-.26.75-.49 1.15-.71.19-.12.39-.23.58-.36.1-.06.19-.12.29-.19l.27-.21c.2-.12.39-.25.58-.39l.55-.43c.18-.14.36-.3.54-.45.18-.15.37-.29.56-.44.65-.7 1.32-1.37 2.11-1.96.62-.75 1.32-1.44 1.94-2.23.54-.84 1.19-1.6 1.68-2.49.12-.22.25-.44.39-.66l.21-.32.2-.33c.06-.11.13-.22.19-.34.06-.12.11-.23.15-.35a2.442 2.442 0 0 0 .18-.76c.33-.96.68-1.94.77-2.96.18-1 .24-2.05-.01-3.05.02-.25.03-.51-.02-.75-.02-.12-.05-.24-.08-.37-.03-.12-.08-.24-.12-.35l-.03-.09-.07-.16c-.05-.11-.09-.23-.15-.34-.13-.23-.25-.46-.38-.7-.26-.48-.55-.96-.85-1.47l.17-.02c.48 0 .99 0 1.49.03s1 .04 1.55.15c.32.05.4.07.57.11l.44.13c.3.08.58.21.86.32 1.15.4 2.18 1.05 3.09 1.79.12.08.24.17.36.26.11.09.22.19.33.29.11.1.21.2.31.3l.29.32c.1.11.2.21.29.32.09.11.19.22.28.32l.29.31c.1.11.19.21.29.31.1.1.2.2.29.31.09.11.17.22.25.34.08.11.16.23.24.35l.22.36.42.72c.14.24.29.47.45.69.61.91 1.12 1.88 1.39 2.93.4.99.48 2.06.98 2.98.32.98.85 1.92.64 2.98.07.24.1.49.13.74s.04.49.05.74c.01.25.02.49.05.73.02.24.05.48.11.72-.02.12-.04.25-.05.37-.01.12-.02.24-.02.36 0 .24.02.48.04.71.04.47.12.94.11 1.41-.03.47-.08.93-.12 1.38-.03.46-.06.91-.04 1.36.03.46-.05.9-.12 1.33-.1.43-.19.86-.25 1.28 0 .44-.12.85-.27 1.25-.07.2-.14.4-.19.6-.06.2-.1.4-.1.61-.11.4-.23.79-.34 1.17-.11.38-.24.76-.39 1.12.09.87-.55 1.45-.89 2.1-.09.16-.16.33-.22.5-.06.17-.13.34-.19.51-.13.34-.31.65-.6.88-.04.37-.23.67-.43.94-.22.26-.47.49-.69.74-.45.47-.67 1.1-1.2 1.44-.13.29-.34.5-.59.66-.12.09-.24.17-.35.25-.11.09-.22.17-.31.28-.13.07-.24.14-.34.23-.11.08-.21.16-.31.25s-.2.17-.29.26c-.1.08-.21.15-.31.22-.1.08-.19.16-.29.23-.1.07-.21.13-.31.19-.2.12-.41.22-.63.28-.39.2-.78.35-1.14.49-.28.08-.53.18-.78.23-.25.05-.48.12-.7.15-.22.03-.42.06-.61.08-.18.01-.35.01-.5.02-.08 0-.15.01-.21 0-.07 0-.13-.01-.18-.01-.11-.01-.21-.02-.28-.03-.2.01-.28-.01-.28-.04Z" fill="#BF4E70"/><path d="M75.011 63.7c-.02-.01-.01-.1.04-.24.02-.07.06-.16.1-.27.02-.05.04-.11.07-.17.02-.06.04-.13.06-.2.05-.14.1-.29.16-.46.05-.17.1-.36.15-.57.06-.21.09-.43.14-.67.05-.24.07-.5.11-.77.01-.18.03-.37.04-.57.02-.2 0-.4.01-.61 0-.21-.03-.43-.04-.65-.01-.22-.04-.45-.05-.69.06-.24-.05-.48-.14-.72-.08-.24-.19-.48-.13-.75-.05-.53-.25-1.05-.48-1.57-.11-.26-.2-.54-.29-.83-.1-.28-.22-.56-.41-.82-.26-.22-.32-.54-.41-.85-.1-.31-.19-.64-.52-.84-.1-.13-.2-.27-.29-.41-.1-.14-.19-.28-.29-.42-.18-.29-.38-.58-.58-.87-.12-.36-.35-.64-.59-.91-.26-.27-.54-.52-.8-.79-.16-.36-.38-.68-.67-.95-.14-.13-.29-.26-.45-.38-.16-.12-.33-.23-.5-.33-.33-.81-1-1.32-1.84-1.6-.65-.51-1.25-1.15-2.06-1.51-.72-.48-1.51-.89-2.26-1.4-.45-.11-.87-.3-1.28-.5-.2-.1-.4-.22-.6-.35-.2-.12-.39-.26-.58-.4-.12-.02-.23-.05-.35-.08a6.012 6.012 0 0 1-1-.36c-.44-.18-.85-.42-1.29-.63-.43-.23-.91-.33-1.39-.43-.48-.09-.96-.19-1.41-.4-.95-.25-1.95-.37-2.94-.53-.98-.22-2.02-.4-3.04-.16-1.03.08-2.03.25-3.07.32-.96.46-1.95.63-2.95.94-.11.06-.23.12-.35.17l-.34.18c-.11.06-.23.11-.35.17l-.34.19c-.23.12-.43.28-.64.43-.2.16-.39.35-.56.54-.38.34-.72.73-1 1.16l-.11.16c-.03.05-.09.12-.08.12-.01.03-.03.05-.05.08l-.03.04c.01.02.01.03.02.05.01.03.02.07.02.11l-1.54.74c-.08-.18-.16-.36-.24-.55l-.56-1.28 1.27.07c1.02.06 1.99.24 2.98.42.3.06.6.14.89.26.28.12.56.25.82.41l.39.23c.13.08.25.17.38.25.12.08.25.16.38.24.12.09.25.17.37.25.41.44.87.8 1.32 1.16.23.18.44.37.66.57.21.2.4.41.58.64.77.85 1.28 1.87 1.96 2.75.61.93 1.14 1.9 1.46 2.93.19.21.34.45.44.69.1.25.18.51.24.77.11.53.19 1.05.36 1.54.08.52.2 1.02.34 1.51.13.5.28.99.34 1.49.13.49.15 1 .2 1.49.01.25.03.5.06.74.01.12.03.24.05.36.02.12.04.24.07.36.01.24.04.49.06.73l.06.72c.05.48.04.96-.02 1.43.09.47.04.94-.02 1.4-.02.11-.04.23-.05.34l-.01.04v.01l-.01.03c-.01.02-.01.04-.01.05-.01.04-.01.07-.01.11v.01h.01l.03.01c.02 0 .04.01.06.01.12.05.23.11.35.16.2.09.39.17.59.26.39.18.78.32 1.16.5.68.57 1.54.6 2.31.79.38.13.77.18 1.15.26.38.06.75.15 1.1.32.37.08.73.19 1.09.26.36.08.72.12 1.08.1.36.02.7.15 1.04.23.34.07.69.12 1.02-.08.17-.02.33-.01.5.02l.49.06c.33.05.65.04.95-.11.3-.15.6-.18.9-.18.3-.01.6.02.88-.04.28-.05.56-.1.82-.17l.4-.09c.13-.04.25-.07.38-.11.57-.16 1.09-.36 1.57-.56.23-.12.47-.21.69-.33.21-.12.43-.22.62-.35.78-.47 1.39-.98 1.85-1.42.93-.9 1.3-1.5 1.38-1.45.04.02-.04.23-.23.61-.21.36-.54.91-1.1 1.51s-1.33 1.28-2.37 1.87c-.26.14-.53.3-.82.43-.29.14-.59.26-.91.39-.64.24-1.33.46-2.07.62-.29.07-.59.17-.9.25-.31.07-.63.12-.97.06-.33.02-.66.1-1 .13-.17.02-.34.03-.52.04-.17 0-.35-.02-.52-.05-.35.14-.71.13-1.08.09-.36-.05-.73-.13-1.1-.18-.37-.04-.75-.09-1.13-.16-.38-.06-.76-.12-1.16-.14-.4.01-.79-.11-1.18-.22-.39-.13-.78-.25-1.19-.32-.76-.38-1.56-.62-2.44-.77-.37-.24-.79-.38-1.21-.54-.21-.07-.42-.15-.64-.22l-.16-.06c-.06-.02-.09-.03-.19-.08-.18-.08-.35-.16-.53-.24-.08-.05-.15-.1-.22-.15l-.11-.07c-.02-.01-.04-.02-.05-.04l.01-.07c.03-.2.05-.38.07-.57l.02-.27.02-.24c.01-.11.01-.22.01-.33-.01-.45-.08-.89-.12-1.34-.06-.45-.04-.9-.06-1.36 0-.23-.01-.46-.02-.69-.02-.23-.04-.46-.07-.69 0-.12-.01-.23-.02-.35l-.04-.35c-.03-.23-.06-.47-.1-.7-.09-.46-.17-.93-.24-1.41-.28-.93-.55-1.85-.68-2.83-.35-.92-.61-1.88-1.01-2.81-.48-.88-.83-1.84-1.38-2.71-.15-.21-.27-.44-.39-.66-.13-.22-.25-.45-.38-.67-.14-.22-.28-.44-.45-.63-.17-.19-.36-.38-.58-.52-.7-.75-1.41-1.52-2.28-2.08-.82-.62-1.73-1.15-2.74-1.39-.73-.47-1.62-.54-2.46-.44.24-.4.48-.81.71-1.21.13.19.25.39.38.58-.53.26-1.06.51-1.59.77-.13-.22-.25-.44-.37-.66l-.19-.33c.05-.11.13-.22.19-.33l.41-.66c.08-.13.11-.16.16-.23l.14-.19c.37-.51.82-.94 1.28-1.36.89-.86 1.95-1.5 3.03-1.98.52-.29 1.09-.46 1.66-.62.28-.08.57-.13.85-.21.28-.07.56-.13.84-.22.28-.08.56-.13.84-.18.28-.04.57-.05.85-.07.28-.01.56-.01.84-.03.28-.01.56-.02.83-.06 1.11-.1 2.22-.07 3.27.2.27.04.53.08.79.15.26.06.52.13.78.19.51.14 1.02.24 1.56.26.52.09 1.04.15 1.54.26.5.12.99.29 1.4.65.5.12.95.36 1.39.57.22.11.44.23.67.33.11.05.23.1.34.14.11.04.23.08.35.12.19.17.39.31.61.42.21.12.43.23.65.32.44.19.88.37 1.3.6.79.52 1.52 1.09 2.33 1.51.83.4 1.41 1.12 2.11 1.63.78.44 1.17 1.28 1.88 1.73.29.3.58.59.86.88.29.29.55.59.79.91.4.17.65.48.86.81.19.34.35.7.55 1.02.19.32.46.58.68.87.11.14.22.29.31.45.08.16.14.33.17.52.61.46.71 1.2.92 1.82.1.32.25.6.39.89.13.29.26.58.27.89.39.52.25 1.17.42 1.7-.01.29.05.55.09.81.05.26.11.51.11.77.05.25.08.49.07.73 0 .24-.01.47-.06.7-.02.22-.03.44-.06.65-.03.21-.06.41-.09.6-.07.29-.12.56-.19.8-.08.25-.14.48-.22.69-.08.21-.16.4-.23.57l-.24.45c-.04.07-.07.13-.1.19-.04.06-.07.11-.1.15l-.17.24c-.09.1-.15.16-.17.15Z" fill="#BF4E70"/><path d="M75.012 21.31c-.02.01-.09-.04-.19-.15-.05-.06-.11-.13-.18-.22a6.25 6.25 0 0 0-.11-.14c-.04-.05-.09-.1-.14-.15-.1-.11-.2-.23-.32-.37-.13-.13-.27-.27-.41-.42-.15-.15-.33-.29-.51-.46-.18-.16-.4-.31-.61-.48-.15-.1-.31-.21-.47-.32-.16-.11-.34-.2-.52-.31-.18-.11-.38-.19-.58-.29-.2-.1-.41-.19-.62-.3-.18-.17-.44-.2-.69-.24-.25-.05-.5-.08-.72-.26-.48-.22-1.03-.3-1.6-.37-.28-.04-.57-.1-.86-.16-.29-.05-.6-.09-.91-.06-.32.12-.63.01-.95-.07-.32-.07-.65-.15-.98.03-.17.02-.33.04-.5.05-.17.01-.34.03-.51.04-.34.02-.69.04-1.05.07-.36-.08-.72-.02-1.08.06-.36.09-.72.21-1.08.3-.39-.04-.78-.01-1.15.1-.19.05-.37.12-.55.2-.18.08-.36.17-.54.27-.86-.12-1.64.2-2.31.79-.77.31-1.61.51-2.33 1.03-.78.39-1.52.86-2.34 1.25-.66.66-1.43 1.12-2.3 1.5-.32.36-.66.68-1.04.95-.37.29-.79.53-1.19.8-.41.25-.73.62-1.06.99-.16.18-.32.37-.49.54-.18.17-.36.33-.56.48-.35.35-.67.73-.99 1.11-.31.39-.62.78-.94 1.17-.69.74-1.36 1.54-1.66 2.55-.45.93-.8 1.88-1.26 2.81-.09 1.06-.43 2-.67 3.02-.01.26-.04.51-.05.77l-.03.39v.39c-.01.52.06 1.04.23 1.53.15.85.55 1.62.95 2.37-.26-.15-.52-.3-.77-.45.19.01.38.02.57.04v1.71h-.14l-.14-.01-1.74-.12.74-1.13c.57-.87 1.24-1.64 1.91-2.42.41-.47.9-.84 1.43-1.13l.4-.22.4-.2c.27-.14.54-.26.8-.4l.22-.06.22-.06c.14-.04.28-.09.42-.14.27-.1.55-.2.82-.31.27-.1.54-.2.82-.29.28-.08.56-.14.84-.18 1.13-.24 2.26-.17 3.36-.32 1.11-.06 2.21-.03 3.26.21.56-.13 1.09-.01 1.6.14.51.17 1 .37 1.52.46.97.41 2 .52 2.94.91.49.13.94.37 1.39.58.44.23.89.43 1.36.58.87.43 1.79.76 2.54 1.35.39.14.74.37 1.06.61l.24.19.12.1c.02.01.05.04.05.04l.01.02c.04.05.1.1.15.12.03-.02.05-.05.08-.09l.33-.24c.17-.13.34-.26.51-.38.35-.25.67-.51 1.01-.75.41-.16.74-.41 1.02-.71.14-.15.28-.3.41-.45.13-.15.26-.31.4-.45.3-.26.54-.58.79-.87.24-.3.51-.57.82-.8.13-.14.26-.27.39-.41.13-.13.25-.27.38-.41.25-.27.46-.57.62-.89.19-.3.47-.53.72-.78.24-.26.45-.54.44-.93.07-.15.16-.29.26-.42.09-.13.2-.26.3-.39.2-.26.36-.54.37-.88.02-.33.14-.61.29-.87.14-.26.32-.51.41-.78.1-.27.19-.53.27-.8l.12-.39c.03-.13.06-.26.1-.38.08-.28.12-.57.18-.84.05-.27.08-.54.12-.8.05-.52.08-1.01.07-1.47-.02-.92-.15-1.69-.3-2.31-.39-1.26-.73-1.88-.64-1.92.04-.02.18.15.41.5.21.36.52.92.76 1.71.24.78.44 1.79.43 2.98-.01.3-.01.61-.04.92-.02.32-.07.65-.11.98-.11.67-.26 1.38-.5 2.1-.08.29-.15.6-.23.91-.09.3-.21.61-.43.87-.14.29-.24.62-.39.93a6.5 6.5 0 0 1-.22.46c-.09.15-.19.29-.3.43-.05.38-.24.68-.46.98-.22.29-.48.56-.7.86-.22.3-.45.6-.7.89-.12.15-.24.3-.36.46-.12.15-.24.31-.34.48-.2.36-.49.63-.78.91-.3.27-.6.55-.87.87-.71.46-1.31 1.04-1.88 1.72-.4.2-.72.49-1.06.78-.17.15-.34.29-.51.44-.09.07-.17.14-.27.21-.15.11-.31.23-.47.34-.17.08-.33.16-.48.24-.27-.22-.53-.4-.79-.58l-.17-.11-.12-.08c-.08-.05-.17-.1-.25-.15-.35-.17-.72-.32-1.08-.49-.83-.36-1.57-.92-2.45-1.25-.41-.23-.85-.39-1.29-.57-.45-.15-.89-.32-1.34-.5-.94-.22-1.87-.45-2.79-.83-.49-.08-.97-.18-1.46-.28-.49-.09-.98-.19-1.48-.25-1.01-.02-2.01-.2-3.03-.16-.25.02-.51.01-.77.01s-.52-.01-.77-.01c-.26.01-.52.03-.77.07-.25.05-.5.13-.74.24-1 .23-2.02.45-2.94.92-.95.39-1.86.92-2.57 1.66-.79.41-1.31 1.16-1.65 1.95-.24-.41-.48-.82-.71-1.24l.29-.03.14-.01.07-.01h.07v1.76l-.57.03-.49.02-.3-.47c-.56-.89-.9-1.9-1.08-2.91-.28-1.2-.31-2.43-.17-3.61l.01-.22.03-.22c.02-.15.04-.29.07-.44.05-.29.13-.57.2-.86.08-.28.17-.56.24-.84.09-.27.17-.55.23-.83.07-.28.17-.55.27-.81.12-.26.24-.51.37-.77.13-.25.27-.49.4-.74s.26-.49.37-.75c.47-1.01 1.05-1.95 1.81-2.73.32-.43.71-.8 1.08-1.19.38-.37.72-.76 1-1.22.17-.2.33-.41.5-.61.16-.2.32-.41.5-.6.35-.37.75-.71 1.26-.89.35-.37.78-.64 1.19-.92.42-.26.83-.54 1.18-.88.24-.08.46-.19.67-.31.21-.12.41-.26.6-.4.19-.15.38-.29.58-.43.19-.14.39-.27.59-.39.85-.42 1.7-.77 2.47-1.26.76-.52 1.67-.66 2.46-1.02.77-.45 1.69-.37 2.43-.77.4-.1.8-.2 1.19-.3.39-.11.79-.18 1.18-.23.35-.26.74-.32 1.13-.33.39 0 .78.05 1.15.03.37-.01.73-.11 1.1-.15.18-.03.36-.05.54-.04.18.01.36.04.54.11.35-.15.7-.15 1.04-.1.34.05.67.16.99.22.32.08.64.08.96.11.32.03.63.06.91.21.32-.03.61.05.88.17.27.12.53.25.8.31.24.15.5.24.75.33.25.09.5.16.72.29.24.09.47.18.67.31.2.12.4.25.57.4.18.13.37.24.53.37l.47.38c.21.2.42.38.6.57.17.19.34.36.48.54.14.18.26.34.38.49.1.16.19.3.27.43.04.06.08.12.11.18s.06.12.08.17c.05.1.09.19.12.26.05.18.06.27.04.28Z" fill="#BF4E70"/><path d="M63.462 21.11c-.02.1-.17.18-.41.24-.04.01-.08.02-.13.03-.05.02-.1.04-.14.02-.03-.15-.13.25-.16.03-.04-.07-.11-.02-.17.02-.06.04-.11-.1-.18.02-.09.26-.1-.32-.2.02-.07.07-.14.05-.21.02-.06-.21-.15-.01-.22.02-.07-.26-.15-.15-.23.03-.07-.35-.16-.29-.25.03-.08.01-.17-.13-.25.03-.09.03-.17.1-.27.04-.08.23-.17.23-.27.04-.08.25-.18.16-.28.04-.11-.13-.17.23-.29.04-.1-.01-.19.08-.3.05-.11-.09-.23-.19-.31.05-.1.07-.18.17-.31.06-.06.28-.18.18-.32.07-.1.06-.24-.1-.32.07-.12-.01-.19.16-.33.08-.13-.05-.26-.1-.33.08-.06.19-.23-.01-.32.08-.17-.21-.19.13-.31.08-.1.06-.25-.07-.31.09-.09.08-.17.15-.3.08.02.39-.22-.03-.29.09-.15-.12-.18.09-.29.08-.07.1-.25-.1-.28.08-.1.01-.13.19-.27.08-.01.21-.23-.08-.26.08-.08.03-.16.08-.25.08-.2-.24-.17.02-.24.07-.09 0-.08.22-.23.07-.08.01-.21-.08-.22.06-.05.07-.32-.32-.21.06-.03.09-.26-.21-.19.05.05.25-.13.03-.19.05-.06.01-.12.03-.17.04-.49.12-.82.13-.9 0-.09-.15.14-.47.63-.89.05-.04.01-.26.15-.12.06-.03.05-.2.17-.13-.06-.28.11-.11.18-.13.06-.05.17 0 .2-.13.01-.18.19 0 .22-.13.15.12.21.04.23-.14.15.11.15-.11.25-.14.19.2.21 0 .26-.13.06-.12.2-.04.27-.14.11.01.17-.13.29-.13.06-.15.15-.23.3-.13.08-.11.2-.09.31-.13.08-.13.22-.06.32-.11.1-.09.3.19.33-.11.1-.07.24-.02.34-.1.13 0 .25.01.35-.1.18.24.26.05.36-.09.1-.1.23-.09.36-.08.11-.06.24-.06.36-.06.1-.1.26.07.35-.06.1-.14.25.09.35-.04.1-.1.21-.15.34-.03.11-.02.25.22.34-.02.1-.06.19-.39.33-.01.1-.11.23.16.32 0 .12.28.21.01.31.01.1.05.2.14.3.01.09-.14.19.07.28.03.09-.16.18.21.27.03.09.04.17-.03.26.04.1-.38.17.01.24.05.07.06.17-.24.23.05.1-.28.15-.03.21.06s.15-.11.19.06c.09-.19.11.12.18.06.04.14.11.02.16.06.06-.04.1-.01.14.07.04.02.08.05.12.07.23.11.33.23.31.33ZM69.681 53.1c-.1.03-.24-.05-.41-.23-.03-.03-.06-.06-.09-.1-.04-.03-.08-.06-.09-.11.11-.1-.28.01-.1-.12.04-.07-.04-.1-.1-.14-.07-.03.03-.15-.11-.15-.27.06.22-.25-.12-.16-.1-.03-.11-.1-.13-.17.16-.16-.06-.13-.13-.18.19-.19.05-.21-.14-.19.26-.24.17-.29-.15-.2-.05-.07.02-.21-.15-.21-.07-.06-.17-.1-.16-.21-.24.05-.28-.03-.17-.22-.25.06-.23-.07-.18-.22.06-.16-.29-.03-.18-.23-.04-.09-.16-.13-.19-.23.02-.14.04-.3-.2-.24-.11-.05-.24-.08-.21-.24-.27.09-.25-.07-.22-.24-.1-.05-.03-.26-.22-.25-.04-.11-.24-.08-.23-.25-.02-.14-.04-.28-.23-.25-.2.04-.11-.21-.23-.24.1-.25-.21-.1-.22-.24-.1-.05-.06-.25-.23-.22-.11-.04-.22-.07-.22-.22-.33.21-.09-.21-.22-.21.03-.19-.17-.11-.21-.21-.12-.01-.04-.26-.21-.2-.05-.08-.22-.02-.21-.19-.19.09-.05-.24-.2-.19-.07-.06-.14-.1-.19-.18.11-.29-.11-.14-.18-.17-.05-.07-.23.04-.17-.17-.05-.06-.04-.22-.17-.16-.08 0 .12-.44-.16-.15-.1.02.06-.33-.15-.14-.19.17-.09-.09-.13-.14-.04-.05-.08-.09-.12-.13-.35-.36-.52-.64-.44-.78.09-.15.48-.12 1.08.1.06.02.23-.12.18.07.06.04.2-.06.2.08.21-.19.15.04.21.09.07.03.09.15.22.11.16-.08.09.16.23.12-.03.19.07.2.23.13-.02.18.17.08.24.15-.08.26.1.18.25.16.13-.01.13.15.25.17.05.1.2.08.26.18.16-.02.27.01.26.19.14.01.18.13.26.21.15 0 .16.16.26.22.12.04-.02.35.26.23.11.06.14.2.26.25.06.11.12.22.26.25-.11.28.09.25.25.27.14.04.2.16.25.27.1.07.17.18.24.28.14.04.06.26.23.28.17.01.05.26.21.28.13.04.24.11.2.28.07.09-.07.33.19.28.11.06.43-.03.17.28.14.04-.03.28.16.27-.18.24.1.18.15.27.01.11-.02.25.14.26.17.01.03.2.12.26.19 0-.09.26.11.25.01.1.11.14.1.24.38-.1.07.15.08.23-.02.09.3.03.07.22.29-.06.1.11.06.21-.05.1.17.08.04.2.21-.02-.05.16.03.18-.1.1.04.11.03.17.06.03.06.08.01.15v.14c-.02.31-.07.46-.18.5ZM45.121 74.49c-.08-.07-.07-.24 0-.47.01-.04.03-.08.04-.12.01-.05.01-.1.05-.14.14.05-.15-.24.06-.15.08 0 .07-.09.07-.16 0-.08.14-.04.08-.17-.19-.21.32.07.08-.18-.02-.1.03-.14.08-.2.21.05.08-.12.09-.2.26.07.2-.06.09-.22.34.11.34.01.1-.23.03-.08.19-.08.1-.23.02-.09 0-.2.1-.25-.16-.19-.11-.26.11-.25-.18-.19-.05-.23.1-.27.17-.03-.12-.27.11-.27.06-.08.03-.2.11-.28.13-.05.28-.11.1-.29-.02-.12-.05-.25.1-.3-.21-.19-.07-.25.1-.31-.01-.12.21-.16.1-.31.07-.09-.04-.25.1-.32.11-.09.22-.17.1-.32-.13-.15.13-.2.09-.32.27-.04-.02-.23.09-.31 0-.11.19-.18.08-.31-.02-.11-.05-.22.08-.3-.35-.17.13-.18.07-.3.18-.07.01-.2.07-.29-.05-.11.21-.16.07-.28.04-.09-.1-.21.06-.27-.17-.12.18-.16.06-.26.01-.09.01-.17.06-.25.3-.05.07-.16.05-.25.04-.08-.15-.18.06-.23.03-.07.17-.14.06-.22-.04-.08.44-.12.05-.21-.07-.07.31-.12.05-.2-.24-.08.04-.12.05-.18.02-.06.04-.12.05-.17.14-.49.29-.78.45-.78.17 0 .34.36.46.99.01.06.21.14.03.2-.01.07.15.15.03.21.27.09.04.15.02.23.01.08-.09.15.01.24.15.1-.1.16.01.26-.18.07-.14.16.01.27-.17.07.01.19-.01.28-.27.06-.1.18-.01.29.08.11-.07.19-.02.3-.06.09.03.21-.03.31.1.13.12.24-.04.32.06.12-.02.22-.05.33.07.13-.06.22-.06.34.03.13-.31.16-.06.34 0 .12-.1.22-.08.35-.07.11-.13.21-.09.35-.3.04-.17.2-.11.36.04.14-.04.25-.11.35-.01.13-.07.24-.12.34.04.14-.19.19-.13.34.07.15-.2.17-.14.32.03.14.03.26-.14.31-.04.11-.32.11-.15.3 0 .12.24.36-.15.29.04.14-.25.11-.16.28-.3-.03-.11.18-.16.26-.1.06-.22.1-.16.25.07.15-.16.13-.17.23.09.16-.27.05-.16.22-.08.06-.07.16-.16.2.28.27-.09.14-.16.19-.09.03.12.27-.16.17.2.23-.05.15-.15.15-.11.01.02.18-.15.14.13.17-.16.03-.14.12-.14-.03-.07.09-.13.11 0 .07-.04.1-.13.09-.04.03-.08.05-.12.07-.24.11-.4.14-.48.07ZM14.342 63.9c.02-.1.17-.18.41-.24.04-.01.08-.02.13-.03.05-.02.1-.04.14-.02.03.15.13-.25.16-.03.05.07.11.02.17-.02.06-.04.11.1.18-.02.09-.26.1.31.2-.02.07-.07.14-.05.21-.02.06.21.15.01.22-.02.07.26.15.15.23-.03.07.35.16.29.24-.03.08-.01.17.13.26-.03.09-.03.17-.1.26-.04.08-.23.17-.23.27-.04.08-.25.18-.16.28-.04.11.13.17-.23.29-.05.1.01.19-.08.3-.05.11.09.23.19.3-.06.1-.07.18-.17.31-.06.06-.28.18-.18.32-.06.1-.06.25.1.32-.07.12.02.19-.16.33-.08.13.05.26.11.33-.07.07-.19.23.01.32-.08.17.21.19-.13.32-.08.1-.05.25.07.31-.09.09-.07.17-.15.3-.08-.02-.39.22.03.29-.08.15.12.18-.09.29-.08.07-.1.25.1.28-.08.1 0 .13-.18.27-.08.01-.21.23.08.26-.08.08-.03.16-.08.25-.08.2.24.17-.02.24-.08.09 0 .08-.22.23-.07.08-.01.21.08.22-.06.04-.07.32.32.21-.06.03-.09.26.21.2-.05-.05-.25.13-.03.18-.05.06-.01.12-.03.17-.04.49-.12.82-.13.9.01.09.15-.14.47-.63.89-.05.04-.01.25-.16.12-.06.03-.05.21-.17.13.06.28-.11.11-.19.13-.06.05-.18 0-.2.13-.01.18-.18 0-.22.13-.15-.12-.21-.04-.23.14-.15-.11-.15.11-.25.14-.19-.2-.21 0-.26.14-.06.12-.2.04-.27.13-.11 0-.17.13-.29.13-.06.15-.15.23-.3.13-.08.11-.2.09-.31.12-.08.13-.22.06-.32.12-.1.09-.3-.19-.33.11-.1.07-.24.02-.34.1-.13 0-.25-.01-.35.1-.19-.24-.26-.05-.36.09-.1.1-.23.09-.36.08-.11.06-.24.06-.36.07-.1.1-.26-.08-.35.06-.1.14-.25-.09-.35.04-.1.1-.21.15-.34.03-.11.02-.25-.22-.34.02-.1.06-.19.39-.33.01-.1.1-.22-.16-.32 0-.12-.28-.21 0-.31-.01-.1-.05-.2-.14-.3-.01-.09.14-.19-.07-.28-.03-.1.16-.18-.21-.27-.03-.09-.04-.18.03-.26-.04-.1.38-.17-.01-.24-.05-.07-.06-.17.24-.23-.05-.1.28-.15.03-.21-.06s-.15.11-.19-.06c-.09.19-.11-.13-.18-.06-.04-.14-.11-.02-.16-.06-.06.04-.11.01-.14-.07-.04-.02-.08-.05-.12-.07-.2-.13-.3-.25-.28-.35ZM8.112 31.91c.1-.03.24.05.41.23.03.03.06.06.09.1.04.03.08.06.09.11-.11.1.28-.01.1.12-.04.07.04.1.11.14.07.03-.03.15.11.15.27-.06-.22.25.12.16.1.03.11.1.13.17-.15.16.06.13.13.18-.19.19-.05.2.14.19-.26.24-.17.29.15.2.05.07-.02.21.15.21.07.06.17.1.16.21.24-.05.28.03.17.22.25-.06.23.07.18.22-.06.16.29.03.18.23.04.09.16.13.19.23-.02.14-.04.3.2.24.11.05.24.08.21.24.27-.09.25.07.21.24.1.05.03.26.22.25.04.11.24.09.23.25.02.14.04.28.23.25.2-.04.11.21.23.24-.1.25.21.1.22.24.1.05.06.25.23.22.11.04.22.07.22.22.33-.21.09.21.22.21-.03.19.17.11.21.21.12.01.04.26.21.2.06.08.23.02.21.19.19-.09.05.24.2.19.07.06.15.1.19.18-.11.29.11.14.18.17.05.07.23-.04.18.16.05.06.03.22.16.16.09 0-.12.44.16.15.1-.02-.05.33.15.14.19-.17.09.1.13.14.04.05.08.09.12.13.35.36.52.64.44.78-.09.15-.48.12-1.08-.1-.06-.02-.23.11-.19-.07-.06-.04-.2.05-.2-.08-.21.19-.15-.04-.21-.09-.07-.03-.09-.15-.22-.11-.16.08-.09-.16-.23-.12.03-.19-.07-.2-.23-.13.02-.18-.17-.08-.24-.14.08-.26-.1-.18-.25-.16-.14.01-.13-.15-.25-.17-.05-.1-.2-.08-.25-.18-.16.02-.27-.01-.26-.2-.14-.01-.18-.13-.26-.21-.15 0-.16-.16-.26-.22-.12-.04.01-.35-.27-.23-.11-.06-.14-.2-.26-.25-.06-.11-.12-.22-.26-.26.11-.28-.09-.25-.25-.27-.14-.04-.2-.16-.25-.27-.11-.07-.17-.18-.24-.28-.14-.04-.06-.26-.23-.28-.17-.02-.05-.26-.21-.28-.13-.04-.24-.11-.2-.28-.07-.09.07-.33-.19-.28-.11-.06-.43.03-.17-.28-.14-.04.03-.28-.16-.27.18-.24-.1-.18-.15-.27-.01-.11.02-.25-.13-.26-.17-.01-.03-.2-.12-.26-.19 0 .09-.26-.11-.25-.01-.1-.11-.14-.09-.24-.38.1-.07-.15-.08-.24.02-.09-.3-.03-.07-.22-.29.06-.1-.11-.06-.21.05-.1-.17-.07-.04-.2-.21.02.05-.16-.03-.18.1-.1-.04-.11-.03-.17-.06-.03-.06-.08-.01-.15v-.14c.02-.29.07-.44.17-.47ZM32.672 10.52c.08.07.08.24 0 .47-.01.04-.03.08-.04.12-.01.05-.01.1-.05.14-.14-.05.15.24-.06.15-.08.01-.07.09-.07.16.01.08-.14.05-.08.17.19.21-.32-.07-.08.18.02.1-.03.14-.08.2-.21-.05-.08.12-.09.2-.26-.07-.2.06-.09.22-.34-.11-.34-.01-.1.23-.03.08-.19.09-.1.24-.02.09 0 .2-.1.25.16.19.11.26-.11.26.18.19.05.23-.1.27-.17.03.12.27-.11.27-.06.08-.03.21-.1.28-.13.05-.28.11-.11.29.02.12.06.24-.1.3.21.19.07.25-.1.31.01.12-.21.16-.1.31-.07.09.04.25-.1.32-.11.08-.22.17-.1.32.13.15-.12.19-.09.32-.27.04.02.23-.09.31 0 .11-.18.18-.08.31.02.11.05.22-.08.3.35.17-.13.18-.07.3-.18.07-.01.2-.07.29.05.11-.21.16-.07.28-.04.09.1.21-.06.27.17.12-.18.16-.06.26-.01.09-.01.18-.06.26-.3.05-.07.16-.05.25-.04.08.15.18-.06.23-.03.08-.17.14-.06.22.04.08-.44.11-.05.21.07.07-.31.12-.05.2.24.08-.04.12-.05.18-.02.06-.03.11-.05.17-.14.49-.29.77-.45.78-.17 0-.34-.36-.45-.99-.01-.06-.21-.14-.03-.2.01-.07-.15-.15-.03-.21-.27-.09-.04-.15-.02-.23-.01-.08.09-.15-.01-.24-.15-.1.1-.16-.01-.26.18-.07.14-.16 0-.27.17-.07-.01-.19.01-.28.27-.06.1-.18.01-.29-.08-.11.07-.19.02-.3.06-.09-.03-.21.03-.31-.1-.12-.12-.24.04-.32-.06-.12.02-.22.05-.33-.07-.13.06-.22.06-.34-.03-.13.31-.16.07-.34-.01-.12.1-.22.08-.35.07-.11.13-.21.09-.35.3-.04.17-.2.1-.36-.04-.14.04-.25.11-.35.01-.13.07-.24.12-.34-.04-.14.19-.18.13-.34-.07-.15.2-.17.14-.32-.03-.14-.03-.26.14-.31.04-.11.32-.11.15-.3 0-.12-.24-.36.15-.29-.04-.14.25-.11.15-.28.3.04.11-.18.16-.26.1-.06.22-.11.16-.25-.07-.15.16-.13.17-.23-.09-.16.28-.05.16-.22.08-.06.07-.17.16-.2-.28-.27.09-.14.16-.19.09-.03-.12-.27.16-.17-.2-.23.05-.15.15-.15.11-.01-.02-.18.15-.14-.13-.17.16-.03.14-.12.14.03.07-.09.13-.11 0-.07.04-.1.13-.09.04-.03.08-.05.12-.07.23-.14.39-.17.47-.1Z" fill="#BF4E70"/></svg>