<svg fill="none" xmlns="http://www.w3.org/2000/svg" viewBox="0 0 127 85"><path d="M100.21 80.36c-17.55 0-18.25-5.21-18.27-5.43l-.22-18.79.01-.02c1.04-3.38 9.38-5.53 9.74-5.62l.03-.01h.03l8.68 1.21 8.71-1.21.03.01c.36.09 8.92 2.16 9.6 5.64v.03l-.07 18.75c-.02.24-.72 5.44-18.27 5.44ZM82.04 56.19l.21 18.73c0 .04.76 5.13 17.95 5.13 17.19 0 17.95-5.09 17.95-5.14l.07-18.72c-.65-3.18-8.78-5.23-9.33-5.37l-8.69 1.21h-.02l-8.67-1.2c-.55.13-8.47 2.26-9.47 5.36Z" fill="#BF4E70"/><path d="M101.06 61.85h-.68c-5.67-.07-11.69-1.05-18.42-2.99l-.13-.04.02-.13c.02-.22.05-.4.08-.53.73-3.47 9.24-5.68 9.6-5.77l.03-.01.03.01 8.66 1.32 8.73-1.1.03.01c.36.1 8.81 2.53 9.45 6.02.03.15.05.38.08.66l.01.13-.13.03c-4.16 1.03-10.43 2.39-17.36 2.39Zm-.67-.33c7.09.1 13.54-1.29 17.82-2.35-.02-.21-.04-.38-.06-.5-.58-3.19-8.62-5.59-9.19-5.76L100.25 54h-.02l-8.65-1.32c-.57.15-8.67 2.34-9.33 5.52-.02.1-.04.22-.06.37 6.64 1.92 12.6 2.88 18.2 2.95Z" fill="#BF4E70"/><path d="M99.56 69.81c-11.06 0-16.47-2.32-17.21-3.2-.73-.88-.63-15.08-.62-16.7v-.16h.16l36.76.11-.23 18.12-.11.03c-.06.02-5.88 1.63-17.61 1.8h-1.14ZM82.05 50.07c-.05 6.07.05 15.74.54 16.33.73.88 6.38 3.25 18.1 3.08 10.78-.15 16.55-1.53 17.41-1.75l.23-17.55-36.28-.11Z" fill="#BF4E70"/><path d="M99.08 68.83c-10.7 0-16.46-1.55-17.2-2.43l-.04-.04-.11-16.59h36.91l-.22 17.22-.11.03c-.06.02-5.88 1.63-17.61 1.8-.55.01-1.09.01-1.62.01Zm-16.91-2.59c.87.86 7.22 2.42 18.52 2.26 10.78-.15 16.55-1.53 17.41-1.75l.22-16.65H82.06l.11 16.14Z" fill="#BF4E70"/><path d="M101.07 54.84h-.3c-10.29-.03-18.84-3.01-18.97-4.93-.03-.45.16-.89.56-1.32 2.09-2.22 9.64-3.82 18.01-3.82h.22c8.44.03 15.87 1.65 17.66 3.87.37.46.5.93.4 1.42-.63 2.99-7.19 4.78-17.58 4.78Zm-.69-9.76c-8.16 0-15.78 1.59-17.78 3.72-.34.36-.5.72-.47 1.08.1 1.52 8.24 4.6 18.65 4.63h.29c10.07 0 16.68-1.73 17.28-4.53.08-.38-.03-.77-.34-1.15-1.73-2.15-9.06-3.72-17.41-3.75h-.22Z" fill="#BF4E70"/><path d="M101.06 54.69h-.29c-9.99-.03-18.29-2.92-18.42-4.79-.03-.44.15-.87.55-1.29 2.03-2.16 9.36-3.71 17.48-3.71h.21c8.2.03 15.41 1.61 17.15 3.76.36.45.49.91.39 1.38-.62 2.92-6.99 4.65-17.07 4.65Zm-.68-9.3c-7.65 0-14.8 1.49-16.67 3.49-.32.34-.46.68-.44 1.01.09 1.43 7.72 4.3 17.48 4.33h.27c9.44 0 15.63-1.62 16.19-4.24.08-.36-.03-.72-.32-1.07-1.62-2.01-8.49-3.49-16.32-3.51-.07-.01-.13-.01-.19-.01Zm15.25 2.19c.68.35 1.19.73 1.51 1.12.35.43.48.88.38 1.34-.18.85-.86 1.6-2 2.22 1.32-.64 2.11-1.41 2.3-2.29.08-.37-.03-.74-.33-1.11-.38-.46-1.01-.89-1.86-1.28Zm-31.1.27c-.6.31-1.08.64-1.4.99-.33.35-.48.7-.46 1.05.02.37.53.83 1.44 1.31-.72-.45-1.13-.9-1.16-1.29-.03-.42.15-.84.53-1.25.26-.29.61-.55 1.05-.81Z" fill="#BF4E70"/><path d="M101.14 53.45h-.44c-8.64-.03-17.24-1.89-17.37-3.75-.03-.38.14-.76.48-1.13 1.85-1.98 8.79-3.4 16.54-3.4h.21c7.82.03 14.64 1.47 16.21 3.44.31.39.42.8.33 1.21-.54 2.45-5.77 3.63-15.96 3.63Zm-.78-7.96c-7.55 0-14.54 1.41-16.31 3.3-.28.3-.41.6-.39.89.09 1.34 7.45 3.42 17.05 3.45 10.16.04 15.58-1.1 16.08-3.37.07-.32-.02-.63-.27-.95-1.52-1.9-8.23-3.3-15.96-3.32-.07.01-.13 0-.2 0Z" fill="#BF4E70"/><path d="M101.15 53.45h-.44c-7.01-.02-13.05-1.19-15.71-2.27l-.17-.07.08-.16c.21-.4.46-.81.91-1.09l.03-.03c1.37-.9 2.96-.56 3.79-.28.84.29 1.54.08 2.27-.14.86-.25 1.84-.54 3.16-.06.4.15.75.32 1.05.47.83.41 1.44.71 2.49.26l.35-.15c1.2-.53 2.44-1.08 3.73-.3.31.19.69.29 1.1.29h.01c.76 0 1.37-.3 2.01-.62.66-.33 1.34-.67 2.23-.69h.04c.53 0 .67.19.8.44.15.29.36.68 3.24.22 1.13-.18 2.22.5 3.23 1.27.28.22.49.39.63.53l.13.14-.16.11c-2.06 1.43-6.91 2.13-14.8 2.13Zm-15.87-2.5c2.71 1.04 8.6 2.15 15.42 2.17 7.89.03 12.76-.62 14.91-1.96-.12-.1-.27-.23-.45-.36-.89-.68-1.92-1.38-2.99-1.21-2.88.46-3.31.12-3.57-.38-.09-.17-.15-.28-.56-.27-.81.02-1.46.34-2.09.65-.65.32-1.31.65-2.15.66h-.01c-.47 0-.9-.12-1.27-.34-1.14-.7-2.26-.21-3.43.32l-.35.15c-1.19.51-1.91.15-2.76-.26-.31-.15-.64-.31-1.02-.45-1.22-.45-2.11-.18-2.96.07-.79.23-1.53.45-2.47.13-.77-.26-2.23-.58-3.46.21v.01l-.05.04c-.34.2-.55.51-.74.82Z" fill="#BF4E70"/><path d="M101.02 53.86h-.31c-9.05-.03-17.25-2.35-17.37-4.16-.03-.38.14-.76.48-1.13 1.85-1.98 8.79-3.4 16.54-3.4h.21c7.82.03 14.64 1.47 16.21 3.44.31.39.42.8.33 1.21-.58 2.58-6.44 4.04-16.09 4.04Zm-5.11-8.2c-5.7.42-10.45 1.62-11.87 3.13-.28.3-.41.6-.39.89.09 1.3 7.35 3.83 17.05 3.86 9.52.04 15.55-1.38 16.08-3.77.07-.32-.02-.63-.27-.95-1.33-1.67-6.65-2.95-13.15-3.25 6.01.31 10.93 1.53 12.2 3.12.29.37.4.75.31 1.14-.5 2.22-5.05 3.22-14.73 3.22h-.48c-8.17-.03-15.99-1.65-16.11-3.35-.02-.36.13-.71.45-1.06 1.37-1.45 5.65-2.57 10.91-2.98Zm4.44.15c-6.99 0-13.47 1.3-15.11 3.05-.26.27-.38.55-.36.81.08 1.21 6.75 3.02 15.79 3.05 6.1.02 14.29-.27 14.89-2.97.07-.29-.02-.57-.25-.87-1.4-1.76-7.62-3.05-14.78-3.08-.06.01-.12.01-.18.01ZM100.17 70.57c-8.45 0-14.57-.88-18.21-2.62l-.09-.04-.08-11.05.23.11c2.47 1.18 7.62 2.59 18.14 2.59 10.59 0 15.75-1.4 18.22-2.57l.23-.11-.12 11.05-.09.04c-2.48 1.18-7.68 2.6-18.23 2.6ZM82.19 67.7c2.5 1.17 7.64 2.54 17.98 2.54 10.37 0 15.51-1.37 18.02-2.53l.11-10.34c-2.58 1.16-7.8 2.5-18.13 2.5-10.27 0-15.47-1.34-18.05-2.51l.07 10.34Z" fill="#BF4E70"/><path d="M100.17 73.41c-8.45 0-14.57-.88-18.21-2.62l-.09-.04-.08-11.05.23.11c2.47 1.18 7.62 2.59 18.14 2.59 10.59 0 15.75-1.4 18.22-2.57l.23-.11-.12 11.05-.09.04c-2.48 1.18-7.68 2.6-18.23 2.6Zm-17.98-2.87c2.5 1.17 7.64 2.54 17.98 2.54 10.37 0 15.51-1.37 18.02-2.53l.11-10.34c-2.58 1.16-7.8 2.5-18.13 2.5-10.27 0-15.47-1.34-18.05-2.51l.07 10.34Z" fill="#BF4E70"/><path d="M100.17 71.99c-8.45 0-14.58-.88-18.21-2.62l-.09-.04-.08-11.05.23.11c2.47 1.18 7.62 2.59 18.14 2.59 10.58 0 15.75-1.4 18.22-2.57l.23-.11-.12 11.05-.09.04c-2.48 1.18-7.68 2.6-18.23 2.6Zm-17.98-2.87c2.5 1.17 7.64 2.54 17.98 2.54 10.37 0 15.51-1.37 18.02-2.53l.11-10.34c-2.58 1.16-7.8 2.5-18.13 2.5-10.27 0-15.47-1.34-18.05-2.51l.07 10.34ZM101.17 53.04h-.5c-.4 0-.79-.01-1.18-.02l-.27-.01 1.4-2.35C107.84 38.59 116.35 24.6 117.5 23c2.34-3.24 5.36-4.62 7.34-3.34 1.98 1.28 1.98 4.59-.01 8.06-.93 1.63-9.15 13.67-16.41 24.18l-.64.92-.08.01c-1.84.14-3.98.21-6.53.21Zm-1.4-.33c.3.01.6.01.9.01 2.73.01 5-.06 6.92-.2l.6-.87c7.24-10.48 15.42-22.46 16.35-24.08 1.9-3.31 1.95-6.45.12-7.63-1.83-1.18-4.67.16-6.91 3.26-1.15 1.59-9.65 15.57-16.87 27.64l-1.11 1.87Z" fill="#BF4E70"/><path d="M101.17 53.04h-.5c-.4 0-.79-.01-1.18-.02l-.27-.01 2.24-3.74.12.04c1.61.57 3.29.69 5.46.39.96-.13 1.94-.34 2.99-.64l.43-.12-2.68 3.88-.08.01c-1.84.14-3.98.21-6.53.21Zm-1.4-.33c.3.01.6.01.9.01 2.73.01 5-.06 6.92-.2l2.09-3.03c-.9.24-1.76.41-2.61.53-2.17.3-3.87.19-5.49-.36l-1.81 3.05Z" fill="#BF4E70"/><path d="m106.35 52.92.1-.32.09-.02.6-.87c7.24-10.48 15.42-22.46 16.35-24.08 1.9-3.31 1.95-6.45.12-7.63-.33-.21-.71-.35-1.11-.4l-1.03-.13 1.02-.19c.89-.17 1.68-.03 2.35.4 1.98 1.28 1.98 4.59-.01 8.06-.93 1.63-9.15 13.67-16.41 24.18l-.64.92-.08.01c-.36.03-.73.05-1.12.07h-.23Zm.95-.9-.38.54c.23-.01.45-.03.67-.04l.6-.87c7.24-10.48 15.42-22.46 16.35-24.08 1.9-3.31 1.95-6.45.12-7.63-.36-.23-.77-.37-1.21-.41.11.05.22.12.33.18 1.98 1.28 1.98 4.59-.01 8.06-.93 1.63-9.15 13.67-16.41 24.18l-.06.07ZM97.27 67.59h-.11c-.37 0-.56-.01-.93-.01h-.12l-.03-.12c-.25-.93-.4-1.47-.61-2.27-.25.79-.42 1.33-.71 2.24l-.04.11h-.12c-.37-.01-.56-.01-.93-.02h-.11l-.03-.11c-.48-1.58-.72-2.37-1.18-3.96l-.06-.21.22.01c.38.01.57.02.95.03h.12l.03.12c.24.99.39 1.57.61 2.42.26-.84.43-1.41.73-2.39l.03-.12 1.1.02.04.12c.26.99.41 1.57.64 2.42.25-.84.42-1.42.7-2.4l.03-.12h.12c.36 0 .54.01.91.01h.22l-.07.21c-.53 1.56-.8 2.35-1.34 3.9l-.06.12Zm-.92-.33c.26 0 .43.01.69.01.5-1.42.76-2.19 1.23-3.58h-.56c-.32 1.1-.49 1.69-.82 2.83l-.16.54-.15-.55c-.31-1.15-.47-1.74-.76-2.85l-.63-.01c-.33 1.1-.51 1.68-.86 2.82l-.17.54-.14-.55c-.29-1.15-.44-1.74-.72-2.86-.23-.01-.4-.01-.61-.02.41 1.41.65 2.19 1.09 3.63.26.01.44.01.7.02.33-1.03.51-1.59.84-2.66l.17-.53.14.54c.28 1.08.43 1.64.72 2.68ZM99.16 67.6h-1.29l.1-.22c.71-1.57 1.05-2.34 1.73-3.91l.04-.1H100.87l.04.1c.68 1.57 1.03 2.34 1.73 3.89l.1.22-1.32.02-.32-.76c-.63.01-.99 0-1.63.01l-.31.75Zm-.79-.32h.58l.31-.74.12-.02c.74 0 1.1 0 1.84-.01h.11l.32.76.61-.01c-.63-1.38-.97-2.14-1.59-3.58h-.7c-.64 1.44-.98 2.21-1.6 3.6Zm1.05-1.15.09-.22c.25-.61.38-.91.62-1.52l.15-.36.15.36c.25.61.38.91.63 1.52l.09.22h-.24c-.5 0-.75.01-1.25.01h-.24v-.01Zm.86-1.26c-.13.33-.24.59-.38.94h.77c-.14-.35-.25-.61-.39-.94Z" fill="#BF4E70"/><path d="m102.21 67.59.18-.26c.54-.78.82-1.18 1.33-1.93-.5-.69-.77-1.07-1.29-1.8l-.18-.25h.3c.36-.01.56-.01.88-.02l.24-.01.05.07c.29.4.45.63.71.99.24-.37.4-.6.67-1.02l.05-.07h.08c.42-.01.63-.02 1.05-.03l.31-.01-.17.26c-.48.74-.73 1.12-1.19 1.82.55.74.85 1.14 1.43 1.9l.19.25-.31.01c-.43.01-.65.02-1.08.04h-.08l-.05-.07c-.34-.45-.54-.7-.84-1.1-.28.41-.45.68-.77 1.14l-.05.07h-.08c-.42.01-.63.01-1.06.02h-.32Zm.65-3.93c.43.6.69.97 1.18 1.64l.07.09-.06.09c-.49.72-.76 1.13-1.21 1.77.22 0 .4-.01.66-.01.33-.48.51-.75.84-1.25l.13-.19.14.18c.37.49.57.74.92 1.21.27-.01.46-.01.69-.02-.49-.64-.78-1.04-1.32-1.75l-.07-.09.06-.09c.45-.67.69-1.05 1.09-1.65-.22.01-.4.01-.66.02-.29.44-.45.69-.75 1.15l-.13.19-.14-.19c-.32-.45-.49-.68-.8-1.11h-.07c-.21.01-.37.01-.57.01ZM90.3 66.17c-.52 0-.93-.42-.93-.93s.42-.93.93-.93c.52 0 .93.42.93.93s-.41.93-.93.93Zm0-1.55c-.34 0-.61.28-.61.61 0 .33.28.61.61.61.34 0 .61-.28.61-.61 0-.33-.27-.61-.61-.61ZM108.67 66.17c-.52 0-.93-.42-.93-.93s.42-.93.93-.93c.52 0 .93.42.93.93s-.41.93-.93.93Zm0-1.55c-.34 0-.61.28-.61.61 0 .33.28.61.61.61.34 0 .61-.28.61-.61 0-.33-.27-.61-.61-.61ZM66.07 84.94c-.8 0-1.58-.18-2.31-.53-.12-.05-.23-.11-.36-.18l-.08-.04c-.03-.02-.07-.04-.1-.06-.03-.02-.07-.04-.1-.06l-.03-.02c-.03-.01-.05-.03-.07-.05-.11-.07-.24-.17-.36-.27-.17-.15-.32-.28-.47-.42l-.07-.07c-.03-.02-.05-.05-.08-.08l-.27-.27c-.06-.06-.12-.13-.17-.2-.42-.52-.74-.9-1.03-1.23a6.9 6.9 0 0 0-.47-.52 5.66 5.66 0 0 0-.49-.49c-.1-.1-.2-.2-.31-.29l-.15-.13c-.06-.05-.13-.11-.2-.16-.17-.14-.37-.27-.63-.42-.12-.07-.22-.13-.34-.18h-.01l-.03-.02a.467.467 0 0 0-.1-.05.488.488 0 0 0-.07-.03l-.05-.03-.12-.06c-.03-.01-.04-.01-.05-.02l-.04-.01a6.15 6.15 0 0 0-.97-.33c-.7-.22-1.43-.38-2.14-.55-.83-.19-1.69-.39-2.51-.67-.18-.07-.36-.15-.54-.23-.19-.08-.36-.17-.53-.26-.94-.53-1.68-1.17-2.2-1.92-.1-.16-.2-.32-.29-.49l-.01-.01-.02-.05c-.1-.17-.18-.37-.26-.61l-.06-.17a4.04 4.04 0 0 1-.17-.73c-.02-.1-.03-.19-.04-.3-.01-.17-.02-.32-.02-.45v-.04c.01-.07.01-.13.01-.2 0-.06 0-.13.01-.19.01-.12.02-.22.04-.33.03-.25.08-.49.14-.75.06-.21.12-.43.21-.69l.03-.09c.02-.04.03-.09.05-.13.02-.04.04-.09.05-.13.08-.2.18-.39.27-.59.16-.34.33-.7.45-1.05l.02-.06c.04-.1.08-.2.09-.29l.01-.04c.02-.05.03-.09.03-.13l.01-.1c0-.02-.01-.05-.02-.09l-.02-.07c-.06-.22-.18-.45-.29-.68-.05-.1-.1-.2-.14-.29l-.03-.05-.06-.15-.06-.14c-.05-.12-.11-.25-.16-.37l-.18-.42-.03-.06-.09-.21c-.15-.34-.31-.7-.46-1.06l-.27-.61c-.04-.08-.07-.16-.1-.24-.09-.2-.18-.4-.27-.61-.06-.14-.13-.28-.19-.42l-.51-1.17-.03-.06a.3.3 0 0 1-.04-.08c-.27-.61-.81-1.73-1.19-2.55l-.24-.51c-.12-.25-.25-.51-.38-.76-.09-.2-.18-.38-.29-.56-.09-.19-.18-.38-.29-.56-.19-.38-.36-.68-.52-.95-.16-.31-.33-.61-.53-.92-.05-.1-.1-.19-.15-.27l-.06-.1c-.02-.04-.05-.08-.07-.11-.02-.04-.05-.07-.07-.11-.06-.1-.13-.2-.19-.3-.06-.1-.12-.2-.19-.29-.11-.17-.22-.32-.33-.48-.27-.4-.49-.69-.71-.95-.08-.11-.16-.21-.24-.3l-.13-.16c-.16-.19-.33-.39-.51-.57-.04-.04-.07-.08-.11-.12-.04-.04-.07-.08-.11-.12l-.58-.64c-.03-.04-.05-.07-.08-.1-.6-.69-1.22-1.46-1.92-2.35-.55-.73-.98-1.31-1.35-1.83-.12-.16-.24-.32-.36-.49l-.2-.28c-1.05-1.5-2.08-3.05-2.9-4.36-.12-.19-.24-.38-.35-.55-.36-.56-.63-1.01-.81-1.31l-.25-.41c-2.08-3.44-4.18-8.26-2.66-12.06-2.14 1.45-13.35 8.68-24.5 9.36h-.08l-.04-.08c0-.01-.02-.04-.03-.08l-.01-.04c-.01-.03-.02-.07-.03-.12l-.02-.06c-.01-.05-.03-.11-.05-.17-.03-.11-.06-.22-.1-.35-.04-.14-.08-.29-.12-.45-.02-.09-.04-.17-.07-.26l-.04-.15c-.11-.4-.23-.86-.36-1.37C1.89 27.53.03 19.41 0 13.64v-.11l.1-.02c1.41-.24 34.63-5.81 38.44-4.14 3.25 1.42 2.98 4.58 2.84 6.27v.13c0 .03 0 .06-.01.09v.04c0 .04 0 .07-.01.1v.06l-.01.04V16.27c-.01.17-.01.32 0 .43.02.26.06.53.14.82.22.9.65 2.34 1.23 4.22l.02.06.06.18.01.03c1.78 5.63 4.49 13.47 5.92 17.26 2.61 6.97 9.54 25.5 11.69 27.24 1.7 1.36 2.99 2.9 4.24 4.38 2.02 2.4 3.92 4.66 7.3 5.97.27.03 3.14.36 4.68.97l1.01.08-.06.16c-.04.11-.14.43-.05.63.03.07.09.13.18.15.07.02.14.05.22.08.36.14.96.36 1.17.24.03-.02.06-.04.07-.12.1-.61.08-.77.08-.78l-.03-.2.19.06c.24.08.38.31.39.66.02.55-.27 1.26-.74 1.47.05.15.12.43-.01.7-.14.31-.48.53-1.01.64 0 .17-.03.48-.26.72-.28.29-.77.39-1.44.29-.02.2-.1.55-.42.81-.42.35-1.11.4-2.05.15.01.16-.01.38-.18.56-.42.44-1.48.4-3.17-.13l-.09.01a.31.31 0 0 0-.08.02l-.12.03c-.16.03-.34.07-.54.12-.34.08-.75.18-1.15.28a.71.71 0 0 0-.17.04l-.08.02c-.2.04-.38.09-.55.14l-.09.02c-.54.19-1.07.26-1.59.26Zm-2.81-1.09c.03.02.07.04.1.06.03.02.07.04.1.06.03.02.05.03.06.04.13.07.23.13.34.18 1.15.55 2.4.65 3.73.29l.09-.02c.17-.04.36-.09.55-.14l.07-.02c.07-.02.13-.04.19-.04a61.202 61.202 0 0 1 1.66-.4c.07-.01.11-.02.14-.03.03-.01.06-.01.08-.02.03-.01.05-.01.07-.01.03-.01.05-.01.06-.01l.04.01c2.12.67 2.77.42 2.96.21.13-.14.12-.31.11-.42-.04.05-.1.1-.15.14-.12.08-.55.32-1.1-.08-.2-.14-.3-.31-.31-.49-.01-.23.14-.43.22-.51-.45-.23-.72-.22-.82-.21-.17-.01-.27-.11-.27-.23 0-.13.11-.25.23-.25.4 0 1.24.17 2.46 1.32.02.02.05.06.06.1.84.22 1.46.18 1.82-.1.24-.2.31-.48.33-.64-.07.12-.18.21-.32.27-.29.11-.68.02-1.02-.25-.19-.16-.29-.33-.29-.53 0-.21.11-.39.2-.5-.93-.41-1.46-.43-1.53-.43-.13 0-.23-.11-.23-.24 0-.14.1-.24.23-.24.02 0 2.01.12 3.27 1.63.02.02.03.05.04.07.55.07.95 0 1.16-.22.08-.09.13-.19.16-.28-.08.09-.18.16-.3.2-.32.12-.71.03-1.06-.25-.2-.16-.31-.35-.32-.55-.01-.22.11-.42.2-.54-.21-.1-.42-.19-.64-.27l-.12-.04c-.07-.03-.14-.05-.21-.07l-.09-.03c-.25-.07-.44-.1-.56-.12-.12-.01-.19-.01-.19-.01-.14 0-.24-.1-.24-.23-.01-.05.01-.11.05-.16s.11-.08.17-.08c.25-.02 1.62.03 3.6 1.6.01.01.02.02.02.03.39-.1.64-.26.74-.48.06-.12.06-.25.04-.36a.78.78 0 0 1-.39.39c-.2.09-.54.14-1.02-.15-.22-.13-.35-.29-.4-.49a.91.91 0 0 1 .08-.58c-1.04-.38-1.34-.4-1.38-.39a.226.226 0 0 1-.17-.05.229.229 0 0 1-.08-.17c-.01-.04.01-.11.05-.16s.1-.08.16-.08c.13-.02.8-.02 3.29 1.17l.01.01c.33-.2.55-.77.53-1.2 0-.08-.02-.19-.06-.28-.01.13-.03.31-.08.57-.02.13-.08.23-.19.29-.31.18-.91-.04-1.39-.22-.08-.03-.15-.06-.22-.08a.513.513 0 0 1-.32-.29c-.1-.22-.05-.5 0-.67l-.74-.07c-1.55-.62-4.61-.96-4.65-.96l-.03-.01c-3.45-1.33-5.38-3.62-7.42-6.05-1.24-1.47-2.52-3-4.2-4.35-1.95-1.58-7.31-15.44-11.76-27.34-1.42-3.78-4.13-11.6-5.91-17.24l-.02-.05a.697.697 0 0 0-.06-.19l-.02-.06c-.58-1.89-1.01-3.34-1.23-4.24-.08-.31-.12-.59-.14-.86-.01-.12-.01-.28 0-.46v-.1c0-.03 0-.08.01-.12V15.93c0-.02 0-.05.01-.07v-.2c.14-1.64.39-4.68-2.69-6.03-3.65-1.6-36.09 3.79-38.2 4.14.05 5.74 1.89 13.76 2.99 18.05.13.51.25.97.36 1.37l.04.15c.03.09.05.18.07.26.04.16.09.31.12.45.03.13.07.24.1.35.02.06.04.12.05.18l.02.06c.01.05.02.09.03.12 12.22-.79 24.51-9.47 24.63-9.56l.4-.28-.21.44c-1.8 3.75.35 8.72 2.47 12.23l.25.41c.18.3.45.75.81 1.31a113.167 113.167 0 0 0 3.25 4.89l.2.28c.12.16.23.33.36.49.38.52.8 1.1 1.35 1.83.69.89 1.32 1.65 1.9 2.33.03.03.07.08.09.11l.57.63c.04.04.07.08.1.11.04.04.07.08.11.12.18.18.35.38.52.58l.13.16c.08.1.17.2.24.31.22.26.44.56.71.96.12.16.23.32.34.49.06.1.13.2.19.3.06.1.13.2.19.3.02.04.05.07.07.11.03.04.05.08.08.12l.06.1c.06.09.11.19.16.28.19.3.37.61.53.91.16.27.33.57.52.95.11.18.2.37.29.56.1.18.2.37.28.56.13.26.27.52.39.77l.24.51c.39.82.92 1.95 1.2 2.56l.03.06c.02.03.03.06.04.09l.51 1.17c.06.14.12.28.19.41.09.2.18.41.27.62.03.07.06.15.1.23l.27.61c.16.36.31.72.47 1.07.03.08.05.14.08.2l.03.06.18.42c.05.12.11.25.16.37.02.04.04.09.06.14l.09.19c.04.09.09.19.14.29.11.22.24.48.31.73 0 0 .02.04.02.1.01.01.02.05.02.09l.04.08-.03.06c-.01.01-.01.02-.02.03 0 .06-.02.11-.04.16-.02.12-.07.23-.11.35l-.02.05c-.12.37-.29.73-.46 1.08-.09.19-.18.38-.26.57-.01.04-.03.08-.05.13-.02.04-.03.08-.05.12l-.03.08c-.09.25-.15.47-.21.67-.06.24-.11.48-.14.69v.04c-.02.11-.03.2-.04.31 0 .06-.01.12-.01.18 0 .07-.01.14-.01.2v.03c0 .13.01.27.02.41.01.11.02.2.04.29.04.23.09.46.17.7l.06.17c.08.23.15.41.24.57l.02.04c.09.17.19.33.29.48.49.71 1.2 1.33 2.1 1.84.17.09.33.18.51.25.19.08.36.16.53.23.8.27 1.65.47 2.48.66.71.16 1.45.33 2.15.55.35.09.67.2.99.33.05.01.08.02.1.03a.9.9 0 0 1 .14.07l.1.05c.04.02.07.03.11.05.02 0 .04.01.06.03.12.06.23.12.34.19.28.16.48.3.66.44.07.05.14.11.21.16l.15.13c.11.09.21.19.31.29.17.15.34.32.5.51.19.19.35.37.48.53.29.33.6.71 1.03 1.23.05.06.11.12.16.18l.26.27.07.07c.03.02.05.05.08.07.15.14.29.27.44.39.13.1.26.2.38.28l-.04.13.06-.11c.09.01.11.02.12.03Zm9.18-1.01c-.06.07-.14.18-.13.31.01.11.07.21.2.3.32.22.56.2.71.13.16-.07.23-.18.24-.21l-.04-.17c-.1-.08-.19-.16-.28-.23l-.11.17-.19-.11c-.17-.09-.31-.16-.4-.19Zm2.44-1.09c-.07.08-.17.22-.17.37 0 .12.07.23.2.34.27.22.56.3.77.21.12-.05.21-.15.25-.29-.16-.1-.66-.4-1.05-.63Zm1.81-1.02-.11.1s-.24.22-.24.47c0 .13.08.25.22.37.28.22.59.3.82.21.17-.06.29-.21.33-.42l.01-.04c-.37-.28-.72-.51-1.03-.69Zm.8-1.1-.06.1c-.05.09-.17.31-.12.52.03.13.13.24.28.33.31.18.59.23.8.14.18-.08.3-.27.35-.53v-.01c-.49-.23-.9-.41-1.25-.55Z" fill="#BF4E70"/><path d="m76.46 80.86-.01-.01-.07-.03-.01-.14.1-.1.12.06-.05.09-.01.02-.07.11ZM62.65 83.72l-.18-.15c-.1-.08-.19-.17-.28-.26l-.01-.01-.04-.04a.647.647 0 0 0-.09-.08l.18-.18c.02.02.05.04.07.07.02.02.04.04.06.05l.03.03c.14.13.29.26.43.39l-.17.18Z" fill="#BF4E70"/><path d="M77.22 81.29c-.33-.19-.69-.38-.76-.42l.12-.22c.28.14.53.28.77.43l-.13.21ZM39.27 49.28c-.6-.69-1.25-1.48-1.91-2.35l.2-.15c.7.89 1.32 1.65 1.91 2.33l-.2.17ZM41.37 16.31h-.25v-.11c0-.04 0-.09.02-.14l.24.05c-.01.07-.01.13-.01.18v.02ZM42.8 53.92c-.41-.68-.75-1.21-1.08-1.68l.2-.14c.12.16.23.32.34.5.06.1.13.2.19.3.06.1.13.2.19.3.02.04.05.07.07.11.03.04.05.08.08.12l.06.1c.06.09.11.19.16.28l-.21.11ZM46.82 62.05l-.21-.47c-.12-.27-.24-.55-.36-.82 0-.01-.01-.01-.01-.02l.23-.1s0 .01.01.02.01.03.02.04c.02.03.03.06.04.09l.51 1.17-.23.09ZM48.53 69.85l-.23-.09c.15-.39.32-.75.46-1.07.1-.21.19-.41.26-.58l.23.08c-.12.38-.29.74-.46 1.09-.09.19-.18.38-.26.57ZM50.82 77.02c-.98-.51-1.7-1.14-2.2-1.92l.21-.14c.5.72 1.21 1.34 2.11 1.84l-.12.22ZM49.15 67.36c-.14-.31-.28-.64-.43-.96 0-.01-.01-.02-.01-.03l.23-.1c0 .01.01.02.01.02.04.08.08.17.13.26.11.22.24.48.31.73l-.24.08Z" fill="#BF4E70"/><path d="m48.9 68.64.27-1.07c.01-.02.01-.04.01-.07v-.31l.24.25.05.11-.05.1-.52.99ZM56.54 78.73l-.25-.06c-.26-.06-.54-.12-.83-.18-1.12-.24-2.38-.51-3.57-.97l.09-.23c.8.27 1.66.47 2.49.66.71.16 1.45.33 2.15.55l-.08.23ZM62.65 83.72l-.18-.15c-.1-.08-.19-.17-.28-.26l.17-.18c.15.14.3.27.45.4l-.16.19ZM66.06 85c-.78 0-1.56-.2-2.3-.58l.11-.22c1.11.53 2.32.64 3.6.32l.12-.03.06.24-.12.03-.21.06c-.4.12-.83.18-1.26.18ZM69.69 84.23l-.05-.24c.2-.05.38-.09.52-.12h.02l.05.24c-.05.01-.11.02-.17.04-.11.02-.23.05-.37.08ZM73 83.87c-.18 0-.39-.05-.63-.22-.2-.14-.3-.31-.31-.49-.01-.23.14-.43.22-.51-.45-.23-.72-.22-.82-.21-.17-.01-.27-.11-.27-.23 0-.13.11-.25.23-.25.4 0 1.24.17 2.46 1.32.04.04.08.11.06.23l-.03.12-.27-.07c-.05.06-.11.12-.17.17-.06.04-.23.14-.47.14Zm-.56-1.03c-.06.07-.14.18-.13.31.01.11.07.21.2.3.32.22.56.2.71.13.16-.07.23-.18.24-.21l-.05-.18c-.09-.08-.18-.15-.27-.22l-.12.17-.19-.11c-.16-.09-.3-.16-.39-.19ZM75.51 82.95c-.24 0-.51-.1-.76-.3-.19-.16-.29-.33-.29-.53 0-.35.31-.61.32-.62l.07-.06.08.04c1.27.74 1.27.76 1.27.85v.02c-.04.27-.19.46-.42.55-.09.04-.17.05-.27.05Zm-.63-1.2c-.07.08-.17.22-.17.37 0 .12.07.23.2.34.27.22.56.3.77.21.12-.05.21-.15.25-.29-.16-.1-.66-.4-1.05-.63Z" fill="#BF4E70"/><path d="M76.47 82.64h-.12c-.04 0-.1 0-.15-.01l-.05-.01-.03-.05c-.09-.17-.26-.37-.39-.4l-.04-.02c-1.55-.93-2.45-.96-2.54-.96-.13 0-.23-.11-.23-.24 0-.14.1-.24.23-.24.02 0 2.01.12 3.27 1.63.04.06.06.1.06.17v.13h-.01Z" fill="#BF4E70"/><path d="M77.98 81.46c-2.1-1.66-3.48-1.57-3.52-1.57-.06 0-.11.06-.1.12 0 .07.06.11.12.11 0 0 .07 0 .21.01.14.02.36.06.65.14.01 0 .02 0 .02.01.1.03.21.07.33.11.23.08.5.19.8.35 0 0-.62.55-.01 1.03s1.24.3 1.35-.28c.04.02.06.04.08.06a.36.36 0 0 1 .11-.02.161.161 0 0 0-.04-.07Zm-1.16-.54c.02.01.04.02.07.03.03.02.07.04.11.07-.06-.03-.13-.07-.18-.1Z" fill="#BF4E70" stroke="#000" stroke-width=".25" stroke-miterlimit="10"/><path d="M78.15 81.01c-.18 0-.41-.05-.69-.22-.22-.13-.35-.29-.4-.49a.91.91 0 0 1 .08-.58c-1.04-.38-1.34-.4-1.38-.39a.226.226 0 0 1-.17-.05.229.229 0 0 1-.08-.17c-.01-.04.01-.11.05-.16s.1-.08.16-.08c.12-.02.8-.02 3.29 1.17.06.03.08.08.1.1l.05.1-.09.06c-.04.03-.08.04-.11.05h-.01c-.08.28-.24.48-.46.58-.09.05-.2.08-.34.08Zm-.66-1.38-.06.1c-.05.09-.17.31-.12.52.03.13.13.24.28.33.31.18.59.23.8.14.18-.08.3-.27.35-.53v-.01c-.49-.23-.9-.41-1.25-.55ZM78.94 79.49c-.32 0-.74-.16-1.09-.29-.08-.03-.15-.06-.22-.08a.513.513 0 0 1-.32-.29c-.15-.34.04-.81.05-.83l.04-.08.09.01c.09.01.17.01.25.02l.33.03c.08 0 .16.01.24.02.05.01.1.01.15.02l.3.04c.24.03.45.06.59.09.03 0 .06.02.07.03l.05.03.03.06c.01.03.03.21-.08.86-.02.13-.08.23-.19.29a.52.52 0 0 1-.29.07Zm-1.38-1.31c-.04.14-.09.38-.02.54.03.07.09.13.18.15.07.02.14.05.22.08.36.14.96.36 1.17.24.03-.02.06-.04.07-.12.07-.4.08-.61.08-.71-.15-.03-.33-.05-.53-.08l-.29-.04c-.04 0-.1-.01-.16-.02a1.66 1.66 0 0 0-.24-.02l-.33-.03c-.05.02-.1.02-.15.01ZM41.29 15.66c0 .05 0 .1-.01.15v-.14c.01 0 .01-.01.01-.01Z" fill="#BF4E70"/><path d="M41.15 17.04v-1.5h.13v.12h.14v.13c0 .02 0 .03-.01.05l-.26 1.2ZM49.26 67.79c-.02.11-.07.23-.12.36.02-.05.04-.11.05-.16.03-.07.05-.14.07-.2Z" fill="#BF4E70"/><path d="m49.25 68.2-.23-.09.01-.03c.01-.04.03-.07.03-.11.03-.07.04-.12.06-.17l.02-.05.24.06c-.02.11-.06.22-.11.33l-.01.02c0 .02 0 .03-.01.04Z" fill="#BF4E70"/><path d="M49.3 67.6c0 .06-.02.12-.04.19.01-.06.03-.12.03-.18 0 0 0-.01.01-.01Z" fill="#BF4E70"/><path d="m49.38 67.81-.25-.04c0-.02.01-.04.01-.07.01-.03.02-.07.02-.09v-.12l.26-.01v.12c0 .07-.02.14-.04.2v.01ZM57.55 78.94c-.03-.01-.06-.01-.09-.03-.17-.07-.36-.13-.55-.19-.11-.04-.23-.08-.34-.11.36.09.68.2.98.33Z" fill="#BF4E70"/><path d="m57.51 79.06.04-.12-.05.11h-.01c-.03-.01-.06-.01-.1-.04-.14-.06-.33-.12-.52-.17-.11-.04-.23-.08-.34-.11l.06-.24c.35.09.68.2 1 .34l-.08.23ZM78.91 80.36h-.08l-.04-.04-.06-.03a1.64 1.64 0 0 0-.11-.03c-.05-.01-.09 0-.14-.01l-.05-.01c-.46-.2-.85-.35-1.16-.47-1.15-.43-1.48-.45-1.52-.44a.226.226 0 0 1-.17-.05.229.229 0 0 1-.08-.17c-.01-.04.01-.11.05-.16s.1-.08.16-.08c.12-.02.8-.02 3.29 1.17.06.03.08.08.1.1l.05.1-.09.06c-.04.03-.08.04-.11.05l-.04.01ZM77.88 81.69l-.06-.06c-.02-.02-.03-.03-.05-.04-.02-.01-.07-.05-.17-.1l-.11-.06c-.09-.05-.17-.1-.27-.15-.03-.02-.06-.03-.09-.05-.03-.02-.06-.03-.08-.05-.04-.03-.08-.05-.11-.07a.445.445 0 0 0-.08-.05l-.04-.03c-.08-.05-.17-.09-.25-.13l-.07-.03c-.04-.03-.06-.03-.06-.03-.27-.14-.53-.26-.8-.35-.11-.04-.2-.07-.29-.1l-.13-.04c-.24-.07-.43-.1-.56-.11-.13-.01-.19-.01-.2-.01-.14 0-.24-.1-.24-.23-.01-.05.01-.11.05-.16s.11-.08.17-.08c.25-.02 1.62.03 3.6 1.6.05.05.07.09.08.13l.06.16h-.17c-.02 0-.04 0-.07.01l-.06.03ZM76.47 82.69l-.16-.04c-.04-.01-.06-.02-.09-.02h-.07l-.04-.06c-.09-.17-.26-.37-.39-.4l-.04-.02c-1.55-.93-2.45-.96-2.54-.96-.13 0-.23-.11-.23-.24 0-.14.1-.24.23-.24.02 0 2.01.12 3.27 1.63.04.06.06.1.06.17v.18ZM73.92 83.63l-.27-.07-.03-.04c-.02-.02-.04-.04-.08-.07a.455.455 0 0 0-.19-.08l-.03-.01-.02-.02c-.09-.08-.18-.15-.26-.21-.89-.71-1.42-.71-1.56-.7-.17-.01-.27-.11-.27-.23 0-.13.11-.25.23-.25.4 0 1.24.17 2.46 1.32.04.04.08.11.06.23l-.04.13ZM78.94 79.49c-.32 0-.74-.16-1.09-.29-.08-.03-.15-.06-.22-.08a.513.513 0 0 1-.32-.29c-.15-.34.04-.81.05-.83l.04-.08.09.01c.09.01.17.01.25.02l.33.03c.08 0 .16.01.24.02.05.01.1.01.15.02 1.06.1 1.06.14 1.06.26v.11h-.02c0 .12-.02.34-.09.74-.02.13-.08.23-.19.29-.06.05-.17.07-.28.07Zm-1.38-1.31c-.04.14-.09.38-.02.54.03.07.09.13.18.15.07.02.14.05.22.08.36.14.96.36 1.17.24.03-.02.06-.04.07-.12.07-.43.08-.64.08-.73-.1-.02-.32-.05-.82-.1-.05 0-.1-.01-.16-.02a1.66 1.66 0 0 0-.24-.02l-.33-.03c-.05.02-.1.02-.15.01Z" fill="#BF4E70"/><path d="M78.15 81.01c-.18 0-.41-.05-.69-.22-.22-.13-.35-.29-.4-.49-.07-.29.07-.57.15-.71.03-.05.05-.08.05-.08l.06-.09 1.65.68v.1c-.07.37-.24.62-.49.74-.08.04-.19.07-.33.07Zm-.73-1.28c-.06.1-.17.31-.12.51.03.13.13.24.28.33.31.18.59.23.8.14.16-.07.27-.22.33-.44l-1.29-.54ZM77.18 82.17c-.25 0-.52-.1-.77-.3-.2-.16-.31-.35-.32-.55-.01-.37.31-.65.32-.67l.05-.05.07.02c.01 0 .05.02.11.06.01 0 .02.01.04.02s.05.03.08.04c.03.02.08.04.13.07.05.03.11.07.17.1.02.01.05.03.07.04.02.01.03.02.05.03.03.02.06.03.08.04.03.02.06.03.09.05.09.05.19.1.27.15l.11.05.17.11.07.05-.02.08c-.06.29-.23.51-.48.61a.93.93 0 0 1-.29.05Zm-.66-1.28c-.07.08-.18.24-.18.41 0 .13.08.25.22.37.28.22.59.3.82.21.15-.06.26-.17.31-.34a.922.922 0 0 1-.08-.05l-.11-.06c-.09-.05-.17-.1-.27-.15-.03-.02-.06-.03-.09-.05-.03-.02-.06-.03-.08-.05-.02-.01-.04-.02-.06-.04-.02-.01-.03-.02-.05-.03-.06-.03-.14-.07-.19-.1-.05-.03-.08-.05-.12-.06a.574.574 0 0 0-.07-.04c-.02 0-.04-.01-.05-.02ZM75.51 82.95c-.24 0-.51-.1-.76-.3-.19-.16-.29-.33-.29-.53 0-.35.31-.61.32-.62l.07-.06.08.04c1.27.74 1.27.76 1.27.85v.02c-.04.27-.19.46-.42.55-.09.04-.17.05-.27.05Zm-.63-1.2c-.07.08-.17.22-.17.37 0 .12.07.23.2.34.27.22.56.3.77.21.12-.05.21-.15.25-.29-.16-.1-.66-.4-1.05-.63ZM73 83.87c-.18 0-.39-.05-.63-.22-.2-.14-.3-.31-.31-.49-.01-.31.26-.55.27-.56l.06-.05.07.03s.21.09.49.23c.06.03.13.07.2.11.52.27.55.36.56.4.04.14-.1.31-.24.41-.06.04-.23.14-.47.14Zm-.56-1.03c-.06.07-.14.18-.13.31.01.11.07.21.2.3.32.22.56.2.71.13.13-.05.2-.14.23-.19-.07-.05-.22-.15-.42-.25-.07-.04-.14-.08-.2-.11-.16-.09-.3-.16-.39-.19ZM49.14 31.57c.38-.14 1.31-.93 1.76-.62.33.22.07.56.19.88.12.32-.58-.14-.57.18.04 1.36-.79 2.61-1.46 3.45-.73.91.22 2.85.53 3.85.44 1.43 1.34 2.68 1.89 4.04.62 1.54.83 3.13 1.45 4.66.55 1.35 1.35 2.48 1.8 3.87.42 1.28.78 2.55 1.32 3.78.27.6.37 1.35.7 1.94.33.58.95 1.03 1.23 1.67.2.44.49 1.54-.33 1.49-.77-.04-.62-1.17-.81-1.67-.27-.69-.76-.89-1.23-1.4-.46-.5-.83-1.25-1.14-1.85-1.54-2.99-2.66-5.97-3.58-9.14-.82-2.82-2.2-5.33-3.17-8.08-.4-1.14-.91-2.91.11-3.85.63-.58.26-1.22 1.06-1.71.57-.35-.44-1.23.25-1.49Z" fill="#BF4E70"/><path d="M57.72 61.07h-.07c-.81-.05-.92-.86-1-1.4-.03-.19-.05-.37-.1-.48-.15-.39-.39-.59-.68-.84-.16-.14-.33-.28-.49-.46-.46-.5-.84-1.23-1.14-1.82l-.05-.1c-1.44-2.79-2.59-5.72-3.6-9.2-.46-1.58-1.12-3.1-1.75-4.57-.49-1.13-.99-2.29-1.41-3.49-.49-1.41-.92-3.17.2-4.19.22-.2.28-.41.35-.66.1-.34.22-.75.76-1.09.03-.06-.03-.25-.06-.35-.1-.29-.3-.9.35-1.14.08-.03.23-.12.37-.21.5-.3 1.18-.71 1.68-.38.35.24.32.58.3.79-.01.1-.02.18.01.24.08.22 0 .36-.05.42-.14.16-.34.14-.49.11-.04 1.06-.54 2.18-1.52 3.41-.48.6.02 1.97.35 2.88.09.25.17.48.23.67.24.79.65 1.56 1.04 2.29.3.56.6 1.13.84 1.72.32.78.53 1.58.73 2.35.2.76.41 1.56.72 2.3.23.56.51 1.1.78 1.62.37.71.76 1.45 1.03 2.27l.25.77c.33 1.03.64 2.01 1.06 2.97.12.28.21.58.3.87.11.38.22.74.39 1.04.13.23.32.44.52.67.27.31.55.63.73 1.03.08.18.45 1.1.08 1.63-.1.16-.3.33-.66.33Zm-8.47-29.2c-.04.01-.05.03-.05.03-.01.04.05.22.08.32.09.28.27.81-.21 1.1-.33.2-.39.42-.48.72-.08.28-.18.63-.53.96-.85.78-.42 2.38-.02 3.51.41 1.18.91 2.33 1.39 3.45.64 1.49 1.31 3.02 1.78 4.65 1.01 3.44 2.14 6.33 3.56 9.09l.05.1c.28.55.64 1.24 1.04 1.68.15.16.29.29.44.41.32.27.65.56.86 1.1.07.18.1.39.13.62.08.59.16.83.4.85.09.01.14-.01.16-.04.1-.14.03-.61-.14-1.01-.14-.31-.37-.58-.62-.86-.21-.24-.43-.49-.59-.77-.21-.37-.33-.78-.45-1.18-.08-.28-.16-.55-.27-.79-.44-.99-.77-2.03-1.09-3.04l-.24-.77c-.25-.77-.61-1.45-.98-2.17-.28-.53-.57-1.08-.81-1.67-.32-.79-.54-1.6-.75-2.38-.2-.75-.41-1.53-.71-2.28-.23-.56-.52-1.12-.81-1.66-.41-.76-.82-1.55-1.09-2.41-.06-.19-.14-.4-.22-.64-.4-1.11-.95-2.62-.25-3.5.96-1.2 1.42-2.26 1.39-3.24 0-.14.05-.27.15-.35.12-.1.25-.11.38-.09 0-.06.01-.11.01-.16.02-.18.01-.18-.02-.2-.16-.11-.74.24-.99.39-.2.08-.36.18-.5.23ZM47.25 31.27l-.03-.14c-.12-.62.01-1.71.4-3.43l.04-.17.16.08c.31.16 1.03.58.99.98-.04.31-.53 2.45-1.42 2.65l-.14.03Zm.6-3.33c-.32 1.43-.45 2.38-.38 2.96.6-.35 1.02-1.99 1.07-2.35 0-.11-.25-.36-.69-.61ZM48.84 31.13l.41-.51c.77-.95 1.82-3.88 2.54-5.99l1.16-2.64c.28-.66.72-1.26 1.25-1.73l.19.2c-.4.41-.73.89-.97 1.42l-1.15 2.63c-1.21 3.55-2.14 5.65-2.76 6.25-.03.03-.06.06-.1.08l-.57.29ZM57.84 32.73c-.38-.06-.63-.23-.79-.5-.41-.71-.05-1.89.13-2.37.17-.44.64-.93 1.1-.97.44-.05 1.37-.15 1.99 1.11l.04.08-.05.07c-.55.71-1.17 1.5-1.98 2.45 0 .01-.03.04-.05.05l-.04.03-.13.03c-.08.01-.15.02-.22.02Zm.8-3.59c-.13 0-.24.01-.34.02-.34.03-.73.44-.87.79-.13.34-.51 1.51-.14 2.13.12.2.3.32.56.37.04 0 .1-.01.15-.02l.04-.01c.79-.93 1.39-1.69 1.93-2.38-.41-.77-.92-.9-1.33-.9ZM61.22 22.69l-.2-.2c.08-.1.17-.17.25-.23.15-.14.28-.26.42-.37l.19.21c-.17.16-.34.31-.52.48l-.14.11ZM52.18 14.18l-.2-.2A7.77 7.77 0 0 1 54 12.46c1.14-.59 3.27-1.92 4.86-2.93a13.64 13.64 0 0 1 3.74-1.69c.47-.13.94-.25 1.41-.37 2.39-.61 4.87-1.24 6.91-3.27l.01-.01c.02-.02 2.48-1.86 4.79-3.93l.19.21c-2.37 2.18-5 4.15-5.03 4.17-2.08 2.08-4.6 2.72-7.04 3.33-.47.12-.94.24-1.4.37-1.28.36-2.51.92-3.66 1.66-1.62 1.04-3.76 2.35-4.88 2.94-.62.32-1.2.74-1.72 1.24Z" fill="#BF4E70"/><path d="m81.17 6.42-.06-.18c-.7-1.97-4.44-5.41-5.34-5.75l-.22-.08.18-.15c.04-.03.08-.07.11-.1.04-.04.08-.08.12-.11l.06-.05.08.03c.95.34 4.82 3.89 5.53 5.95l.04.11-.09.06c-.09.05-.16.11-.25.17l-.16.1ZM76.07.33c1.16.65 4.41 3.68 5.24 5.65.01-.01.02-.01.02-.02-.74-1.92-4.25-5.18-5.25-5.65 0 .01-.01.02-.01.02ZM57.9 32.74c-.03 0-.06 0-.09-.01-.35-.06-.61-.23-.77-.5-.41-.71-.05-1.89.13-2.37.17-.44.64-.93 1.1-.97.44-.05 1.37-.15 1.99 1.11l.04.08-.05.07c-.55.71-1.17 1.5-1.98 2.45 0 .01-.03.04-.05.05l-.11.09H57.9Zm.74-3.6c-.13 0-.24.01-.34.02-.34.03-.73.44-.87.79-.13.34-.51 1.51-.14 2.13.12.2.3.32.56.37H58l.04-.04h.02c.78-.93 1.39-1.69 1.92-2.37-.42-.77-.93-.9-1.34-.9Z" fill="#BF4E70"/><path d="m57.64 32.82.08-.08c-.71.02-1.33-.25-1.67-.75-.61-.89-.41-2.38.58-4.43.48-1 2.38-3.12 3.91-4.61.17-.17.34-.33.5-.46l.12-.11c.19-.17.36-.32.52-.48l.05-.05c.15-.14.28-.27.41-.39 1.65-1.59 1.81-2.24 1.8-2.45 0-.09-.04-.11-.04-.11-.01-.01-2.95-1.4-4.74-.97l-3.23 1.45c-.59.26-1.1.63-1.53 1.08a4.9 4.9 0 0 0-1.19 1.64l-1.16 2.63c-.72 2.12-1.78 5.05-2.58 6.05v.02l-.05.04c-.57.52-1 .81-1.34.91-.22.07-.4.05-.55-.04-.17-.1-.28-.3-.33-.59l-.02-.13.13-.03c.68-.15 1.16-2.02 1.21-2.41.01-.12-.3-.42-.84-.69l-.1-.05.02-.11c.23-.99.52-2.09.8-3.15.19-.71.37-1.41.54-2.06l1.18-5.07c.3-1.29.94-2.48 1.84-3.43.54-.53 1.14-.97 1.79-1.3 1.12-.58 3.25-1.89 4.86-2.93 1.17-.75 2.43-1.32 3.74-1.69.47-.13.94-.25 1.41-.37 2.4-.61 4.88-1.24 6.93-3.27.04-.03 2.66-2 5.02-4.16l.06-.06.08.03c.95.36 4.73 3.81 5.49 5.89.02.03.04.07.04.11v.07l-.06.04c-1.72 1.16-3.4 2.64-4.72 4.17-.35.4-.69.75-1.01 1.09-.98 1.02-1.83 1.9-2.41 3.7-.07.22-.14.44-.21.65-.51 1.61-.94 3-2.27 4.21-.53.49-1.61 1.31-2.76 2.19-1.3.99-2.64 2.01-3.35 2.68-1.19 1.22-1.91 2.19-2.81 3.42-.79 1.06-1.68 2.27-3.11 3.96a.72.72 0 0 1-.19.14l.44.07-.87.07-.41.12Zm1-3.68c-.13 0-.24.01-.34.02-.34.03-.73.44-.87.79-.13.34-.51 1.51-.14 2.13.12.2.3.32.56.37l.14.02.05-.05c.79-.93 1.39-1.7 1.93-2.39-.41-.76-.92-.89-1.33-.89Zm1.29-11.58c1.82 0 4 1.04 4.11 1.09.03.02.15.09.18.29.07.53-.56 1.45-1.88 2.71-.13.13-.27.26-.42.4l-.05.05c-.16.16-.34.31-.52.48l-.12.11c-.15.13-.32.28-.49.45-1.54 1.49-3.4 3.59-3.85 4.53-1.18 2.43-.98 3.6-.6 4.15.24.35.59.51.9.58a.832.832 0 0 1-.13-.18c-.41-.71-.05-1.89.13-2.37.17-.44.64-.93 1.1-.97.44-.05 1.37-.15 1.99 1.11l.02.03c.49-.64.91-1.2 1.3-1.73.92-1.24 1.64-2.22 2.84-3.46.73-.68 2.08-1.7 3.38-2.7 1.14-.87 2.22-1.69 2.74-2.17 1.27-1.16 1.68-2.45 2.2-4.09.07-.21.14-.43.21-.66.6-1.87 1.47-2.77 2.47-3.81.32-.33.66-.68 1-1.08 1.32-1.52 2.98-2.99 4.68-4.15-.73-1.93-4.23-5.18-5.24-5.66-2.36 2.15-4.94 4.09-4.96 4.11-2.08 2.08-4.6 2.72-7.04 3.33-.47.12-.94.24-1.4.37-1.28.36-2.51.92-3.66 1.66-1.62 1.04-3.76 2.35-4.88 2.94-.62.32-1.2.74-1.72 1.25a7.37 7.37 0 0 0-1.77 3.3l-1.18 5.07c-.16.66-.35 1.36-.54 2.07-.27 1.02-.55 2.07-.77 3.03.34.19.93.57.89.93-.04.3-.48 2.24-1.29 2.61.04.14.1.24.18.29.08.05.19.05.32.01.29-.08.69-.35 1.21-.83.01-.02.03-.04.04-.05.76-.94 1.81-3.86 2.53-5.98L53 21.98c.28-.66.71-1.25 1.25-1.73.44-.47.98-.86 1.61-1.14l3.26-1.46c.22-.06.51-.09.81-.09Z" fill="#BF4E70"/><path d="M47.61 32.02c-.12 0-.23-.03-.32-.09-.2-.14-.31-.41-.34-.83-.04-.61.08-1.55.37-2.87.08-.37.15-.62.15-.62.2-.82.43-1.71.66-2.56.21-.8.42-1.59.6-2.33l1.19-5.07a7.471 7.471 0 0 1 2.07-3.66l.2.19c-.87.92-1.48 2.06-1.77 3.3l-1.18 5.07c-.16.66-.35 1.36-.54 2.07-.27 1.02-.55 2.07-.77 3.03.34.19.93.57.89.93-.04.3-.48 2.24-1.29 2.61.04.14.1.24.18.29.08.05.19.05.32.01.3-.08.7-.36 1.23-.85l.19.2-.05.05c-.03.04-.07.07-.1.1-.57.54-1.05.88-1.43.99-.1.03-.18.04-.26.04Zm-.36-.76c.04.22.1.37.2.44.04.03.09.04.14.05-.02-.01-.03-.02-.05-.03-.14-.09-.23-.24-.29-.46Zm.44-3.41c-.03.11-.06.25-.1.43-.27 1.23-.39 2.12-.37 2.7l.1-.02c.68-.15 1.16-2.02 1.21-2.41.02-.12-.3-.42-.84-.7ZM62.34 21.65l-.19-.2c1.44-1.43 1.57-2.04 1.56-2.23 0-.09-.04-.12-.04-.12-.01 0-2.93-1.39-4.73-.96l-3.24 1.45c-.49.22-.92.51-1.3.87l-.2-.2c.45-.48.99-.87 1.62-1.15l3.26-1.46c1.91-.46 4.84.93 4.97.99.03.02.15.09.18.29.06.55-.57 1.46-1.89 2.72Zm.38-3.23c.62.22 1.04.43 1.09.45.02.01.09.06.14.16v-.01c0-.09-.04-.11-.04-.11-.01-.02-.5-.25-1.19-.49Z" fill="#BF4E70"/><path d="M47.24 31.25c-.06 0-.12-.01-.18-.03-.04-.01-.08-.02-.1-.04-.12-.06-.32-.15.36-2.97.08-.37.15-.62.15-.62l.04-.16.15.08s.07.04.17.1c.3.16 1.02.57.98.97-.04.31-.53 2.45-1.42 2.65-.06.02-.11.02-.15.02Zm-.13-.31.02.01c.06.02.12.02.19.01.68-.15 1.16-2.02 1.21-2.41.01-.12-.31-.42-.84-.7-.03.11-.06.25-.1.43-.38 1.56-.51 2.45-.48 2.66ZM48.93 35.2c-.19 0-.36-.05-.52-.14-.61-.39-.61-1.38.02-2.42.17-.28 1.08-1.57 1.81-2.61l.05-.08c1.94-3.12 4.03-6.43 4.36-6.88.79-1.07 1.81-1.51 2.47-1.07.66.44.65 1.55-.03 2.69-.28.48-2.52 3.66-4.63 6.64h.01l-.05.08c-.68 1.06-1.53 2.39-1.73 2.65-.54.73-1.2 1.14-1.76 1.14Zm-.43-.28c.53.33 1.4-.07 2.06-.95.15-.2.74-1.11 1.67-2.57l.04-.08c2.13-2.99 4.4-6.22 4.68-6.7.63-1.07.67-2.09.08-2.48-.58-.39-1.51.04-2.25 1.03-.33.45-2.45 3.81-4.4 6.95l-.09.14-.01-.02c-1 1.4-1.59 2.26-1.72 2.47-.57.97-.59 1.88-.06 2.21Z" fill="#BF4E70"/><path d="M48.93 35.2c-.19 0-.36-.05-.52-.14a.93.93 0 0 1-.41-.6l-.12-.49.26.43c.06.1.14.18.24.24.53.33 1.4-.07 2.06-.95.04-.05 5.83-8.5 6.16-9.06.63-1.07.67-2.09.08-2.48a.874.874 0 0 0-.35-.13l-.51-.07.51-.09c.3-.05.57 0 .79.15.66.44.65 1.55-.03 2.69-.29.48-2.53 3.68-4.64 6.65l-.03.07c-.68 1.06-1.53 2.39-1.73 2.65-.54.72-1.2 1.13-1.76 1.13Zm-.43-.28c.53.33 1.4-.07 2.06-.95.15-.2.74-1.11 1.67-2.57l.04-.08c2.06-2.89 4.4-6.22 4.68-6.7.63-1.07.67-2.09.08-2.48a.88.88 0 0 0-.24-.11c.64.45.62 1.54-.06 2.68-.33.56-6.13 9.02-6.17 9.07-.71.94-1.61 1.35-2.22 1.02.06.05.11.09.16.12Z" fill="#BF4E70"/></svg>